<?xml version="1.0" encoding="utf-8"?>
<svg xmlns="http://www.w3.org/2000/svg" xmlns:xlink="http://www.w3.org/1999/xlink" width="672" height="480" viewBox="0 0 2688 1920">
<defs>
  <clipPath id="clip070">
    <rect x="0" y="0" width="2688" height="1920"/>
  </clipPath>
</defs>
<path clip-path="url(#clip070)" d="M0 1920 L2688 1920 L2688 -4.26326e-14 L0 -4.26326e-14  Z" fill="#ffffff" fill-rule="evenodd" fill-opacity="1"/>
<defs>
  <clipPath id="clip071">
    <rect x="225" y="127" width="2416" height="1607"/>
  </clipPath>
</defs>
<path clip-path="url(#clip070)" d="M225.654 1734.12 L2640.76 1734.12 L2640.76 127.792 L225.654 127.792  Z" fill="#ffffff" fill-rule="evenodd" fill-opacity="1"/>
<polyline clip-path="url(#clip071)" style="stroke:#000000; stroke-linecap:round; stroke-linejoin:round; stroke-width:2; stroke-opacity:0.3; fill:none" points="294.006,1734.12 294.006,127.792 "/>
<polyline clip-path="url(#clip071)" style="stroke:#000000; stroke-linecap:round; stroke-linejoin:round; stroke-width:2; stroke-opacity:0.3; fill:none" points="863.606,1734.12 863.606,127.792 "/>
<polyline clip-path="url(#clip071)" style="stroke:#000000; stroke-linecap:round; stroke-linejoin:round; stroke-width:2; stroke-opacity:0.3; fill:none" points="1433.21,1734.12 1433.21,127.792 "/>
<polyline clip-path="url(#clip071)" style="stroke:#000000; stroke-linecap:round; stroke-linejoin:round; stroke-width:2; stroke-opacity:0.3; fill:none" points="2002.8,1734.12 2002.8,127.792 "/>
<polyline clip-path="url(#clip071)" style="stroke:#000000; stroke-linecap:round; stroke-linejoin:round; stroke-width:2; stroke-opacity:0.3; fill:none" points="2572.4,1734.12 2572.4,127.792 "/>
<polyline clip-path="url(#clip071)" style="stroke:#000000; stroke-linecap:round; stroke-linejoin:round; stroke-width:2; stroke-opacity:0.3; fill:none" points="225.654,1688.65 2640.76,1688.65 "/>
<polyline clip-path="url(#clip071)" style="stroke:#000000; stroke-linecap:round; stroke-linejoin:round; stroke-width:2; stroke-opacity:0.3; fill:none" points="225.654,1234.03 2640.76,1234.03 "/>
<polyline clip-path="url(#clip071)" style="stroke:#000000; stroke-linecap:round; stroke-linejoin:round; stroke-width:2; stroke-opacity:0.3; fill:none" points="225.654,779.414 2640.76,779.414 "/>
<polyline clip-path="url(#clip071)" style="stroke:#000000; stroke-linecap:round; stroke-linejoin:round; stroke-width:2; stroke-opacity:0.3; fill:none" points="225.654,324.794 2640.76,324.794 "/>
<polyline clip-path="url(#clip070)" style="stroke:#000000; stroke-linecap:round; stroke-linejoin:round; stroke-width:4; stroke-opacity:1; fill:none" points="225.654,1734.12 2640.76,1734.12 "/>
<polyline clip-path="url(#clip070)" style="stroke:#000000; stroke-linecap:round; stroke-linejoin:round; stroke-width:4; stroke-opacity:1; fill:none" points="294.006,1734.12 294.006,1715.22 "/>
<polyline clip-path="url(#clip070)" style="stroke:#000000; stroke-linecap:round; stroke-linejoin:round; stroke-width:4; stroke-opacity:1; fill:none" points="863.606,1734.12 863.606,1715.22 "/>
<polyline clip-path="url(#clip070)" style="stroke:#000000; stroke-linecap:round; stroke-linejoin:round; stroke-width:4; stroke-opacity:1; fill:none" points="1433.21,1734.12 1433.21,1715.22 "/>
<polyline clip-path="url(#clip070)" style="stroke:#000000; stroke-linecap:round; stroke-linejoin:round; stroke-width:4; stroke-opacity:1; fill:none" points="2002.8,1734.12 2002.8,1715.22 "/>
<polyline clip-path="url(#clip070)" style="stroke:#000000; stroke-linecap:round; stroke-linejoin:round; stroke-width:4; stroke-opacity:1; fill:none" points="2572.4,1734.12 2572.4,1715.22 "/>
<path clip-path="url(#clip070)" d="M256.31 1767.34 Q252.699 1767.34 250.87 1770.9 Q249.064 1774.45 249.064 1781.58 Q249.064 1788.68 250.87 1792.25 Q252.699 1795.79 256.31 1795.79 Q259.944 1795.79 261.75 1792.25 Q263.578 1788.68 263.578 1781.58 Q263.578 1774.45 261.75 1770.9 Q259.944 1767.34 256.31 1767.34 M256.31 1763.64 Q262.12 1763.64 265.176 1768.24 Q268.254 1772.83 268.254 1781.58 Q268.254 1790.3 265.176 1794.91 Q262.12 1799.49 256.31 1799.49 Q250.5 1799.49 247.421 1794.91 Q244.365 1790.3 244.365 1781.58 Q244.365 1772.83 247.421 1768.24 Q250.5 1763.64 256.31 1763.64 Z" fill="#000000" fill-rule="nonzero" fill-opacity="1" /><path clip-path="url(#clip070)" d="M276.472 1792.94 L281.356 1792.94 L281.356 1798.82 L276.472 1798.82 L276.472 1792.94 Z" fill="#000000" fill-rule="nonzero" fill-opacity="1" /><path clip-path="url(#clip070)" d="M301.541 1767.34 Q297.93 1767.34 296.101 1770.9 Q294.296 1774.45 294.296 1781.58 Q294.296 1788.68 296.101 1792.25 Q297.93 1795.79 301.541 1795.79 Q305.175 1795.79 306.981 1792.25 Q308.81 1788.68 308.81 1781.58 Q308.81 1774.45 306.981 1770.9 Q305.175 1767.34 301.541 1767.34 M301.541 1763.64 Q307.351 1763.64 310.407 1768.24 Q313.485 1772.83 313.485 1781.58 Q313.485 1790.3 310.407 1794.91 Q307.351 1799.49 301.541 1799.49 Q295.731 1799.49 292.652 1794.91 Q289.597 1790.3 289.597 1781.58 Q289.597 1772.83 292.652 1768.24 Q295.731 1763.64 301.541 1763.64 Z" fill="#000000" fill-rule="nonzero" fill-opacity="1" /><path clip-path="url(#clip070)" d="M331.703 1767.34 Q328.092 1767.34 326.263 1770.9 Q324.458 1774.45 324.458 1781.58 Q324.458 1788.68 326.263 1792.25 Q328.092 1795.79 331.703 1795.79 Q335.337 1795.79 337.143 1792.25 Q338.971 1788.68 338.971 1781.58 Q338.971 1774.45 337.143 1770.9 Q335.337 1767.34 331.703 1767.34 M331.703 1763.64 Q337.513 1763.64 340.569 1768.24 Q343.647 1772.83 343.647 1781.58 Q343.647 1790.3 340.569 1794.91 Q337.513 1799.49 331.703 1799.49 Q325.893 1799.49 322.814 1794.91 Q319.759 1790.3 319.759 1781.58 Q319.759 1772.83 322.814 1768.24 Q325.893 1763.64 331.703 1763.64 Z" fill="#000000" fill-rule="nonzero" fill-opacity="1" /><path clip-path="url(#clip070)" d="M826.407 1767.34 Q822.796 1767.34 820.967 1770.9 Q819.162 1774.45 819.162 1781.58 Q819.162 1788.68 820.967 1792.25 Q822.796 1795.79 826.407 1795.79 Q830.041 1795.79 831.847 1792.25 Q833.675 1788.68 833.675 1781.58 Q833.675 1774.45 831.847 1770.9 Q830.041 1767.34 826.407 1767.34 M826.407 1763.64 Q832.217 1763.64 835.273 1768.24 Q838.351 1772.83 838.351 1781.58 Q838.351 1790.3 835.273 1794.91 Q832.217 1799.49 826.407 1799.49 Q820.597 1799.49 817.518 1794.91 Q814.463 1790.3 814.463 1781.58 Q814.463 1772.83 817.518 1768.24 Q820.597 1763.64 826.407 1763.64 Z" fill="#000000" fill-rule="nonzero" fill-opacity="1" /><path clip-path="url(#clip070)" d="M846.569 1792.94 L851.453 1792.94 L851.453 1798.82 L846.569 1798.82 L846.569 1792.94 Z" fill="#000000" fill-rule="nonzero" fill-opacity="1" /><path clip-path="url(#clip070)" d="M865.666 1794.89 L881.985 1794.89 L881.985 1798.82 L860.041 1798.82 L860.041 1794.89 Q862.703 1792.13 867.286 1787.5 Q871.893 1782.85 873.073 1781.51 Q875.319 1778.98 876.198 1777.25 Q877.101 1775.49 877.101 1773.8 Q877.101 1771.04 875.157 1769.31 Q873.235 1767.57 870.134 1767.57 Q867.934 1767.57 865.481 1768.34 Q863.05 1769.1 860.272 1770.65 L860.272 1765.93 Q863.097 1764.79 865.55 1764.21 Q868.004 1763.64 870.041 1763.64 Q875.411 1763.64 878.606 1766.32 Q881.8 1769.01 881.8 1773.5 Q881.8 1775.63 880.99 1777.55 Q880.203 1779.45 878.096 1782.04 Q877.518 1782.71 874.416 1785.93 Q871.314 1789.12 865.666 1794.89 Z" fill="#000000" fill-rule="nonzero" fill-opacity="1" /><path clip-path="url(#clip070)" d="M891.846 1764.26 L910.203 1764.26 L910.203 1768.2 L896.129 1768.2 L896.129 1776.67 Q897.147 1776.32 898.166 1776.16 Q899.184 1775.97 900.203 1775.97 Q905.99 1775.97 909.369 1779.15 Q912.749 1782.32 912.749 1787.73 Q912.749 1793.31 909.277 1796.41 Q905.805 1799.49 899.485 1799.49 Q897.309 1799.49 895.041 1799.12 Q892.795 1798.75 890.388 1798.01 L890.388 1793.31 Q892.471 1794.45 894.694 1795 Q896.916 1795.56 899.393 1795.56 Q903.397 1795.56 905.735 1793.45 Q908.073 1791.34 908.073 1787.73 Q908.073 1784.12 905.735 1782.02 Q903.397 1779.91 899.393 1779.91 Q897.518 1779.91 895.643 1780.33 Q893.791 1780.74 891.846 1781.62 L891.846 1764.26 Z" fill="#000000" fill-rule="nonzero" fill-opacity="1" /><path clip-path="url(#clip070)" d="M1395.51 1767.34 Q1391.9 1767.34 1390.07 1770.9 Q1388.26 1774.45 1388.26 1781.58 Q1388.26 1788.68 1390.07 1792.25 Q1391.9 1795.79 1395.51 1795.79 Q1399.14 1795.79 1400.95 1792.25 Q1402.78 1788.68 1402.78 1781.58 Q1402.78 1774.45 1400.95 1770.9 Q1399.14 1767.34 1395.51 1767.34 M1395.51 1763.64 Q1401.32 1763.64 1404.37 1768.24 Q1407.45 1772.83 1407.45 1781.58 Q1407.45 1790.3 1404.37 1794.91 Q1401.32 1799.49 1395.51 1799.49 Q1389.7 1799.49 1386.62 1794.91 Q1383.56 1790.3 1383.56 1781.58 Q1383.56 1772.83 1386.62 1768.24 Q1389.7 1763.64 1395.51 1763.64 Z" fill="#000000" fill-rule="nonzero" fill-opacity="1" /><path clip-path="url(#clip070)" d="M1415.67 1792.94 L1420.55 1792.94 L1420.55 1798.82 L1415.67 1798.82 L1415.67 1792.94 Z" fill="#000000" fill-rule="nonzero" fill-opacity="1" /><path clip-path="url(#clip070)" d="M1430.79 1764.26 L1449.14 1764.26 L1449.14 1768.2 L1435.07 1768.2 L1435.07 1776.67 Q1436.09 1776.32 1437.11 1776.16 Q1438.12 1775.97 1439.14 1775.97 Q1444.93 1775.97 1448.31 1779.15 Q1451.69 1782.32 1451.69 1787.73 Q1451.69 1793.31 1448.22 1796.41 Q1444.74 1799.49 1438.43 1799.49 Q1436.25 1799.49 1433.98 1799.12 Q1431.74 1798.75 1429.33 1798.01 L1429.33 1793.31 Q1431.41 1794.45 1433.63 1795 Q1435.86 1795.56 1438.33 1795.56 Q1442.34 1795.56 1444.68 1793.45 Q1447.01 1791.34 1447.01 1787.73 Q1447.01 1784.12 1444.68 1782.02 Q1442.34 1779.91 1438.33 1779.91 Q1436.46 1779.91 1434.58 1780.33 Q1432.73 1780.74 1430.79 1781.62 L1430.79 1764.26 Z" fill="#000000" fill-rule="nonzero" fill-opacity="1" /><path clip-path="url(#clip070)" d="M1470.9 1767.34 Q1467.29 1767.34 1465.46 1770.9 Q1463.66 1774.45 1463.66 1781.58 Q1463.66 1788.68 1465.46 1792.25 Q1467.29 1795.79 1470.9 1795.79 Q1474.54 1795.79 1476.34 1792.25 Q1478.17 1788.68 1478.17 1781.58 Q1478.17 1774.45 1476.34 1770.9 Q1474.54 1767.34 1470.9 1767.34 M1470.9 1763.64 Q1476.71 1763.64 1479.77 1768.24 Q1482.85 1772.83 1482.85 1781.58 Q1482.85 1790.3 1479.77 1794.91 Q1476.71 1799.49 1470.9 1799.49 Q1465.09 1799.49 1462.01 1794.91 Q1458.96 1790.3 1458.96 1781.58 Q1458.96 1772.83 1462.01 1768.24 Q1465.09 1763.64 1470.9 1763.64 Z" fill="#000000" fill-rule="nonzero" fill-opacity="1" /><path clip-path="url(#clip070)" d="M1965.61 1767.34 Q1961.99 1767.34 1960.17 1770.9 Q1958.36 1774.45 1958.36 1781.58 Q1958.36 1788.68 1960.17 1792.25 Q1961.99 1795.79 1965.61 1795.79 Q1969.24 1795.79 1971.05 1792.25 Q1972.87 1788.68 1972.87 1781.58 Q1972.87 1774.45 1971.05 1770.9 Q1969.24 1767.34 1965.61 1767.34 M1965.61 1763.64 Q1971.42 1763.64 1974.47 1768.24 Q1977.55 1772.83 1977.55 1781.58 Q1977.55 1790.3 1974.47 1794.91 Q1971.42 1799.49 1965.61 1799.49 Q1959.8 1799.49 1956.72 1794.91 Q1953.66 1790.3 1953.66 1781.58 Q1953.66 1772.83 1956.72 1768.24 Q1959.8 1763.64 1965.61 1763.64 Z" fill="#000000" fill-rule="nonzero" fill-opacity="1" /><path clip-path="url(#clip070)" d="M1985.77 1792.94 L1990.65 1792.94 L1990.65 1798.82 L1985.77 1798.82 L1985.77 1792.94 Z" fill="#000000" fill-rule="nonzero" fill-opacity="1" /><path clip-path="url(#clip070)" d="M1999.66 1764.26 L2021.88 1764.26 L2021.88 1766.25 L2009.33 1798.82 L2004.45 1798.82 L2016.25 1768.2 L1999.66 1768.2 L1999.66 1764.26 Z" fill="#000000" fill-rule="nonzero" fill-opacity="1" /><path clip-path="url(#clip070)" d="M2031.05 1764.26 L2049.4 1764.26 L2049.4 1768.2 L2035.33 1768.2 L2035.33 1776.67 Q2036.35 1776.32 2037.36 1776.16 Q2038.38 1775.97 2039.4 1775.97 Q2045.19 1775.97 2048.57 1779.15 Q2051.95 1782.32 2051.95 1787.73 Q2051.95 1793.31 2048.48 1796.41 Q2045 1799.49 2038.68 1799.49 Q2036.51 1799.49 2034.24 1799.12 Q2031.99 1798.75 2029.59 1798.01 L2029.59 1793.31 Q2031.67 1794.45 2033.89 1795 Q2036.11 1795.56 2038.59 1795.56 Q2042.6 1795.56 2044.93 1793.45 Q2047.27 1791.34 2047.27 1787.73 Q2047.27 1784.12 2044.93 1782.02 Q2042.6 1779.91 2038.59 1779.91 Q2036.72 1779.91 2034.84 1780.33 Q2032.99 1780.74 2031.05 1781.62 L2031.05 1764.26 Z" fill="#000000" fill-rule="nonzero" fill-opacity="1" /><path clip-path="url(#clip070)" d="M2524.48 1794.89 L2532.11 1794.89 L2532.11 1768.52 L2523.8 1770.19 L2523.8 1765.93 L2532.07 1764.26 L2536.74 1764.26 L2536.74 1794.89 L2544.38 1794.89 L2544.38 1798.82 L2524.48 1798.82 L2524.48 1794.89 Z" fill="#000000" fill-rule="nonzero" fill-opacity="1" /><path clip-path="url(#clip070)" d="M2553.83 1792.94 L2558.71 1792.94 L2558.71 1798.82 L2553.83 1798.82 L2553.83 1792.94 Z" fill="#000000" fill-rule="nonzero" fill-opacity="1" /><path clip-path="url(#clip070)" d="M2578.9 1767.34 Q2575.29 1767.34 2573.46 1770.9 Q2571.65 1774.45 2571.65 1781.58 Q2571.65 1788.68 2573.46 1792.25 Q2575.29 1795.79 2578.9 1795.79 Q2582.53 1795.79 2584.34 1792.25 Q2586.17 1788.68 2586.17 1781.58 Q2586.17 1774.45 2584.34 1770.9 Q2582.53 1767.34 2578.9 1767.34 M2578.9 1763.64 Q2584.71 1763.64 2587.76 1768.24 Q2590.84 1772.83 2590.84 1781.58 Q2590.84 1790.3 2587.76 1794.91 Q2584.71 1799.49 2578.9 1799.49 Q2573.09 1799.49 2570.01 1794.91 Q2566.95 1790.3 2566.95 1781.58 Q2566.95 1772.83 2570.01 1768.24 Q2573.09 1763.64 2578.9 1763.64 Z" fill="#000000" fill-rule="nonzero" fill-opacity="1" /><path clip-path="url(#clip070)" d="M2609.06 1767.34 Q2605.45 1767.34 2603.62 1770.9 Q2601.81 1774.45 2601.81 1781.58 Q2601.81 1788.68 2603.62 1792.25 Q2605.45 1795.79 2609.06 1795.79 Q2612.69 1795.79 2614.5 1792.25 Q2616.33 1788.68 2616.33 1781.58 Q2616.33 1774.45 2614.5 1770.9 Q2612.69 1767.34 2609.06 1767.34 M2609.06 1763.64 Q2614.87 1763.64 2617.92 1768.24 Q2621 1772.83 2621 1781.58 Q2621 1790.3 2617.92 1794.91 Q2614.87 1799.49 2609.06 1799.49 Q2603.25 1799.49 2600.17 1794.91 Q2597.11 1790.3 2597.11 1781.58 Q2597.11 1772.83 2600.17 1768.24 Q2603.25 1763.64 2609.06 1763.64 Z" fill="#000000" fill-rule="nonzero" fill-opacity="1" /><path clip-path="url(#clip070)" d="M1039.09 1825.16 L1039.09 1831.43 Q1035.43 1829.68 1032.18 1828.82 Q1028.93 1827.96 1025.91 1827.96 Q1020.66 1827.96 1017.79 1829.99 Q1014.96 1832.03 1014.96 1835.79 Q1014.96 1838.94 1016.84 1840.56 Q1018.75 1842.15 1024.03 1843.14 L1027.92 1843.93 Q1035.11 1845.3 1038.51 1848.77 Q1041.95 1852.21 1041.95 1858 Q1041.95 1864.91 1037.31 1868.47 Q1032.69 1872.04 1023.75 1872.04 Q1020.37 1872.04 1016.55 1871.28 Q1012.77 1870.51 1008.69 1869.02 L1008.69 1862.4 Q1012.61 1864.59 1016.36 1865.71 Q1020.12 1866.82 1023.75 1866.82 Q1029.25 1866.82 1032.24 1864.66 Q1035.24 1862.49 1035.24 1858.48 Q1035.24 1854.98 1033.07 1853.01 Q1030.94 1851.03 1026.04 1850.05 L1022.12 1849.28 Q1014.93 1847.85 1011.71 1844.79 Q1008.5 1841.74 1008.5 1836.3 Q1008.5 1829.99 1012.92 1826.37 Q1017.38 1822.74 1025.18 1822.74 Q1028.52 1822.74 1031.99 1823.34 Q1035.46 1823.95 1039.09 1825.16 Z" fill="#000000" fill-rule="nonzero" fill-opacity="1" /><path clip-path="url(#clip070)" d="M1057.39 1865.77 L1057.39 1884.68 L1051.5 1884.68 L1051.5 1835.47 L1057.39 1835.47 L1057.39 1840.88 Q1059.23 1837.7 1062.04 1836.17 Q1064.87 1834.61 1068.78 1834.61 Q1075.28 1834.61 1079.32 1839.77 Q1083.39 1844.92 1083.39 1853.32 Q1083.39 1861.73 1079.32 1866.88 Q1075.28 1872.04 1068.78 1872.04 Q1064.87 1872.04 1062.04 1870.51 Q1059.23 1868.95 1057.39 1865.77 M1077.31 1853.32 Q1077.31 1846.86 1074.64 1843.2 Q1072 1839.51 1067.35 1839.51 Q1062.7 1839.51 1060.03 1843.2 Q1057.39 1846.86 1057.39 1853.32 Q1057.39 1859.79 1060.03 1863.48 Q1062.7 1867.14 1067.35 1867.14 Q1072 1867.14 1074.64 1863.48 Q1077.31 1859.79 1077.31 1853.32 Z" fill="#000000" fill-rule="nonzero" fill-opacity="1" /><path clip-path="url(#clip070)" d="M1109.3 1853.2 Q1102.2 1853.2 1099.47 1854.82 Q1096.73 1856.44 1096.73 1860.36 Q1096.73 1863.48 1098.77 1865.32 Q1100.83 1867.14 1104.37 1867.14 Q1109.24 1867.14 1112.17 1863.7 Q1115.13 1860.23 1115.13 1854.5 L1115.13 1853.2 L1109.3 1853.2 M1120.98 1850.78 L1120.98 1871.12 L1115.13 1871.12 L1115.13 1865.71 Q1113.12 1868.95 1110.13 1870.51 Q1107.14 1872.04 1102.81 1872.04 Q1097.33 1872.04 1094.09 1868.98 Q1090.87 1865.9 1090.87 1860.74 Q1090.87 1854.72 1094.88 1851.67 Q1098.93 1848.61 1106.91 1848.61 L1115.13 1848.61 L1115.13 1848.04 Q1115.13 1844 1112.45 1841.8 Q1109.81 1839.57 1105 1839.57 Q1101.95 1839.57 1099.05 1840.31 Q1096.16 1841.04 1093.48 1842.5 L1093.48 1837.09 Q1096.7 1835.85 1099.72 1835.25 Q1102.74 1834.61 1105.61 1834.61 Q1113.34 1834.61 1117.16 1838.62 Q1120.98 1842.63 1120.98 1850.78 Z" fill="#000000" fill-rule="nonzero" fill-opacity="1" /><path clip-path="url(#clip070)" d="M1162.68 1849.6 L1162.68 1871.12 L1156.82 1871.12 L1156.82 1849.79 Q1156.82 1844.73 1154.85 1842.22 Q1152.87 1839.7 1148.93 1839.7 Q1144.19 1839.7 1141.45 1842.73 Q1138.71 1845.75 1138.71 1850.97 L1138.71 1871.12 L1132.82 1871.12 L1132.82 1835.47 L1138.71 1835.47 L1138.71 1841.01 Q1140.81 1837.79 1143.64 1836.2 Q1146.51 1834.61 1150.23 1834.61 Q1156.38 1834.61 1159.53 1838.43 Q1162.68 1842.22 1162.68 1849.6 Z" fill="#000000" fill-rule="nonzero" fill-opacity="1" /><path clip-path="url(#clip070)" d="M1170.95 1835.47 L1176.81 1835.47 L1184.13 1863.29 L1191.42 1835.47 L1198.33 1835.47 L1205.65 1863.29 L1212.93 1835.47 L1218.79 1835.47 L1209.47 1871.12 L1202.56 1871.12 L1194.89 1841.9 L1187.19 1871.12 L1180.28 1871.12 L1170.95 1835.47 Z" fill="#000000" fill-rule="nonzero" fill-opacity="1" /><path clip-path="url(#clip070)" d="M1227.67 1835.47 L1233.53 1835.47 L1233.53 1871.12 L1227.67 1871.12 L1227.67 1835.47 M1227.67 1821.59 L1233.53 1821.59 L1233.53 1829.01 L1227.67 1829.01 L1227.67 1821.59 Z" fill="#000000" fill-rule="nonzero" fill-opacity="1" /><path clip-path="url(#clip070)" d="M1268.51 1836.52 L1268.51 1842.06 Q1266.02 1840.78 1263.35 1840.15 Q1260.68 1839.51 1257.81 1839.51 Q1253.45 1839.51 1251.26 1840.85 Q1249.09 1842.18 1249.09 1844.86 Q1249.09 1846.89 1250.65 1848.07 Q1252.21 1849.22 1256.92 1850.27 L1258.93 1850.71 Q1265.17 1852.05 1267.78 1854.5 Q1270.42 1856.92 1270.42 1861.28 Q1270.42 1866.25 1266.47 1869.14 Q1262.56 1872.04 1255.68 1872.04 Q1252.82 1872.04 1249.7 1871.47 Q1246.61 1870.93 1243.17 1869.81 L1243.17 1863.76 Q1246.42 1865.45 1249.57 1866.31 Q1252.72 1867.14 1255.81 1867.14 Q1259.95 1867.14 1262.17 1865.74 Q1264.4 1864.31 1264.4 1861.73 Q1264.4 1859.34 1262.78 1858.07 Q1261.19 1856.79 1255.74 1855.62 L1253.71 1855.14 Q1248.26 1853.99 1245.85 1851.64 Q1243.43 1849.25 1243.43 1845.11 Q1243.43 1840.08 1246.99 1837.35 Q1250.56 1834.61 1257.11 1834.61 Q1260.36 1834.61 1263.22 1835.09 Q1266.09 1835.56 1268.51 1836.52 Z" fill="#000000" fill-rule="nonzero" fill-opacity="1" /><path clip-path="url(#clip070)" d="M1310.23 1851.83 L1310.23 1854.69 L1283.31 1854.69 Q1283.69 1860.74 1286.94 1863.92 Q1290.21 1867.07 1296.04 1867.07 Q1299.41 1867.07 1302.56 1866.25 Q1305.75 1865.42 1308.87 1863.76 L1308.87 1869.3 Q1305.72 1870.64 1302.4 1871.34 Q1299.09 1872.04 1295.69 1872.04 Q1287.16 1872.04 1282.16 1867.07 Q1277.2 1862.11 1277.2 1853.64 Q1277.2 1844.89 1281.91 1839.77 Q1286.65 1834.61 1294.67 1834.61 Q1301.86 1834.61 1306.03 1839.26 Q1310.23 1843.87 1310.23 1851.83 M1304.38 1850.11 Q1304.31 1845.3 1301.67 1842.44 Q1299.06 1839.57 1294.73 1839.57 Q1289.83 1839.57 1286.87 1842.34 Q1283.94 1845.11 1283.5 1850.14 L1304.38 1850.11 Z" fill="#000000" fill-rule="nonzero" fill-opacity="1" /><path clip-path="url(#clip070)" d="M1340.57 1821.59 L1346.42 1821.59 L1346.42 1871.12 L1340.57 1871.12 L1340.57 1821.59 Z" fill="#000000" fill-rule="nonzero" fill-opacity="1" /><path clip-path="url(#clip070)" d="M1372.49 1839.57 Q1367.78 1839.57 1365.04 1843.27 Q1362.31 1846.93 1362.31 1853.32 Q1362.31 1859.72 1365.01 1863.41 Q1367.75 1867.07 1372.49 1867.07 Q1377.17 1867.07 1379.91 1863.38 Q1382.64 1859.69 1382.64 1853.32 Q1382.64 1846.99 1379.91 1843.3 Q1377.17 1839.57 1372.49 1839.57 M1372.49 1834.61 Q1380.13 1834.61 1384.49 1839.57 Q1388.85 1844.54 1388.85 1853.32 Q1388.85 1862.08 1384.49 1867.07 Q1380.13 1872.04 1372.49 1872.04 Q1364.82 1872.04 1360.46 1867.07 Q1356.13 1862.08 1356.13 1853.32 Q1356.13 1844.54 1360.46 1839.57 Q1364.82 1834.61 1372.49 1834.61 Z" fill="#000000" fill-rule="nonzero" fill-opacity="1" /><path clip-path="url(#clip070)" d="M1424.21 1836.84 L1424.21 1842.31 Q1421.73 1840.94 1419.22 1840.27 Q1416.73 1839.57 1414.19 1839.57 Q1408.49 1839.57 1405.34 1843.2 Q1402.19 1846.8 1402.19 1853.32 Q1402.19 1859.85 1405.34 1863.48 Q1408.49 1867.07 1414.19 1867.07 Q1416.73 1867.07 1419.22 1866.41 Q1421.73 1865.71 1424.21 1864.34 L1424.21 1869.75 Q1421.76 1870.89 1419.12 1871.47 Q1416.51 1872.04 1413.55 1872.04 Q1405.5 1872.04 1400.76 1866.98 Q1396.01 1861.92 1396.01 1853.32 Q1396.01 1844.6 1400.79 1839.61 Q1405.59 1834.61 1413.93 1834.61 Q1416.64 1834.61 1419.22 1835.18 Q1421.79 1835.72 1424.21 1836.84 Z" fill="#000000" fill-rule="nonzero" fill-opacity="1" /><path clip-path="url(#clip070)" d="M1450.6 1853.2 Q1443.5 1853.2 1440.76 1854.82 Q1438.03 1856.44 1438.03 1860.36 Q1438.03 1863.48 1440.06 1865.32 Q1442.13 1867.14 1445.67 1867.14 Q1450.53 1867.14 1453.46 1863.7 Q1456.42 1860.23 1456.42 1854.5 L1456.42 1853.2 L1450.6 1853.2 M1462.28 1850.78 L1462.28 1871.12 L1456.42 1871.12 L1456.42 1865.71 Q1454.42 1868.95 1451.43 1870.51 Q1448.43 1872.04 1444.11 1872.04 Q1438.63 1872.04 1435.38 1868.98 Q1432.17 1865.9 1432.17 1860.74 Q1432.17 1854.72 1436.18 1851.67 Q1440.22 1848.61 1448.21 1848.61 L1456.42 1848.61 L1456.42 1848.04 Q1456.42 1844 1453.75 1841.8 Q1451.11 1839.57 1446.3 1839.57 Q1443.25 1839.57 1440.35 1840.31 Q1437.45 1841.04 1434.78 1842.5 L1434.78 1837.09 Q1437.99 1835.85 1441.02 1835.25 Q1444.04 1834.61 1446.91 1834.61 Q1454.64 1834.61 1458.46 1838.62 Q1462.28 1842.63 1462.28 1850.78 Z" fill="#000000" fill-rule="nonzero" fill-opacity="1" /><path clip-path="url(#clip070)" d="M1480.14 1825.35 L1480.14 1835.47 L1492.2 1835.47 L1492.2 1840.02 L1480.14 1840.02 L1480.14 1859.37 Q1480.14 1863.73 1481.31 1864.97 Q1482.52 1866.21 1486.18 1866.21 L1492.2 1866.21 L1492.2 1871.12 L1486.18 1871.12 Q1479.4 1871.12 1476.83 1868.6 Q1474.25 1866.06 1474.25 1859.37 L1474.25 1840.02 L1469.95 1840.02 L1469.95 1835.47 L1474.25 1835.47 L1474.25 1825.35 L1480.14 1825.35 Z" fill="#000000" fill-rule="nonzero" fill-opacity="1" /><path clip-path="url(#clip070)" d="M1499.9 1835.47 L1505.76 1835.47 L1505.76 1871.12 L1499.9 1871.12 L1499.9 1835.47 M1499.9 1821.59 L1505.76 1821.59 L1505.76 1829.01 L1499.9 1829.01 L1499.9 1821.59 Z" fill="#000000" fill-rule="nonzero" fill-opacity="1" /><path clip-path="url(#clip070)" d="M1531.82 1839.57 Q1527.11 1839.57 1524.38 1843.27 Q1521.64 1846.93 1521.64 1853.32 Q1521.64 1859.72 1524.35 1863.41 Q1527.08 1867.07 1531.82 1867.07 Q1536.5 1867.07 1539.24 1863.38 Q1541.98 1859.69 1541.98 1853.32 Q1541.98 1846.99 1539.24 1843.3 Q1536.5 1839.57 1531.82 1839.57 M1531.82 1834.61 Q1539.46 1834.61 1543.82 1839.57 Q1548.18 1844.54 1548.18 1853.32 Q1548.18 1862.08 1543.82 1867.07 Q1539.46 1872.04 1531.82 1872.04 Q1524.15 1872.04 1519.79 1867.07 Q1515.47 1862.08 1515.47 1853.32 Q1515.47 1844.54 1519.79 1839.57 Q1524.15 1834.61 1531.82 1834.61 Z" fill="#000000" fill-rule="nonzero" fill-opacity="1" /><path clip-path="url(#clip070)" d="M1587.52 1849.6 L1587.52 1871.12 L1581.67 1871.12 L1581.67 1849.79 Q1581.67 1844.73 1579.7 1842.22 Q1577.72 1839.7 1573.77 1839.7 Q1569.03 1839.7 1566.3 1842.73 Q1563.56 1845.75 1563.56 1850.97 L1563.56 1871.12 L1557.67 1871.12 L1557.67 1835.47 L1563.56 1835.47 L1563.56 1841.01 Q1565.66 1837.79 1568.49 1836.2 Q1571.36 1834.61 1575.08 1834.61 Q1581.22 1834.61 1584.37 1838.43 Q1587.52 1842.22 1587.52 1849.6 Z" fill="#000000" fill-rule="nonzero" fill-opacity="1" /><path clip-path="url(#clip070)" d="M1644.6 1849.02 Q1644.6 1850.83 1644.06 1852.86 L1636.55 1882.71 Q1635.88 1885.35 1633.85 1885.35 Q1633.01 1885.35 1632.5 1884.84 Q1632.01 1884.35 1632.01 1883.58 Q1632.01 1883.32 1632.21 1882.52 L1639.71 1852.18 Q1640.39 1849.41 1640.39 1848.02 Q1640.39 1843.42 1636.81 1843.42 Q1633.65 1843.42 1630.5 1845.74 Q1629.05 1846.9 1627.63 1848.99 Q1626.25 1851.05 1625.99 1851.79 Q1625.7 1853.47 1625.28 1854.76 Q1625.09 1855.66 1624.15 1859.17 L1622.7 1865.13 Q1621.67 1869.57 1621.45 1869.99 Q1621.13 1870.89 1620.42 1871.37 Q1619.71 1871.86 1619 1871.86 Q1618.2 1871.86 1617.65 1871.37 Q1617.1 1870.89 1617.1 1870.05 Q1617.1 1869.92 1617.2 1869.44 Q1617.29 1868.96 1617.45 1868.28 Q1617.62 1867.61 1617.68 1867.22 L1621.51 1851.99 Q1622.22 1849.22 1622.38 1848.35 Q1622.58 1847.45 1622.58 1846.45 Q1622.58 1844.71 1622.03 1844.06 Q1621.48 1843.42 1620.51 1843.42 Q1618.84 1843.42 1617.74 1845.42 Q1616.65 1847.41 1615.72 1851.28 Q1615.43 1852.34 1615.23 1852.57 Q1615.07 1852.79 1614.59 1852.79 Q1613.78 1852.76 1613.78 1852.12 Q1613.78 1851.95 1614.04 1850.92 Q1614.3 1849.86 1614.78 1848.31 Q1615.3 1846.74 1615.84 1845.74 Q1616.17 1845.06 1616.46 1844.61 Q1616.75 1844.16 1617.33 1843.45 Q1617.91 1842.74 1618.78 1842.36 Q1619.64 1841.97 1620.71 1841.97 Q1623.06 1841.97 1624.8 1843.48 Q1626.57 1845 1626.79 1847.7 Q1627.47 1846.7 1628.34 1845.8 Q1629.24 1844.9 1630.5 1844 Q1631.75 1843.07 1633.46 1842.52 Q1635.17 1841.97 1637 1841.97 Q1640.68 1841.97 1642.64 1843.87 Q1644.6 1845.74 1644.6 1849.02 Z" fill="#000000" fill-rule="nonzero" fill-opacity="1" /><path clip-path="url(#clip070)" d="M1664.52 1861.1 Q1664.59 1860.3 1665.84 1860.3 L1706.26 1860.3 Q1708.16 1860.3 1708.2 1861.04 Q1708.2 1861.84 1706.39 1861.81 L1666.3 1861.81 Q1664.52 1861.84 1664.52 1861.1 M1664.52 1848.22 Q1664.52 1847.41 1665.91 1847.45 L1706.2 1847.45 Q1708.16 1847.45 1708.2 1848.22 Q1708.2 1848.96 1706.52 1848.96 L1665.84 1848.96 Q1664.52 1848.96 1664.52 1848.22 Z" fill="#000000" fill-rule="nonzero" fill-opacity="1" /><path clip-path="url(#clip070)" d="M1733.64 1871.12 Q1733.64 1869.92 1733.73 1869.57 Q1733.86 1869.22 1734.38 1868.67 L1747.04 1854.56 Q1753.96 1846.77 1753.96 1839.97 Q1753.96 1835.56 1751.64 1832.41 Q1749.35 1829.25 1745.14 1829.25 Q1742.24 1829.25 1739.79 1831.02 Q1737.34 1832.79 1736.21 1835.95 Q1736.41 1835.88 1737.08 1835.88 Q1738.73 1835.88 1739.63 1836.91 Q1740.56 1837.94 1740.56 1839.33 Q1740.56 1841.1 1739.4 1841.97 Q1738.28 1842.81 1737.15 1842.81 Q1736.7 1842.81 1736.09 1842.71 Q1735.51 1842.61 1734.57 1841.71 Q1733.64 1840.78 1733.64 1839.14 Q1733.64 1834.53 1737.12 1830.86 Q1740.63 1827.19 1745.97 1827.19 Q1752.03 1827.19 1755.99 1830.79 Q1759.98 1834.37 1759.98 1839.97 Q1759.98 1841.94 1759.37 1843.74 Q1758.79 1845.51 1757.99 1846.9 Q1757.21 1848.28 1755.09 1850.5 Q1752.96 1852.73 1751.25 1854.31 Q1749.55 1855.88 1745.72 1859.23 L1738.73 1866.03 L1750.61 1866.03 Q1756.41 1866.03 1756.86 1865.51 Q1757.5 1864.58 1758.31 1859.65 L1759.98 1859.65 L1758.11 1871.12 L1733.64 1871.12 Z" fill="#000000" fill-rule="nonzero" fill-opacity="1" /><path clip-path="url(#clip070)" d="M1795.68 1844.48 Q1795.68 1844.93 1795.39 1846 L1789.08 1871.18 Q1787.69 1876.78 1783.18 1880.71 Q1778.71 1884.64 1773.62 1884.64 Q1770.56 1884.64 1768.6 1883 Q1766.63 1881.39 1766.63 1878.91 Q1766.63 1876.72 1767.79 1875.66 Q1768.95 1874.63 1770.33 1874.63 Q1770.79 1874.63 1771.27 1874.76 Q1771.75 1874.88 1772.27 1875.43 Q1772.78 1875.98 1772.78 1876.91 Q1772.78 1878.43 1771.46 1879.62 Q1770.82 1880.17 1770.21 1880.3 Q1769.63 1880.42 1768.63 1880.42 Q1769.01 1881.33 1769.72 1881.94 Q1770.43 1882.55 1771.24 1882.78 Q1772.04 1883.03 1772.56 1883.1 Q1773.1 1883.19 1773.62 1883.19 Q1777.74 1883.19 1780.9 1879.04 Q1781.83 1877.78 1782.51 1876.53 Q1783.22 1875.3 1783.73 1873.79 Q1784.25 1872.31 1784.47 1871.5 Q1784.73 1870.7 1785.18 1868.86 Q1782.19 1871.86 1778.51 1871.86 Q1776.97 1871.86 1775.58 1871.44 Q1774.23 1871.02 1773.04 1870.15 Q1771.85 1869.25 1771.14 1867.67 Q1770.46 1866.09 1770.46 1864 Q1770.46 1861.78 1771.33 1858.75 Q1772.2 1855.72 1774.3 1850.15 Q1775.42 1847.03 1775.42 1845.51 Q1775.42 1844.77 1775.26 1844.32 Q1775.1 1843.84 1774.78 1843.68 Q1774.46 1843.48 1774.26 1843.45 Q1774.1 1843.42 1773.78 1843.42 Q1771.88 1843.42 1770.11 1845.35 Q1768.34 1847.28 1767.11 1851.6 Q1766.86 1852.4 1766.7 1852.6 Q1766.53 1852.79 1766.05 1852.79 Q1765.25 1852.76 1765.25 1852.12 Q1765.25 1851.86 1765.54 1850.86 Q1765.83 1849.83 1766.5 1848.31 Q1767.21 1846.77 1768.18 1845.38 Q1769.14 1843.97 1770.66 1842.97 Q1772.2 1841.97 1773.97 1841.97 Q1776.39 1841.97 1777.87 1843.55 Q1779.38 1845.09 1779.38 1847.38 Q1779.38 1848.31 1779.13 1849.15 Q1778.9 1849.96 1778.06 1852.12 Q1774.68 1860.81 1774.68 1865.06 Q1774.68 1866.09 1774.84 1866.96 Q1775.04 1867.8 1775.46 1868.64 Q1775.87 1869.44 1776.71 1869.92 Q1777.58 1870.38 1778.77 1870.38 Q1780.29 1870.38 1781.7 1869.67 Q1783.15 1868.93 1784.05 1867.93 Q1784.99 1866.93 1785.54 1866.09 Q1786.12 1865.22 1786.24 1864.77 L1789.21 1852.92 L1790.53 1847.64 Q1791.14 1844.77 1791.43 1844.06 Q1791.82 1843.39 1792.49 1843.03 Q1793.17 1842.68 1793.75 1842.68 Q1794.55 1842.68 1795.1 1843.16 Q1795.68 1843.64 1795.68 1844.48 Z" fill="#000000" fill-rule="nonzero" fill-opacity="1" /><path clip-path="url(#clip070)" d="M1797.24 1886.67 Q1797.24 1886.35 1797.5 1885.64 L1820.78 1823.42 Q1820.78 1823.36 1820.94 1823 Q1821.1 1822.65 1821.2 1822.42 Q1821.3 1822.16 1821.49 1821.97 Q1821.72 1821.78 1821.97 1821.78 Q1822.62 1821.78 1822.62 1822.58 Q1822.62 1822.65 1822.42 1823.42 L1799.08 1885.71 Q1798.69 1886.83 1798.43 1887.16 Q1798.21 1887.48 1797.82 1887.48 Q1797.24 1887.48 1797.24 1886.67 Z" fill="#000000" fill-rule="nonzero" fill-opacity="1" /><path clip-path="url(#clip070)" d="M1854.19 1852.5 Q1854.19 1857.14 1851.84 1861.68 Q1849.52 1866.19 1845.78 1869.02 Q1842.08 1871.86 1838.28 1871.86 Q1834.57 1871.86 1832.22 1869.02 Q1829.9 1866.16 1829.9 1861.49 Q1829.9 1859.84 1830.1 1858.69 Q1830.29 1857.53 1830.97 1854.82 L1836.38 1833.31 Q1837.31 1829.28 1837.31 1829.25 Q1837.31 1828.86 1837.15 1828.67 Q1837.02 1828.44 1836.25 1828.28 Q1835.48 1828.12 1833.99 1828.12 Q1833.38 1828.12 1833.09 1828.09 Q1832.83 1828.06 1832.61 1827.9 Q1832.42 1827.7 1832.42 1827.32 Q1832.42 1826.77 1832.64 1826.48 Q1832.9 1826.16 1833.09 1826.09 Q1833.29 1826.03 1833.67 1826 Q1834.22 1825.96 1836.05 1825.8 Q1837.89 1825.61 1839.47 1825.48 Q1841.05 1825.35 1841.72 1825.35 Q1842.11 1825.35 1842.3 1825.55 Q1842.53 1825.71 1842.53 1825.9 L1842.56 1826.06 L1837.7 1845.93 Q1841.53 1841.97 1845.43 1841.97 Q1849.32 1841.97 1851.74 1844.97 Q1854.19 1847.96 1854.19 1852.5 M1849.42 1849.6 Q1849.42 1846.54 1848.26 1845 Q1847.13 1843.42 1845.27 1843.42 Q1843.69 1843.42 1841.63 1844.61 Q1839.57 1845.8 1837.38 1848.7 Q1836.96 1849.25 1836.8 1849.57 Q1836.67 1849.89 1836.38 1850.99 L1834.93 1857.07 Q1833.86 1861.23 1833.86 1863.74 Q1833.86 1867.16 1835.12 1868.77 Q1836.38 1870.38 1838.28 1870.38 Q1840.27 1870.38 1842.37 1868.6 Q1844.46 1866.83 1846.07 1863.61 Q1847.07 1861.49 1848.23 1856.91 Q1849.42 1852.31 1849.42 1849.6 Z" fill="#000000" fill-rule="nonzero" fill-opacity="1" /><polyline clip-path="url(#clip070)" style="stroke:#000000; stroke-linecap:round; stroke-linejoin:round; stroke-width:4; stroke-opacity:1; fill:none" points="225.654,1734.12 225.654,127.792 "/>
<polyline clip-path="url(#clip070)" style="stroke:#000000; stroke-linecap:round; stroke-linejoin:round; stroke-width:4; stroke-opacity:1; fill:none" points="225.654,1688.65 244.552,1688.65 "/>
<polyline clip-path="url(#clip070)" style="stroke:#000000; stroke-linecap:round; stroke-linejoin:round; stroke-width:4; stroke-opacity:1; fill:none" points="225.654,1234.03 244.552,1234.03 "/>
<polyline clip-path="url(#clip070)" style="stroke:#000000; stroke-linecap:round; stroke-linejoin:round; stroke-width:4; stroke-opacity:1; fill:none" points="225.654,779.414 244.552,779.414 "/>
<polyline clip-path="url(#clip070)" style="stroke:#000000; stroke-linecap:round; stroke-linejoin:round; stroke-width:4; stroke-opacity:1; fill:none" points="225.654,324.794 244.552,324.794 "/>
<path clip-path="url(#clip070)" d="M128.159 1674.45 Q124.548 1674.45 122.719 1678.02 Q120.913 1681.56 120.913 1688.69 Q120.913 1695.8 122.719 1699.36 Q124.548 1702.9 128.159 1702.9 Q131.793 1702.9 133.599 1699.36 Q135.427 1695.8 135.427 1688.69 Q135.427 1681.56 133.599 1678.02 Q131.793 1674.45 128.159 1674.45 M128.159 1670.75 Q133.969 1670.75 137.025 1675.36 Q140.103 1679.94 140.103 1688.69 Q140.103 1697.42 137.025 1702.02 Q133.969 1706.61 128.159 1706.61 Q122.349 1706.61 119.27 1702.02 Q116.214 1697.42 116.214 1688.69 Q116.214 1679.94 119.27 1675.36 Q122.349 1670.75 128.159 1670.75 Z" fill="#000000" fill-rule="nonzero" fill-opacity="1" /><path clip-path="url(#clip070)" d="M148.321 1700.06 L153.205 1700.06 L153.205 1705.93 L148.321 1705.93 L148.321 1700.06 Z" fill="#000000" fill-rule="nonzero" fill-opacity="1" /><path clip-path="url(#clip070)" d="M173.39 1674.45 Q169.779 1674.45 167.95 1678.02 Q166.145 1681.56 166.145 1688.69 Q166.145 1695.8 167.95 1699.36 Q169.779 1702.9 173.39 1702.9 Q177.024 1702.9 178.83 1699.36 Q180.659 1695.8 180.659 1688.69 Q180.659 1681.56 178.83 1678.02 Q177.024 1674.45 173.39 1674.45 M173.39 1670.75 Q179.2 1670.75 182.256 1675.36 Q185.334 1679.94 185.334 1688.69 Q185.334 1697.42 182.256 1702.02 Q179.2 1706.61 173.39 1706.61 Q167.58 1706.61 164.501 1702.02 Q161.446 1697.42 161.446 1688.69 Q161.446 1679.94 164.501 1675.36 Q167.58 1670.75 173.39 1670.75 Z" fill="#000000" fill-rule="nonzero" fill-opacity="1" /><path clip-path="url(#clip070)" d="M129.154 1219.83 Q125.543 1219.83 123.714 1223.4 Q121.909 1226.94 121.909 1234.07 Q121.909 1241.18 123.714 1244.74 Q125.543 1248.28 129.154 1248.28 Q132.788 1248.28 134.594 1244.74 Q136.423 1241.18 136.423 1234.07 Q136.423 1226.94 134.594 1223.4 Q132.788 1219.83 129.154 1219.83 M129.154 1216.13 Q134.964 1216.13 138.02 1220.74 Q141.099 1225.32 141.099 1234.07 Q141.099 1242.8 138.02 1247.4 Q134.964 1251.99 129.154 1251.99 Q123.344 1251.99 120.265 1247.4 Q117.21 1242.8 117.21 1234.07 Q117.21 1225.32 120.265 1220.74 Q123.344 1216.13 129.154 1216.13 Z" fill="#000000" fill-rule="nonzero" fill-opacity="1" /><path clip-path="url(#clip070)" d="M149.316 1245.44 L154.2 1245.44 L154.2 1251.31 L149.316 1251.31 L149.316 1245.44 Z" fill="#000000" fill-rule="nonzero" fill-opacity="1" /><path clip-path="url(#clip070)" d="M164.432 1216.75 L182.788 1216.75 L182.788 1220.69 L168.714 1220.69 L168.714 1229.16 Q169.733 1228.81 170.751 1228.65 Q171.77 1228.47 172.788 1228.47 Q178.575 1228.47 181.955 1231.64 Q185.334 1234.81 185.334 1240.23 Q185.334 1245.81 181.862 1248.91 Q178.39 1251.99 172.071 1251.99 Q169.895 1251.99 167.626 1251.62 Q165.381 1251.25 162.973 1250.5 L162.973 1245.81 Q165.057 1246.94 167.279 1247.5 Q169.501 1248.05 171.978 1248.05 Q175.983 1248.05 178.321 1245.94 Q180.659 1243.84 180.659 1240.23 Q180.659 1236.62 178.321 1234.51 Q175.983 1232.4 171.978 1232.4 Q170.103 1232.4 168.228 1232.82 Q166.376 1233.24 164.432 1234.12 L164.432 1216.75 Z" fill="#000000" fill-rule="nonzero" fill-opacity="1" /><path clip-path="url(#clip070)" d="M118.969 792.759 L126.608 792.759 L126.608 766.394 L118.298 768.06 L118.298 763.801 L126.562 762.134 L131.238 762.134 L131.238 792.759 L138.876 792.759 L138.876 796.694 L118.969 796.694 L118.969 792.759 Z" fill="#000000" fill-rule="nonzero" fill-opacity="1" /><path clip-path="url(#clip070)" d="M148.321 790.815 L153.205 790.815 L153.205 796.694 L148.321 796.694 L148.321 790.815 Z" fill="#000000" fill-rule="nonzero" fill-opacity="1" /><path clip-path="url(#clip070)" d="M173.39 765.213 Q169.779 765.213 167.95 768.778 Q166.145 772.32 166.145 779.449 Q166.145 786.556 167.95 790.12 Q169.779 793.662 173.39 793.662 Q177.024 793.662 178.83 790.12 Q180.659 786.556 180.659 779.449 Q180.659 772.32 178.83 768.778 Q177.024 765.213 173.39 765.213 M173.39 761.509 Q179.2 761.509 182.256 766.116 Q185.334 770.699 185.334 779.449 Q185.334 788.176 182.256 792.782 Q179.2 797.366 173.39 797.366 Q167.58 797.366 164.501 792.782 Q161.446 788.176 161.446 779.449 Q161.446 770.699 164.501 766.116 Q167.58 761.509 173.39 761.509 Z" fill="#000000" fill-rule="nonzero" fill-opacity="1" /><path clip-path="url(#clip070)" d="M119.964 338.139 L127.603 338.139 L127.603 311.773 L119.293 313.44 L119.293 309.181 L127.557 307.514 L132.233 307.514 L132.233 338.139 L139.872 338.139 L139.872 342.074 L119.964 342.074 L119.964 338.139 Z" fill="#000000" fill-rule="nonzero" fill-opacity="1" /><path clip-path="url(#clip070)" d="M149.316 336.195 L154.2 336.195 L154.2 342.074 L149.316 342.074 L149.316 336.195 Z" fill="#000000" fill-rule="nonzero" fill-opacity="1" /><path clip-path="url(#clip070)" d="M164.432 307.514 L182.788 307.514 L182.788 311.449 L168.714 311.449 L168.714 319.922 Q169.733 319.574 170.751 319.412 Q171.77 319.227 172.788 319.227 Q178.575 319.227 181.955 322.398 Q185.334 325.57 185.334 330.986 Q185.334 336.565 181.862 339.667 Q178.39 342.746 172.071 342.746 Q169.895 342.746 167.626 342.375 Q165.381 342.005 162.973 341.264 L162.973 336.565 Q165.057 337.699 167.279 338.255 Q169.501 338.81 171.978 338.81 Q175.983 338.81 178.321 336.704 Q180.659 334.597 180.659 330.986 Q180.659 327.375 178.321 325.269 Q175.983 323.162 171.978 323.162 Q170.103 323.162 168.228 323.579 Q166.376 323.996 164.432 324.875 L164.432 307.514 Z" fill="#000000" fill-rule="nonzero" fill-opacity="1" /><path clip-path="url(#clip070)" d="M14.1184 1388.51 L14.1184 1379.85 L53.8723 1358.78 L14.1184 1358.78 L14.1184 1352.54 L61.6384 1352.54 L61.6384 1361.2 L21.8846 1382.27 L61.6384 1382.27 L61.6384 1388.51 L14.1184 1388.51 Z" fill="#000000" fill-rule="nonzero" fill-opacity="1" /><path clip-path="url(#clip070)" d="M30.0964 1326.19 Q30.0964 1330.9 33.7885 1333.63 Q37.4488 1336.37 43.8463 1336.37 Q50.2438 1336.37 53.9359 1333.67 Q57.5962 1330.93 57.5962 1326.19 Q57.5962 1321.51 53.9041 1318.77 Q50.212 1316.03 43.8463 1316.03 Q37.5124 1316.03 33.8203 1318.77 Q30.0964 1321.51 30.0964 1326.19 M25.1311 1326.19 Q25.1311 1318.55 30.0964 1314.19 Q35.0616 1309.83 43.8463 1309.83 Q52.5991 1309.83 57.5962 1314.19 Q62.5615 1318.55 62.5615 1326.19 Q62.5615 1333.86 57.5962 1338.22 Q52.5991 1342.55 43.8463 1342.55 Q35.0616 1342.55 30.0964 1338.22 Q25.1311 1333.86 25.1311 1326.19 Z" fill="#000000" fill-rule="nonzero" fill-opacity="1" /><path clip-path="url(#clip070)" d="M31.465 1279.46 Q30.8921 1280.45 30.6375 1281.63 Q30.351 1282.77 30.351 1284.17 Q30.351 1289.14 33.5975 1291.81 Q36.8122 1294.45 42.8596 1294.45 L61.6384 1294.45 L61.6384 1300.34 L25.9905 1300.34 L25.9905 1294.45 L31.5287 1294.45 Q28.2821 1292.61 26.7225 1289.65 Q25.1311 1286.69 25.1311 1282.45 Q25.1311 1281.85 25.2266 1281.12 Q25.2903 1280.38 25.4494 1279.49 L31.465 1279.46 Z" fill="#000000" fill-rule="nonzero" fill-opacity="1" /><path clip-path="url(#clip070)" d="M32.8336 1246.71 Q28.8869 1244.51 27.009 1241.46 Q25.1311 1238.4 25.1311 1234.26 Q25.1311 1228.69 29.046 1225.67 Q32.9291 1222.65 40.1224 1222.65 L61.6384 1222.65 L61.6384 1228.54 L40.3133 1228.54 Q35.1889 1228.54 32.7063 1230.35 Q30.2237 1232.16 30.2237 1235.89 Q30.2237 1240.44 33.2474 1243.08 Q36.2711 1245.72 41.491 1245.72 L61.6384 1245.72 L61.6384 1251.61 L40.3133 1251.61 Q35.1571 1251.61 32.7063 1253.43 Q30.2237 1255.24 30.2237 1259.03 Q30.2237 1263.51 33.2792 1266.16 Q36.3029 1268.8 41.491 1268.8 L61.6384 1268.8 L61.6384 1274.69 L25.9905 1274.69 L25.9905 1268.8 L31.5287 1268.8 Q28.2503 1266.79 26.6907 1263.99 Q25.1311 1261.19 25.1311 1257.34 Q25.1311 1253.46 27.1045 1250.75 Q29.0779 1248.01 32.8336 1246.71 Z" fill="#000000" fill-rule="nonzero" fill-opacity="1" /><path clip-path="url(#clip070)" d="M43.719 1194.77 Q43.719 1201.86 45.3422 1204.6 Q46.9655 1207.34 50.8804 1207.34 Q53.9996 1207.34 55.8457 1205.3 Q57.6599 1203.23 57.6599 1199.7 Q57.6599 1194.83 54.2224 1191.9 Q50.7531 1188.94 45.0239 1188.94 L43.719 1188.94 L43.719 1194.77 M41.3 1183.08 L61.6384 1183.08 L61.6384 1188.94 L56.2276 1188.94 Q59.4741 1190.95 61.0337 1193.94 Q62.5615 1196.93 62.5615 1201.26 Q62.5615 1206.73 59.5059 1209.98 Q56.4186 1213.19 51.2623 1213.19 Q45.2467 1213.19 42.1912 1209.18 Q39.1357 1205.14 39.1357 1197.15 L39.1357 1188.94 L38.5628 1188.94 Q34.5205 1188.94 32.3244 1191.61 Q30.0964 1194.26 30.0964 1199.06 Q30.0964 1202.12 30.8284 1205.01 Q31.5605 1207.91 33.0246 1210.58 L27.6137 1210.58 Q26.3724 1207.37 25.7677 1204.35 Q25.1311 1201.32 25.1311 1198.46 Q25.1311 1190.72 29.1415 1186.9 Q33.1519 1183.08 41.3 1183.08 Z" fill="#000000" fill-rule="nonzero" fill-opacity="1" /><path clip-path="url(#clip070)" d="M12.1132 1171.02 L12.1132 1165.16 L61.6384 1165.16 L61.6384 1171.02 L12.1132 1171.02 Z" fill="#000000" fill-rule="nonzero" fill-opacity="1" /><path clip-path="url(#clip070)" d="M25.9905 1152.91 L25.9905 1147.05 L61.6384 1147.05 L61.6384 1152.91 L25.9905 1152.91 M12.1132 1152.91 L12.1132 1147.05 L19.5293 1147.05 L19.5293 1152.91 L12.1132 1152.91 Z" fill="#000000" fill-rule="nonzero" fill-opacity="1" /><path clip-path="url(#clip070)" d="M27.0408 1112.07 L32.579 1112.07 Q31.3059 1114.56 30.6693 1117.23 Q30.0327 1119.9 30.0327 1122.77 Q30.0327 1127.13 31.3695 1129.33 Q32.7063 1131.49 35.3799 1131.49 Q37.4169 1131.49 38.5946 1129.93 Q39.7404 1128.37 40.7908 1123.66 L41.2364 1121.66 Q42.5732 1115.42 45.0239 1112.81 Q47.4429 1110.17 51.8034 1110.17 Q56.7687 1110.17 59.6651 1114.11 Q62.5615 1118.03 62.5615 1124.9 Q62.5615 1127.77 61.9886 1130.89 Q61.4475 1133.97 60.3335 1137.41 L54.2861 1137.41 Q55.973 1134.16 56.8323 1131.01 Q57.6599 1127.86 57.6599 1124.77 Q57.6599 1120.64 56.2594 1118.41 Q54.8271 1116.18 52.249 1116.18 Q49.8619 1116.18 48.5887 1117.8 Q47.3156 1119.4 46.1379 1124.84 L45.6605 1126.88 Q44.5147 1132.32 42.1594 1134.74 Q39.7722 1137.16 35.6345 1137.16 Q30.6056 1137.16 27.8684 1133.59 Q25.1311 1130.03 25.1311 1123.47 Q25.1311 1120.22 25.6085 1117.36 Q26.086 1114.49 27.0408 1112.07 Z" fill="#000000" fill-rule="nonzero" fill-opacity="1" /><path clip-path="url(#clip070)" d="M42.3504 1070.35 L45.2149 1070.35 L45.2149 1097.27 Q51.2623 1096.89 54.4452 1093.65 Q57.5962 1090.37 57.5962 1084.54 Q57.5962 1081.17 56.7687 1078.02 Q55.9411 1074.84 54.2861 1071.72 L59.8242 1071.72 Q61.161 1074.87 61.8612 1078.18 Q62.5615 1081.49 62.5615 1084.89 Q62.5615 1093.42 57.5962 1098.42 Q52.631 1103.39 44.1646 1103.39 Q35.4117 1103.39 30.2873 1098.68 Q25.1311 1093.93 25.1311 1085.91 Q25.1311 1078.72 29.7781 1074.55 Q34.3932 1070.35 42.3504 1070.35 M40.6316 1076.2 Q35.8255 1076.27 32.9609 1078.91 Q30.0964 1081.52 30.0964 1085.85 Q30.0964 1090.75 32.8654 1093.71 Q35.6345 1096.64 40.6634 1097.08 L40.6316 1076.2 Z" fill="#000000" fill-rule="nonzero" fill-opacity="1" /><path clip-path="url(#clip070)" d="M31.4013 1037.28 L12.1132 1037.28 L12.1132 1031.42 L61.6384 1031.42 L61.6384 1037.28 L56.2912 1037.28 Q59.4741 1039.12 61.0337 1041.96 Q62.5615 1044.76 62.5615 1048.7 Q62.5615 1055.17 57.4052 1059.24 Q52.249 1063.28 43.8463 1063.28 Q35.4436 1063.28 30.2873 1059.24 Q25.1311 1055.17 25.1311 1048.7 Q25.1311 1044.76 26.6907 1041.96 Q28.2185 1039.12 31.4013 1037.28 M43.8463 1057.23 Q50.3075 1057.23 53.9996 1054.59 Q57.6599 1051.92 57.6599 1047.27 Q57.6599 1042.62 53.9996 1039.95 Q50.3075 1037.28 43.8463 1037.28 Q37.3851 1037.28 33.7248 1039.95 Q30.0327 1042.62 30.0327 1047.27 Q30.0327 1051.92 33.7248 1054.59 Q37.3851 1057.23 43.8463 1057.23 Z" fill="#000000" fill-rule="nonzero" fill-opacity="1" /><path clip-path="url(#clip070)" d="M12.1132 998.638 L12.1132 992.781 L61.6384 992.781 L61.6384 998.638 L12.1132 998.638 Z" fill="#000000" fill-rule="nonzero" fill-opacity="1" /><path clip-path="url(#clip070)" d="M25.9905 980.527 L25.9905 974.671 L61.6384 974.671 L61.6384 980.527 L25.9905 980.527 M12.1132 980.527 L12.1132 974.671 L19.5293 974.671 L19.5293 980.527 L12.1132 980.527 Z" fill="#000000" fill-rule="nonzero" fill-opacity="1" /><path clip-path="url(#clip070)" d="M12.1132 944.37 L16.983 944.37 L16.983 949.972 Q16.983 953.123 18.2562 954.364 Q19.5293 955.574 22.8395 955.574 L25.9905 955.574 L25.9905 945.93 L30.542 945.93 L30.542 955.574 L61.6384 955.574 L61.6384 961.462 L30.542 961.462 L30.542 967.064 L25.9905 967.064 L25.9905 961.462 L23.5079 961.462 Q17.5559 961.462 14.8505 958.693 Q12.1132 955.924 12.1132 949.908 L12.1132 944.37 Z" fill="#000000" fill-rule="nonzero" fill-opacity="1" /><path clip-path="url(#clip070)" d="M15.869 934.822 L25.9905 934.822 L25.9905 922.759 L30.542 922.759 L30.542 934.822 L49.8937 934.822 Q54.2542 934.822 55.4955 933.644 Q56.7368 932.435 56.7368 928.774 L56.7368 922.759 L61.6384 922.759 L61.6384 928.774 Q61.6384 935.554 59.124 938.132 Q56.5777 940.71 49.8937 940.71 L30.542 940.71 L30.542 945.007 L25.9905 945.007 L25.9905 940.71 L15.869 940.71 L15.869 934.822 Z" fill="#000000" fill-rule="nonzero" fill-opacity="1" /><path clip-path="url(#clip070)" d="M56.2912 888.67 L75.1974 888.67 L75.1974 894.559 L25.9905 894.559 L25.9905 888.67 L31.4013 888.67 Q28.2185 886.824 26.6907 884.023 Q25.1311 881.191 25.1311 877.276 Q25.1311 870.783 30.2873 866.74 Q35.4436 862.666 43.8463 862.666 Q52.249 862.666 57.4052 866.74 Q62.5615 870.783 62.5615 877.276 Q62.5615 881.191 61.0337 884.023 Q59.4741 886.824 56.2912 888.67 M43.8463 868.746 Q37.3851 868.746 33.7248 871.419 Q30.0327 874.061 30.0327 878.708 Q30.0327 883.355 33.7248 886.029 Q37.3851 888.67 43.8463 888.67 Q50.3075 888.67 53.9996 886.029 Q57.6599 883.355 57.6599 878.708 Q57.6599 874.061 53.9996 871.419 Q50.3075 868.746 43.8463 868.746 Z" fill="#000000" fill-rule="nonzero" fill-opacity="1" /><path clip-path="url(#clip070)" d="M42.3504 822.467 L45.2149 822.467 L45.2149 849.394 Q51.2623 849.012 54.4452 845.765 Q57.5962 842.487 57.5962 836.663 Q57.5962 833.289 56.7687 830.138 Q55.9411 826.955 54.2861 823.836 L59.8242 823.836 Q61.161 826.987 61.8612 830.297 Q62.5615 833.607 62.5615 837.013 Q62.5615 845.543 57.5962 850.54 Q52.631 855.505 44.1646 855.505 Q35.4117 855.505 30.2873 850.794 Q25.1311 846.052 25.1311 838.031 Q25.1311 830.838 29.7781 826.668 Q34.3932 822.467 42.3504 822.467 M40.6316 828.323 Q35.8255 828.387 32.9609 831.029 Q30.0964 833.639 30.0964 837.967 Q30.0964 842.869 32.8654 845.829 Q35.6345 848.757 40.6634 849.203 L40.6316 828.323 Z" fill="#000000" fill-rule="nonzero" fill-opacity="1" /><path clip-path="url(#clip070)" d="M31.465 792.198 Q30.8921 793.185 30.6375 794.362 Q30.351 795.508 30.351 796.909 Q30.351 801.874 33.5975 804.548 Q36.8122 807.189 42.8596 807.189 L61.6384 807.189 L61.6384 813.078 L25.9905 813.078 L25.9905 807.189 L31.5287 807.189 Q28.2821 805.343 26.7225 802.383 Q25.1311 799.423 25.1311 795.19 Q25.1311 794.585 25.2266 793.853 Q25.2903 793.121 25.4494 792.23 L31.465 792.198 Z" fill="#000000" fill-rule="nonzero" fill-opacity="1" /><path clip-path="url(#clip070)" d="M47.5702 765.94 L25.9905 765.94 L25.9905 760.083 L47.3474 760.083 Q52.4082 760.083 54.9545 758.11 Q57.4689 756.136 57.4689 752.19 Q57.4689 747.447 54.4452 744.71 Q51.4215 741.941 46.2016 741.941 L25.9905 741.941 L25.9905 736.084 L61.6384 736.084 L61.6384 741.941 L56.1639 741.941 Q59.4104 744.073 61.0019 746.906 Q62.5615 749.707 62.5615 753.431 Q62.5615 759.574 58.742 762.757 Q54.9226 765.94 47.5702 765.94 M25.1311 751.203 L25.1311 751.203 Z" fill="#000000" fill-rule="nonzero" fill-opacity="1" /><path clip-path="url(#clip070)" d="M40.1224 694.389 L61.6384 694.389 L61.6384 700.245 L40.3133 700.245 Q35.2526 700.245 32.7381 702.219 Q30.2237 704.192 30.2237 708.139 Q30.2237 712.881 33.2474 715.619 Q36.2711 718.356 41.491 718.356 L61.6384 718.356 L61.6384 724.244 L25.9905 724.244 L25.9905 718.356 L31.5287 718.356 Q28.314 716.255 26.7225 713.422 Q25.1311 710.558 25.1311 706.834 Q25.1311 700.691 28.9505 697.54 Q32.7381 694.389 40.1224 694.389 Z" fill="#000000" fill-rule="nonzero" fill-opacity="1" /><path clip-path="url(#clip070)" d="M25.9905 682.708 L25.9905 676.851 L61.6384 676.851 L61.6384 682.708 L25.9905 682.708 M12.1132 682.708 L12.1132 676.851 L19.5293 676.851 L19.5293 682.708 L12.1132 682.708 Z" fill="#000000" fill-rule="nonzero" fill-opacity="1" /><path clip-path="url(#clip070)" d="M15.869 658.805 L25.9905 658.805 L25.9905 646.742 L30.542 646.742 L30.542 658.805 L49.8937 658.805 Q54.2542 658.805 55.4955 657.627 Q56.7368 656.418 56.7368 652.757 L56.7368 646.742 L61.6384 646.742 L61.6384 652.757 Q61.6384 659.537 59.124 662.115 Q56.5777 664.693 49.8937 664.693 L30.542 664.693 L30.542 668.99 L25.9905 668.99 L25.9905 664.693 L15.869 664.693 L15.869 658.805 Z" fill="#000000" fill-rule="nonzero" fill-opacity="1" /><path clip-path="url(#clip070)" d="M27.0408 595.593 L32.579 595.593 Q31.3059 598.076 30.6693 600.749 Q30.0327 603.423 30.0327 606.288 Q30.0327 610.648 31.3695 612.844 Q32.7063 615.009 35.3799 615.009 Q37.4169 615.009 38.5946 613.449 Q39.7404 611.889 40.7908 607.179 L41.2364 605.174 Q42.5732 598.935 45.0239 596.325 Q47.4429 593.684 51.8034 593.684 Q56.7687 593.684 59.6651 597.63 Q62.5615 601.545 62.5615 608.42 Q62.5615 611.285 61.9886 614.404 Q61.4475 617.491 60.3335 620.929 L54.2861 620.929 Q55.973 617.682 56.8323 614.531 Q57.6599 611.38 57.6599 608.293 Q57.6599 604.155 56.2594 601.927 Q54.8271 599.699 52.249 599.699 Q49.8619 599.699 48.5887 601.322 Q47.3156 602.914 46.1379 608.356 L45.6605 610.393 Q44.5147 615.836 42.1594 618.255 Q39.7722 620.674 35.6345 620.674 Q30.6056 620.674 27.8684 617.109 Q25.1311 613.545 25.1311 606.988 Q25.1311 603.741 25.6085 600.877 Q26.086 598.012 27.0408 595.593 Z" fill="#000000" fill-rule="nonzero" fill-opacity="1" /><path clip-path="url(#clip070)" d="M56.2912 578.692 L75.1974 578.692 L75.1974 584.581 L25.9905 584.581 L25.9905 578.692 L31.4013 578.692 Q28.2185 576.846 26.6907 574.045 Q25.1311 571.213 25.1311 567.298 Q25.1311 560.805 30.2873 556.762 Q35.4436 552.688 43.8463 552.688 Q52.249 552.688 57.4052 556.762 Q62.5615 560.805 62.5615 567.298 Q62.5615 571.213 61.0337 574.045 Q59.4741 576.846 56.2912 578.692 M43.8463 558.768 Q37.3851 558.768 33.7248 561.441 Q30.0327 564.083 30.0327 568.73 Q30.0327 573.377 33.7248 576.05 Q37.3851 578.692 43.8463 578.692 Q50.3075 578.692 53.9996 576.05 Q57.6599 573.377 57.6599 568.73 Q57.6599 564.083 53.9996 561.441 Q50.3075 558.768 43.8463 558.768 Z" fill="#000000" fill-rule="nonzero" fill-opacity="1" /><path clip-path="url(#clip070)" d="M43.719 526.78 Q43.719 533.878 45.3422 536.615 Q46.9655 539.352 50.8804 539.352 Q53.9996 539.352 55.8457 537.315 Q57.6599 535.246 57.6599 531.713 Q57.6599 526.844 54.2224 523.915 Q50.7531 520.955 45.0239 520.955 L43.719 520.955 L43.719 526.78 M41.3 515.099 L61.6384 515.099 L61.6384 520.955 L56.2276 520.955 Q59.4741 522.961 61.0337 525.952 Q62.5615 528.944 62.5615 533.273 Q62.5615 538.747 59.5059 541.994 Q56.4186 545.209 51.2623 545.209 Q45.2467 545.209 42.1912 541.198 Q39.1357 537.156 39.1357 529.167 L39.1357 520.955 L38.5628 520.955 Q34.5205 520.955 32.3244 523.629 Q30.0964 526.271 30.0964 531.077 Q30.0964 534.132 30.8284 537.029 Q31.5605 539.925 33.0246 542.599 L27.6137 542.599 Q26.3724 539.384 25.7677 536.36 Q25.1311 533.337 25.1311 530.472 Q25.1311 522.738 29.1415 518.918 Q33.1519 515.099 41.3 515.099 Z" fill="#000000" fill-rule="nonzero" fill-opacity="1" /><path clip-path="url(#clip070)" d="M40.1224 473.403 L61.6384 473.403 L61.6384 479.26 L40.3133 479.26 Q35.2526 479.26 32.7381 481.233 Q30.2237 483.207 30.2237 487.153 Q30.2237 491.896 33.2474 494.633 Q36.2711 497.37 41.491 497.37 L61.6384 497.37 L61.6384 503.259 L25.9905 503.259 L25.9905 497.37 L31.5287 497.37 Q28.314 495.27 26.7225 492.437 Q25.1311 489.572 25.1311 485.848 Q25.1311 479.706 28.9505 476.555 Q32.7381 473.403 40.1224 473.403 Z" fill="#000000" fill-rule="nonzero" fill-opacity="1" /><path clip-path="url(#clip070)" d="M1000.65 14.0809 L1000.65 22.0612 Q995.991 19.8332 991.859 18.7395 Q987.727 17.6457 983.879 17.6457 Q977.195 17.6457 973.549 20.2383 Q969.944 22.8309 969.944 27.611 Q969.944 31.6214 972.334 33.6873 Q974.764 35.7128 981.489 36.9686 L986.431 37.9813 Q995.586 39.7232 999.92 44.1387 Q1004.3 48.5136 1004.3 55.8863 Q1004.3 64.6767 998.381 69.2137 Q992.507 73.7508 981.124 73.7508 Q976.83 73.7508 971.969 72.7785 Q967.149 71.8063 961.963 69.9024 L961.963 61.4765 Q966.946 64.2716 971.726 65.6895 Q976.506 67.1073 981.124 67.1073 Q988.132 67.1073 991.94 64.3527 Q995.748 61.598 995.748 56.4939 Q995.748 52.0379 992.993 49.5264 Q990.279 47.0148 984.041 45.759 L979.058 44.7868 Q969.903 42.9639 965.812 39.075 Q961.72 35.1862 961.72 28.2591 Q961.72 20.2383 967.351 15.6203 Q973.022 11.0023 982.947 11.0023 Q987.201 11.0023 991.616 11.7719 Q996.032 12.5416 1000.65 14.0809 Z" fill="#000000" fill-rule="nonzero" fill-opacity="1" /><path clip-path="url(#clip070)" d="M1054.45 45.1919 L1054.45 72.576 L1046.99 72.576 L1046.99 45.4349 Q1046.99 38.994 1044.48 35.7938 Q1041.97 32.5936 1036.95 32.5936 Q1030.91 32.5936 1027.43 36.4419 Q1023.94 40.2903 1023.94 46.9338 L1023.94 72.576 L1016.45 72.576 L1016.45 9.54393 L1023.94 9.54393 L1023.94 34.2544 Q1026.62 30.163 1030.22 28.1376 Q1033.87 26.1121 1038.61 26.1121 Q1046.42 26.1121 1050.44 30.9732 Q1054.45 35.7938 1054.45 45.1919 Z" fill="#000000" fill-rule="nonzero" fill-opacity="1" /><path clip-path="url(#clip070)" d="M1095.6 34.1734 Q1094.35 33.4443 1092.85 33.1202 Q1091.39 32.7556 1089.61 32.7556 Q1083.29 32.7556 1079.89 36.8875 Q1076.52 40.9789 1076.52 48.6757 L1076.52 72.576 L1069.03 72.576 L1069.03 27.2059 L1076.52 27.2059 L1076.52 34.2544 Q1078.87 30.1225 1082.64 28.1376 Q1086.41 26.1121 1091.79 26.1121 Q1092.56 26.1121 1093.5 26.2337 Q1094.43 26.3147 1095.56 26.5172 L1095.6 34.1734 Z" fill="#000000" fill-rule="nonzero" fill-opacity="1" /><path clip-path="url(#clip070)" d="M1140.41 48.0275 L1140.41 51.6733 L1106.14 51.6733 Q1106.62 59.3701 1110.75 63.421 Q1114.93 67.4314 1122.34 67.4314 Q1126.63 67.4314 1130.64 66.3781 Q1134.69 65.3249 1138.66 63.2184 L1138.66 70.267 Q1134.65 71.9684 1130.44 72.8596 Q1126.23 73.7508 1121.89 73.7508 Q1111.04 73.7508 1104.68 67.4314 Q1098.36 61.1119 1098.36 50.3365 Q1098.36 39.1965 1104.35 32.6746 Q1110.39 26.1121 1120.6 26.1121 Q1129.75 26.1121 1135.06 32.0264 Q1140.41 37.9003 1140.41 48.0275 M1132.95 45.84 Q1132.87 39.7232 1129.51 36.0774 Q1126.19 32.4315 1120.68 32.4315 Q1114.44 32.4315 1110.67 35.9558 Q1106.95 39.4801 1106.38 45.8805 L1132.95 45.84 Z" fill="#000000" fill-rule="nonzero" fill-opacity="1" /><path clip-path="url(#clip070)" d="M1190.35 45.1919 L1190.35 72.576 L1182.9 72.576 L1182.9 45.4349 Q1182.9 38.994 1180.39 35.7938 Q1177.88 32.5936 1172.85 32.5936 Q1166.82 32.5936 1163.33 36.4419 Q1159.85 40.2903 1159.85 46.9338 L1159.85 72.576 L1152.36 72.576 L1152.36 27.2059 L1159.85 27.2059 L1159.85 34.2544 Q1162.52 30.163 1166.13 28.1376 Q1169.77 26.1121 1174.51 26.1121 Q1182.33 26.1121 1186.34 30.9732 Q1190.35 35.7938 1190.35 45.1919 Z" fill="#000000" fill-rule="nonzero" fill-opacity="1" /><path clip-path="url(#clip070)" d="M1204.94 9.54393 L1212.43 9.54393 L1212.43 46.7717 L1234.67 27.2059 L1244.19 27.2059 L1220.13 48.4326 L1245.2 72.576 L1235.48 72.576 L1212.43 50.4176 L1212.43 72.576 L1204.94 72.576 L1204.94 9.54393 Z" fill="#000000" fill-rule="nonzero" fill-opacity="1" /><path clip-path="url(#clip070)" d="M1279.96 12.096 L1288.14 12.096 L1288.14 65.6895 L1317.59 65.6895 L1317.59 72.576 L1279.96 72.576 L1279.96 12.096 Z" fill="#000000" fill-rule="nonzero" fill-opacity="1" /><path clip-path="url(#clip070)" d="M1325.86 27.2059 L1333.31 27.2059 L1333.31 72.576 L1325.86 72.576 L1325.86 27.2059 M1325.86 9.54393 L1333.31 9.54393 L1333.31 18.9825 L1325.86 18.9825 L1325.86 9.54393 Z" fill="#000000" fill-rule="nonzero" fill-opacity="1" /><path clip-path="url(#clip070)" d="M1371.87 9.54393 L1371.87 15.7418 L1364.74 15.7418 Q1360.73 15.7418 1359.15 17.3622 Q1357.62 18.9825 1357.62 23.1955 L1357.62 27.2059 L1369.89 27.2059 L1369.89 32.9987 L1357.62 32.9987 L1357.62 72.576 L1350.12 72.576 L1350.12 32.9987 L1342.99 32.9987 L1342.99 27.2059 L1350.12 27.2059 L1350.12 24.0462 Q1350.12 16.471 1353.65 13.0277 Q1357.17 9.54393 1364.83 9.54393 L1371.87 9.54393 Z" fill="#000000" fill-rule="nonzero" fill-opacity="1" /><path clip-path="url(#clip070)" d="M1384.03 14.324 L1384.03 27.2059 L1399.38 27.2059 L1399.38 32.9987 L1384.03 32.9987 L1384.03 57.6282 Q1384.03 63.1779 1385.53 64.7578 Q1387.07 66.3376 1391.72 66.3376 L1399.38 66.3376 L1399.38 72.576 L1391.72 72.576 Q1383.1 72.576 1379.81 69.3758 Q1376.53 66.1351 1376.53 57.6282 L1376.53 32.9987 L1371.06 32.9987 L1371.06 27.2059 L1376.53 27.2059 L1376.53 14.324 L1384.03 14.324 Z" fill="#000000" fill-rule="nonzero" fill-opacity="1" /><path clip-path="url(#clip070)" d="M1444.06 18.8205 L1444.06 65.8515 L1453.95 65.8515 Q1466.46 65.8515 1472.26 60.1802 Q1478.09 54.509 1478.09 42.2752 Q1478.09 30.1225 1472.26 24.4918 Q1466.46 18.8205 1453.95 18.8205 L1444.06 18.8205 M1435.88 12.096 L1452.69 12.096 Q1470.27 12.096 1478.49 19.4281 Q1486.72 26.7198 1486.72 42.2752 Q1486.72 57.9117 1478.45 65.2439 Q1470.19 72.576 1452.69 72.576 L1435.88 72.576 L1435.88 12.096 Z" fill="#000000" fill-rule="nonzero" fill-opacity="1" /><path clip-path="url(#clip070)" d="M1499.44 27.2059 L1506.89 27.2059 L1506.89 72.576 L1499.44 72.576 L1499.44 27.2059 M1499.44 9.54393 L1506.89 9.54393 L1506.89 18.9825 L1499.44 18.9825 L1499.44 9.54393 Z" fill="#000000" fill-rule="nonzero" fill-opacity="1" /><path clip-path="url(#clip070)" d="M1551.41 28.5427 L1551.41 35.5912 Q1548.25 33.9709 1544.85 33.1607 Q1541.45 32.3505 1537.8 32.3505 Q1532.25 32.3505 1529.45 34.0519 Q1526.7 35.7533 1526.7 39.156 Q1526.7 41.7486 1528.68 43.2475 Q1530.67 44.7058 1536.67 46.0426 L1539.22 46.6097 Q1547.16 48.3111 1550.48 51.4303 Q1553.84 54.509 1553.84 60.0587 Q1553.84 66.3781 1548.82 70.0644 Q1543.84 73.7508 1535.09 73.7508 Q1531.44 73.7508 1527.47 73.0216 Q1523.54 72.3329 1519.17 70.9151 L1519.17 63.2184 Q1523.3 65.3654 1527.31 66.4591 Q1531.32 67.5124 1535.25 67.5124 Q1540.51 67.5124 1543.35 65.73 Q1546.18 63.9071 1546.18 60.6258 Q1546.18 57.5877 1544.12 55.9673 Q1542.09 54.3469 1535.17 52.8481 L1532.57 52.2405 Q1525.65 50.7821 1522.57 47.7845 Q1519.49 44.7463 1519.49 39.4801 Q1519.49 33.0797 1524.03 29.5959 Q1528.56 26.1121 1536.91 26.1121 Q1541.04 26.1121 1544.69 26.7198 Q1548.33 27.3274 1551.41 28.5427 Z" fill="#000000" fill-rule="nonzero" fill-opacity="1" /><path clip-path="url(#clip070)" d="M1573.08 14.324 L1573.08 27.2059 L1588.44 27.2059 L1588.44 32.9987 L1573.08 32.9987 L1573.08 57.6282 Q1573.08 63.1779 1574.58 64.7578 Q1576.12 66.3376 1580.78 66.3376 L1588.44 66.3376 L1588.44 72.576 L1580.78 72.576 Q1572.15 72.576 1568.87 69.3758 Q1565.59 66.1351 1565.59 57.6282 L1565.59 32.9987 L1560.12 32.9987 L1560.12 27.2059 L1565.59 27.2059 L1565.59 14.324 L1573.08 14.324 Z" fill="#000000" fill-rule="nonzero" fill-opacity="1" /><path clip-path="url(#clip070)" d="M1624.53 34.1734 Q1623.27 33.4443 1621.77 33.1202 Q1620.32 32.7556 1618.53 32.7556 Q1612.21 32.7556 1608.81 36.8875 Q1605.45 40.9789 1605.45 48.6757 L1605.45 72.576 L1597.96 72.576 L1597.96 27.2059 L1605.45 27.2059 L1605.45 34.2544 Q1607.8 30.1225 1611.57 28.1376 Q1615.33 26.1121 1620.72 26.1121 Q1621.49 26.1121 1622.42 26.2337 Q1623.35 26.3147 1624.49 26.5172 L1624.53 34.1734 Z" fill="#000000" fill-rule="nonzero" fill-opacity="1" /><path clip-path="url(#clip070)" d="M1632.35 27.2059 L1639.8 27.2059 L1639.8 72.576 L1632.35 72.576 L1632.35 27.2059 M1632.35 9.54393 L1639.8 9.54393 L1639.8 18.9825 L1632.35 18.9825 L1632.35 9.54393 Z" fill="#000000" fill-rule="nonzero" fill-opacity="1" /><path clip-path="url(#clip070)" d="M1687.97 49.9314 Q1687.97 41.7081 1684.56 37.0496 Q1681.2 32.3505 1675.29 32.3505 Q1669.37 32.3505 1665.97 37.0496 Q1662.61 41.7081 1662.61 49.9314 Q1662.61 58.1548 1665.97 62.8538 Q1669.37 67.5124 1675.29 67.5124 Q1681.2 67.5124 1684.56 62.8538 Q1687.97 58.1548 1687.97 49.9314 M1662.61 34.0924 Q1664.96 30.0415 1668.52 28.0971 Q1672.13 26.1121 1677.11 26.1121 Q1685.37 26.1121 1690.52 32.6746 Q1695.7 39.2371 1695.7 49.9314 Q1695.7 60.6258 1690.52 67.1883 Q1685.37 73.7508 1677.11 73.7508 Q1672.13 73.7508 1668.52 71.8063 Q1664.96 69.8214 1662.61 65.7705 L1662.61 72.576 L1655.11 72.576 L1655.11 9.54393 L1662.61 9.54393 L1662.61 34.0924 Z" fill="#000000" fill-rule="nonzero" fill-opacity="1" /><path clip-path="url(#clip070)" d="M1707.29 54.671 L1707.29 27.2059 L1714.74 27.2059 L1714.74 54.3874 Q1714.74 60.8284 1717.25 64.0691 Q1719.77 67.2693 1724.79 67.2693 Q1730.83 67.2693 1734.31 63.421 Q1737.83 59.5726 1737.83 52.9291 L1737.83 27.2059 L1745.29 27.2059 L1745.29 72.576 L1737.83 72.576 L1737.83 65.6084 Q1735.12 69.7404 1731.51 71.7658 Q1727.95 73.7508 1723.21 73.7508 Q1715.39 73.7508 1711.34 68.8897 Q1707.29 64.0286 1707.29 54.671 M1726.05 26.1121 L1726.05 26.1121 Z" fill="#000000" fill-rule="nonzero" fill-opacity="1" /><path clip-path="url(#clip070)" d="M1768.01 14.324 L1768.01 27.2059 L1783.37 27.2059 L1783.37 32.9987 L1768.01 32.9987 L1768.01 57.6282 Q1768.01 63.1779 1769.51 64.7578 Q1771.05 66.3376 1775.71 66.3376 L1783.37 66.3376 L1783.37 72.576 L1775.71 72.576 Q1767.08 72.576 1763.8 69.3758 Q1760.52 66.1351 1760.52 57.6282 L1760.52 32.9987 L1755.05 32.9987 L1755.05 27.2059 L1760.52 27.2059 L1760.52 14.324 L1768.01 14.324 Z" fill="#000000" fill-rule="nonzero" fill-opacity="1" /><path clip-path="url(#clip070)" d="M1793.17 27.2059 L1800.62 27.2059 L1800.62 72.576 L1793.17 72.576 L1793.17 27.2059 M1793.17 9.54393 L1800.62 9.54393 L1800.62 18.9825 L1793.17 18.9825 L1793.17 9.54393 Z" fill="#000000" fill-rule="nonzero" fill-opacity="1" /><path clip-path="url(#clip070)" d="M1833.8 32.4315 Q1827.8 32.4315 1824.32 37.1306 Q1820.84 41.7891 1820.84 49.9314 Q1820.84 58.0738 1824.28 62.7728 Q1827.76 67.4314 1833.8 67.4314 Q1839.75 67.4314 1843.24 62.7323 Q1846.72 58.0333 1846.72 49.9314 Q1846.72 41.8701 1843.24 37.1711 Q1839.75 32.4315 1833.8 32.4315 M1833.8 26.1121 Q1843.52 26.1121 1849.07 32.4315 Q1854.62 38.7509 1854.62 49.9314 Q1854.62 61.0714 1849.07 67.4314 Q1843.52 73.7508 1833.8 73.7508 Q1824.04 73.7508 1818.49 67.4314 Q1812.98 61.0714 1812.98 49.9314 Q1812.98 38.7509 1818.49 32.4315 Q1824.04 26.1121 1833.8 26.1121 Z" fill="#000000" fill-rule="nonzero" fill-opacity="1" /><path clip-path="url(#clip070)" d="M1904.69 45.1919 L1904.69 72.576 L1897.24 72.576 L1897.24 45.4349 Q1897.24 38.994 1894.72 35.7938 Q1892.21 32.5936 1887.19 32.5936 Q1881.15 32.5936 1877.67 36.4419 Q1874.19 40.2903 1874.19 46.9338 L1874.19 72.576 L1866.69 72.576 L1866.69 27.2059 L1874.19 27.2059 L1874.19 34.2544 Q1876.86 30.163 1880.47 28.1376 Q1884.11 26.1121 1888.85 26.1121 Q1896.67 26.1121 1900.68 30.9732 Q1904.69 35.7938 1904.69 45.1919 Z" fill="#000000" fill-rule="nonzero" fill-opacity="1" /><polyline clip-path="url(#clip071)" style="stroke:#4682b4; stroke-linecap:round; stroke-linejoin:round; stroke-width:8; stroke-opacity:1; fill:none" stroke-dasharray="32, 20" points="294.006,530.974 305.456,530.989 316.905,531.032 328.354,531.106 339.803,531.208 351.253,531.339 362.702,531.5 374.151,531.69 385.6,531.91 397.049,532.159 408.499,532.437 419.948,532.744 431.397,533.081 442.846,533.447 454.296,533.842 465.745,534.267 477.194,534.722 488.643,535.206 500.093,535.72 511.542,536.263 522.991,536.836 534.44,537.438 545.89,538.07 557.339,538.732 568.788,539.424 580.237,540.146 591.686,540.898 603.136,541.679 614.585,542.491 626.034,543.333 637.483,544.205 648.933,545.107 660.382,546.04 671.831,547.003 683.28,547.996 694.73,549.02 706.179,550.075 717.628,551.16 729.077,552.277 740.527,553.424 751.976,554.602 763.425,555.811 774.874,557.052 786.323,558.324 797.773,559.627 809.222,560.961 820.671,562.328 832.12,563.726 843.57,565.156 855.019,566.618 866.468,568.112 877.917,569.638 889.367,571.197 900.816,572.788 912.265,574.412 923.714,576.068 935.163,577.758 946.613,579.48 958.062,581.236 969.511,583.025 980.96,584.848 992.41,586.705 1003.86,588.595 1015.31,590.52 1026.76,592.478 1038.21,594.471 1049.66,596.499 1061.11,598.562 1072.55,600.659 1084,602.792 1095.45,604.961 1106.9,607.165 1118.35,609.404 1129.8,611.68 1141.25,613.992 1152.7,616.341 1164.15,618.727 1175.6,621.149 1187.05,623.609 1198.5,626.106 1209.95,628.641 1221.39,631.215 1232.84,633.826 1244.29,636.477 1255.74,639.166 1267.19,641.894 1278.64,644.662 1290.09,647.47 1301.54,650.318 1312.99,653.207 1324.44,656.136 1335.89,659.107 1347.34,662.119 1358.79,665.173 1370.23,668.269 1381.68,671.409 1393.13,674.591 1404.58,677.817 1416.03,681.086 1427.48,684.4 1438.93,687.759 1450.38,691.163 1461.83,694.613 1473.28,698.108 1484.73,701.651 1496.18,705.241 1507.63,708.878 1519.07,712.564 1530.52,716.298 1541.97,720.082 1553.42,723.915 1564.87,727.8 1576.32,731.735 1587.77,735.722 1599.22,739.762 1610.67,743.854 1622.12,748 1633.57,752.201 1645.02,756.457 1656.47,760.77 1667.91,765.138 1679.36,769.565 1690.81,774.05 1702.26,778.594 1713.71,783.198 1725.16,787.864 1736.61,792.591 1748.06,797.382 1759.51,802.236 1770.96,807.156 1782.41,812.142 1793.86,817.195 1805.31,822.317 1816.75,827.509 1828.2,832.772 1839.65,838.107 1851.1,843.515 1862.55,848.999 1874,854.56 1885.45,860.198 1896.9,865.917 1908.35,871.717 1919.8,877.6 1931.25,883.568 1942.7,889.623 1954.15,895.767 1965.59,902.002 1977.04,908.33 1988.49,914.754 1999.94,921.275 2011.39,927.897 2022.84,934.622 2034.29,941.452 2045.74,948.392 2057.19,955.443 2068.64,962.61 2080.09,969.894 2091.54,977.301 2102.99,984.835 2114.43,992.498 2125.88,1000.3 2137.33,1008.23 2148.78,1016.31 2160.23,1024.54 2171.68,1032.93 2183.13,1041.47 2194.58,1050.19 2206.03,1059.07 2217.48,1068.14 2228.93,1077.4 2240.38,1086.86 2251.83,1096.53 2263.27,1106.41 2274.72,1116.53 2286.17,1126.88 2297.62,1137.5 2309.07,1148.38 2320.52,1159.55 2331.97,1171.03 2343.42,1182.83 2354.87,1194.99 2366.32,1207.52 2377.77,1220.46 2389.22,1233.85 2400.67,1247.71 2412.11,1262.11 2423.56,1277.09 2435.01,1292.72 2446.46,1309.09 2457.91,1326.29 2469.36,1344.44 2480.81,1363.71 2492.26,1384.31 2503.71,1406.52 2515.16,1430.78 2526.61,1457.71 2538.06,1488.39 2549.51,1524.94 2560.95,1572.74 2572.4,1688.65 "/>
<polyline clip-path="url(#clip071)" style="stroke:#ff8c00; stroke-linecap:round; stroke-linejoin:round; stroke-width:8; stroke-opacity:1; fill:none" stroke-dasharray="4, 8" points="294.006,173.254 305.456,179.346 316.905,185.438 328.354,191.53 339.803,197.622 351.253,203.714 362.702,209.807 374.151,215.899 385.6,221.991 397.049,228.083 408.499,234.175 419.948,240.267 431.397,246.359 442.846,252.451 454.296,258.543 465.745,264.635 477.194,270.727 488.643,276.819 500.093,282.911 511.542,289.003 522.991,295.095 534.44,301.187 545.89,307.28 557.339,313.372 568.788,319.464 580.237,325.556 591.686,331.648 603.136,337.74 614.585,343.832 626.034,349.924 637.483,356.016 648.933,362.108 660.382,368.2 671.831,374.292 683.28,380.384 694.73,386.476 706.179,392.568 717.628,398.661 729.077,404.753 740.527,410.845 751.976,416.937 763.425,423.029 774.874,429.121 786.323,435.213 797.773,441.305 809.222,447.397 820.671,453.489 832.12,459.581 843.57,465.673 855.019,471.765 866.468,477.857 877.917,483.949 889.367,490.041 900.816,496.134 912.265,502.226 923.714,508.318 935.163,514.41 946.613,520.502 958.062,526.594 969.511,532.686 980.96,538.778 992.41,544.87 1003.86,550.962 1015.31,557.054 1026.76,563.146 1038.21,569.238 1049.66,575.33 1061.11,581.422 1072.55,587.514 1084,593.607 1095.45,599.699 1106.9,605.791 1118.35,611.883 1129.8,617.975 1141.25,624.067 1152.7,630.159 1164.15,636.251 1175.6,642.343 1187.05,648.435 1198.5,654.527 1209.95,660.619 1221.39,666.711 1232.84,672.803 1244.29,678.895 1255.74,684.987 1267.19,691.08 1278.64,697.172 1290.09,703.264 1301.54,709.356 1312.99,715.448 1324.44,721.54 1335.89,727.632 1347.34,733.724 1358.79,739.816 1370.23,745.908 1381.68,752 1393.13,758.092 1404.58,764.184 1416.03,770.276 1427.48,776.368 1438.93,782.461 1450.38,788.553 1461.83,794.645 1473.28,800.737 1484.73,806.829 1496.18,812.921 1507.63,819.013 1519.07,825.105 1530.52,831.197 1541.97,837.289 1553.42,843.381 1564.87,849.473 1576.32,855.565 1587.77,861.657 1599.22,867.749 1610.67,873.841 1622.12,879.934 1633.57,886.026 1645.02,892.118 1656.47,898.21 1667.91,904.302 1679.36,910.394 1690.81,916.486 1702.26,922.578 1713.71,928.67 1725.16,934.762 1736.61,940.854 1748.06,946.946 1759.51,953.038 1770.96,959.13 1782.41,965.222 1793.86,971.314 1805.31,977.407 1816.75,983.499 1828.2,989.591 1839.65,995.683 1851.1,1001.77 1862.55,1007.87 1874,1013.96 1885.45,1020.05 1896.9,1026.14 1908.35,1032.24 1919.8,1038.33 1931.25,1044.42 1942.7,1050.51 1954.15,1056.6 1965.59,1062.7 1977.04,1068.79 1988.49,1074.88 1999.94,1080.97 2011.39,1087.06 2022.84,1093.16 2034.29,1099.25 2045.74,1105.34 2057.19,1111.43 2068.64,1117.52 2080.09,1123.62 2091.54,1129.71 2102.99,1135.8 2114.43,1141.89 2125.88,1147.98 2137.33,1154.08 2148.78,1160.17 2160.23,1166.26 2171.68,1172.35 2183.13,1178.44 2194.58,1184.54 2206.03,1190.63 2217.48,1196.72 2228.93,1202.81 2240.38,1208.9 2251.83,1215 2263.27,1221.09 2274.72,1227.18 2286.17,1233.27 2297.62,1239.37 2309.07,1245.46 2320.52,1251.55 2331.97,1257.64 2343.42,1263.73 2354.87,1269.83 2366.32,1275.92 2377.77,1282.01 2389.22,1288.1 2400.67,1294.19 2412.11,1300.29 2423.56,1306.38 2435.01,1312.47 2446.46,1318.56 2457.91,1324.65 2469.36,1330.75 2480.81,1336.84 2492.26,1342.93 2503.71,1349.02 2515.16,1355.11 2526.61,1361.21 2538.06,1367.3 2549.51,1373.39 2560.95,1379.48 2572.4,1385.57 "/>
<polyline clip-path="url(#clip071)" style="stroke:#dc143c; stroke-linecap:round; stroke-linejoin:round; stroke-width:10; stroke-opacity:1; fill:none" points="294.006,352.114 305.456,355.167 316.905,358.235 328.354,361.318 339.803,364.415 351.253,367.527 362.702,370.653 374.151,373.795 385.6,376.95 397.049,380.121 408.499,383.306 419.948,386.505 431.397,389.72 442.846,392.949 454.296,396.193 465.745,399.451 477.194,402.725 488.643,406.013 500.093,409.315 511.542,412.633 522.991,415.966 534.44,419.313 545.89,422.675 557.339,426.052 568.788,429.444 580.237,432.851 591.686,436.273 603.136,439.71 614.585,443.161 626.034,446.628 637.483,450.11 648.933,453.608 660.382,457.12 671.831,460.647 683.28,464.19 694.73,467.748 706.179,471.322 717.628,474.91 729.077,478.515 740.527,482.134 751.976,485.769 763.425,489.42 774.874,493.086 786.323,496.768 797.773,500.466 809.222,504.179 820.671,507.908 832.12,511.653 843.57,515.414 855.019,519.191 866.468,522.985 877.917,526.794 889.367,530.619 900.816,534.461 912.265,538.319 923.714,542.193 935.163,546.084 946.613,549.991 958.062,553.915 969.511,557.856 980.96,561.813 992.41,565.787 1003.86,569.779 1015.31,573.787 1026.76,577.812 1038.21,581.855 1049.66,585.915 1061.11,589.992 1072.55,594.087 1084,598.199 1095.45,602.33 1106.9,606.478 1118.35,610.644 1129.8,614.827 1141.25,619.03 1152.7,623.25 1164.15,627.489 1175.6,631.746 1187.05,636.022 1198.5,640.317 1209.95,644.63 1221.39,648.963 1232.84,653.315 1244.29,657.686 1255.74,662.077 1267.19,666.487 1278.64,670.917 1290.09,675.367 1301.54,679.837 1312.99,684.327 1324.44,688.838 1335.89,693.369 1347.34,697.921 1358.79,702.495 1370.23,707.089 1381.68,711.704 1393.13,716.342 1404.58,721 1416.03,725.681 1427.48,730.384 1438.93,735.11 1450.38,739.858 1461.83,744.629 1473.28,749.423 1484.73,754.24 1496.18,759.081 1507.63,763.945 1519.07,768.834 1530.52,773.748 1541.97,778.685 1553.42,783.648 1564.87,788.636 1576.32,793.65 1587.77,798.69 1599.22,803.755 1610.67,808.848 1622.12,813.967 1633.57,819.113 1645.02,824.288 1656.47,829.49 1667.91,834.72 1679.36,839.979 1690.81,845.268 1702.26,850.586 1713.71,855.934 1725.16,861.313 1736.61,866.723 1748.06,872.164 1759.51,877.637 1770.96,883.143 1782.41,888.682 1793.86,894.255 1805.31,899.862 1816.75,905.504 1828.2,911.181 1839.65,916.895 1851.1,922.645 1862.55,928.433 1874,934.259 1885.45,940.125 1896.9,946.03 1908.35,951.976 1919.8,957.963 1931.25,963.994 1942.7,970.067 1954.15,976.185 1965.59,982.349 1977.04,988.559 1988.49,994.817 1999.94,1001.12 2011.39,1007.48 2022.84,1013.89 2034.29,1020.35 2045.74,1026.87 2057.19,1033.44 2068.64,1040.07 2080.09,1046.76 2091.54,1053.5 2102.99,1060.32 2114.43,1067.2 2125.88,1074.14 2137.33,1081.15 2148.78,1088.24 2160.23,1095.4 2171.68,1102.64 2183.13,1109.96 2194.58,1117.36 2206.03,1124.85 2217.48,1132.43 2228.93,1140.11 2240.38,1147.88 2251.83,1155.76 2263.27,1163.75 2274.72,1171.85 2286.17,1180.08 2297.62,1188.43 2309.07,1196.92 2320.52,1205.55 2331.97,1214.34 2343.42,1223.28 2354.87,1232.41 2366.32,1241.72 2377.77,1251.24 2389.22,1260.97 2400.67,1270.95 2412.11,1281.2 2423.56,1291.73 2435.01,1302.6 2446.46,1313.83 2457.91,1325.47 2469.36,1337.59 2480.81,1350.27 2492.26,1363.62 2503.71,1377.77 2515.16,1392.94 2526.61,1409.46 2538.06,1427.85 2549.51,1449.16 2560.95,1476.11 2572.4,1537.11 "/>
<path clip-path="url(#clip070)" d="M1858.28 388.696 L2560.25 388.696 L2560.25 181.336 L1858.28 181.336  Z" fill="#ffffff" fill-rule="evenodd" fill-opacity="1"/>
<polyline clip-path="url(#clip070)" style="stroke:#000000; stroke-linecap:round; stroke-linejoin:round; stroke-width:4; stroke-opacity:1; fill:none" points="1858.28,388.696 2560.25,388.696 2560.25,181.336 1858.28,181.336 1858.28,388.696 "/>
<polyline clip-path="url(#clip070)" style="stroke:#4682b4; stroke-linecap:round; stroke-linejoin:round; stroke-width:8; stroke-opacity:1; fill:none" stroke-dasharray="32, 20" points="1885.12,233.176 2046.12,233.176 "/>
<path clip-path="url(#clip070)" d="M2072.96 215.896 L2094.81 215.896 L2094.81 219.831 L2077.63 219.831 L2077.63 230.063 L2094.09 230.063 L2094.09 233.998 L2077.63 233.998 L2077.63 246.521 L2095.23 246.521 L2095.23 250.456 L2072.96 250.456 L2072.96 215.896 Z" fill="#000000" fill-rule="nonzero" fill-opacity="1" /><path clip-path="url(#clip070)" d="M2102.73 214.438 L2106.99 214.438 L2106.99 250.456 L2102.73 250.456 L2102.73 214.438 Z" fill="#000000" fill-rule="nonzero" fill-opacity="1" /><path clip-path="url(#clip070)" d="M2115.9 214.438 L2120.16 214.438 L2120.16 250.456 L2115.9 250.456 L2115.9 214.438 Z" fill="#000000" fill-rule="nonzero" fill-opacity="1" /><path clip-path="url(#clip070)" d="M2129.07 224.531 L2133.33 224.531 L2133.33 250.456 L2129.07 250.456 L2129.07 224.531 M2129.07 214.438 L2133.33 214.438 L2133.33 219.831 L2129.07 219.831 L2129.07 214.438 Z" fill="#000000" fill-rule="nonzero" fill-opacity="1" /><path clip-path="url(#clip070)" d="M2146.36 246.567 L2146.36 260.317 L2142.08 260.317 L2142.08 224.531 L2146.36 224.531 L2146.36 228.466 Q2147.7 226.151 2149.74 225.04 Q2151.8 223.906 2154.65 223.906 Q2159.37 223.906 2162.31 227.655 Q2165.27 231.405 2165.27 237.517 Q2165.27 243.628 2162.31 247.378 Q2159.37 251.128 2154.65 251.128 Q2151.8 251.128 2149.74 250.016 Q2147.7 248.882 2146.36 246.567 M2160.85 237.517 Q2160.85 232.817 2158.91 230.155 Q2156.98 227.47 2153.61 227.47 Q2150.23 227.47 2148.28 230.155 Q2146.36 232.817 2146.36 237.517 Q2146.36 242.216 2148.28 244.901 Q2150.23 247.563 2153.61 247.563 Q2156.98 247.563 2158.91 244.901 Q2160.85 242.216 2160.85 237.517 Z" fill="#000000" fill-rule="nonzero" fill-opacity="1" /><path clip-path="url(#clip070)" d="M2176.54 217.169 L2176.54 224.531 L2185.32 224.531 L2185.32 227.841 L2176.54 227.841 L2176.54 241.915 Q2176.54 245.086 2177.4 245.989 Q2178.28 246.891 2180.94 246.891 L2185.32 246.891 L2185.32 250.456 L2180.94 250.456 Q2176.01 250.456 2174.14 248.628 Q2172.26 246.776 2172.26 241.915 L2172.26 227.841 L2169.14 227.841 L2169.14 224.531 L2172.26 224.531 L2172.26 217.169 L2176.54 217.169 Z" fill="#000000" fill-rule="nonzero" fill-opacity="1" /><path clip-path="url(#clip070)" d="M2190.92 224.531 L2195.18 224.531 L2195.18 250.456 L2190.92 250.456 L2190.92 224.531 M2190.92 214.438 L2195.18 214.438 L2195.18 219.831 L2190.92 219.831 L2190.92 214.438 Z" fill="#000000" fill-rule="nonzero" fill-opacity="1" /><path clip-path="url(#clip070)" d="M2222.75 225.526 L2222.75 229.507 Q2220.94 228.512 2219.11 228.026 Q2217.31 227.517 2215.46 227.517 Q2211.31 227.517 2209.02 230.155 Q2206.73 232.771 2206.73 237.517 Q2206.73 242.262 2209.02 244.901 Q2211.31 247.516 2215.46 247.516 Q2217.31 247.516 2219.11 247.03 Q2220.94 246.521 2222.75 245.526 L2222.75 249.461 Q2220.97 250.294 2219.04 250.711 Q2217.15 251.128 2214.99 251.128 Q2209.14 251.128 2205.69 247.447 Q2202.24 243.767 2202.24 237.517 Q2202.24 231.174 2205.71 227.54 Q2209.21 223.906 2215.27 223.906 Q2217.24 223.906 2219.11 224.322 Q2220.99 224.716 2222.75 225.526 Z" fill="#000000" fill-rule="nonzero" fill-opacity="1" /><path clip-path="url(#clip070)" d="M2241.94 237.424 Q2236.78 237.424 2234.79 238.604 Q2232.79 239.785 2232.79 242.632 Q2232.79 244.901 2234.28 246.243 Q2235.78 247.563 2238.35 247.563 Q2241.89 247.563 2244.02 245.063 Q2246.17 242.54 2246.17 238.373 L2246.17 237.424 L2241.94 237.424 M2250.43 235.665 L2250.43 250.456 L2246.17 250.456 L2246.17 246.521 Q2244.72 248.882 2242.54 250.016 Q2240.36 251.128 2237.22 251.128 Q2233.23 251.128 2230.87 248.905 Q2228.54 246.66 2228.54 242.91 Q2228.54 238.535 2231.45 236.313 Q2234.39 234.091 2240.2 234.091 L2246.17 234.091 L2246.17 233.674 Q2246.17 230.734 2244.23 229.137 Q2242.31 227.517 2238.81 227.517 Q2236.59 227.517 2234.48 228.049 Q2232.38 228.581 2230.43 229.646 L2230.43 225.711 Q2232.77 224.808 2234.97 224.368 Q2237.17 223.906 2239.25 223.906 Q2244.88 223.906 2247.66 226.822 Q2250.43 229.739 2250.43 235.665 Z" fill="#000000" fill-rule="nonzero" fill-opacity="1" /><path clip-path="url(#clip070)" d="M2259.21 214.438 L2263.47 214.438 L2263.47 250.456 L2259.21 250.456 L2259.21 214.438 Z" fill="#000000" fill-rule="nonzero" fill-opacity="1" /><polyline clip-path="url(#clip070)" style="stroke:#ff8c00; stroke-linecap:round; stroke-linejoin:round; stroke-width:8; stroke-opacity:1; fill:none" stroke-dasharray="4, 8" points="1885.12,285.016 2046.12,285.016 "/>
<path clip-path="url(#clip070)" d="M2072.96 267.736 L2102.19 267.736 L2102.19 271.671 L2089.93 271.671 L2089.93 302.296 L2085.23 302.296 L2085.23 271.671 L2072.96 271.671 L2072.96 267.736 Z" fill="#000000" fill-rule="nonzero" fill-opacity="1" /><path clip-path="url(#clip070)" d="M2114.58 280.352 Q2113.86 279.935 2113 279.75 Q2112.17 279.542 2111.15 279.542 Q2107.54 279.542 2105.6 281.903 Q2103.67 284.241 2103.67 288.639 L2103.67 302.296 L2099.39 302.296 L2099.39 276.371 L2103.67 276.371 L2103.67 280.398 Q2105.02 278.037 2107.17 276.903 Q2109.32 275.746 2112.4 275.746 Q2112.84 275.746 2113.37 275.815 Q2113.91 275.861 2114.55 275.977 L2114.58 280.352 Z" fill="#000000" fill-rule="nonzero" fill-opacity="1" /><path clip-path="url(#clip070)" d="M2130.83 289.264 Q2125.67 289.264 2123.67 290.444 Q2121.68 291.625 2121.68 294.472 Q2121.68 296.741 2123.17 298.083 Q2124.67 299.403 2127.24 299.403 Q2130.78 299.403 2132.91 296.903 Q2135.06 294.38 2135.06 290.213 L2135.06 289.264 L2130.83 289.264 M2139.32 287.505 L2139.32 302.296 L2135.06 302.296 L2135.06 298.361 Q2133.61 300.722 2131.43 301.856 Q2129.25 302.968 2126.11 302.968 Q2122.12 302.968 2119.76 300.745 Q2117.42 298.5 2117.42 294.75 Q2117.42 290.375 2120.34 288.153 Q2123.28 285.931 2129.09 285.931 L2135.06 285.931 L2135.06 285.514 Q2135.06 282.574 2133.12 280.977 Q2131.2 279.357 2127.7 279.357 Q2125.48 279.357 2123.37 279.889 Q2121.27 280.421 2119.32 281.486 L2119.32 277.551 Q2121.66 276.648 2123.86 276.208 Q2126.06 275.746 2128.14 275.746 Q2133.77 275.746 2136.55 278.662 Q2139.32 281.579 2139.32 287.505 Z" fill="#000000" fill-rule="nonzero" fill-opacity="1" /><path clip-path="url(#clip070)" d="M2152.22 298.407 L2152.22 312.157 L2147.93 312.157 L2147.93 276.371 L2152.22 276.371 L2152.22 280.306 Q2153.56 277.991 2155.6 276.88 Q2157.66 275.746 2160.5 275.746 Q2165.23 275.746 2168.17 279.495 Q2171.13 283.245 2171.13 289.357 Q2171.13 295.468 2168.17 299.218 Q2165.23 302.968 2160.5 302.968 Q2157.66 302.968 2155.6 301.856 Q2153.56 300.722 2152.22 298.407 M2166.71 289.357 Q2166.71 284.657 2164.76 281.995 Q2162.84 279.31 2159.46 279.31 Q2156.08 279.31 2154.14 281.995 Q2152.22 284.657 2152.22 289.357 Q2152.22 294.056 2154.14 296.741 Q2156.08 299.403 2159.46 299.403 Q2162.84 299.403 2164.76 296.741 Q2166.71 294.056 2166.71 289.357 Z" fill="#000000" fill-rule="nonzero" fill-opacity="1" /><path clip-path="url(#clip070)" d="M2200.36 288.269 L2200.36 290.352 L2180.78 290.352 Q2181.06 294.75 2183.42 297.065 Q2185.8 299.356 2190.04 299.356 Q2192.49 299.356 2194.79 298.755 Q2197.1 298.153 2199.37 296.949 L2199.37 300.977 Q2197.08 301.949 2194.67 302.458 Q2192.26 302.968 2189.79 302.968 Q2183.58 302.968 2179.95 299.356 Q2176.34 295.745 2176.34 289.588 Q2176.34 283.222 2179.76 279.495 Q2183.21 275.746 2189.04 275.746 Q2194.28 275.746 2197.31 279.125 Q2200.36 282.482 2200.36 288.269 M2196.11 287.019 Q2196.06 283.523 2194.14 281.44 Q2192.24 279.357 2189.09 279.357 Q2185.53 279.357 2183.37 281.37 Q2181.24 283.384 2180.92 287.042 L2196.11 287.019 Z" fill="#000000" fill-rule="nonzero" fill-opacity="1" /><path clip-path="url(#clip070)" d="M2205.5 276.371 L2225.73 276.371 L2225.73 280.259 L2209.72 298.894 L2225.73 298.894 L2225.73 302.296 L2204.92 302.296 L2204.92 298.407 L2220.94 279.773 L2205.5 279.773 L2205.5 276.371 Z" fill="#000000" fill-rule="nonzero" fill-opacity="1" /><path clip-path="url(#clip070)" d="M2242.29 279.357 Q2238.86 279.357 2236.87 282.042 Q2234.88 284.704 2234.88 289.357 Q2234.88 294.009 2236.85 296.694 Q2238.84 299.356 2242.29 299.356 Q2245.69 299.356 2247.68 296.671 Q2249.67 293.986 2249.67 289.357 Q2249.67 284.75 2247.68 282.065 Q2245.69 279.357 2242.29 279.357 M2242.29 275.746 Q2247.84 275.746 2251.01 279.357 Q2254.18 282.968 2254.18 289.357 Q2254.18 295.722 2251.01 299.356 Q2247.84 302.968 2242.29 302.968 Q2236.71 302.968 2233.54 299.356 Q2230.39 295.722 2230.39 289.357 Q2230.39 282.968 2233.54 279.357 Q2236.71 275.746 2242.29 275.746 Z" fill="#000000" fill-rule="nonzero" fill-opacity="1" /><path clip-path="url(#clip070)" d="M2261.24 276.371 L2265.5 276.371 L2265.5 302.296 L2261.24 302.296 L2261.24 276.371 M2261.24 266.278 L2265.5 266.278 L2265.5 271.671 L2261.24 271.671 L2261.24 266.278 Z" fill="#000000" fill-rule="nonzero" fill-opacity="1" /><path clip-path="url(#clip070)" d="M2291.47 280.306 L2291.47 266.278 L2295.73 266.278 L2295.73 302.296 L2291.47 302.296 L2291.47 298.407 Q2290.13 300.722 2288.07 301.856 Q2286.04 302.968 2283.16 302.968 Q2278.47 302.968 2275.5 299.218 Q2272.56 295.468 2272.56 289.357 Q2272.56 283.245 2275.5 279.495 Q2278.47 275.746 2283.16 275.746 Q2286.04 275.746 2288.07 276.88 Q2290.13 277.991 2291.47 280.306 M2276.96 289.357 Q2276.96 294.056 2278.88 296.741 Q2280.83 299.403 2284.21 299.403 Q2287.59 299.403 2289.53 296.741 Q2291.47 294.056 2291.47 289.357 Q2291.47 284.657 2289.53 281.995 Q2287.59 279.31 2284.21 279.31 Q2280.83 279.31 2278.88 281.995 Q2276.96 284.657 2276.96 289.357 Z" fill="#000000" fill-rule="nonzero" fill-opacity="1" /><path clip-path="url(#clip070)" d="M2316.29 289.264 Q2311.13 289.264 2309.14 290.444 Q2307.15 291.625 2307.15 294.472 Q2307.15 296.741 2308.63 298.083 Q2310.13 299.403 2312.7 299.403 Q2316.24 299.403 2318.37 296.903 Q2320.53 294.38 2320.53 290.213 L2320.53 289.264 L2316.29 289.264 M2324.78 287.505 L2324.78 302.296 L2320.53 302.296 L2320.53 298.361 Q2319.07 300.722 2316.89 301.856 Q2314.72 302.968 2311.57 302.968 Q2307.59 302.968 2305.22 300.745 Q2302.89 298.5 2302.89 294.75 Q2302.89 290.375 2305.8 288.153 Q2308.74 285.931 2314.55 285.931 L2320.53 285.931 L2320.53 285.514 Q2320.53 282.574 2318.58 280.977 Q2316.66 279.357 2313.16 279.357 Q2310.94 279.357 2308.84 279.889 Q2306.73 280.421 2304.79 281.486 L2304.79 277.551 Q2307.12 276.648 2309.32 276.208 Q2311.52 275.746 2313.6 275.746 Q2319.23 275.746 2322.01 278.662 Q2324.78 281.579 2324.78 287.505 Z" fill="#000000" fill-rule="nonzero" fill-opacity="1" /><path clip-path="url(#clip070)" d="M2333.56 266.278 L2337.82 266.278 L2337.82 302.296 L2333.56 302.296 L2333.56 266.278 Z" fill="#000000" fill-rule="nonzero" fill-opacity="1" /><path clip-path="url(#clip070)" d="M2372.03 266.324 Q2368.93 271.648 2367.42 276.857 Q2365.92 282.065 2365.92 287.412 Q2365.92 292.759 2367.42 298.014 Q2368.95 303.245 2372.03 308.546 L2368.33 308.546 Q2364.85 303.106 2363.12 297.852 Q2361.41 292.597 2361.41 287.412 Q2361.41 282.25 2363.12 277.019 Q2364.83 271.787 2368.33 266.324 L2372.03 266.324 Z" fill="#000000" fill-rule="nonzero" fill-opacity="1" /><path clip-path="url(#clip070)" d="M2390.5 270.329 L2402.47 302.296 L2397.96 302.296 L2390.69 283.13 L2381.75 302.296 L2377.24 302.296 L2388.6 277.435 L2386.89 272.852 Q2385.8 269.935 2383.33 269.935 L2381.1 269.935 L2381.1 266.278 L2383.81 266.324 Q2389.04 266.394 2390.5 270.329 Z" fill="#000000" fill-rule="nonzero" fill-opacity="1" /><path clip-path="url(#clip070)" d="M2408.9 280.769 L2438.58 280.769 L2438.58 284.657 L2408.9 284.657 L2408.9 280.769 M2408.9 290.213 L2438.58 290.213 L2438.58 294.148 L2408.9 294.148 L2408.9 290.213 Z" fill="#000000" fill-rule="nonzero" fill-opacity="1" /><path clip-path="url(#clip070)" d="M2458.67 270.815 Q2455.06 270.815 2453.23 274.38 Q2451.43 277.921 2451.43 285.051 Q2451.43 292.157 2453.23 295.722 Q2455.06 299.264 2458.67 299.264 Q2462.31 299.264 2464.11 295.722 Q2465.94 292.157 2465.94 285.051 Q2465.94 277.921 2464.11 274.38 Q2462.31 270.815 2458.67 270.815 M2458.67 267.111 Q2464.48 267.111 2467.54 271.718 Q2470.62 276.301 2470.62 285.051 Q2470.62 293.778 2467.54 298.384 Q2464.48 302.968 2458.67 302.968 Q2452.86 302.968 2449.78 298.384 Q2446.73 293.778 2446.73 285.051 Q2446.73 276.301 2449.78 271.718 Q2452.86 267.111 2458.67 267.111 Z" fill="#000000" fill-rule="nonzero" fill-opacity="1" /><path clip-path="url(#clip070)" d="M2478.84 296.417 L2483.72 296.417 L2483.72 302.296 L2478.84 302.296 L2478.84 296.417 Z" fill="#000000" fill-rule="nonzero" fill-opacity="1" /><path clip-path="url(#clip070)" d="M2497.93 298.361 L2514.25 298.361 L2514.25 302.296 L2492.31 302.296 L2492.31 298.361 Q2494.97 295.607 2499.55 290.977 Q2504.16 286.324 2505.34 284.982 Q2507.58 282.458 2508.46 280.722 Q2509.37 278.963 2509.37 277.273 Q2509.37 274.519 2507.42 272.783 Q2505.5 271.046 2502.4 271.046 Q2500.2 271.046 2497.75 271.81 Q2495.32 272.574 2492.54 274.125 L2492.54 269.403 Q2495.36 268.269 2497.82 267.69 Q2500.27 267.111 2502.31 267.111 Q2507.68 267.111 2510.87 269.796 Q2514.07 272.482 2514.07 276.972 Q2514.07 279.102 2513.26 281.023 Q2512.47 282.921 2510.36 285.514 Q2509.78 286.185 2506.68 289.403 Q2503.58 292.597 2497.93 298.361 Z" fill="#000000" fill-rule="nonzero" fill-opacity="1" /><path clip-path="url(#clip070)" d="M2522.79 266.324 L2526.5 266.324 Q2529.97 271.787 2531.68 277.019 Q2533.42 282.25 2533.42 287.412 Q2533.42 292.597 2531.68 297.852 Q2529.97 303.106 2526.5 308.546 L2522.79 308.546 Q2525.87 303.245 2527.38 298.014 Q2528.9 292.759 2528.9 287.412 Q2528.9 282.065 2527.38 276.857 Q2525.87 271.648 2522.79 266.324 Z" fill="#000000" fill-rule="nonzero" fill-opacity="1" /><polyline clip-path="url(#clip070)" style="stroke:#dc143c; stroke-linecap:round; stroke-linejoin:round; stroke-width:10; stroke-opacity:1; fill:none" points="1885.12,336.856 2046.12,336.856 "/>
<path clip-path="url(#clip070)" d="M2095.2 320.711 L2095.2 325.271 Q2092.54 323.998 2090.18 323.373 Q2087.82 322.748 2085.62 322.748 Q2081.8 322.748 2079.72 324.229 Q2077.66 325.711 2077.66 328.442 Q2077.66 330.734 2079.02 331.914 Q2080.41 333.072 2084.25 333.789 L2087.08 334.368 Q2092.31 335.363 2094.79 337.886 Q2097.29 340.386 2097.29 344.599 Q2097.29 349.622 2093.91 352.215 Q2090.55 354.808 2084.05 354.808 Q2081.59 354.808 2078.81 354.252 Q2076.06 353.696 2073.1 352.609 L2073.1 347.794 Q2075.94 349.391 2078.68 350.201 Q2081.41 351.011 2084.05 351.011 Q2088.05 351.011 2090.23 349.437 Q2092.4 347.863 2092.4 344.947 Q2092.4 342.4 2090.83 340.965 Q2089.28 339.53 2085.71 338.812 L2082.86 338.257 Q2077.63 337.215 2075.3 334.993 Q2072.96 332.771 2072.96 328.812 Q2072.96 324.229 2076.18 321.59 Q2079.42 318.951 2085.09 318.951 Q2087.52 318.951 2090.04 319.391 Q2092.56 319.831 2095.2 320.711 Z" fill="#000000" fill-rule="nonzero" fill-opacity="1" /><path clip-path="url(#clip070)" d="M2125.94 338.488 L2125.94 354.136 L2121.68 354.136 L2121.68 338.627 Q2121.68 334.947 2120.25 333.118 Q2118.81 331.289 2115.94 331.289 Q2112.49 331.289 2110.5 333.488 Q2108.51 335.687 2108.51 339.484 L2108.51 354.136 L2104.23 354.136 L2104.23 318.118 L2108.51 318.118 L2108.51 332.238 Q2110.04 329.9 2112.1 328.743 Q2114.18 327.586 2116.89 327.586 Q2121.36 327.586 2123.65 330.363 Q2125.94 333.118 2125.94 338.488 Z" fill="#000000" fill-rule="nonzero" fill-opacity="1" /><path clip-path="url(#clip070)" d="M2149.46 332.192 Q2148.74 331.775 2147.89 331.59 Q2147.05 331.382 2146.04 331.382 Q2142.42 331.382 2140.48 333.743 Q2138.56 336.081 2138.56 340.479 L2138.56 354.136 L2134.28 354.136 L2134.28 328.211 L2138.56 328.211 L2138.56 332.238 Q2139.9 329.877 2142.05 328.743 Q2144.21 327.586 2147.29 327.586 Q2147.73 327.586 2148.26 327.655 Q2148.79 327.701 2149.44 327.817 L2149.46 332.192 Z" fill="#000000" fill-rule="nonzero" fill-opacity="1" /><path clip-path="url(#clip070)" d="M2175.06 340.109 L2175.06 342.192 L2155.48 342.192 Q2155.76 346.59 2158.12 348.905 Q2160.5 351.196 2164.74 351.196 Q2167.19 351.196 2169.48 350.595 Q2171.8 349.993 2174.07 348.789 L2174.07 352.817 Q2171.78 353.789 2169.37 354.298 Q2166.96 354.808 2164.48 354.808 Q2158.28 354.808 2154.65 351.196 Q2151.04 347.585 2151.04 341.428 Q2151.04 335.062 2154.46 331.335 Q2157.91 327.586 2163.74 327.586 Q2168.98 327.586 2172.01 330.965 Q2175.06 334.322 2175.06 340.109 M2170.8 338.859 Q2170.76 335.363 2168.84 333.28 Q2166.94 331.197 2163.79 331.197 Q2160.23 331.197 2158.07 333.21 Q2155.94 335.224 2155.62 338.882 L2170.8 338.859 Z" fill="#000000" fill-rule="nonzero" fill-opacity="1" /><path clip-path="url(#clip070)" d="M2203.61 338.488 L2203.61 354.136 L2199.35 354.136 L2199.35 338.627 Q2199.35 334.947 2197.91 333.118 Q2196.48 331.289 2193.61 331.289 Q2190.16 331.289 2188.17 333.488 Q2186.17 335.687 2186.17 339.484 L2186.17 354.136 L2181.89 354.136 L2181.89 328.211 L2186.17 328.211 L2186.17 332.238 Q2187.7 329.9 2189.76 328.743 Q2191.85 327.586 2194.55 327.586 Q2199.02 327.586 2201.31 330.363 Q2203.61 333.118 2203.61 338.488 Z" fill="#000000" fill-rule="nonzero" fill-opacity="1" /><path clip-path="url(#clip070)" d="M2211.94 318.118 L2216.22 318.118 L2216.22 339.391 L2228.93 328.211 L2234.37 328.211 L2220.62 340.34 L2234.95 354.136 L2229.39 354.136 L2216.22 341.474 L2216.22 354.136 L2211.94 354.136 L2211.94 318.118 Z" fill="#000000" fill-rule="nonzero" fill-opacity="1" /><path clip-path="url(#clip070)" d="M2266.41 341.104 Q2261.24 341.104 2259.25 342.284 Q2257.26 343.465 2257.26 346.312 Q2257.26 348.581 2258.74 349.923 Q2260.25 351.243 2262.82 351.243 Q2266.36 351.243 2268.49 348.743 Q2270.64 346.22 2270.64 342.053 L2270.64 341.104 L2266.41 341.104 M2274.9 339.345 L2274.9 354.136 L2270.64 354.136 L2270.64 350.201 Q2269.18 352.562 2267.01 353.696 Q2264.83 354.808 2261.68 354.808 Q2257.7 354.808 2255.34 352.585 Q2253 350.34 2253 346.59 Q2253 342.215 2255.92 339.993 Q2258.86 337.771 2264.67 337.771 L2270.64 337.771 L2270.64 337.354 Q2270.64 334.414 2268.7 332.817 Q2266.78 331.197 2263.28 331.197 Q2261.06 331.197 2258.95 331.729 Q2256.85 332.261 2254.9 333.326 L2254.9 329.391 Q2257.24 328.488 2259.44 328.048 Q2261.64 327.586 2263.72 327.586 Q2269.35 327.586 2272.12 330.502 Q2274.9 333.419 2274.9 339.345 Z" fill="#000000" fill-rule="nonzero" fill-opacity="1" /><path clip-path="url(#clip070)" d="M2280.62 328.211 L2285.13 328.211 L2293.23 349.97 L2301.34 328.211 L2305.85 328.211 L2296.13 354.136 L2290.34 354.136 L2280.62 328.211 Z" fill="#000000" fill-rule="nonzero" fill-opacity="1" /><path clip-path="url(#clip070)" d="M2333.91 340.109 L2333.91 342.192 L2314.32 342.192 Q2314.6 346.59 2316.96 348.905 Q2319.35 351.196 2323.58 351.196 Q2326.03 351.196 2328.33 350.595 Q2330.64 349.993 2332.91 348.789 L2332.91 352.817 Q2330.62 353.789 2328.21 354.298 Q2325.8 354.808 2323.33 354.808 Q2317.12 354.808 2313.49 351.196 Q2309.88 347.585 2309.88 341.428 Q2309.88 335.062 2313.3 331.335 Q2316.75 327.586 2322.59 327.586 Q2327.82 327.586 2330.85 330.965 Q2333.91 334.322 2333.91 340.109 M2329.65 338.859 Q2329.6 335.363 2327.68 333.28 Q2325.78 331.197 2322.63 331.197 Q2319.07 331.197 2316.91 333.21 Q2314.78 335.224 2314.46 338.882 L2329.65 338.859 Z" fill="#000000" fill-rule="nonzero" fill-opacity="1" /><path clip-path="url(#clip070)" d="M2355.92 332.192 Q2355.2 331.775 2354.34 331.59 Q2353.51 331.382 2352.49 331.382 Q2348.88 331.382 2346.94 333.743 Q2345.02 336.081 2345.02 340.479 L2345.02 354.136 L2340.73 354.136 L2340.73 328.211 L2345.02 328.211 L2345.02 332.238 Q2346.36 329.877 2348.51 328.743 Q2350.66 327.586 2353.74 327.586 Q2354.18 327.586 2354.72 327.655 Q2355.25 327.701 2355.9 327.817 L2355.92 332.192 Z" fill="#000000" fill-rule="nonzero" fill-opacity="1" /><path clip-path="url(#clip070)" d="M2372.17 341.104 Q2367.01 341.104 2365.02 342.284 Q2363.03 343.465 2363.03 346.312 Q2363.03 348.581 2364.51 349.923 Q2366.01 351.243 2368.58 351.243 Q2372.12 351.243 2374.25 348.743 Q2376.41 346.22 2376.41 342.053 L2376.41 341.104 L2372.17 341.104 M2380.66 339.345 L2380.66 354.136 L2376.41 354.136 L2376.41 350.201 Q2374.95 352.562 2372.77 353.696 Q2370.59 354.808 2367.45 354.808 Q2363.47 354.808 2361.1 352.585 Q2358.77 350.34 2358.77 346.59 Q2358.77 342.215 2361.68 339.993 Q2364.62 337.771 2370.43 337.771 L2376.41 337.771 L2376.41 337.354 Q2376.41 334.414 2374.46 332.817 Q2372.54 331.197 2369.04 331.197 Q2366.82 331.197 2364.72 331.729 Q2362.61 332.261 2360.66 333.326 L2360.66 329.391 Q2363 328.488 2365.2 328.048 Q2367.4 327.586 2369.48 327.586 Q2375.11 327.586 2377.89 330.502 Q2380.66 333.419 2380.66 339.345 Z" fill="#000000" fill-rule="nonzero" fill-opacity="1" /><path clip-path="url(#clip070)" d="M2406.5 340.872 Q2406.5 336.243 2404.58 333.697 Q2402.68 331.15 2399.23 331.15 Q2395.8 331.15 2393.88 333.697 Q2391.98 336.243 2391.98 340.872 Q2391.98 345.479 2393.88 348.025 Q2395.8 350.571 2399.23 350.571 Q2402.68 350.571 2404.58 348.025 Q2406.5 345.479 2406.5 340.872 M2410.76 350.919 Q2410.76 357.539 2407.82 360.757 Q2404.88 363.997 2398.81 363.997 Q2396.57 363.997 2394.58 363.65 Q2392.59 363.326 2390.71 362.632 L2390.71 358.488 Q2392.59 359.507 2394.41 359.993 Q2396.24 360.479 2398.14 360.479 Q2402.33 360.479 2404.41 358.28 Q2406.5 356.104 2406.5 351.683 L2406.5 349.576 Q2405.18 351.868 2403.12 353.002 Q2401.06 354.136 2398.19 354.136 Q2393.42 354.136 2390.5 350.502 Q2387.59 346.868 2387.59 340.872 Q2387.59 334.854 2390.5 331.22 Q2393.42 327.586 2398.19 327.586 Q2401.06 327.586 2403.12 328.72 Q2405.18 329.854 2406.5 332.146 L2406.5 328.211 L2410.76 328.211 L2410.76 350.919 Z" fill="#000000" fill-rule="nonzero" fill-opacity="1" /><path clip-path="url(#clip070)" d="M2441.71 340.109 L2441.71 342.192 L2422.12 342.192 Q2422.4 346.59 2424.76 348.905 Q2427.15 351.196 2431.38 351.196 Q2433.84 351.196 2436.13 350.595 Q2438.44 349.993 2440.71 348.789 L2440.71 352.817 Q2438.42 353.789 2436.01 354.298 Q2433.6 354.808 2431.13 354.808 Q2424.92 354.808 2421.29 351.196 Q2417.68 347.585 2417.68 341.428 Q2417.68 335.062 2421.1 331.335 Q2424.55 327.586 2430.39 327.586 Q2435.62 327.586 2438.65 330.965 Q2441.71 334.322 2441.71 340.109 M2437.45 338.859 Q2437.4 335.363 2435.48 333.28 Q2433.58 331.197 2430.43 331.197 Q2426.87 331.197 2424.71 333.21 Q2422.59 335.224 2422.26 338.882 L2437.45 338.859 Z" fill="#000000" fill-rule="nonzero" fill-opacity="1" /></svg>
