<?xml version="1.0" encoding="utf-8"?>
<svg xmlns="http://www.w3.org/2000/svg" xmlns:xlink="http://www.w3.org/1999/xlink" width="672" height="480" viewBox="0 0 2688 1920">
<defs>
  <clipPath id="clip620">
    <rect x="0" y="0" width="2688" height="1920"/>
  </clipPath>
</defs>
<path clip-path="url(#clip620)" d="M0 1920 L2688 1920 L2688 -4.26326e-14 L0 -4.26326e-14  Z" fill="#ffffff" fill-rule="evenodd" fill-opacity="1"/>
<defs>
  <clipPath id="clip621">
    <rect x="375" y="127" width="2266" height="1607"/>
  </clipPath>
</defs>
<path clip-path="url(#clip620)" d="M375.978 1734.12 L2640.76 1734.12 L2640.76 127.792 L375.978 127.792  Z" fill="#ffffff" fill-rule="evenodd" fill-opacity="1"/>
<polyline clip-path="url(#clip621)" style="stroke:#000000; stroke-linecap:round; stroke-linejoin:round; stroke-width:2; stroke-opacity:0.3; fill:none" points="440.075,1734.12 440.075,127.792 "/>
<polyline clip-path="url(#clip621)" style="stroke:#000000; stroke-linecap:round; stroke-linejoin:round; stroke-width:2; stroke-opacity:0.3; fill:none" points="867.392,1734.12 867.392,127.792 "/>
<polyline clip-path="url(#clip621)" style="stroke:#000000; stroke-linecap:round; stroke-linejoin:round; stroke-width:2; stroke-opacity:0.3; fill:none" points="1294.71,1734.12 1294.71,127.792 "/>
<polyline clip-path="url(#clip621)" style="stroke:#000000; stroke-linecap:round; stroke-linejoin:round; stroke-width:2; stroke-opacity:0.3; fill:none" points="1722.03,1734.12 1722.03,127.792 "/>
<polyline clip-path="url(#clip621)" style="stroke:#000000; stroke-linecap:round; stroke-linejoin:round; stroke-width:2; stroke-opacity:0.3; fill:none" points="2149.34,1734.12 2149.34,127.792 "/>
<polyline clip-path="url(#clip621)" style="stroke:#000000; stroke-linecap:round; stroke-linejoin:round; stroke-width:2; stroke-opacity:0.3; fill:none" points="2576.66,1734.12 2576.66,127.792 "/>
<polyline clip-path="url(#clip621)" style="stroke:#000000; stroke-linecap:round; stroke-linejoin:round; stroke-width:2; stroke-opacity:0.3; fill:none" points="375.978,1688.65 2640.76,1688.65 "/>
<polyline clip-path="url(#clip621)" style="stroke:#000000; stroke-linecap:round; stroke-linejoin:round; stroke-width:2; stroke-opacity:0.3; fill:none" points="375.978,1359.52 2640.76,1359.52 "/>
<polyline clip-path="url(#clip621)" style="stroke:#000000; stroke-linecap:round; stroke-linejoin:round; stroke-width:2; stroke-opacity:0.3; fill:none" points="375.978,1030.39 2640.76,1030.39 "/>
<polyline clip-path="url(#clip621)" style="stroke:#000000; stroke-linecap:round; stroke-linejoin:round; stroke-width:2; stroke-opacity:0.3; fill:none" points="375.978,701.257 2640.76,701.257 "/>
<polyline clip-path="url(#clip621)" style="stroke:#000000; stroke-linecap:round; stroke-linejoin:round; stroke-width:2; stroke-opacity:0.3; fill:none" points="375.978,372.124 2640.76,372.124 "/>
<polyline clip-path="url(#clip620)" style="stroke:#000000; stroke-linecap:round; stroke-linejoin:round; stroke-width:4; stroke-opacity:1; fill:none" points="375.978,1734.12 2640.76,1734.12 "/>
<polyline clip-path="url(#clip620)" style="stroke:#000000; stroke-linecap:round; stroke-linejoin:round; stroke-width:4; stroke-opacity:1; fill:none" points="440.075,1734.12 440.075,1715.22 "/>
<polyline clip-path="url(#clip620)" style="stroke:#000000; stroke-linecap:round; stroke-linejoin:round; stroke-width:4; stroke-opacity:1; fill:none" points="867.392,1734.12 867.392,1715.22 "/>
<polyline clip-path="url(#clip620)" style="stroke:#000000; stroke-linecap:round; stroke-linejoin:round; stroke-width:4; stroke-opacity:1; fill:none" points="1294.71,1734.12 1294.71,1715.22 "/>
<polyline clip-path="url(#clip620)" style="stroke:#000000; stroke-linecap:round; stroke-linejoin:round; stroke-width:4; stroke-opacity:1; fill:none" points="1722.03,1734.12 1722.03,1715.22 "/>
<polyline clip-path="url(#clip620)" style="stroke:#000000; stroke-linecap:round; stroke-linejoin:round; stroke-width:4; stroke-opacity:1; fill:none" points="2149.34,1734.12 2149.34,1715.22 "/>
<polyline clip-path="url(#clip620)" style="stroke:#000000; stroke-linecap:round; stroke-linejoin:round; stroke-width:4; stroke-opacity:1; fill:none" points="2576.66,1734.12 2576.66,1715.22 "/>
<path clip-path="url(#clip620)" d="M440.075 1767.34 Q436.464 1767.34 434.635 1770.9 Q432.83 1774.45 432.83 1781.58 Q432.83 1788.68 434.635 1792.25 Q436.464 1795.79 440.075 1795.79 Q443.709 1795.79 445.515 1792.25 Q447.344 1788.68 447.344 1781.58 Q447.344 1774.45 445.515 1770.9 Q443.709 1767.34 440.075 1767.34 M440.075 1763.64 Q445.885 1763.64 448.941 1768.24 Q452.02 1772.83 452.02 1781.58 Q452.02 1790.3 448.941 1794.91 Q445.885 1799.49 440.075 1799.49 Q434.265 1799.49 431.186 1794.91 Q428.131 1790.3 428.131 1781.58 Q428.131 1772.83 431.186 1768.24 Q434.265 1763.64 440.075 1763.64 Z" fill="#000000" fill-rule="nonzero" fill-opacity="1" /><path clip-path="url(#clip620)" d="M857.67 1764.26 L876.026 1764.26 L876.026 1768.2 L861.952 1768.2 L861.952 1776.67 Q862.971 1776.32 863.989 1776.16 Q865.008 1775.97 866.026 1775.97 Q871.813 1775.97 875.193 1779.15 Q878.572 1782.32 878.572 1787.73 Q878.572 1793.31 875.1 1796.41 Q871.628 1799.49 865.309 1799.49 Q863.133 1799.49 860.864 1799.12 Q858.619 1798.75 856.211 1798.01 L856.211 1793.31 Q858.295 1794.45 860.517 1795 Q862.739 1795.56 865.216 1795.56 Q869.221 1795.56 871.558 1793.45 Q873.896 1791.34 873.896 1787.73 Q873.896 1784.12 871.558 1782.02 Q869.221 1779.91 865.216 1779.91 Q863.341 1779.91 861.466 1780.33 Q859.614 1780.74 857.67 1781.62 L857.67 1764.26 Z" fill="#000000" fill-rule="nonzero" fill-opacity="1" /><path clip-path="url(#clip620)" d="M1269.4 1794.89 L1277.03 1794.89 L1277.03 1768.52 L1268.72 1770.19 L1268.72 1765.93 L1276.99 1764.26 L1281.66 1764.26 L1281.66 1794.89 L1289.3 1794.89 L1289.3 1798.82 L1269.4 1798.82 L1269.4 1794.89 Z" fill="#000000" fill-rule="nonzero" fill-opacity="1" /><path clip-path="url(#clip620)" d="M1308.75 1767.34 Q1305.14 1767.34 1303.31 1770.9 Q1301.5 1774.45 1301.5 1781.58 Q1301.5 1788.68 1303.31 1792.25 Q1305.14 1795.79 1308.75 1795.79 Q1312.38 1795.79 1314.19 1792.25 Q1316.02 1788.68 1316.02 1781.58 Q1316.02 1774.45 1314.19 1770.9 Q1312.38 1767.34 1308.75 1767.34 M1308.75 1763.64 Q1314.56 1763.64 1317.61 1768.24 Q1320.69 1772.83 1320.69 1781.58 Q1320.69 1790.3 1317.61 1794.91 Q1314.56 1799.49 1308.75 1799.49 Q1302.94 1799.49 1299.86 1794.91 Q1296.8 1790.3 1296.8 1781.58 Q1296.8 1772.83 1299.86 1768.24 Q1302.94 1763.64 1308.75 1763.64 Z" fill="#000000" fill-rule="nonzero" fill-opacity="1" /><path clip-path="url(#clip620)" d="M1697.21 1794.89 L1704.85 1794.89 L1704.85 1768.52 L1696.54 1770.19 L1696.54 1765.93 L1704.8 1764.26 L1709.48 1764.26 L1709.48 1794.89 L1717.12 1794.89 L1717.12 1798.82 L1697.21 1798.82 L1697.21 1794.89 Z" fill="#000000" fill-rule="nonzero" fill-opacity="1" /><path clip-path="url(#clip620)" d="M1726.61 1764.26 L1744.96 1764.26 L1744.96 1768.2 L1730.89 1768.2 L1730.89 1776.67 Q1731.91 1776.32 1732.93 1776.16 Q1733.95 1775.97 1734.96 1775.97 Q1740.75 1775.97 1744.13 1779.15 Q1747.51 1782.32 1747.51 1787.73 Q1747.51 1793.31 1744.04 1796.41 Q1740.57 1799.49 1734.25 1799.49 Q1732.07 1799.49 1729.8 1799.12 Q1727.56 1798.75 1725.15 1798.01 L1725.15 1793.31 Q1727.23 1794.45 1729.46 1795 Q1731.68 1795.56 1734.15 1795.56 Q1738.16 1795.56 1740.5 1793.45 Q1742.84 1791.34 1742.84 1787.73 Q1742.84 1784.12 1740.5 1782.02 Q1738.16 1779.91 1734.15 1779.91 Q1732.28 1779.91 1730.4 1780.33 Q1728.55 1780.74 1726.61 1781.62 L1726.61 1764.26 Z" fill="#000000" fill-rule="nonzero" fill-opacity="1" /><path clip-path="url(#clip620)" d="M2128.12 1794.89 L2144.43 1794.89 L2144.43 1798.82 L2122.49 1798.82 L2122.49 1794.89 Q2125.15 1792.13 2129.74 1787.5 Q2134.34 1782.85 2135.52 1781.51 Q2137.77 1778.98 2138.65 1777.25 Q2139.55 1775.49 2139.55 1773.8 Q2139.55 1771.04 2137.61 1769.31 Q2135.68 1767.57 2132.58 1767.57 Q2130.38 1767.57 2127.93 1768.34 Q2125.5 1769.1 2122.72 1770.65 L2122.72 1765.93 Q2125.55 1764.79 2128 1764.21 Q2130.45 1763.64 2132.49 1763.64 Q2137.86 1763.64 2141.05 1766.32 Q2144.25 1769.01 2144.25 1773.5 Q2144.25 1775.63 2143.44 1777.55 Q2142.65 1779.45 2140.55 1782.04 Q2139.97 1782.71 2136.86 1785.93 Q2133.76 1789.12 2128.12 1794.89 Z" fill="#000000" fill-rule="nonzero" fill-opacity="1" /><path clip-path="url(#clip620)" d="M2164.25 1767.34 Q2160.64 1767.34 2158.81 1770.9 Q2157 1774.45 2157 1781.58 Q2157 1788.68 2158.81 1792.25 Q2160.64 1795.79 2164.25 1795.79 Q2167.88 1795.79 2169.69 1792.25 Q2171.52 1788.68 2171.52 1781.58 Q2171.52 1774.45 2169.69 1770.9 Q2167.88 1767.34 2164.25 1767.34 M2164.25 1763.64 Q2170.06 1763.64 2173.11 1768.24 Q2176.19 1772.83 2176.19 1781.58 Q2176.19 1790.3 2173.11 1794.91 Q2170.06 1799.49 2164.25 1799.49 Q2158.44 1799.49 2155.36 1794.91 Q2152.3 1790.3 2152.3 1781.58 Q2152.3 1772.83 2155.36 1768.24 Q2158.44 1763.64 2164.25 1763.64 Z" fill="#000000" fill-rule="nonzero" fill-opacity="1" /><path clip-path="url(#clip620)" d="M2555.93 1794.89 L2572.25 1794.89 L2572.25 1798.82 L2550.3 1798.82 L2550.3 1794.89 Q2552.97 1792.13 2557.55 1787.5 Q2562.16 1782.85 2563.34 1781.51 Q2565.58 1778.98 2566.46 1777.25 Q2567.36 1775.49 2567.36 1773.8 Q2567.36 1771.04 2565.42 1769.31 Q2563.5 1767.57 2560.4 1767.57 Q2558.2 1767.57 2555.74 1768.34 Q2553.31 1769.1 2550.54 1770.65 L2550.54 1765.93 Q2553.36 1764.79 2555.81 1764.21 Q2558.27 1763.64 2560.3 1763.64 Q2565.67 1763.64 2568.87 1766.32 Q2572.06 1769.01 2572.06 1773.5 Q2572.06 1775.63 2571.25 1777.55 Q2570.47 1779.45 2568.36 1782.04 Q2567.78 1782.71 2564.68 1785.93 Q2561.58 1789.12 2555.93 1794.89 Z" fill="#000000" fill-rule="nonzero" fill-opacity="1" /><path clip-path="url(#clip620)" d="M2582.11 1764.26 L2600.47 1764.26 L2600.47 1768.2 L2586.39 1768.2 L2586.39 1776.67 Q2587.41 1776.32 2588.43 1776.16 Q2589.45 1775.97 2590.47 1775.97 Q2596.25 1775.97 2599.63 1779.15 Q2603.01 1782.32 2603.01 1787.73 Q2603.01 1793.31 2599.54 1796.41 Q2596.07 1799.49 2589.75 1799.49 Q2587.57 1799.49 2585.3 1799.12 Q2583.06 1798.75 2580.65 1798.01 L2580.65 1793.31 Q2582.73 1794.45 2584.96 1795 Q2587.18 1795.56 2589.66 1795.56 Q2593.66 1795.56 2596 1793.45 Q2598.34 1791.34 2598.34 1787.73 Q2598.34 1784.12 2596 1782.02 Q2593.66 1779.91 2589.66 1779.91 Q2587.78 1779.91 2585.91 1780.33 Q2584.05 1780.74 2582.11 1781.62 L2582.11 1764.26 Z" fill="#000000" fill-rule="nonzero" fill-opacity="1" /><path clip-path="url(#clip620)" d="M1378.54 1835.78 L1418.74 1835.78 L1418.74 1841.19 L1401.87 1841.19 L1401.87 1883.3 L1395.41 1883.3 L1395.41 1841.19 L1378.54 1841.19 L1378.54 1835.78 Z" fill="#000000" fill-rule="nonzero" fill-opacity="1" /><path clip-path="url(#clip620)" d="M1422.68 1847.65 L1428.54 1847.65 L1428.54 1883.3 L1422.68 1883.3 L1422.68 1847.65 M1422.68 1833.78 L1428.54 1833.78 L1428.54 1841.19 L1422.68 1841.19 L1422.68 1833.78 Z" fill="#000000" fill-rule="nonzero" fill-opacity="1" /><path clip-path="url(#clip620)" d="M1468.55 1854.5 Q1470.75 1850.55 1473.8 1848.67 Q1476.86 1846.79 1480.99 1846.79 Q1486.56 1846.79 1489.59 1850.71 Q1492.61 1854.59 1492.61 1861.78 L1492.61 1883.3 L1486.72 1883.3 L1486.72 1861.98 Q1486.72 1856.85 1484.91 1854.37 Q1483.09 1851.89 1479.37 1851.89 Q1474.82 1851.89 1472.18 1854.91 Q1469.54 1857.93 1469.54 1863.15 L1469.54 1883.3 L1463.65 1883.3 L1463.65 1861.98 Q1463.65 1856.82 1461.83 1854.37 Q1460.02 1851.89 1456.23 1851.89 Q1451.74 1851.89 1449.1 1854.94 Q1446.46 1857.97 1446.46 1863.15 L1446.46 1883.3 L1440.57 1883.3 L1440.57 1847.65 L1446.46 1847.65 L1446.46 1853.19 Q1448.47 1849.91 1451.27 1848.35 Q1454.07 1846.79 1457.92 1846.79 Q1461.8 1846.79 1464.51 1848.77 Q1467.24 1850.74 1468.55 1854.5 Z" fill="#000000" fill-rule="nonzero" fill-opacity="1" /><path clip-path="url(#clip620)" d="M1534.78 1864.01 L1534.78 1866.88 L1507.86 1866.88 Q1508.24 1872.92 1511.49 1876.11 Q1514.76 1879.26 1520.59 1879.26 Q1523.96 1879.26 1527.11 1878.43 Q1530.3 1877.6 1533.42 1875.95 L1533.42 1881.49 Q1530.26 1882.82 1526.95 1883.52 Q1523.64 1884.22 1520.24 1884.22 Q1511.71 1884.22 1506.71 1879.26 Q1501.75 1874.29 1501.75 1865.83 Q1501.75 1857.07 1506.46 1851.95 Q1511.2 1846.79 1519.22 1846.79 Q1526.41 1846.79 1530.58 1851.44 Q1534.78 1856.06 1534.78 1864.01 M1528.93 1862.29 Q1528.86 1857.49 1526.22 1854.62 Q1523.61 1851.76 1519.28 1851.76 Q1514.38 1851.76 1511.42 1854.53 Q1508.49 1857.3 1508.05 1862.33 L1528.93 1862.29 Z" fill="#000000" fill-rule="nonzero" fill-opacity="1" /><path clip-path="url(#clip620)" d="M1579.19 1833.84 Q1574.92 1841.16 1572.85 1848.32 Q1570.78 1855.48 1570.78 1862.84 Q1570.78 1870.19 1572.85 1877.41 Q1574.95 1884.61 1579.19 1891.89 L1574.09 1891.89 Q1569.32 1884.41 1566.93 1877.19 Q1564.58 1869.96 1564.58 1862.84 Q1564.58 1855.74 1566.93 1848.54 Q1569.29 1841.35 1574.09 1833.84 L1579.19 1833.84 Z" fill="#000000" fill-rule="nonzero" fill-opacity="1" /><path clip-path="url(#clip620)" d="M1613.27 1848.7 L1613.27 1854.24 Q1610.79 1852.97 1608.12 1852.33 Q1605.44 1851.7 1602.58 1851.7 Q1598.22 1851.7 1596.02 1853.03 Q1593.86 1854.37 1593.86 1857.04 Q1593.86 1859.08 1595.42 1860.26 Q1596.98 1861.4 1601.69 1862.45 L1603.69 1862.9 Q1609.93 1864.24 1612.54 1866.69 Q1615.18 1869.11 1615.18 1873.47 Q1615.18 1878.43 1611.24 1881.33 Q1607.32 1884.22 1600.45 1884.22 Q1597.58 1884.22 1594.46 1883.65 Q1591.38 1883.11 1587.94 1882 L1587.94 1875.95 Q1591.18 1877.64 1594.34 1878.49 Q1597.49 1879.32 1600.57 1879.32 Q1604.71 1879.32 1606.94 1877.92 Q1609.17 1876.49 1609.17 1873.91 Q1609.17 1871.52 1607.54 1870.25 Q1605.95 1868.98 1600.51 1867.8 L1598.47 1867.32 Q1593.03 1866.18 1590.61 1863.82 Q1588.19 1861.43 1588.19 1857.3 Q1588.19 1852.27 1591.76 1849.53 Q1595.32 1846.79 1601.88 1846.79 Q1605.13 1846.79 1607.99 1847.27 Q1610.85 1847.75 1613.27 1848.7 Z" fill="#000000" fill-rule="nonzero" fill-opacity="1" /><path clip-path="url(#clip620)" d="M1623.59 1833.84 L1628.68 1833.84 Q1633.45 1841.35 1635.81 1848.54 Q1638.2 1855.74 1638.2 1862.84 Q1638.2 1869.96 1635.81 1877.19 Q1633.45 1884.41 1628.68 1891.89 L1623.59 1891.89 Q1627.82 1884.61 1629.89 1877.41 Q1631.99 1870.19 1631.99 1862.84 Q1631.99 1855.48 1629.89 1848.32 Q1627.82 1841.16 1623.59 1833.84 Z" fill="#000000" fill-rule="nonzero" fill-opacity="1" /><polyline clip-path="url(#clip620)" style="stroke:#000000; stroke-linecap:round; stroke-linejoin:round; stroke-width:4; stroke-opacity:1; fill:none" points="375.978,1734.12 375.978,127.792 "/>
<polyline clip-path="url(#clip620)" style="stroke:#000000; stroke-linecap:round; stroke-linejoin:round; stroke-width:4; stroke-opacity:1; fill:none" points="375.978,1688.65 394.875,1688.65 "/>
<polyline clip-path="url(#clip620)" style="stroke:#000000; stroke-linecap:round; stroke-linejoin:round; stroke-width:4; stroke-opacity:1; fill:none" points="375.978,1359.52 394.875,1359.52 "/>
<polyline clip-path="url(#clip620)" style="stroke:#000000; stroke-linecap:round; stroke-linejoin:round; stroke-width:4; stroke-opacity:1; fill:none" points="375.978,1030.39 394.875,1030.39 "/>
<polyline clip-path="url(#clip620)" style="stroke:#000000; stroke-linecap:round; stroke-linejoin:round; stroke-width:4; stroke-opacity:1; fill:none" points="375.978,701.257 394.875,701.257 "/>
<polyline clip-path="url(#clip620)" style="stroke:#000000; stroke-linecap:round; stroke-linejoin:round; stroke-width:4; stroke-opacity:1; fill:none" points="375.978,372.124 394.875,372.124 "/>
<path clip-path="url(#clip620)" d="M323.713 1674.45 Q320.102 1674.45 318.274 1678.02 Q316.468 1681.56 316.468 1688.69 Q316.468 1695.8 318.274 1699.36 Q320.102 1702.9 323.713 1702.9 Q327.348 1702.9 329.153 1699.36 Q330.982 1695.8 330.982 1688.69 Q330.982 1681.56 329.153 1678.02 Q327.348 1674.45 323.713 1674.45 M323.713 1670.75 Q329.523 1670.75 332.579 1675.36 Q335.658 1679.94 335.658 1688.69 Q335.658 1697.42 332.579 1702.02 Q329.523 1706.61 323.713 1706.61 Q317.903 1706.61 314.824 1702.02 Q311.769 1697.42 311.769 1688.69 Q311.769 1679.94 314.824 1675.36 Q317.903 1670.75 323.713 1670.75 Z" fill="#000000" fill-rule="nonzero" fill-opacity="1" /><path clip-path="url(#clip620)" d="M121.839 1379.31 L138.159 1379.31 L138.159 1383.25 L116.214 1383.25 L116.214 1379.31 Q118.876 1376.56 123.46 1371.93 Q128.066 1367.28 129.247 1365.94 Q131.492 1363.41 132.372 1361.68 Q133.275 1359.92 133.275 1358.23 Q133.275 1355.47 131.33 1353.74 Q129.409 1352 126.307 1352 Q124.108 1352 121.654 1352.76 Q119.224 1353.53 116.446 1355.08 L116.446 1350.36 Q119.27 1349.22 121.724 1348.64 Q124.177 1348.06 126.214 1348.06 Q131.585 1348.06 134.779 1350.75 Q137.974 1353.44 137.974 1357.93 Q137.974 1360.06 137.163 1361.98 Q136.376 1363.87 134.27 1366.47 Q133.691 1367.14 130.589 1370.36 Q127.488 1373.55 121.839 1379.31 Z" fill="#000000" fill-rule="nonzero" fill-opacity="1" /><path clip-path="url(#clip620)" d="M147.974 1377.37 L152.858 1377.37 L152.858 1383.25 L147.974 1383.25 L147.974 1377.37 Z" fill="#000000" fill-rule="nonzero" fill-opacity="1" /><path clip-path="url(#clip620)" d="M163.089 1348.69 L181.446 1348.69 L181.446 1352.62 L167.372 1352.62 L167.372 1361.1 Q168.39 1360.75 169.409 1360.59 Q170.427 1360.4 171.446 1360.4 Q177.233 1360.4 180.612 1363.57 Q183.992 1366.75 183.992 1372.16 Q183.992 1377.74 180.52 1380.84 Q177.047 1383.92 170.728 1383.92 Q168.552 1383.92 166.284 1383.55 Q164.038 1383.18 161.631 1382.44 L161.631 1377.74 Q163.714 1378.87 165.936 1379.43 Q168.159 1379.99 170.635 1379.99 Q174.64 1379.99 176.978 1377.88 Q179.316 1375.77 179.316 1372.16 Q179.316 1368.55 176.978 1366.44 Q174.64 1364.34 170.635 1364.34 Q168.76 1364.34 166.885 1364.75 Q165.034 1365.17 163.089 1366.05 L163.089 1348.69 Z" fill="#000000" fill-rule="nonzero" fill-opacity="1" /><path clip-path="url(#clip620)" d="M203.205 1351.77 Q199.594 1351.77 197.765 1355.33 Q195.959 1358.87 195.959 1366 Q195.959 1373.11 197.765 1376.68 Q199.594 1380.22 203.205 1380.22 Q206.839 1380.22 208.645 1376.68 Q210.473 1373.11 210.473 1366 Q210.473 1358.87 208.645 1355.33 Q206.839 1351.77 203.205 1351.77 M203.205 1348.06 Q209.015 1348.06 212.07 1352.67 Q215.149 1357.25 215.149 1366 Q215.149 1374.73 212.07 1379.34 Q209.015 1383.92 203.205 1383.92 Q197.395 1383.92 194.316 1379.34 Q191.26 1374.73 191.26 1366 Q191.26 1357.25 194.316 1352.67 Q197.395 1348.06 203.205 1348.06 Z" fill="#000000" fill-rule="nonzero" fill-opacity="1" /><path clip-path="url(#clip620)" d="M251.538 1357.79 L240.959 1368.41 L251.538 1378.99 L248.783 1381.79 L238.158 1371.17 L227.533 1381.79 L224.802 1378.99 L235.357 1368.41 L224.802 1357.79 L227.533 1354.99 L238.158 1365.61 L248.783 1354.99 L251.538 1357.79 Z" fill="#000000" fill-rule="nonzero" fill-opacity="1" /><path clip-path="url(#clip620)" d="M263.899 1379.31 L271.538 1379.31 L271.538 1352.95 L263.228 1354.62 L263.228 1350.36 L271.491 1348.69 L276.167 1348.69 L276.167 1379.31 L283.806 1379.31 L283.806 1383.25 L263.899 1383.25 L263.899 1379.31 Z" fill="#000000" fill-rule="nonzero" fill-opacity="1" /><path clip-path="url(#clip620)" d="M303.25 1351.77 Q299.639 1351.77 297.811 1355.33 Q296.005 1358.87 296.005 1366 Q296.005 1373.11 297.811 1376.68 Q299.639 1380.22 303.25 1380.22 Q306.885 1380.22 308.69 1376.68 Q310.519 1373.11 310.519 1366 Q310.519 1358.87 308.69 1355.33 Q306.885 1351.77 303.25 1351.77 M303.25 1348.06 Q309.061 1348.06 312.116 1352.67 Q315.195 1357.25 315.195 1366 Q315.195 1374.73 312.116 1379.34 Q309.061 1383.92 303.25 1383.92 Q297.44 1383.92 294.362 1379.34 Q291.306 1374.73 291.306 1366 Q291.306 1357.25 294.362 1352.67 Q297.44 1348.06 303.25 1348.06 Z" fill="#000000" fill-rule="nonzero" fill-opacity="1" /><path clip-path="url(#clip620)" d="M327.871 1331.07 L318.279 1346.06 L327.871 1346.06 L327.871 1331.07 M326.874 1327.76 L331.652 1327.76 L331.652 1346.06 L335.658 1346.06 L335.658 1349.22 L331.652 1349.22 L331.652 1355.84 L327.871 1355.84 L327.871 1349.22 L315.195 1349.22 L315.195 1345.55 L326.874 1327.76 Z" fill="#000000" fill-rule="nonzero" fill-opacity="1" /><path clip-path="url(#clip620)" d="M117.858 1019.56 L136.214 1019.56 L136.214 1023.49 L122.14 1023.49 L122.14 1031.96 Q123.159 1031.62 124.177 1031.46 Q125.196 1031.27 126.214 1031.27 Q132.001 1031.27 135.381 1034.44 Q138.761 1037.61 138.761 1043.03 Q138.761 1048.61 135.288 1051.71 Q131.816 1054.79 125.497 1054.79 Q123.321 1054.79 121.052 1054.42 Q118.807 1054.05 116.4 1053.31 L116.4 1048.61 Q118.483 1049.74 120.705 1050.3 Q122.927 1050.85 125.404 1050.85 Q129.409 1050.85 131.747 1048.75 Q134.085 1046.64 134.085 1043.03 Q134.085 1039.42 131.747 1037.31 Q129.409 1035.21 125.404 1035.21 Q123.529 1035.21 121.654 1035.62 Q119.802 1036.04 117.858 1036.92 L117.858 1019.56 Z" fill="#000000" fill-rule="nonzero" fill-opacity="1" /><path clip-path="url(#clip620)" d="M147.974 1048.24 L152.858 1048.24 L152.858 1054.12 L147.974 1054.12 L147.974 1048.24 Z" fill="#000000" fill-rule="nonzero" fill-opacity="1" /><path clip-path="url(#clip620)" d="M173.043 1022.64 Q169.432 1022.64 167.603 1026.2 Q165.798 1029.74 165.798 1036.87 Q165.798 1043.98 167.603 1047.54 Q169.432 1051.08 173.043 1051.08 Q176.677 1051.08 178.483 1047.54 Q180.311 1043.98 180.311 1036.87 Q180.311 1029.74 178.483 1026.2 Q176.677 1022.64 173.043 1022.64 M173.043 1018.93 Q178.853 1018.93 181.909 1023.54 Q184.987 1028.12 184.987 1036.87 Q184.987 1045.6 181.909 1050.21 Q178.853 1054.79 173.043 1054.79 Q167.233 1054.79 164.154 1050.21 Q161.098 1045.6 161.098 1036.87 Q161.098 1028.12 164.154 1023.54 Q167.233 1018.93 173.043 1018.93 Z" fill="#000000" fill-rule="nonzero" fill-opacity="1" /><path clip-path="url(#clip620)" d="M203.205 1022.64 Q199.594 1022.64 197.765 1026.2 Q195.959 1029.74 195.959 1036.87 Q195.959 1043.98 197.765 1047.54 Q199.594 1051.08 203.205 1051.08 Q206.839 1051.08 208.645 1047.54 Q210.473 1043.98 210.473 1036.87 Q210.473 1029.74 208.645 1026.2 Q206.839 1022.64 203.205 1022.64 M203.205 1018.93 Q209.015 1018.93 212.07 1023.54 Q215.149 1028.12 215.149 1036.87 Q215.149 1045.6 212.07 1050.21 Q209.015 1054.79 203.205 1054.79 Q197.395 1054.79 194.316 1050.21 Q191.26 1045.6 191.26 1036.87 Q191.26 1028.12 194.316 1023.54 Q197.395 1018.93 203.205 1018.93 Z" fill="#000000" fill-rule="nonzero" fill-opacity="1" /><path clip-path="url(#clip620)" d="M251.538 1028.65 L240.959 1039.28 L251.538 1049.86 L248.783 1052.66 L238.158 1042.03 L227.533 1052.66 L224.802 1049.86 L235.357 1039.28 L224.802 1028.65 L227.533 1025.85 L238.158 1036.48 L248.783 1025.85 L251.538 1028.65 Z" fill="#000000" fill-rule="nonzero" fill-opacity="1" /><path clip-path="url(#clip620)" d="M263.899 1050.18 L271.538 1050.18 L271.538 1023.82 L263.228 1025.48 L263.228 1021.22 L271.491 1019.56 L276.167 1019.56 L276.167 1050.18 L283.806 1050.18 L283.806 1054.12 L263.899 1054.12 L263.899 1050.18 Z" fill="#000000" fill-rule="nonzero" fill-opacity="1" /><path clip-path="url(#clip620)" d="M303.25 1022.64 Q299.639 1022.64 297.811 1026.2 Q296.005 1029.74 296.005 1036.87 Q296.005 1043.98 297.811 1047.54 Q299.639 1051.08 303.25 1051.08 Q306.885 1051.08 308.69 1047.54 Q310.519 1043.98 310.519 1036.87 Q310.519 1029.74 308.69 1026.2 Q306.885 1022.64 303.25 1022.64 M303.25 1018.93 Q309.061 1018.93 312.116 1023.54 Q315.195 1028.12 315.195 1036.87 Q315.195 1045.6 312.116 1050.21 Q309.061 1054.79 303.25 1054.79 Q297.44 1054.79 294.362 1050.21 Q291.306 1045.6 291.306 1036.87 Q291.306 1028.12 294.362 1023.54 Q297.44 1018.93 303.25 1018.93 Z" fill="#000000" fill-rule="nonzero" fill-opacity="1" /><path clip-path="url(#clip620)" d="M327.871 1001.94 L318.279 1016.93 L327.871 1016.93 L327.871 1001.94 M326.874 998.627 L331.652 998.627 L331.652 1016.93 L335.658 1016.93 L335.658 1020.09 L331.652 1020.09 L331.652 1026.71 L327.871 1026.71 L327.871 1020.09 L315.195 1020.09 L315.195 1016.42 L326.874 998.627 Z" fill="#000000" fill-rule="nonzero" fill-opacity="1" /><path clip-path="url(#clip620)" d="M116.631 690.424 L138.853 690.424 L138.853 692.415 L126.307 724.984 L121.423 724.984 L133.228 694.359 L116.631 694.359 L116.631 690.424 Z" fill="#000000" fill-rule="nonzero" fill-opacity="1" /><path clip-path="url(#clip620)" d="M147.974 719.105 L152.858 719.105 L152.858 724.984 L147.974 724.984 L147.974 719.105 Z" fill="#000000" fill-rule="nonzero" fill-opacity="1" /><path clip-path="url(#clip620)" d="M163.089 690.424 L181.446 690.424 L181.446 694.359 L167.372 694.359 L167.372 702.832 Q168.39 702.484 169.409 702.322 Q170.427 702.137 171.446 702.137 Q177.233 702.137 180.612 705.309 Q183.992 708.48 183.992 713.896 Q183.992 719.475 180.52 722.577 Q177.047 725.656 170.728 725.656 Q168.552 725.656 166.284 725.285 Q164.038 724.915 161.631 724.174 L161.631 719.475 Q163.714 720.609 165.936 721.165 Q168.159 721.72 170.635 721.72 Q174.64 721.72 176.978 719.614 Q179.316 717.508 179.316 713.896 Q179.316 710.285 176.978 708.179 Q174.64 706.072 170.635 706.072 Q168.76 706.072 166.885 706.489 Q165.034 706.906 163.089 707.785 L163.089 690.424 Z" fill="#000000" fill-rule="nonzero" fill-opacity="1" /><path clip-path="url(#clip620)" d="M203.205 693.503 Q199.594 693.503 197.765 697.068 Q195.959 700.609 195.959 707.739 Q195.959 714.846 197.765 718.41 Q199.594 721.952 203.205 721.952 Q206.839 721.952 208.645 718.41 Q210.473 714.846 210.473 707.739 Q210.473 700.609 208.645 697.068 Q206.839 693.503 203.205 693.503 M203.205 689.799 Q209.015 689.799 212.07 694.406 Q215.149 698.989 215.149 707.739 Q215.149 716.466 212.07 721.072 Q209.015 725.656 203.205 725.656 Q197.395 725.656 194.316 721.072 Q191.26 716.466 191.26 707.739 Q191.26 698.989 194.316 694.406 Q197.395 689.799 203.205 689.799 Z" fill="#000000" fill-rule="nonzero" fill-opacity="1" /><path clip-path="url(#clip620)" d="M251.538 699.522 L240.959 710.146 L251.538 720.725 L248.783 723.526 L238.158 712.901 L227.533 723.526 L224.802 720.725 L235.357 710.146 L224.802 699.522 L227.533 696.721 L238.158 707.346 L248.783 696.721 L251.538 699.522 Z" fill="#000000" fill-rule="nonzero" fill-opacity="1" /><path clip-path="url(#clip620)" d="M263.899 721.049 L271.538 721.049 L271.538 694.684 L263.228 696.35 L263.228 692.091 L271.491 690.424 L276.167 690.424 L276.167 721.049 L283.806 721.049 L283.806 724.984 L263.899 724.984 L263.899 721.049 Z" fill="#000000" fill-rule="nonzero" fill-opacity="1" /><path clip-path="url(#clip620)" d="M303.25 693.503 Q299.639 693.503 297.811 697.068 Q296.005 700.609 296.005 707.739 Q296.005 714.846 297.811 718.41 Q299.639 721.952 303.25 721.952 Q306.885 721.952 308.69 718.41 Q310.519 714.846 310.519 707.739 Q310.519 700.609 308.69 697.068 Q306.885 693.503 303.25 693.503 M303.25 689.799 Q309.061 689.799 312.116 694.406 Q315.195 698.989 315.195 707.739 Q315.195 716.466 312.116 721.072 Q309.061 725.656 303.25 725.656 Q297.44 725.656 294.362 721.072 Q291.306 716.466 291.306 707.739 Q291.306 698.989 294.362 694.406 Q297.44 689.799 303.25 689.799 Z" fill="#000000" fill-rule="nonzero" fill-opacity="1" /><path clip-path="url(#clip620)" d="M327.871 672.804 L318.279 687.794 L327.871 687.794 L327.871 672.804 M326.874 669.494 L331.652 669.494 L331.652 687.794 L335.658 687.794 L335.658 690.954 L331.652 690.954 L331.652 697.574 L327.871 697.574 L327.871 690.954 L315.195 690.954 L315.195 687.286 L326.874 669.494 Z" fill="#000000" fill-rule="nonzero" fill-opacity="1" /><path clip-path="url(#clip620)" d="M120.916 391.916 L128.555 391.916 L128.555 365.551 L120.245 367.217 L120.245 362.958 L128.509 361.292 L133.185 361.292 L133.185 391.916 L140.824 391.916 L140.824 395.852 L120.916 395.852 L120.916 391.916 Z" fill="#000000" fill-rule="nonzero" fill-opacity="1" /><path clip-path="url(#clip620)" d="M150.268 389.972 L155.152 389.972 L155.152 395.852 L150.268 395.852 L150.268 389.972 Z" fill="#000000" fill-rule="nonzero" fill-opacity="1" /><path clip-path="url(#clip620)" d="M175.337 364.37 Q171.726 364.37 169.898 367.935 Q168.092 371.477 168.092 378.606 Q168.092 385.713 169.898 389.278 Q171.726 392.819 175.337 392.819 Q178.972 392.819 180.777 389.278 Q182.606 385.713 182.606 378.606 Q182.606 371.477 180.777 367.935 Q178.972 364.37 175.337 364.37 M175.337 360.667 Q181.148 360.667 184.203 365.273 Q187.282 369.856 187.282 378.606 Q187.282 387.333 184.203 391.94 Q181.148 396.523 175.337 396.523 Q169.527 396.523 166.449 391.94 Q163.393 387.333 163.393 378.606 Q163.393 369.856 166.449 365.273 Q169.527 360.667 175.337 360.667 Z" fill="#000000" fill-rule="nonzero" fill-opacity="1" /><path clip-path="url(#clip620)" d="M205.499 364.37 Q201.888 364.37 200.059 367.935 Q198.254 371.477 198.254 378.606 Q198.254 385.713 200.059 389.278 Q201.888 392.819 205.499 392.819 Q209.134 392.819 210.939 389.278 Q212.768 385.713 212.768 378.606 Q212.768 371.477 210.939 367.935 Q209.134 364.37 205.499 364.37 M205.499 360.667 Q211.309 360.667 214.365 365.273 Q217.444 369.856 217.444 378.606 Q217.444 387.333 214.365 391.94 Q211.309 396.523 205.499 396.523 Q199.689 396.523 196.61 391.94 Q193.555 387.333 193.555 378.606 Q193.555 369.856 196.61 365.273 Q199.689 360.667 205.499 360.667 Z" fill="#000000" fill-rule="nonzero" fill-opacity="1" /><path clip-path="url(#clip620)" d="M253.832 370.389 L243.254 381.014 L253.832 391.592 L251.078 394.393 L240.453 383.768 L229.828 394.393 L227.096 391.592 L237.652 381.014 L227.096 370.389 L229.828 367.588 L240.453 378.213 L251.078 367.588 L253.832 370.389 Z" fill="#000000" fill-rule="nonzero" fill-opacity="1" /><path clip-path="url(#clip620)" d="M266.193 391.916 L273.832 391.916 L273.832 365.551 L265.522 367.217 L265.522 362.958 L273.786 361.292 L278.462 361.292 L278.462 391.916 L286.101 391.916 L286.101 395.852 L266.193 395.852 L266.193 391.916 Z" fill="#000000" fill-rule="nonzero" fill-opacity="1" /><path clip-path="url(#clip620)" d="M305.545 364.37 Q301.934 364.37 300.105 367.935 Q298.3 371.477 298.3 378.606 Q298.3 385.713 300.105 389.278 Q301.934 392.819 305.545 392.819 Q309.179 392.819 310.985 389.278 Q312.814 385.713 312.814 378.606 Q312.814 371.477 310.985 367.935 Q309.179 364.37 305.545 364.37 M305.545 360.667 Q311.355 360.667 314.411 365.273 Q317.489 369.856 317.489 378.606 Q317.489 387.333 314.411 391.94 Q311.355 396.523 305.545 396.523 Q299.735 396.523 296.656 391.94 Q293.601 387.333 293.601 378.606 Q293.601 369.856 296.656 365.273 Q299.735 360.667 305.545 360.667 Z" fill="#000000" fill-rule="nonzero" fill-opacity="1" /><path clip-path="url(#clip620)" d="M318.674 340.361 L333.589 340.361 L333.589 343.559 L322.154 343.559 L322.154 350.442 Q322.981 350.16 323.809 350.028 Q324.636 349.878 325.464 349.878 Q330.166 349.878 332.912 352.455 Q335.658 355.031 335.658 359.432 Q335.658 363.965 332.837 366.485 Q330.015 368.987 324.881 368.987 Q323.113 368.987 321.27 368.686 Q319.445 368.385 317.489 367.783 L317.489 363.965 Q319.182 364.887 320.988 365.338 Q322.793 365.789 324.806 365.789 Q328.059 365.789 329.959 364.078 Q331.859 362.366 331.859 359.432 Q331.859 356.498 329.959 354.787 Q328.059 353.075 324.806 353.075 Q323.282 353.075 321.759 353.414 Q320.254 353.752 318.674 354.467 L318.674 340.361 Z" fill="#000000" fill-rule="nonzero" fill-opacity="1" /><path clip-path="url(#clip620)" d="M14.1184 1109.64 L14.1184 1069.44 L19.5293 1069.44 L19.5293 1086.31 L61.6384 1086.31 L61.6384 1092.77 L19.5293 1092.77 L19.5293 1109.64 L14.1184 1109.64 Z" fill="#000000" fill-rule="nonzero" fill-opacity="1" /><path clip-path="url(#clip620)" d="M40.1224 1033.86 L61.6384 1033.86 L61.6384 1039.71 L40.3133 1039.71 Q35.2526 1039.71 32.7381 1041.69 Q30.2237 1043.66 30.2237 1047.61 Q30.2237 1052.35 33.2474 1055.09 Q36.2711 1057.82 41.491 1057.82 L61.6384 1057.82 L61.6384 1063.71 L12.1132 1063.71 L12.1132 1057.82 L31.5287 1057.82 Q28.314 1055.72 26.7225 1052.89 Q25.1311 1050.03 25.1311 1046.3 Q25.1311 1040.16 28.9505 1037.01 Q32.7381 1033.86 40.1224 1033.86 Z" fill="#000000" fill-rule="nonzero" fill-opacity="1" /><path clip-path="url(#clip620)" d="M31.465 1001.52 Q30.8921 1002.51 30.6375 1003.68 Q30.351 1004.83 30.351 1006.23 Q30.351 1011.19 33.5975 1013.87 Q36.8122 1016.51 42.8596 1016.51 L61.6384 1016.51 L61.6384 1022.4 L25.9905 1022.4 L25.9905 1016.51 L31.5287 1016.51 Q28.2821 1014.66 26.7225 1011.7 Q25.1311 1008.74 25.1311 1004.51 Q25.1311 1003.91 25.2266 1003.17 Q25.2903 1002.44 25.4494 1001.55 L31.465 1001.52 Z" fill="#000000" fill-rule="nonzero" fill-opacity="1" /><path clip-path="url(#clip620)" d="M47.5702 995.98 L25.9905 995.98 L25.9905 990.124 L47.3474 990.124 Q52.4082 990.124 54.9545 988.15 Q57.4689 986.177 57.4689 982.23 Q57.4689 977.488 54.4452 974.751 Q51.4215 971.982 46.2016 971.982 L25.9905 971.982 L25.9905 966.125 L61.6384 966.125 L61.6384 971.982 L56.1639 971.982 Q59.4104 974.114 61.0019 976.947 Q62.5615 979.748 62.5615 983.472 Q62.5615 989.615 58.742 992.797 Q54.9226 995.98 47.5702 995.98 M25.1311 981.244 L25.1311 981.244 Z" fill="#000000" fill-rule="nonzero" fill-opacity="1" /><path clip-path="url(#clip620)" d="M27.0408 931.336 L32.579 931.336 Q31.3059 933.819 30.6693 936.493 Q30.0327 939.166 30.0327 942.031 Q30.0327 946.391 31.3695 948.588 Q32.7063 950.752 35.3799 950.752 Q37.4169 950.752 38.5946 949.192 Q39.7404 947.633 40.7908 942.922 L41.2364 940.917 Q42.5732 934.678 45.0239 932.069 Q47.4429 929.427 51.8034 929.427 Q56.7687 929.427 59.6651 933.374 Q62.5615 937.288 62.5615 944.163 Q62.5615 947.028 61.9886 950.147 Q61.4475 953.235 60.3335 956.672 L54.2861 956.672 Q55.973 953.426 56.8323 950.274 Q57.6599 947.123 57.6599 944.036 Q57.6599 939.898 56.2594 937.67 Q54.8271 935.442 52.249 935.442 Q49.8619 935.442 48.5887 937.066 Q47.3156 938.657 46.1379 944.1 L45.6605 946.137 Q44.5147 951.579 42.1594 953.998 Q39.7722 956.417 35.6345 956.417 Q30.6056 956.417 27.8684 952.853 Q25.1311 949.288 25.1311 942.731 Q25.1311 939.485 25.6085 936.62 Q26.086 933.755 27.0408 931.336 Z" fill="#000000" fill-rule="nonzero" fill-opacity="1" /><path clip-path="url(#clip620)" d="M15.869 914.308 L25.9905 914.308 L25.9905 902.245 L30.542 902.245 L30.542 914.308 L49.8937 914.308 Q54.2542 914.308 55.4955 913.131 Q56.7368 911.921 56.7368 908.261 L56.7368 902.245 L61.6384 902.245 L61.6384 908.261 Q61.6384 915.04 59.124 917.618 Q56.5777 920.197 49.8937 920.197 L30.542 920.197 L30.542 924.493 L25.9905 924.493 L25.9905 920.197 L15.869 920.197 L15.869 914.308 Z" fill="#000000" fill-rule="nonzero" fill-opacity="1" /><path clip-path="url(#clip620)" d="M12.1769 859.754 Q19.4975 864.019 26.6589 866.088 Q33.8203 868.157 41.1727 868.157 Q48.5251 868.157 55.7502 866.088 Q62.9434 863.987 70.2321 859.754 L70.2321 864.847 Q62.7524 869.621 55.5274 872.008 Q48.3023 874.363 41.1727 874.363 Q34.0749 874.363 26.8817 872.008 Q19.6884 869.653 12.1769 864.847 L12.1769 859.754 Z" fill="#000000" fill-rule="nonzero" fill-opacity="1" /><path clip-path="url(#clip620)" d="M12.1132 848.391 L12.1132 842.535 L61.6384 842.535 L61.6384 848.391 L12.1132 848.391 Z" fill="#000000" fill-rule="nonzero" fill-opacity="1" /><path clip-path="url(#clip620)" d="M43.8463 804.691 Q37.3851 804.691 33.7248 807.364 Q30.0327 810.006 30.0327 814.653 Q30.0327 819.3 33.7248 821.974 Q37.3851 824.615 43.8463 824.615 Q50.3075 824.615 53.9996 821.974 Q57.6599 819.3 57.6599 814.653 Q57.6599 810.006 53.9996 807.364 Q50.3075 804.691 43.8463 804.691 M31.4013 824.615 Q28.2185 822.769 26.6907 819.968 Q25.1311 817.136 25.1311 813.221 Q25.1311 806.728 30.2873 802.686 Q35.4436 798.612 43.8463 798.612 Q52.249 798.612 57.4052 802.686 Q62.5615 806.728 62.5615 813.221 Q62.5615 817.136 61.0337 819.968 Q59.4741 822.769 56.2912 824.615 L61.6384 824.615 L61.6384 830.504 L12.1132 830.504 L12.1132 824.615 L31.4013 824.615 Z" fill="#000000" fill-rule="nonzero" fill-opacity="1" /><path clip-path="url(#clip620)" d="M12.1132 770.857 L16.983 770.857 L16.983 776.459 Q16.983 779.61 18.2562 780.851 Q19.5293 782.061 22.8395 782.061 L25.9905 782.061 L25.9905 772.417 L30.542 772.417 L30.542 782.061 L61.6384 782.061 L61.6384 787.949 L30.542 787.949 L30.542 793.551 L25.9905 793.551 L25.9905 787.949 L23.5079 787.949 Q17.5559 787.949 14.8505 785.18 Q12.1132 782.411 12.1132 776.395 L12.1132 770.857 Z" fill="#000000" fill-rule="nonzero" fill-opacity="1" /><path clip-path="url(#clip620)" d="M12.1769 766.878 L12.1769 761.786 Q19.6884 757.012 26.8817 754.656 Q34.0749 752.269 41.1727 752.269 Q48.3023 752.269 55.5274 754.656 Q62.7524 757.012 70.2321 761.786 L70.2321 766.878 Q62.9434 762.645 55.7502 760.576 Q48.5251 758.476 41.1727 758.476 Q33.8203 758.476 26.6589 760.576 Q19.4975 762.645 12.1769 766.878 Z" fill="#000000" fill-rule="nonzero" fill-opacity="1" /><path clip-path="url(#clip620)" d="M607.993 14.0809 L607.993 22.0612 Q603.334 19.8332 599.202 18.7395 Q595.07 17.6457 591.222 17.6457 Q584.538 17.6457 580.892 20.2383 Q577.287 22.8309 577.287 27.611 Q577.287 31.6214 579.677 33.6873 Q582.107 35.7128 588.832 36.9686 L593.774 37.9813 Q602.929 39.7232 607.263 44.1387 Q611.638 48.5136 611.638 55.8863 Q611.638 64.6767 605.724 69.2137 Q599.85 73.7508 588.467 73.7508 Q584.173 73.7508 579.312 72.7785 Q574.492 71.8063 569.306 69.9024 L569.306 61.4765 Q574.289 64.2716 579.069 65.6895 Q583.849 67.1073 588.467 67.1073 Q595.475 67.1073 599.283 64.3527 Q603.091 61.598 603.091 56.4939 Q603.091 52.0379 600.336 49.5264 Q597.622 47.0148 591.384 45.759 L586.401 44.7868 Q577.246 42.9639 573.155 39.075 Q569.063 35.1862 569.063 28.2591 Q569.063 20.2383 574.694 15.6203 Q580.365 11.0023 590.29 11.0023 Q594.544 11.0023 598.959 11.7719 Q603.375 12.5416 607.993 14.0809 Z" fill="#000000" fill-rule="nonzero" fill-opacity="1" /><path clip-path="url(#clip620)" d="M653.079 44.2197 Q655.712 45.1109 658.183 48.0275 Q660.695 50.9442 663.206 56.0483 L671.511 72.576 L662.72 72.576 L654.983 57.061 Q651.985 50.9847 649.15 48.9997 Q646.355 47.0148 641.494 47.0148 L632.582 47.0148 L632.582 72.576 L624.399 72.576 L624.399 12.096 L642.871 12.096 Q653.241 12.096 658.345 16.4305 Q663.449 20.7649 663.449 29.5149 Q663.449 35.2267 660.776 38.994 Q658.143 42.7613 653.079 44.2197 M632.582 18.8205 L632.582 40.2903 L642.871 40.2903 Q648.785 40.2903 651.783 37.5762 Q654.821 34.8216 654.821 29.5149 Q654.821 24.2082 651.783 21.5346 Q648.785 18.8205 642.871 18.8205 L632.582 18.8205 Z" fill="#000000" fill-rule="nonzero" fill-opacity="1" /><path clip-path="url(#clip620)" d="M682.043 12.096 L694.236 12.096 L709.67 53.2532 L725.185 12.096 L737.378 12.096 L737.378 72.576 L729.398 72.576 L729.398 19.4686 L713.802 60.9499 L705.579 60.9499 L689.983 19.4686 L689.983 72.576 L682.043 72.576 L682.043 12.096 Z" fill="#000000" fill-rule="nonzero" fill-opacity="1" /><path clip-path="url(#clip620)" d="M771.609 12.096 L822.772 12.096 L822.772 18.9825 L801.302 18.9825 L801.302 72.576 L793.078 72.576 L793.078 18.9825 L771.609 18.9825 L771.609 12.096 Z" fill="#000000" fill-rule="nonzero" fill-opacity="1" /><path clip-path="url(#clip620)" d="M868.061 45.1919 L868.061 72.576 L860.607 72.576 L860.607 45.4349 Q860.607 38.994 858.095 35.7938 Q855.584 32.5936 850.561 32.5936 Q844.525 32.5936 841.041 36.4419 Q837.557 40.2903 837.557 46.9338 L837.557 72.576 L830.063 72.576 L830.063 9.54393 L837.557 9.54393 L837.557 34.2544 Q840.231 30.163 843.836 28.1376 Q847.482 26.1121 852.222 26.1121 Q860.04 26.1121 864.05 30.9732 Q868.061 35.7938 868.061 45.1919 Z" fill="#000000" fill-rule="nonzero" fill-opacity="1" /><path clip-path="url(#clip620)" d="M909.218 34.1734 Q907.962 33.4443 906.463 33.1202 Q905.005 32.7556 903.222 32.7556 Q896.903 32.7556 893.5 36.8875 Q890.138 40.9789 890.138 48.6757 L890.138 72.576 L882.644 72.576 L882.644 27.2059 L890.138 27.2059 L890.138 34.2544 Q892.488 30.1225 896.255 28.1376 Q900.022 26.1121 905.41 26.1121 Q906.18 26.1121 907.111 26.2337 Q908.043 26.3147 909.177 26.5172 L909.218 34.1734 Z" fill="#000000" fill-rule="nonzero" fill-opacity="1" /><path clip-path="url(#clip620)" d="M916.266 54.671 L916.266 27.2059 L923.72 27.2059 L923.72 54.3874 Q923.72 60.8284 926.232 64.0691 Q928.743 67.2693 933.766 67.2693 Q939.802 67.2693 943.286 63.421 Q946.81 59.5726 946.81 52.9291 L946.81 27.2059 L954.264 27.2059 L954.264 72.576 L946.81 72.576 L946.81 65.6084 Q944.096 69.7404 940.491 71.7658 Q936.926 73.7508 932.186 73.7508 Q924.368 73.7508 920.317 68.8897 Q916.266 64.0286 916.266 54.671 M935.022 26.1121 L935.022 26.1121 Z" fill="#000000" fill-rule="nonzero" fill-opacity="1" /><path clip-path="url(#clip620)" d="M998.54 28.5427 L998.54 35.5912 Q995.381 33.9709 991.978 33.1607 Q988.575 32.3505 984.929 32.3505 Q979.379 32.3505 976.584 34.0519 Q973.83 35.7533 973.83 39.156 Q973.83 41.7486 975.815 43.2475 Q977.8 44.7058 983.795 46.0426 L986.347 46.6097 Q994.287 48.3111 997.609 51.4303 Q1000.97 54.509 1000.97 60.0587 Q1000.97 66.3781 995.948 70.0644 Q990.965 73.7508 982.215 73.7508 Q978.569 73.7508 974.599 73.0216 Q970.67 72.3329 966.295 70.9151 L966.295 63.2184 Q970.427 65.3654 974.437 66.4591 Q978.448 67.5124 982.377 67.5124 Q987.643 67.5124 990.479 65.73 Q993.315 63.9071 993.315 60.6258 Q993.315 57.5877 991.249 55.9673 Q989.223 54.3469 982.296 52.8481 L979.704 52.2405 Q972.777 50.7821 969.698 47.7845 Q966.619 44.7463 966.619 39.4801 Q966.619 33.0797 971.156 29.5959 Q975.693 26.1121 984.038 26.1121 Q988.17 26.1121 991.816 26.7198 Q995.462 27.3274 998.54 28.5427 Z" fill="#000000" fill-rule="nonzero" fill-opacity="1" /><path clip-path="url(#clip620)" d="M1020.21 14.324 L1020.21 27.2059 L1035.57 27.2059 L1035.57 32.9987 L1020.21 32.9987 L1020.21 57.6282 Q1020.21 63.1779 1021.71 64.7578 Q1023.25 66.3376 1027.91 66.3376 L1035.57 66.3376 L1035.57 72.576 L1027.91 72.576 Q1019.28 72.576 1016 69.3758 Q1012.72 66.1351 1012.72 57.6282 L1012.72 32.9987 L1007.25 32.9987 L1007.25 27.2059 L1012.72 27.2059 L1012.72 14.324 L1020.21 14.324 Z" fill="#000000" fill-rule="nonzero" fill-opacity="1" /><path clip-path="url(#clip620)" d="M1066.39 27.2059 L1074.29 27.2059 L1088.47 65.2844 L1102.65 27.2059 L1110.55 27.2059 L1093.53 72.576 L1083.41 72.576 L1066.39 27.2059 Z" fill="#000000" fill-rule="nonzero" fill-opacity="1" /><path clip-path="url(#clip620)" d="M1149.76 28.5427 L1149.76 35.5912 Q1146.6 33.9709 1143.2 33.1607 Q1139.8 32.3505 1136.15 32.3505 Q1130.6 32.3505 1127.8 34.0519 Q1125.05 35.7533 1125.05 39.156 Q1125.05 41.7486 1127.03 43.2475 Q1129.02 44.7058 1135.02 46.0426 L1137.57 46.6097 Q1145.51 48.3111 1148.83 51.4303 Q1152.19 54.509 1152.19 60.0587 Q1152.19 66.3781 1147.17 70.0644 Q1142.19 73.7508 1133.44 73.7508 Q1129.79 73.7508 1125.82 73.0216 Q1121.89 72.3329 1117.52 70.9151 L1117.52 63.2184 Q1121.65 65.3654 1125.66 66.4591 Q1129.67 67.5124 1133.6 67.5124 Q1138.86 67.5124 1141.7 65.73 Q1144.53 63.9071 1144.53 60.6258 Q1144.53 57.5877 1142.47 55.9673 Q1140.44 54.3469 1133.52 52.8481 L1130.92 52.2405 Q1124 50.7821 1120.92 47.7845 Q1117.84 44.7463 1117.84 39.4801 Q1117.84 33.0797 1122.38 29.5959 Q1126.91 26.1121 1135.26 26.1121 Q1139.39 26.1121 1143.04 26.7198 Q1146.68 27.3274 1149.76 28.5427 Z" fill="#000000" fill-rule="nonzero" fill-opacity="1" /><path clip-path="url(#clip620)" d="M1165.11 62.2867 L1173.66 62.2867 L1173.66 72.576 L1165.11 72.576 L1165.11 62.2867 Z" fill="#000000" fill-rule="nonzero" fill-opacity="1" /><path clip-path="url(#clip620)" d="M1208.74 12.096 L1259.9 12.096 L1259.9 18.9825 L1238.43 18.9825 L1238.43 72.576 L1230.21 72.576 L1230.21 18.9825 L1208.74 18.9825 L1208.74 12.096 Z" fill="#000000" fill-rule="nonzero" fill-opacity="1" /><path clip-path="url(#clip620)" d="M1264.93 27.2059 L1272.38 27.2059 L1272.38 72.576 L1264.93 72.576 L1264.93 27.2059 M1264.93 9.54393 L1272.38 9.54393 L1272.38 18.9825 L1264.93 18.9825 L1264.93 9.54393 Z" fill="#000000" fill-rule="nonzero" fill-opacity="1" /><path clip-path="url(#clip620)" d="M1323.3 35.9153 Q1326.1 30.8922 1329.99 28.5022 Q1333.87 26.1121 1339.14 26.1121 Q1346.23 26.1121 1350.08 31.0947 Q1353.93 36.0368 1353.93 45.1919 L1353.93 72.576 L1346.43 72.576 L1346.43 45.4349 Q1346.43 38.913 1344.12 35.7533 Q1341.81 32.5936 1337.07 32.5936 Q1331.28 32.5936 1327.92 36.4419 Q1324.56 40.2903 1324.56 46.9338 L1324.56 72.576 L1317.06 72.576 L1317.06 45.4349 Q1317.06 38.8725 1314.75 35.7533 Q1312.44 32.5936 1307.62 32.5936 Q1301.91 32.5936 1298.55 36.4824 Q1295.19 40.3308 1295.19 46.9338 L1295.19 72.576 L1287.69 72.576 L1287.69 27.2059 L1295.19 27.2059 L1295.19 34.2544 Q1297.74 30.082 1301.3 28.0971 Q1304.87 26.1121 1309.77 26.1121 Q1314.71 26.1121 1318.16 28.6237 Q1321.64 31.1352 1323.3 35.9153 Z" fill="#000000" fill-rule="nonzero" fill-opacity="1" /><path clip-path="url(#clip620)" d="M1407.6 48.0275 L1407.6 51.6733 L1373.33 51.6733 Q1373.82 59.3701 1377.95 63.421 Q1382.12 67.4314 1389.53 67.4314 Q1393.83 67.4314 1397.84 66.3781 Q1401.89 65.3249 1405.86 63.2184 L1405.86 70.267 Q1401.85 71.9684 1397.64 72.8596 Q1393.42 73.7508 1389.09 73.7508 Q1378.23 73.7508 1371.87 67.4314 Q1365.55 61.1119 1365.55 50.3365 Q1365.55 39.1965 1371.55 32.6746 Q1377.58 26.1121 1387.79 26.1121 Q1396.95 26.1121 1402.25 32.0264 Q1407.6 37.9003 1407.6 48.0275 M1400.15 45.84 Q1400.07 39.7232 1396.7 36.0774 Q1393.38 32.4315 1387.87 32.4315 Q1381.63 32.4315 1377.87 35.9558 Q1374.14 39.4801 1373.57 45.8805 L1400.15 45.84 Z" fill="#000000" fill-rule="nonzero" fill-opacity="1" /><path clip-path="url(#clip620)" d="M1421.74 62.2867 L1430.29 62.2867 L1430.29 72.576 L1421.74 72.576 L1421.74 62.2867 M1421.74 29.6769 L1430.29 29.6769 L1430.29 39.9662 L1421.74 39.9662 L1421.74 29.6769 Z" fill="#000000" fill-rule="nonzero" fill-opacity="1" /><path clip-path="url(#clip620)" d="M1466.1 12.096 L1517.26 12.096 L1517.26 18.9825 L1495.79 18.9825 L1495.79 72.576 L1487.57 72.576 L1487.57 18.9825 L1466.1 18.9825 L1466.1 12.096 Z" fill="#000000" fill-rule="nonzero" fill-opacity="1" /><path clip-path="url(#clip620)" d="M1549.54 48.0275 L1549.54 51.6733 L1515.27 51.6733 Q1515.76 59.3701 1519.89 63.421 Q1524.06 67.4314 1531.48 67.4314 Q1535.77 67.4314 1539.78 66.3781 Q1543.83 65.3249 1547.8 63.2184 L1547.8 70.267 Q1543.79 71.9684 1539.58 72.8596 Q1535.37 73.7508 1531.03 73.7508 Q1520.18 73.7508 1513.82 67.4314 Q1507.5 61.1119 1507.5 50.3365 Q1507.5 39.1965 1513.49 32.6746 Q1519.53 26.1121 1529.74 26.1121 Q1538.89 26.1121 1544.2 32.0264 Q1549.54 37.9003 1549.54 48.0275 M1542.09 45.84 Q1542.01 39.7232 1538.65 36.0774 Q1535.33 32.4315 1529.82 32.4315 Q1523.58 32.4315 1519.81 35.9558 Q1516.08 39.4801 1515.52 45.8805 L1542.09 45.84 Z" fill="#000000" fill-rule="nonzero" fill-opacity="1" /><path clip-path="url(#clip620)" d="M1597.1 35.9153 Q1599.9 30.8922 1603.79 28.5022 Q1607.67 26.1121 1612.94 26.1121 Q1620.03 26.1121 1623.88 31.0947 Q1627.73 36.0368 1627.73 45.1919 L1627.73 72.576 L1620.23 72.576 L1620.23 45.4349 Q1620.23 38.913 1617.92 35.7533 Q1615.61 32.5936 1610.87 32.5936 Q1605.08 32.5936 1601.72 36.4419 Q1598.36 40.2903 1598.36 46.9338 L1598.36 72.576 L1590.86 72.576 L1590.86 45.4349 Q1590.86 38.8725 1588.55 35.7533 Q1586.25 32.5936 1581.42 32.5936 Q1575.71 32.5936 1572.35 36.4824 Q1568.99 40.3308 1568.99 46.9338 L1568.99 72.576 L1561.49 72.576 L1561.49 27.2059 L1568.99 27.2059 L1568.99 34.2544 Q1571.54 30.082 1575.11 28.0971 Q1578.67 26.1121 1583.57 26.1121 Q1588.51 26.1121 1591.96 28.6237 Q1595.44 31.1352 1597.1 35.9153 Z" fill="#000000" fill-rule="nonzero" fill-opacity="1" /><path clip-path="url(#clip620)" d="M1649.8 65.7705 L1649.8 89.8329 L1642.31 89.8329 L1642.31 27.2059 L1649.8 27.2059 L1649.8 34.0924 Q1652.15 30.0415 1655.72 28.0971 Q1659.32 26.1121 1664.31 26.1121 Q1672.57 26.1121 1677.71 32.6746 Q1682.9 39.2371 1682.9 49.9314 Q1682.9 60.6258 1677.71 67.1883 Q1672.57 73.7508 1664.31 73.7508 Q1659.32 73.7508 1655.72 71.8063 Q1652.15 69.8214 1649.8 65.7705 M1675.16 49.9314 Q1675.16 41.7081 1671.76 37.0496 Q1668.4 32.3505 1662.48 32.3505 Q1656.57 32.3505 1653.17 37.0496 Q1649.8 41.7081 1649.8 49.9314 Q1649.8 58.1548 1653.17 62.8538 Q1656.57 67.5124 1662.48 67.5124 Q1668.4 67.5124 1671.76 62.8538 Q1675.16 58.1548 1675.16 49.9314 Z" fill="#000000" fill-rule="nonzero" fill-opacity="1" /><path clip-path="url(#clip620)" d="M1734.06 48.0275 L1734.06 51.6733 L1699.79 51.6733 Q1700.28 59.3701 1704.41 63.421 Q1708.58 67.4314 1716 67.4314 Q1720.29 67.4314 1724.3 66.3781 Q1728.35 65.3249 1732.32 63.2184 L1732.32 70.267 Q1728.31 71.9684 1724.1 72.8596 Q1719.88 73.7508 1715.55 73.7508 Q1704.69 73.7508 1698.33 67.4314 Q1692.01 61.1119 1692.01 50.3365 Q1692.01 39.1965 1698.01 32.6746 Q1704.05 26.1121 1714.25 26.1121 Q1723.41 26.1121 1728.72 32.0264 Q1734.06 37.9003 1734.06 48.0275 M1726.61 45.84 Q1726.53 39.7232 1723.17 36.0774 Q1719.84 32.4315 1714.34 32.4315 Q1708.1 32.4315 1704.33 35.9558 Q1700.6 39.4801 1700.04 45.8805 L1726.61 45.84 Z" fill="#000000" fill-rule="nonzero" fill-opacity="1" /><path clip-path="url(#clip620)" d="M1772.59 34.1734 Q1771.33 33.4443 1769.83 33.1202 Q1768.37 32.7556 1766.59 32.7556 Q1760.27 32.7556 1756.87 36.8875 Q1753.51 40.9789 1753.51 48.6757 L1753.51 72.576 L1746.01 72.576 L1746.01 27.2059 L1753.51 27.2059 L1753.51 34.2544 Q1755.86 30.1225 1759.62 28.1376 Q1763.39 26.1121 1768.78 26.1121 Q1769.55 26.1121 1770.48 26.2337 Q1771.41 26.3147 1772.55 26.5172 L1772.59 34.1734 Z" fill="#000000" fill-rule="nonzero" fill-opacity="1" /><path clip-path="url(#clip620)" d="M1801.02 49.7694 Q1791.99 49.7694 1788.51 51.8354 Q1785.02 53.9013 1785.02 58.8839 Q1785.02 62.8538 1787.62 65.2034 Q1790.25 67.5124 1794.75 67.5124 Q1800.94 67.5124 1804.67 63.1374 Q1808.44 58.7219 1808.44 51.4303 L1808.44 49.7694 L1801.02 49.7694 M1815.89 46.6907 L1815.89 72.576 L1808.44 72.576 L1808.44 65.6895 Q1805.89 69.8214 1802.08 71.8063 Q1798.27 73.7508 1792.76 73.7508 Q1785.79 73.7508 1781.66 69.8619 Q1777.57 65.9325 1777.57 59.3701 Q1777.57 51.7138 1782.67 47.825 Q1787.82 43.9361 1797.99 43.9361 L1808.44 43.9361 L1808.44 43.2069 Q1808.44 38.0623 1805.03 35.2672 Q1801.67 32.4315 1795.56 32.4315 Q1791.67 32.4315 1787.98 33.3632 Q1784.29 34.295 1780.89 36.1584 L1780.89 29.2718 Q1784.98 27.692 1788.83 26.9223 Q1792.68 26.1121 1796.33 26.1121 Q1806.17 26.1121 1811.03 31.2163 Q1815.89 36.3204 1815.89 46.6907 Z" fill="#000000" fill-rule="nonzero" fill-opacity="1" /><path clip-path="url(#clip620)" d="M1838.62 14.324 L1838.62 27.2059 L1853.97 27.2059 L1853.97 32.9987 L1838.62 32.9987 L1838.62 57.6282 Q1838.62 63.1779 1840.12 64.7578 Q1841.65 66.3376 1846.31 66.3376 L1853.97 66.3376 L1853.97 72.576 L1846.31 72.576 Q1837.69 72.576 1834.4 69.3758 Q1831.12 66.1351 1831.12 57.6282 L1831.12 32.9987 L1825.65 32.9987 L1825.65 27.2059 L1831.12 27.2059 L1831.12 14.324 L1838.62 14.324 Z" fill="#000000" fill-rule="nonzero" fill-opacity="1" /><path clip-path="url(#clip620)" d="M1863 54.671 L1863 27.2059 L1870.46 27.2059 L1870.46 54.3874 Q1870.46 60.8284 1872.97 64.0691 Q1875.48 67.2693 1880.5 67.2693 Q1886.54 67.2693 1890.02 63.421 Q1893.55 59.5726 1893.55 52.9291 L1893.55 27.2059 L1901 27.2059 L1901 72.576 L1893.55 72.576 L1893.55 65.6084 Q1890.83 69.7404 1887.23 71.7658 Q1883.66 73.7508 1878.92 73.7508 Q1871.11 73.7508 1867.05 68.8897 Q1863 64.0286 1863 54.671 M1881.76 26.1121 L1881.76 26.1121 Z" fill="#000000" fill-rule="nonzero" fill-opacity="1" /><path clip-path="url(#clip620)" d="M1942.64 34.1734 Q1941.39 33.4443 1939.89 33.1202 Q1938.43 32.7556 1936.65 32.7556 Q1930.33 32.7556 1926.93 36.8875 Q1923.56 40.9789 1923.56 48.6757 L1923.56 72.576 L1916.07 72.576 L1916.07 27.2059 L1923.56 27.2059 L1923.56 34.2544 Q1925.91 30.1225 1929.68 28.1376 Q1933.45 26.1121 1938.84 26.1121 Q1939.61 26.1121 1940.54 26.2337 Q1941.47 26.3147 1942.6 26.5172 L1942.64 34.1734 Z" fill="#000000" fill-rule="nonzero" fill-opacity="1" /><path clip-path="url(#clip620)" d="M1987.45 48.0275 L1987.45 51.6733 L1953.18 51.6733 Q1953.66 59.3701 1957.79 63.421 Q1961.97 67.4314 1969.38 67.4314 Q1973.67 67.4314 1977.68 66.3781 Q1981.74 65.3249 1985.71 63.2184 L1985.71 70.267 Q1981.69 71.9684 1977.48 72.8596 Q1973.27 73.7508 1968.93 73.7508 Q1958.08 73.7508 1951.72 67.4314 Q1945.4 61.1119 1945.4 50.3365 Q1945.4 39.1965 1951.39 32.6746 Q1957.43 26.1121 1967.64 26.1121 Q1976.79 26.1121 1982.1 32.0264 Q1987.45 37.9003 1987.45 48.0275 M1979.99 45.84 Q1979.91 39.7232 1976.55 36.0774 Q1973.23 32.4315 1967.72 32.4315 Q1961.48 32.4315 1957.71 35.9558 Q1953.99 39.4801 1953.42 45.8805 L1979.99 45.84 Z" fill="#000000" fill-rule="nonzero" fill-opacity="1" /><path clip-path="url(#clip620)" d="M2062.63 14.0809 L2062.63 22.0612 Q2057.97 19.8332 2053.84 18.7395 Q2049.71 17.6457 2045.86 17.6457 Q2039.18 17.6457 2035.53 20.2383 Q2031.93 22.8309 2031.93 27.611 Q2031.93 31.6214 2034.32 33.6873 Q2036.75 35.7128 2043.47 36.9686 L2048.41 37.9813 Q2057.57 39.7232 2061.9 44.1387 Q2066.28 48.5136 2066.28 55.8863 Q2066.28 64.6767 2060.36 69.2137 Q2054.49 73.7508 2043.11 73.7508 Q2038.81 73.7508 2033.95 72.7785 Q2029.13 71.8063 2023.95 69.9024 L2023.95 61.4765 Q2028.93 64.2716 2033.71 65.6895 Q2038.49 67.1073 2043.11 67.1073 Q2050.11 67.1073 2053.92 64.3527 Q2057.73 61.598 2057.73 56.4939 Q2057.73 52.0379 2054.98 49.5264 Q2052.26 47.0148 2046.02 45.759 L2041.04 44.7868 Q2031.89 42.9639 2027.79 39.075 Q2023.7 35.1862 2023.7 28.2591 Q2023.7 20.2383 2029.33 15.6203 Q2035 11.0023 2044.93 11.0023 Q2049.18 11.0023 2053.6 11.7719 Q2058.01 12.5416 2062.63 14.0809 Z" fill="#000000" fill-rule="nonzero" fill-opacity="1" /><path clip-path="url(#clip620)" d="M2117.52 48.0275 L2117.52 51.6733 L2083.25 51.6733 Q2083.74 59.3701 2087.87 63.421 Q2092.04 67.4314 2099.45 67.4314 Q2103.75 67.4314 2107.76 66.3781 Q2111.81 65.3249 2115.78 63.2184 L2115.78 70.267 Q2111.77 71.9684 2107.56 72.8596 Q2103.34 73.7508 2099.01 73.7508 Q2088.15 73.7508 2081.79 67.4314 Q2075.47 61.1119 2075.47 50.3365 Q2075.47 39.1965 2081.47 32.6746 Q2087.5 26.1121 2097.71 26.1121 Q2106.87 26.1121 2112.17 32.0264 Q2117.52 37.9003 2117.52 48.0275 M2110.07 45.84 Q2109.99 39.7232 2106.62 36.0774 Q2103.3 32.4315 2097.79 32.4315 Q2091.56 32.4315 2087.79 35.9558 Q2084.06 39.4801 2083.49 45.8805 L2110.07 45.84 Z" fill="#000000" fill-rule="nonzero" fill-opacity="1" /><path clip-path="url(#clip620)" d="M2167.47 45.1919 L2167.47 72.576 L2160.02 72.576 L2160.02 45.4349 Q2160.02 38.994 2157.5 35.7938 Q2154.99 32.5936 2149.97 32.5936 Q2143.93 32.5936 2140.45 36.4419 Q2136.97 40.2903 2136.97 46.9338 L2136.97 72.576 L2129.47 72.576 L2129.47 27.2059 L2136.97 27.2059 L2136.97 34.2544 Q2139.64 30.163 2143.24 28.1376 Q2146.89 26.1121 2151.63 26.1121 Q2159.45 26.1121 2163.46 30.9732 Q2167.47 35.7938 2167.47 45.1919 Z" fill="#000000" fill-rule="nonzero" fill-opacity="1" /><path clip-path="url(#clip620)" d="M2211.26 28.5427 L2211.26 35.5912 Q2208.1 33.9709 2204.7 33.1607 Q2201.29 32.3505 2197.65 32.3505 Q2192.1 32.3505 2189.3 34.0519 Q2186.55 35.7533 2186.55 39.156 Q2186.55 41.7486 2188.53 43.2475 Q2190.52 44.7058 2196.51 46.0426 L2199.07 46.6097 Q2207.01 48.3111 2210.33 51.4303 Q2213.69 54.509 2213.69 60.0587 Q2213.69 66.3781 2208.67 70.0644 Q2203.68 73.7508 2194.93 73.7508 Q2191.29 73.7508 2187.32 73.0216 Q2183.39 72.3329 2179.01 70.9151 L2179.01 63.2184 Q2183.15 65.3654 2187.16 66.4591 Q2191.17 67.5124 2195.1 67.5124 Q2200.36 67.5124 2203.2 65.73 Q2206.03 63.9071 2206.03 60.6258 Q2206.03 57.5877 2203.97 55.9673 Q2201.94 54.3469 2195.02 52.8481 L2192.42 52.2405 Q2185.5 50.7821 2182.42 47.7845 Q2179.34 44.7463 2179.34 39.4801 Q2179.34 33.0797 2183.88 29.5959 Q2188.41 26.1121 2196.76 26.1121 Q2200.89 26.1121 2204.53 26.7198 Q2208.18 27.3274 2211.26 28.5427 Z" fill="#000000" fill-rule="nonzero" fill-opacity="1" /><path clip-path="url(#clip620)" d="M2225.56 27.2059 L2233.01 27.2059 L2233.01 72.576 L2225.56 72.576 L2225.56 27.2059 M2225.56 9.54393 L2233.01 9.54393 L2233.01 18.9825 L2225.56 18.9825 L2225.56 9.54393 Z" fill="#000000" fill-rule="nonzero" fill-opacity="1" /><path clip-path="url(#clip620)" d="M2255.98 14.324 L2255.98 27.2059 L2271.33 27.2059 L2271.33 32.9987 L2255.98 32.9987 L2255.98 57.6282 Q2255.98 63.1779 2257.48 64.7578 Q2259.02 66.3376 2263.68 66.3376 L2271.33 66.3376 L2271.33 72.576 L2263.68 72.576 Q2255.05 72.576 2251.77 69.3758 Q2248.49 66.1351 2248.49 57.6282 L2248.49 32.9987 L2243.02 32.9987 L2243.02 27.2059 L2248.49 27.2059 L2248.49 14.324 L2255.98 14.324 Z" fill="#000000" fill-rule="nonzero" fill-opacity="1" /><path clip-path="url(#clip620)" d="M2281.14 27.2059 L2288.59 27.2059 L2288.59 72.576 L2281.14 72.576 L2281.14 27.2059 M2281.14 9.54393 L2288.59 9.54393 L2288.59 18.9825 L2281.14 18.9825 L2281.14 9.54393 Z" fill="#000000" fill-rule="nonzero" fill-opacity="1" /><path clip-path="url(#clip620)" d="M2298.84 27.2059 L2306.74 27.2059 L2320.92 65.2844 L2335.1 27.2059 L2342.99 27.2059 L2325.98 72.576 L2315.85 72.576 L2298.84 27.2059 Z" fill="#000000" fill-rule="nonzero" fill-opacity="1" /><path clip-path="url(#clip620)" d="M2353.28 27.2059 L2360.74 27.2059 L2360.74 72.576 L2353.28 72.576 L2353.28 27.2059 M2353.28 9.54393 L2360.74 9.54393 L2360.74 18.9825 L2353.28 18.9825 L2353.28 9.54393 Z" fill="#000000" fill-rule="nonzero" fill-opacity="1" /><path clip-path="url(#clip620)" d="M2383.71 14.324 L2383.71 27.2059 L2399.06 27.2059 L2399.06 32.9987 L2383.71 32.9987 L2383.71 57.6282 Q2383.71 63.1779 2385.21 64.7578 Q2386.74 66.3376 2391.4 66.3376 L2399.06 66.3376 L2399.06 72.576 L2391.4 72.576 Q2382.77 72.576 2379.49 69.3758 Q2376.21 66.1351 2376.21 57.6282 L2376.21 32.9987 L2370.74 32.9987 L2370.74 27.2059 L2376.21 27.2059 L2376.21 14.324 L2383.71 14.324 Z" fill="#000000" fill-rule="nonzero" fill-opacity="1" /><path clip-path="url(#clip620)" d="M2427.74 76.7889 Q2424.58 84.8907 2421.58 87.3618 Q2418.58 89.8329 2413.56 89.8329 L2407.61 89.8329 L2407.61 83.5945 L2411.98 83.5945 Q2415.06 83.5945 2416.76 82.1361 Q2418.46 80.6778 2420.53 75.2496 L2421.87 71.8468 L2403.52 27.2059 L2411.41 27.2059 L2425.59 62.6918 L2439.77 27.2059 L2447.67 27.2059 L2427.74 76.7889 Z" fill="#000000" fill-rule="nonzero" fill-opacity="1" /><polyline clip-path="url(#clip621)" style="stroke:#4682b4; stroke-linecap:round; stroke-linejoin:round; stroke-width:8; stroke-opacity:1; fill:none" points="440.075,484.618 447.221,484.618 454.367,484.618 461.512,484.618 468.658,484.618 475.804,484.618 482.95,484.618 490.096,484.618 497.241,484.618 504.387,484.618 511.533,484.618 518.679,484.618 525.824,484.618 532.97,484.618 540.116,484.618 547.262,484.618 554.407,484.618 561.553,484.618 568.699,484.618 575.845,484.618 582.99,484.618 590.136,484.618 597.282,484.618 604.428,484.618 611.574,484.618 618.719,484.618 625.865,484.618 633.011,484.618 640.157,484.618 647.302,484.618 654.448,484.618 661.594,484.618 668.74,484.618 675.885,484.618 683.031,484.618 690.177,484.618 697.323,484.618 704.468,484.618 711.614,484.618 718.76,484.618 725.906,484.618 733.051,484.618 740.197,484.618 747.343,484.618 754.489,484.618 761.635,484.618 768.78,484.618 775.926,484.618 783.072,484.618 790.218,484.618 797.363,484.618 804.509,484.618 811.655,484.618 818.801,484.618 825.946,484.618 833.092,484.618 840.238,484.618 847.384,484.618 854.529,484.618 861.675,484.618 868.821,1688.65 875.967,1688.65 883.113,1688.65 890.258,1688.65 897.404,1688.65 904.55,1688.65 911.696,1688.65 918.841,1688.65 925.987,1688.65 933.133,1688.65 940.279,1688.65 947.424,1688.65 954.57,1688.65 961.716,1688.65 968.862,1688.65 976.007,1688.65 983.153,1688.65 990.299,1688.65 997.445,1688.65 1004.59,1688.65 1011.74,1688.65 1018.88,1688.65 1026.03,1688.65 1033.17,1688.65 1040.32,1688.65 1047.47,1688.65 1054.61,1688.65 1061.76,1688.65 1068.9,1688.65 1076.05,1688.65 1083.19,1688.65 1090.34,1688.65 1097.49,1688.65 1104.63,1688.65 1111.78,1688.65 1118.92,1688.65 1126.07,1688.65 1133.21,1688.65 1140.36,1688.65 1147.51,1688.65 1154.65,1688.65 1161.8,1688.65 1168.94,1688.65 1176.09,1688.65 1183.23,1688.65 1190.38,1688.65 1197.53,1688.65 1204.67,1688.65 1211.82,1688.65 1218.96,1688.65 1226.11,1688.65 1233.25,1688.65 1240.4,1688.65 1247.55,1688.65 1254.69,1688.65 1261.84,1688.65 1268.98,1688.65 1276.13,1688.65 1283.28,1688.65 1290.42,1688.65 1297.57,1688.65 1304.71,1688.65 1311.86,1688.65 1319,1688.65 1326.15,1688.65 1333.3,1688.65 1340.44,1688.65 1347.59,1688.65 1354.73,1688.65 1361.88,1688.65 1369.02,1688.65 1376.17,1688.65 1383.32,1688.65 1390.46,1688.65 1397.61,1688.65 1404.75,1688.65 1411.9,1688.65 1419.04,1688.65 1426.19,1688.65 1433.34,1688.65 1440.48,1688.65 1447.63,1688.65 1454.77,1688.65 1461.92,1688.65 1469.07,1688.65 1476.21,1688.65 1483.36,1688.65 1490.5,1688.65 1497.65,1688.65 1504.79,1688.65 1511.94,1688.65 1519.09,1688.65 1526.23,1688.65 1533.38,1688.65 1540.52,1688.65 1547.67,1688.65 1554.81,1688.65 1561.96,1688.65 1569.11,1688.65 1576.25,1688.65 1583.4,1688.65 1590.54,1688.65 1597.69,1688.65 1604.83,1688.65 1611.98,1688.65 1619.13,1688.65 1626.27,1688.65 1633.42,1688.65 1640.56,1688.65 1647.71,1688.65 1654.85,1688.65 1662,1688.65 1669.15,1688.65 1676.29,1688.65 1683.44,1688.65 1690.58,1688.65 1697.73,1688.65 1704.88,1688.65 1712.02,1688.65 1719.17,1688.65 1726.31,1688.65 1733.46,1688.65 1740.6,1688.65 1747.75,1688.65 1754.9,1688.65 1762.04,1688.65 1769.19,1688.65 1776.33,1688.65 1783.48,1688.65 1790.62,1688.65 1797.77,1688.65 1804.92,1688.65 1812.06,1688.65 1819.21,1688.65 1826.35,1688.65 1833.5,1688.65 1840.64,1688.65 1847.79,1688.65 1854.94,1688.65 1862.08,1688.65 1869.23,1688.65 1876.37,1688.65 1883.52,1688.65 1890.67,1688.65 1897.81,1688.65 1904.96,1688.65 1912.1,1688.65 1919.25,1688.65 1926.39,1688.65 1933.54,1688.65 1940.69,1688.65 1947.83,1688.65 1954.98,1688.65 1962.12,1688.65 1969.27,1688.65 1976.41,1688.65 1983.56,1688.65 1990.71,1688.65 1997.85,1688.65 2005,1688.65 2012.14,1688.65 2019.29,1688.65 2026.43,1688.65 2033.58,1688.65 2040.73,1688.65 2047.87,1688.65 2055.02,1688.65 2062.16,1688.65 2069.31,1688.65 2076.45,1688.65 2083.6,1688.65 2090.75,1688.65 2097.89,1688.65 2105.04,1688.65 2112.18,1688.65 2119.33,1688.65 2126.48,1688.65 2133.62,1688.65 2140.77,1688.65 2147.91,1688.65 2155.06,1688.65 2162.2,1688.65 2169.35,1688.65 2176.5,1688.65 2183.64,1688.65 2190.79,1688.65 2197.93,1688.65 2205.08,1688.65 2212.22,1688.65 2219.37,1688.65 2226.52,1688.65 2233.66,1688.65 2240.81,1688.65 2247.95,1688.65 2255.1,1688.65 2262.24,1688.65 2269.39,1688.65 2276.54,1688.65 2283.68,1688.65 2290.83,1688.65 2297.97,1688.65 2305.12,1688.65 2312.27,1688.65 2319.41,1688.65 2326.56,1688.65 2333.7,1688.65 2340.85,1688.65 2347.99,1688.65 2355.14,1688.65 2362.29,1688.65 2369.43,1688.65 2376.58,1688.65 2383.72,1688.65 2390.87,1688.65 2398.01,1688.65 2405.16,1688.65 2412.31,1688.65 2419.45,1688.65 2426.6,1688.65 2433.74,1688.65 2440.89,1688.65 2448.03,1688.65 2455.18,1688.65 2462.33,1688.65 2469.47,1688.65 2476.62,1688.65 2483.76,1688.65 2490.91,1688.65 2498.06,1688.65 2505.2,1688.65 2512.35,1688.65 2519.49,1688.65 2526.64,1688.65 2533.78,1688.65 2540.93,1688.65 2548.08,1688.65 2555.22,1688.65 2562.37,1688.65 2569.51,1688.65 2576.66,1688.65 "/>
<polyline clip-path="url(#clip621)" style="stroke:#000000; stroke-linecap:round; stroke-linejoin:round; stroke-width:8; stroke-opacity:1; fill:none" points="440.075,310.59 447.221,310.59 454.367,310.59 461.512,310.59 468.658,310.59 475.804,310.59 482.95,310.59 490.096,310.59 497.241,310.59 504.387,310.59 511.533,310.59 518.679,310.59 525.824,310.59 532.97,310.59 540.116,310.59 547.262,310.59 554.407,310.59 561.553,310.59 568.699,310.59 575.845,310.59 582.99,310.59 590.136,310.59 597.282,310.59 604.428,310.59 611.574,310.59 618.719,310.59 625.865,310.59 633.011,310.59 640.157,310.59 647.302,310.59 654.448,310.59 661.594,310.59 668.74,310.59 675.885,310.59 683.031,310.59 690.177,310.59 697.323,310.59 704.468,310.59 711.614,310.59 718.76,310.59 725.906,310.59 733.051,310.59 740.197,310.59 747.343,310.59 754.489,310.59 761.635,310.59 768.78,310.59 775.926,310.59 783.072,310.59 790.218,310.59 797.363,310.59 804.509,310.59 811.655,1688.65 818.801,1688.65 825.946,1688.65 833.092,1688.65 840.238,1688.65 847.384,1688.65 854.529,1688.65 861.675,1688.65 868.821,1688.65 875.967,1688.65 883.113,1688.65 890.258,1688.65 897.404,1688.65 904.55,1688.65 911.696,1688.65 918.841,1688.65 925.987,1688.65 933.133,1688.65 940.279,1688.65 947.424,1688.65 954.57,1688.65 961.716,1688.65 968.862,1688.65 976.007,1688.65 983.153,1688.65 990.299,1688.65 997.445,1688.65 1004.59,1688.65 1011.74,1688.65 1018.88,1688.65 1026.03,1688.65 1033.17,1688.65 1040.32,1688.65 1047.47,1688.65 1054.61,1688.65 1061.76,1688.65 1068.9,1688.65 1076.05,1688.65 1083.19,1688.65 1090.34,1688.65 1097.49,1688.65 1104.63,1688.65 1111.78,1688.65 1118.92,1688.65 1126.07,1688.65 1133.21,1688.65 1140.36,1688.65 1147.51,1688.65 1154.65,1688.65 1161.8,1688.65 1168.94,1688.65 1176.09,1688.65 1183.23,1688.65 1190.38,1688.65 1197.53,1688.65 1204.67,1688.65 1211.82,1688.65 1218.96,1688.65 1226.11,1688.65 1233.25,1688.65 1240.4,1688.65 1247.55,1688.65 1254.69,1688.65 1261.84,1688.65 1268.98,1688.65 1276.13,1688.65 1283.28,1688.65 1290.42,1688.65 1297.57,1688.65 1304.71,1688.65 1311.86,1688.65 1319,1688.65 1326.15,1688.65 1333.3,1688.65 1340.44,1688.65 1347.59,1688.65 1354.73,1688.65 1361.88,1688.65 1369.02,1688.65 1376.17,1688.65 1383.32,1688.65 1390.46,1688.65 1397.61,1688.65 1404.75,1688.65 1411.9,1688.65 1419.04,1688.65 1426.19,1688.65 1433.34,1688.65 1440.48,1688.65 1447.63,1688.65 1454.77,1688.65 1461.92,1688.65 1469.07,1688.65 1476.21,1688.65 1483.36,1688.65 1490.5,1688.65 1497.65,1688.65 1504.79,1688.65 1511.94,1688.65 1519.09,1688.65 1526.23,1688.65 1533.38,1688.65 1540.52,1688.65 1547.67,1688.65 1554.81,1688.65 1561.96,1688.65 1569.11,1688.65 1576.25,1688.65 1583.4,1688.65 1590.54,1688.65 1597.69,1688.65 1604.83,1688.65 1611.98,1688.65 1619.13,1688.65 1626.27,1688.65 1633.42,1688.65 1640.56,1688.65 1647.71,1688.65 1654.85,1688.65 1662,1688.65 1669.15,1688.65 1676.29,1688.65 1683.44,1688.65 1690.58,1688.65 1697.73,1688.65 1704.88,1688.65 1712.02,1688.65 1719.17,1688.65 1726.31,1688.65 1733.46,1688.65 1740.6,1688.65 1747.75,1688.65 1754.9,1688.65 1762.04,1688.65 1769.19,1688.65 1776.33,1688.65 1783.48,1688.65 1790.62,1688.65 1797.77,1688.65 1804.92,1688.65 1812.06,1688.65 1819.21,1688.65 1826.35,1688.65 1833.5,1688.65 1840.64,1688.65 1847.79,1688.65 1854.94,1688.65 1862.08,1688.65 1869.23,1688.65 1876.37,1688.65 1883.52,1688.65 1890.67,1688.65 1897.81,1688.65 1904.96,1688.65 1912.1,1688.65 1919.25,1688.65 1926.39,1688.65 1933.54,1688.65 1940.69,1688.65 1947.83,1688.65 1954.98,1688.65 1962.12,1688.65 1969.27,1688.65 1976.41,1688.65 1983.56,1688.65 1990.71,1688.65 1997.85,1688.65 2005,1688.65 2012.14,1688.65 2019.29,1688.65 2026.43,1688.65 2033.58,1688.65 2040.73,1688.65 2047.87,1688.65 2055.02,1688.65 2062.16,1688.65 2069.31,1688.65 2076.45,1688.65 2083.6,1688.65 2090.75,1688.65 2097.89,1688.65 2105.04,1688.65 2112.18,1688.65 2119.33,1688.65 2126.48,1688.65 2133.62,1688.65 2140.77,1688.65 2147.91,1688.65 2155.06,1688.65 2162.2,1688.65 2169.35,1688.65 2176.5,1688.65 2183.64,1688.65 2190.79,1688.65 2197.93,1688.65 2205.08,1688.65 2212.22,1688.65 2219.37,1688.65 2226.52,1688.65 2233.66,1688.65 2240.81,1688.65 2247.95,1688.65 2255.1,1688.65 2262.24,1688.65 2269.39,1688.65 2276.54,1688.65 2283.68,1688.65 2290.83,1688.65 2297.97,1688.65 2305.12,1688.65 2312.27,1688.65 2319.41,1688.65 2326.56,1688.65 2333.7,1688.65 2340.85,1688.65 2347.99,1688.65 2355.14,1688.65 2362.29,1688.65 2369.43,1688.65 2376.58,1688.65 2383.72,1688.65 2390.87,1688.65 2398.01,1688.65 2405.16,1688.65 2412.31,1688.65 2419.45,1688.65 2426.6,1688.65 2433.74,1688.65 2440.89,1688.65 2448.03,1688.65 2455.18,1688.65 2462.33,1688.65 2469.47,1688.65 2476.62,1688.65 2483.76,1688.65 2490.91,1688.65 2498.06,1688.65 2505.2,1688.65 2512.35,1688.65 2519.49,1688.65 2526.64,1688.65 2533.78,1688.65 2540.93,1688.65 2548.08,1688.65 2555.22,1688.65 2562.37,1688.65 2569.51,1688.65 2576.66,1688.65 "/>
<polyline clip-path="url(#clip621)" style="stroke:#dc143c; stroke-linecap:round; stroke-linejoin:round; stroke-width:8; stroke-opacity:1; fill:none" points="440.075,173.254 447.221,173.254 454.367,173.254 461.512,173.254 468.658,173.254 475.804,173.254 482.95,173.254 490.096,173.254 497.241,173.254 504.387,173.254 511.533,173.254 518.679,173.254 525.824,173.254 532.97,173.254 540.116,173.254 547.262,173.254 554.407,173.254 561.553,173.254 568.699,173.254 575.845,173.254 582.99,173.254 590.136,173.254 597.282,173.254 604.428,173.254 611.574,173.254 618.719,173.254 625.865,173.254 633.011,173.254 640.157,173.254 647.302,173.254 654.448,173.254 661.594,173.254 668.74,173.254 675.885,173.254 683.031,173.254 690.177,173.254 697.323,173.254 704.468,173.254 711.614,173.254 718.76,173.254 725.906,173.254 733.051,173.254 740.197,173.254 747.343,173.254 754.489,173.254 761.635,173.254 768.78,173.254 775.926,1688.65 783.072,1688.65 790.218,1688.65 797.363,1688.65 804.509,1688.65 811.655,1688.65 818.801,1688.65 825.946,1688.65 833.092,1688.65 840.238,1688.65 847.384,1688.65 854.529,1688.65 861.675,1688.65 868.821,1688.65 875.967,1688.65 883.113,1688.65 890.258,1688.65 897.404,1688.65 904.55,1688.65 911.696,1688.65 918.841,1688.65 925.987,1688.65 933.133,1688.65 940.279,1688.65 947.424,1688.65 954.57,1688.65 961.716,1688.65 968.862,1688.65 976.007,1688.65 983.153,1688.65 990.299,1688.65 997.445,1688.65 1004.59,1688.65 1011.74,1688.65 1018.88,1688.65 1026.03,1688.65 1033.17,1688.65 1040.32,1688.65 1047.47,1688.65 1054.61,1688.65 1061.76,1688.65 1068.9,1688.65 1076.05,1688.65 1083.19,1688.65 1090.34,1688.65 1097.49,1688.65 1104.63,1688.65 1111.78,1688.65 1118.92,1688.65 1126.07,1688.65 1133.21,1688.65 1140.36,1688.65 1147.51,1688.65 1154.65,1688.65 1161.8,1688.65 1168.94,1688.65 1176.09,1688.65 1183.23,1688.65 1190.38,1688.65 1197.53,1688.65 1204.67,1688.65 1211.82,1688.65 1218.96,1688.65 1226.11,1688.65 1233.25,1688.65 1240.4,1688.65 1247.55,1688.65 1254.69,1688.65 1261.84,1688.65 1268.98,1688.65 1276.13,1688.65 1283.28,1688.65 1290.42,1688.65 1297.57,1688.65 1304.71,1688.65 1311.86,1688.65 1319,1688.65 1326.15,1688.65 1333.3,1688.65 1340.44,1688.65 1347.59,1688.65 1354.73,1688.65 1361.88,1688.65 1369.02,1688.65 1376.17,1688.65 1383.32,1688.65 1390.46,1688.65 1397.61,1688.65 1404.75,1688.65 1411.9,1688.65 1419.04,1688.65 1426.19,1688.65 1433.34,1688.65 1440.48,1688.65 1447.63,1688.65 1454.77,1688.65 1461.92,1688.65 1469.07,1688.65 1476.21,1688.65 1483.36,1688.65 1490.5,1688.65 1497.65,1688.65 1504.79,1688.65 1511.94,1688.65 1519.09,1688.65 1526.23,1688.65 1533.38,1688.65 1540.52,1688.65 1547.67,1688.65 1554.81,1688.65 1561.96,1688.65 1569.11,1688.65 1576.25,1688.65 1583.4,1688.65 1590.54,1688.65 1597.69,1688.65 1604.83,1688.65 1611.98,1688.65 1619.13,1688.65 1626.27,1688.65 1633.42,1688.65 1640.56,1688.65 1647.71,1688.65 1654.85,1688.65 1662,1688.65 1669.15,1688.65 1676.29,1688.65 1683.44,1688.65 1690.58,1688.65 1697.73,1688.65 1704.88,1688.65 1712.02,1688.65 1719.17,1688.65 1726.31,1688.65 1733.46,1688.65 1740.6,1688.65 1747.75,1688.65 1754.9,1688.65 1762.04,1688.65 1769.19,1688.65 1776.33,1688.65 1783.48,1688.65 1790.62,1688.65 1797.77,1688.65 1804.92,1688.65 1812.06,1688.65 1819.21,1688.65 1826.35,1688.65 1833.5,1688.65 1840.64,1688.65 1847.79,1688.65 1854.94,1688.65 1862.08,1688.65 1869.23,1688.65 1876.37,1688.65 1883.52,1688.65 1890.67,1688.65 1897.81,1688.65 1904.96,1688.65 1912.1,1688.65 1919.25,1688.65 1926.39,1688.65 1933.54,1688.65 1940.69,1688.65 1947.83,1688.65 1954.98,1688.65 1962.12,1688.65 1969.27,1688.65 1976.41,1688.65 1983.56,1688.65 1990.71,1688.65 1997.85,1688.65 2005,1688.65 2012.14,1688.65 2019.29,1688.65 2026.43,1688.65 2033.58,1688.65 2040.73,1688.65 2047.87,1688.65 2055.02,1688.65 2062.16,1688.65 2069.31,1688.65 2076.45,1688.65 2083.6,1688.65 2090.75,1688.65 2097.89,1688.65 2105.04,1688.65 2112.18,1688.65 2119.33,1688.65 2126.48,1688.65 2133.62,1688.65 2140.77,1688.65 2147.91,1688.65 2155.06,1688.65 2162.2,1688.65 2169.35,1688.65 2176.5,1688.65 2183.64,1688.65 2190.79,1688.65 2197.93,1688.65 2205.08,1688.65 2212.22,1688.65 2219.37,1688.65 2226.52,1688.65 2233.66,1688.65 2240.81,1688.65 2247.95,1688.65 2255.1,1688.65 2262.24,1688.65 2269.39,1688.65 2276.54,1688.65 2283.68,1688.65 2290.83,1688.65 2297.97,1688.65 2305.12,1688.65 2312.27,1688.65 2319.41,1688.65 2326.56,1688.65 2333.7,1688.65 2340.85,1688.65 2347.99,1688.65 2355.14,1688.65 2362.29,1688.65 2369.43,1688.65 2376.58,1688.65 2383.72,1688.65 2390.87,1688.65 2398.01,1688.65 2405.16,1688.65 2412.31,1688.65 2419.45,1688.65 2426.6,1688.65 2433.74,1688.65 2440.89,1688.65 2448.03,1688.65 2455.18,1688.65 2462.33,1688.65 2469.47,1688.65 2476.62,1688.65 2483.76,1688.65 2490.91,1688.65 2498.06,1688.65 2505.2,1688.65 2512.35,1688.65 2519.49,1688.65 2526.64,1688.65 2533.78,1688.65 2540.93,1688.65 2548.08,1688.65 2555.22,1688.65 2562.37,1688.65 2569.51,1688.65 2576.66,1688.65 "/>
<path clip-path="url(#clip620)" d="M1987.31 388.696 L2565.26 388.696 L2565.26 181.336 L1987.31 181.336  Z" fill="#ffffff" fill-rule="evenodd" fill-opacity="1"/>
<polyline clip-path="url(#clip620)" style="stroke:#000000; stroke-linecap:round; stroke-linejoin:round; stroke-width:4; stroke-opacity:1; fill:none" points="1987.31,388.696 2565.26,388.696 2565.26,181.336 1987.31,181.336 1987.31,388.696 "/>
<polyline clip-path="url(#clip620)" style="stroke:#4682b4; stroke-linecap:round; stroke-linejoin:round; stroke-width:8; stroke-opacity:1; fill:none" points="2012.47,233.176 2163.46,233.176 "/>
<path clip-path="url(#clip620)" d="M2188.62 235.572 L2201.1 235.572 L2201.1 239.368 L2188.62 239.368 L2188.62 235.572 Z" fill="#000000" fill-rule="nonzero" fill-opacity="1" /><path clip-path="url(#clip620)" d="M2219.06 231.313 Q2215.91 231.313 2214.06 233.466 Q2212.23 235.618 2212.23 239.368 Q2212.23 243.095 2214.06 245.271 Q2215.91 247.424 2219.06 247.424 Q2222.21 247.424 2224.04 245.271 Q2225.89 243.095 2225.89 239.368 Q2225.89 235.618 2224.04 233.466 Q2222.21 231.313 2219.06 231.313 M2228.34 216.66 L2228.34 220.919 Q2226.58 220.086 2224.78 219.646 Q2222.99 219.206 2221.24 219.206 Q2216.61 219.206 2214.15 222.331 Q2211.72 225.456 2211.37 231.776 Q2212.74 229.762 2214.8 228.697 Q2216.86 227.609 2219.34 227.609 Q2224.55 227.609 2227.55 230.78 Q2230.59 233.929 2230.59 239.368 Q2230.59 244.692 2227.44 247.91 Q2224.29 251.128 2219.06 251.128 Q2213.06 251.128 2209.89 246.544 Q2206.72 241.938 2206.72 233.211 Q2206.72 225.017 2210.61 220.156 Q2214.5 215.271 2221.05 215.271 Q2222.81 215.271 2224.59 215.619 Q2226.4 215.966 2228.34 216.66 Z" fill="#000000" fill-rule="nonzero" fill-opacity="1" /><path clip-path="url(#clip620)" d="M2238.69 215.896 L2257.05 215.896 L2257.05 219.831 L2242.97 219.831 L2242.97 228.304 Q2243.99 227.956 2245.01 227.794 Q2246.03 227.609 2247.05 227.609 Q2252.83 227.609 2256.21 230.78 Q2259.59 233.952 2259.59 239.368 Q2259.59 244.947 2256.12 248.049 Q2252.65 251.128 2246.33 251.128 Q2244.15 251.128 2241.88 250.757 Q2239.64 250.387 2237.23 249.646 L2237.23 244.947 Q2239.31 246.081 2241.54 246.637 Q2243.76 247.192 2246.23 247.192 Q2250.24 247.192 2252.58 245.086 Q2254.92 242.979 2254.92 239.368 Q2254.92 235.757 2252.58 233.651 Q2250.24 231.544 2246.23 231.544 Q2244.36 231.544 2242.48 231.961 Q2240.63 232.378 2238.69 233.257 L2238.69 215.896 Z" fill="#000000" fill-rule="nonzero" fill-opacity="1" /><path clip-path="url(#clip620)" d="M2275.59 218.257 Q2273.73 218.257 2272.46 219.554 Q2271.19 220.827 2271.19 222.679 Q2271.19 224.507 2272.46 225.78 Q2273.73 227.03 2275.59 227.03 Q2277.44 227.03 2278.71 225.78 Q2279.98 224.507 2279.98 222.679 Q2279.98 220.85 2278.69 219.554 Q2277.42 218.257 2275.59 218.257 M2275.59 215.271 Q2277.07 215.271 2278.43 215.85 Q2279.8 216.406 2280.79 217.47 Q2281.86 218.512 2282.39 219.831 Q2282.92 221.151 2282.92 222.679 Q2282.92 225.734 2280.77 227.864 Q2278.64 229.97 2275.54 229.97 Q2272.42 229.97 2270.33 227.887 Q2268.25 225.804 2268.25 222.679 Q2268.25 219.577 2270.38 217.424 Q2272.51 215.271 2275.59 215.271 Z" fill="#000000" fill-rule="nonzero" fill-opacity="1" /><path clip-path="url(#clip620)" d="M2292.09 215.896 L2311.95 215.896 L2311.95 219.831 L2296.77 219.831 L2296.77 230.017 L2310.47 230.017 L2310.47 233.952 L2296.77 233.952 L2296.77 250.456 L2292.09 250.456 L2292.09 215.896 Z" fill="#000000" fill-rule="nonzero" fill-opacity="1" /><path clip-path="url(#clip620)" d="M2344.48 214.484 Q2341.37 219.808 2339.87 225.017 Q2338.36 230.225 2338.36 235.572 Q2338.36 240.919 2339.87 246.174 Q2341.4 251.405 2344.48 256.706 L2340.77 256.706 Q2337.3 251.266 2335.56 246.012 Q2333.85 240.757 2333.85 235.572 Q2333.85 230.41 2335.56 225.179 Q2337.28 219.947 2340.77 214.484 L2344.48 214.484 Z" fill="#000000" fill-rule="nonzero" fill-opacity="1" /><path clip-path="url(#clip620)" d="M2378.8 218.558 L2378.8 223.489 Q2376.44 221.29 2373.76 220.202 Q2371.1 219.114 2368.09 219.114 Q2362.16 219.114 2359.01 222.748 Q2355.86 226.359 2355.86 233.211 Q2355.86 240.04 2359.01 243.674 Q2362.16 247.285 2368.09 247.285 Q2371.1 247.285 2373.76 246.197 Q2376.44 245.109 2378.8 242.91 L2378.8 247.794 Q2376.35 249.461 2373.6 250.294 Q2370.86 251.128 2367.81 251.128 Q2359.96 251.128 2355.45 246.336 Q2350.93 241.521 2350.93 233.211 Q2350.93 224.878 2355.45 220.086 Q2359.96 215.271 2367.81 215.271 Q2370.91 215.271 2373.64 216.105 Q2376.4 216.915 2378.8 218.558 Z" fill="#000000" fill-rule="nonzero" fill-opacity="1" /><path clip-path="url(#clip620)" d="M2395.89 227.517 Q2392.46 227.517 2390.47 230.202 Q2388.48 232.864 2388.48 237.517 Q2388.48 242.169 2390.45 244.854 Q2392.44 247.516 2395.89 247.516 Q2399.29 247.516 2401.28 244.831 Q2403.27 242.146 2403.27 237.517 Q2403.27 232.91 2401.28 230.225 Q2399.29 227.517 2395.89 227.517 M2395.89 223.906 Q2401.44 223.906 2404.61 227.517 Q2407.78 231.128 2407.78 237.517 Q2407.78 243.882 2404.61 247.516 Q2401.44 251.128 2395.89 251.128 Q2390.31 251.128 2387.14 247.516 Q2383.99 243.882 2383.99 237.517 Q2383.99 231.128 2387.14 227.517 Q2390.31 223.906 2395.89 223.906 Z" fill="#000000" fill-rule="nonzero" fill-opacity="1" /><path clip-path="url(#clip620)" d="M2414.85 214.438 L2419.1 214.438 L2419.1 250.456 L2414.85 250.456 L2414.85 214.438 Z" fill="#000000" fill-rule="nonzero" fill-opacity="1" /><path clip-path="url(#clip620)" d="M2445.08 228.466 L2445.08 214.438 L2449.34 214.438 L2449.34 250.456 L2445.08 250.456 L2445.08 246.567 Q2443.73 248.882 2441.67 250.016 Q2439.64 251.128 2436.77 251.128 Q2432.07 251.128 2429.1 247.378 Q2426.16 243.628 2426.16 237.517 Q2426.16 231.405 2429.1 227.655 Q2432.07 223.906 2436.77 223.906 Q2439.64 223.906 2441.67 225.04 Q2443.73 226.151 2445.08 228.466 M2430.56 237.517 Q2430.56 242.216 2432.48 244.901 Q2434.43 247.563 2437.81 247.563 Q2441.19 247.563 2443.13 244.901 Q2445.08 242.216 2445.08 237.517 Q2445.08 232.817 2443.13 230.155 Q2441.19 227.47 2437.81 227.47 Q2434.43 227.47 2432.48 230.155 Q2430.56 232.817 2430.56 237.517 Z" fill="#000000" fill-rule="nonzero" fill-opacity="1" /><path clip-path="url(#clip620)" d="M2457.44 214.484 L2461.14 214.484 Q2464.61 219.947 2466.33 225.179 Q2468.06 230.41 2468.06 235.572 Q2468.06 240.757 2466.33 246.012 Q2464.61 251.266 2461.14 256.706 L2457.44 256.706 Q2460.52 251.405 2462.02 246.174 Q2463.55 240.919 2463.55 235.572 Q2463.55 230.225 2462.02 225.017 Q2460.52 219.808 2457.44 214.484 Z" fill="#000000" fill-rule="nonzero" fill-opacity="1" /><polyline clip-path="url(#clip620)" style="stroke:#000000; stroke-linecap:round; stroke-linejoin:round; stroke-width:8; stroke-opacity:1; fill:none" points="2012.47,285.016 2163.46,285.016 "/>
<path clip-path="url(#clip620)" d="M2188.62 267.736 L2210.84 267.736 L2210.84 269.727 L2198.3 302.296 L2193.41 302.296 L2205.22 271.671 L2188.62 271.671 L2188.62 267.736 Z" fill="#000000" fill-rule="nonzero" fill-opacity="1" /><path clip-path="url(#clip620)" d="M2229.96 270.815 Q2226.35 270.815 2224.52 274.38 Q2222.72 277.921 2222.72 285.051 Q2222.72 292.157 2224.52 295.722 Q2226.35 299.264 2229.96 299.264 Q2233.6 299.264 2235.4 295.722 Q2237.23 292.157 2237.23 285.051 Q2237.23 277.921 2235.4 274.38 Q2233.6 270.815 2229.96 270.815 M2229.96 267.111 Q2235.77 267.111 2238.83 271.718 Q2241.91 276.301 2241.91 285.051 Q2241.91 293.778 2238.83 298.384 Q2235.77 302.968 2229.96 302.968 Q2224.15 302.968 2221.07 298.384 Q2218.02 293.778 2218.02 285.051 Q2218.02 276.301 2221.07 271.718 Q2224.15 267.111 2229.96 267.111 Z" fill="#000000" fill-rule="nonzero" fill-opacity="1" /><path clip-path="url(#clip620)" d="M2256.91 270.097 Q2255.05 270.097 2253.78 271.394 Q2252.51 272.667 2252.51 274.519 Q2252.51 276.347 2253.78 277.62 Q2255.05 278.87 2256.91 278.87 Q2258.76 278.87 2260.03 277.62 Q2261.3 276.347 2261.3 274.519 Q2261.3 272.69 2260.01 271.394 Q2258.73 270.097 2256.91 270.097 M2256.91 267.111 Q2258.39 267.111 2259.75 267.69 Q2261.12 268.246 2262.11 269.31 Q2263.18 270.352 2263.71 271.671 Q2264.24 272.991 2264.24 274.519 Q2264.24 277.574 2262.09 279.704 Q2259.96 281.81 2256.86 281.81 Q2253.73 281.81 2251.65 279.727 Q2249.57 277.644 2249.57 274.519 Q2249.57 271.417 2251.7 269.264 Q2253.83 267.111 2256.91 267.111 Z" fill="#000000" fill-rule="nonzero" fill-opacity="1" /><path clip-path="url(#clip620)" d="M2273.41 267.736 L2293.27 267.736 L2293.27 271.671 L2278.09 271.671 L2278.09 281.857 L2291.79 281.857 L2291.79 285.792 L2278.09 285.792 L2278.09 302.296 L2273.41 302.296 L2273.41 267.736 Z" fill="#000000" fill-rule="nonzero" fill-opacity="1" /><path clip-path="url(#clip620)" d="M2325.79 266.324 Q2322.69 271.648 2321.19 276.857 Q2319.68 282.065 2319.68 287.412 Q2319.68 292.759 2321.19 298.014 Q2322.72 303.245 2325.79 308.546 L2322.09 308.546 Q2318.62 303.106 2316.88 297.852 Q2315.17 292.597 2315.17 287.412 Q2315.17 282.25 2316.88 277.019 Q2318.6 271.787 2322.09 266.324 L2325.79 266.324 Z" fill="#000000" fill-rule="nonzero" fill-opacity="1" /><path clip-path="url(#clip620)" d="M2334.24 267.736 L2340.54 267.736 L2355.86 296.648 L2355.86 267.736 L2360.4 267.736 L2360.4 302.296 L2354.1 302.296 L2338.78 273.384 L2338.78 302.296 L2334.24 302.296 L2334.24 267.736 Z" fill="#000000" fill-rule="nonzero" fill-opacity="1" /><path clip-path="url(#clip620)" d="M2379.57 279.357 Q2376.14 279.357 2374.15 282.042 Q2372.16 284.704 2372.16 289.357 Q2372.16 294.009 2374.13 296.694 Q2376.12 299.356 2379.57 299.356 Q2382.97 299.356 2384.96 296.671 Q2386.95 293.986 2386.95 289.357 Q2386.95 284.75 2384.96 282.065 Q2382.97 279.357 2379.57 279.357 M2379.57 275.746 Q2385.12 275.746 2388.29 279.357 Q2391.47 282.968 2391.47 289.357 Q2391.47 295.722 2388.29 299.356 Q2385.12 302.968 2379.57 302.968 Q2373.99 302.968 2370.82 299.356 Q2367.67 295.722 2367.67 289.357 Q2367.67 282.968 2370.82 279.357 Q2373.99 275.746 2379.57 275.746 Z" fill="#000000" fill-rule="nonzero" fill-opacity="1" /><path clip-path="url(#clip620)" d="M2418.71 281.347 Q2420.31 278.477 2422.53 277.111 Q2424.75 275.746 2427.76 275.746 Q2431.81 275.746 2434.01 278.593 Q2436.21 281.417 2436.21 286.648 L2436.21 302.296 L2431.93 302.296 L2431.93 286.787 Q2431.93 283.06 2430.61 281.255 Q2429.29 279.449 2426.58 279.449 Q2423.27 279.449 2421.35 281.648 Q2419.43 283.847 2419.43 287.644 L2419.43 302.296 L2415.15 302.296 L2415.15 286.787 Q2415.15 283.037 2413.83 281.255 Q2412.51 279.449 2409.75 279.449 Q2406.49 279.449 2404.57 281.671 Q2402.65 283.87 2402.65 287.644 L2402.65 302.296 L2398.36 302.296 L2398.36 276.371 L2402.65 276.371 L2402.65 280.398 Q2404.1 278.014 2406.14 276.88 Q2408.18 275.746 2410.98 275.746 Q2413.8 275.746 2415.77 277.181 Q2417.76 278.616 2418.71 281.347 Z" fill="#000000" fill-rule="nonzero" fill-opacity="1" /><path clip-path="url(#clip620)" d="M2444.71 276.371 L2448.97 276.371 L2448.97 302.296 L2444.71 302.296 L2444.71 276.371 M2444.71 266.278 L2448.97 266.278 L2448.97 271.671 L2444.71 271.671 L2444.71 266.278 Z" fill="#000000" fill-rule="nonzero" fill-opacity="1" /><path clip-path="url(#clip620)" d="M2479.43 286.648 L2479.43 302.296 L2475.17 302.296 L2475.17 286.787 Q2475.17 283.107 2473.73 281.278 Q2472.3 279.449 2469.43 279.449 Q2465.98 279.449 2463.99 281.648 Q2462 283.847 2462 287.644 L2462 302.296 L2457.72 302.296 L2457.72 276.371 L2462 276.371 L2462 280.398 Q2463.53 278.06 2465.59 276.903 Q2467.67 275.746 2470.38 275.746 Q2474.84 275.746 2477.14 278.523 Q2479.43 281.278 2479.43 286.648 Z" fill="#000000" fill-rule="nonzero" fill-opacity="1" /><path clip-path="url(#clip620)" d="M2499.71 289.264 Q2494.54 289.264 2492.55 290.444 Q2490.56 291.625 2490.56 294.472 Q2490.56 296.741 2492.04 298.083 Q2493.55 299.403 2496.12 299.403 Q2499.66 299.403 2501.79 296.903 Q2503.94 294.38 2503.94 290.213 L2503.94 289.264 L2499.71 289.264 M2508.2 287.505 L2508.2 302.296 L2503.94 302.296 L2503.94 298.361 Q2502.48 300.722 2500.31 301.856 Q2498.13 302.968 2494.98 302.968 Q2491 302.968 2488.64 300.745 Q2486.3 298.5 2486.3 294.75 Q2486.3 290.375 2489.22 288.153 Q2492.16 285.931 2497.97 285.931 L2503.94 285.931 L2503.94 285.514 Q2503.94 282.574 2502 280.977 Q2500.08 279.357 2496.58 279.357 Q2494.36 279.357 2492.25 279.889 Q2490.15 280.421 2488.2 281.486 L2488.2 277.551 Q2490.54 276.648 2492.74 276.208 Q2494.94 275.746 2497.02 275.746 Q2502.65 275.746 2505.42 278.662 Q2508.2 281.579 2508.2 287.505 Z" fill="#000000" fill-rule="nonzero" fill-opacity="1" /><path clip-path="url(#clip620)" d="M2516.97 266.278 L2521.23 266.278 L2521.23 302.296 L2516.97 302.296 L2516.97 266.278 Z" fill="#000000" fill-rule="nonzero" fill-opacity="1" /><path clip-path="url(#clip620)" d="M2529.47 266.324 L2533.18 266.324 Q2536.65 271.787 2538.36 277.019 Q2540.1 282.25 2540.1 287.412 Q2540.1 292.597 2538.36 297.852 Q2536.65 303.106 2533.18 308.546 L2529.47 308.546 Q2532.55 303.245 2534.06 298.014 Q2535.59 292.759 2535.59 287.412 Q2535.59 282.065 2534.06 276.857 Q2532.55 271.648 2529.47 266.324 Z" fill="#000000" fill-rule="nonzero" fill-opacity="1" /><polyline clip-path="url(#clip620)" style="stroke:#dc143c; stroke-linecap:round; stroke-linejoin:round; stroke-width:8; stroke-opacity:1; fill:none" points="2012.47,336.856 2163.46,336.856 "/>
<path clip-path="url(#clip620)" d="M2189.29 350.201 L2196.93 350.201 L2196.93 323.836 L2188.62 325.502 L2188.62 321.243 L2196.88 319.576 L2201.56 319.576 L2201.56 350.201 L2209.2 350.201 L2209.2 354.136 L2189.29 354.136 L2189.29 350.201 Z" fill="#000000" fill-rule="nonzero" fill-opacity="1" /><path clip-path="url(#clip620)" d="M2229.22 334.993 Q2226.07 334.993 2224.22 337.146 Q2222.39 339.298 2222.39 343.048 Q2222.39 346.775 2224.22 348.951 Q2226.07 351.104 2229.22 351.104 Q2232.37 351.104 2234.2 348.951 Q2236.05 346.775 2236.05 343.048 Q2236.05 339.298 2234.2 337.146 Q2232.37 334.993 2229.22 334.993 M2238.5 320.34 L2238.5 324.599 Q2236.74 323.766 2234.94 323.326 Q2233.16 322.886 2231.4 322.886 Q2226.77 322.886 2224.31 326.011 Q2221.88 329.136 2221.54 335.456 Q2222.9 333.442 2224.96 332.377 Q2227.02 331.289 2229.5 331.289 Q2234.71 331.289 2237.72 334.46 Q2240.75 337.609 2240.75 343.048 Q2240.75 348.372 2237.6 351.59 Q2234.45 354.808 2229.22 354.808 Q2223.23 354.808 2220.05 350.224 Q2216.88 345.618 2216.88 336.891 Q2216.88 328.697 2220.77 323.836 Q2224.66 318.951 2231.21 318.951 Q2232.97 318.951 2234.75 319.299 Q2236.56 319.646 2238.5 320.34 Z" fill="#000000" fill-rule="nonzero" fill-opacity="1" /><path clip-path="url(#clip620)" d="M2248.85 319.576 L2267.21 319.576 L2267.21 323.511 L2253.13 323.511 L2253.13 331.984 Q2254.15 331.636 2255.17 331.474 Q2256.19 331.289 2257.21 331.289 Q2262.99 331.289 2266.37 334.46 Q2269.75 337.632 2269.75 343.048 Q2269.75 348.627 2266.28 351.729 Q2262.81 354.808 2256.49 354.808 Q2254.31 354.808 2252.05 354.437 Q2249.8 354.067 2247.39 353.326 L2247.39 348.627 Q2249.48 349.761 2251.7 350.317 Q2253.92 350.872 2256.4 350.872 Q2260.4 350.872 2262.74 348.766 Q2265.08 346.659 2265.08 343.048 Q2265.08 339.437 2262.74 337.331 Q2260.4 335.224 2256.4 335.224 Q2254.52 335.224 2252.65 335.641 Q2250.8 336.058 2248.85 336.937 L2248.85 319.576 Z" fill="#000000" fill-rule="nonzero" fill-opacity="1" /><path clip-path="url(#clip620)" d="M2285.75 321.937 Q2283.9 321.937 2282.62 323.234 Q2281.35 324.507 2281.35 326.359 Q2281.35 328.187 2282.62 329.46 Q2283.9 330.71 2285.75 330.71 Q2287.6 330.71 2288.87 329.46 Q2290.15 328.187 2290.15 326.359 Q2290.15 324.53 2288.85 323.234 Q2287.58 321.937 2285.75 321.937 M2285.75 318.951 Q2287.23 318.951 2288.6 319.53 Q2289.96 320.086 2290.96 321.15 Q2292.02 322.192 2292.55 323.511 Q2293.09 324.831 2293.09 326.359 Q2293.09 329.414 2290.93 331.544 Q2288.8 333.65 2285.7 333.65 Q2282.58 333.65 2280.49 331.567 Q2278.41 329.484 2278.41 326.359 Q2278.41 323.257 2280.54 321.104 Q2282.67 318.951 2285.75 318.951 Z" fill="#000000" fill-rule="nonzero" fill-opacity="1" /><path clip-path="url(#clip620)" d="M2302.25 319.576 L2322.11 319.576 L2322.11 323.511 L2306.93 323.511 L2306.93 333.697 L2320.63 333.697 L2320.63 337.632 L2306.93 337.632 L2306.93 354.136 L2302.25 354.136 L2302.25 319.576 Z" fill="#000000" fill-rule="nonzero" fill-opacity="1" /><path clip-path="url(#clip620)" d="M2354.64 318.164 Q2351.54 323.488 2350.03 328.697 Q2348.53 333.905 2348.53 339.252 Q2348.53 344.599 2350.03 349.854 Q2351.56 355.085 2354.64 360.386 L2350.93 360.386 Q2347.46 354.946 2345.73 349.692 Q2344.01 344.437 2344.01 339.252 Q2344.01 334.09 2345.73 328.859 Q2347.44 323.627 2350.93 318.164 L2354.64 318.164 Z" fill="#000000" fill-rule="nonzero" fill-opacity="1" /><path clip-path="url(#clip620)" d="M2363.09 319.576 L2367.76 319.576 L2367.76 333.743 L2384.75 333.743 L2384.75 319.576 L2389.43 319.576 L2389.43 354.136 L2384.75 354.136 L2384.75 337.678 L2367.76 337.678 L2367.76 354.136 L2363.09 354.136 L2363.09 319.576 Z" fill="#000000" fill-rule="nonzero" fill-opacity="1" /><path clip-path="url(#clip620)" d="M2408.6 331.197 Q2405.17 331.197 2403.18 333.882 Q2401.19 336.544 2401.19 341.197 Q2401.19 345.849 2403.16 348.534 Q2405.15 351.196 2408.6 351.196 Q2412 351.196 2413.99 348.511 Q2415.98 345.826 2415.98 341.197 Q2415.98 336.59 2413.99 333.905 Q2412 331.197 2408.6 331.197 M2408.6 327.586 Q2414.15 327.586 2417.32 331.197 Q2420.49 334.808 2420.49 341.197 Q2420.49 347.562 2417.32 351.196 Q2414.15 354.808 2408.6 354.808 Q2403.02 354.808 2399.85 351.196 Q2396.7 347.562 2396.7 341.197 Q2396.7 334.808 2399.85 331.197 Q2403.02 327.586 2408.6 327.586 Z" fill="#000000" fill-rule="nonzero" fill-opacity="1" /><path clip-path="url(#clip620)" d="M2431.77 320.849 L2431.77 328.211 L2440.54 328.211 L2440.54 331.521 L2431.77 331.521 L2431.77 345.595 Q2431.77 348.766 2432.62 349.669 Q2433.5 350.571 2436.16 350.571 L2440.54 350.571 L2440.54 354.136 L2436.16 354.136 Q2431.23 354.136 2429.36 352.308 Q2427.48 350.456 2427.48 345.595 L2427.48 331.521 L2424.36 331.521 L2424.36 328.211 L2427.48 328.211 L2427.48 320.849 L2431.77 320.849 Z" fill="#000000" fill-rule="nonzero" fill-opacity="1" /><path clip-path="url(#clip620)" d="M2445.47 318.164 L2449.17 318.164 Q2452.65 323.627 2454.36 328.859 Q2456.09 334.09 2456.09 339.252 Q2456.09 344.437 2454.36 349.692 Q2452.65 354.946 2449.17 360.386 L2445.47 360.386 Q2448.55 355.085 2450.05 349.854 Q2451.58 344.599 2451.58 339.252 Q2451.58 333.905 2450.05 328.697 Q2448.55 323.488 2445.47 318.164 Z" fill="#000000" fill-rule="nonzero" fill-opacity="1" /></svg>
