<?xml version="1.0" encoding="utf-8"?>
<svg xmlns="http://www.w3.org/2000/svg" xmlns:xlink="http://www.w3.org/1999/xlink" width="672" height="480" viewBox="0 0 2688 1920">
<defs>
  <clipPath id="clip560">
    <rect x="0" y="0" width="2688" height="1920"/>
  </clipPath>
</defs>
<path clip-path="url(#clip560)" d="M0 1920 L2688 1920 L2688 -4.26326e-14 L0 -4.26326e-14  Z" fill="#ffffff" fill-rule="evenodd" fill-opacity="1"/>
<defs>
  <clipPath id="clip561">
    <rect x="271" y="127" width="2370" height="1607"/>
  </clipPath>
</defs>
<path clip-path="url(#clip560)" d="M271.719 1734.12 L2640.76 1734.12 L2640.76 127.792 L271.719 127.792  Z" fill="#ffffff" fill-rule="evenodd" fill-opacity="1"/>
<polyline clip-path="url(#clip561)" style="stroke:#000000; stroke-linecap:round; stroke-linejoin:round; stroke-width:2; stroke-opacity:0.3; fill:none" points="587.094,1734.12 587.094,127.792 "/>
<polyline clip-path="url(#clip561)" style="stroke:#000000; stroke-linecap:round; stroke-linejoin:round; stroke-width:2; stroke-opacity:0.3; fill:none" points="1083.75,1734.12 1083.75,127.792 "/>
<polyline clip-path="url(#clip561)" style="stroke:#000000; stroke-linecap:round; stroke-linejoin:round; stroke-width:2; stroke-opacity:0.3; fill:none" points="1580.4,1734.12 1580.4,127.792 "/>
<polyline clip-path="url(#clip561)" style="stroke:#000000; stroke-linecap:round; stroke-linejoin:round; stroke-width:2; stroke-opacity:0.3; fill:none" points="2077.05,1734.12 2077.05,127.792 "/>
<polyline clip-path="url(#clip561)" style="stroke:#000000; stroke-linecap:round; stroke-linejoin:round; stroke-width:2; stroke-opacity:0.3; fill:none" points="2573.71,1734.12 2573.71,127.792 "/>
<polyline clip-path="url(#clip561)" style="stroke:#000000; stroke-linecap:round; stroke-linejoin:round; stroke-width:2; stroke-opacity:0.3; fill:none" points="271.719,1688.65 2640.76,1688.65 "/>
<polyline clip-path="url(#clip561)" style="stroke:#000000; stroke-linecap:round; stroke-linejoin:round; stroke-width:2; stroke-opacity:0.3; fill:none" points="271.719,1371.31 2640.76,1371.31 "/>
<polyline clip-path="url(#clip561)" style="stroke:#000000; stroke-linecap:round; stroke-linejoin:round; stroke-width:2; stroke-opacity:0.3; fill:none" points="271.719,1053.96 2640.76,1053.96 "/>
<polyline clip-path="url(#clip561)" style="stroke:#000000; stroke-linecap:round; stroke-linejoin:round; stroke-width:2; stroke-opacity:0.3; fill:none" points="271.719,736.614 2640.76,736.614 "/>
<polyline clip-path="url(#clip561)" style="stroke:#000000; stroke-linecap:round; stroke-linejoin:round; stroke-width:2; stroke-opacity:0.3; fill:none" points="271.719,419.267 2640.76,419.267 "/>
<polyline clip-path="url(#clip560)" style="stroke:#000000; stroke-linecap:round; stroke-linejoin:round; stroke-width:4; stroke-opacity:1; fill:none" points="271.719,1734.12 2640.76,1734.12 "/>
<polyline clip-path="url(#clip560)" style="stroke:#000000; stroke-linecap:round; stroke-linejoin:round; stroke-width:4; stroke-opacity:1; fill:none" points="587.094,1734.12 587.094,1715.22 "/>
<polyline clip-path="url(#clip560)" style="stroke:#000000; stroke-linecap:round; stroke-linejoin:round; stroke-width:4; stroke-opacity:1; fill:none" points="1083.75,1734.12 1083.75,1715.22 "/>
<polyline clip-path="url(#clip560)" style="stroke:#000000; stroke-linecap:round; stroke-linejoin:round; stroke-width:4; stroke-opacity:1; fill:none" points="1580.4,1734.12 1580.4,1715.22 "/>
<polyline clip-path="url(#clip560)" style="stroke:#000000; stroke-linecap:round; stroke-linejoin:round; stroke-width:4; stroke-opacity:1; fill:none" points="2077.05,1734.12 2077.05,1715.22 "/>
<polyline clip-path="url(#clip560)" style="stroke:#000000; stroke-linecap:round; stroke-linejoin:round; stroke-width:4; stroke-opacity:1; fill:none" points="2573.71,1734.12 2573.71,1715.22 "/>
<path clip-path="url(#clip560)" d="M581.747 1794.89 L598.066 1794.89 L598.066 1798.82 L576.122 1798.82 L576.122 1794.89 Q578.784 1792.13 583.367 1787.5 Q587.974 1782.85 589.154 1781.51 Q591.399 1778.98 592.279 1777.25 Q593.182 1775.49 593.182 1773.8 Q593.182 1771.04 591.237 1769.31 Q589.316 1767.57 586.214 1767.57 Q584.015 1767.57 581.562 1768.34 Q579.131 1769.1 576.353 1770.65 L576.353 1765.93 Q579.177 1764.79 581.631 1764.21 Q584.085 1763.64 586.122 1763.64 Q591.492 1763.64 594.686 1766.32 Q597.881 1769.01 597.881 1773.5 Q597.881 1775.63 597.071 1777.55 Q596.284 1779.45 594.177 1782.04 Q593.599 1782.71 590.497 1785.93 Q587.395 1789.12 581.747 1794.89 Z" fill="#000000" fill-rule="nonzero" fill-opacity="1" /><path clip-path="url(#clip560)" d="M1086.76 1768.34 L1074.95 1786.78 L1086.76 1786.78 L1086.76 1768.34 M1085.53 1764.26 L1091.41 1764.26 L1091.41 1786.78 L1096.34 1786.78 L1096.34 1790.67 L1091.41 1790.67 L1091.41 1798.82 L1086.76 1798.82 L1086.76 1790.67 L1071.15 1790.67 L1071.15 1786.16 L1085.53 1764.26 Z" fill="#000000" fill-rule="nonzero" fill-opacity="1" /><path clip-path="url(#clip560)" d="M1580.81 1779.68 Q1577.66 1779.68 1575.81 1781.83 Q1573.98 1783.98 1573.98 1787.73 Q1573.98 1791.46 1575.81 1793.64 Q1577.66 1795.79 1580.81 1795.79 Q1583.95 1795.79 1585.78 1793.64 Q1587.63 1791.46 1587.63 1787.73 Q1587.63 1783.98 1585.78 1781.83 Q1583.95 1779.68 1580.81 1779.68 M1590.09 1765.02 L1590.09 1769.28 Q1588.33 1768.45 1586.52 1768.01 Q1584.74 1767.57 1582.98 1767.57 Q1578.35 1767.57 1575.9 1770.7 Q1573.47 1773.82 1573.12 1780.14 Q1574.49 1778.13 1576.55 1777.06 Q1578.61 1775.97 1581.08 1775.97 Q1586.29 1775.97 1589.3 1779.15 Q1592.33 1782.29 1592.33 1787.73 Q1592.33 1793.06 1589.19 1796.27 Q1586.04 1799.49 1580.81 1799.49 Q1574.81 1799.49 1571.64 1794.91 Q1568.47 1790.3 1568.47 1781.58 Q1568.47 1773.38 1572.36 1768.52 Q1576.25 1763.64 1582.8 1763.64 Q1584.56 1763.64 1586.34 1763.98 Q1588.14 1764.33 1590.09 1765.02 Z" fill="#000000" fill-rule="nonzero" fill-opacity="1" /><path clip-path="url(#clip560)" d="M2077.05 1782.41 Q2073.72 1782.41 2071.8 1784.19 Q2069.9 1785.97 2069.9 1789.1 Q2069.9 1792.22 2071.8 1794.01 Q2073.72 1795.79 2077.05 1795.79 Q2080.39 1795.79 2082.31 1794.01 Q2084.23 1792.2 2084.23 1789.1 Q2084.23 1785.97 2082.31 1784.19 Q2080.41 1782.41 2077.05 1782.41 M2072.38 1780.42 Q2069.37 1779.68 2067.68 1777.62 Q2066.01 1775.56 2066.01 1772.59 Q2066.01 1768.45 2068.95 1766.04 Q2071.92 1763.64 2077.05 1763.64 Q2082.22 1763.64 2085.16 1766.04 Q2088.1 1768.45 2088.1 1772.59 Q2088.1 1775.56 2086.41 1777.62 Q2084.74 1779.68 2081.75 1780.42 Q2085.13 1781.21 2087.01 1783.5 Q2088.91 1785.79 2088.91 1789.1 Q2088.91 1794.12 2085.83 1796.81 Q2082.77 1799.49 2077.05 1799.49 Q2071.34 1799.49 2068.26 1796.81 Q2065.2 1794.12 2065.2 1789.1 Q2065.2 1785.79 2067.1 1783.5 Q2069 1781.21 2072.38 1780.42 M2070.67 1773.03 Q2070.67 1775.72 2072.33 1777.22 Q2074.02 1778.73 2077.05 1778.73 Q2080.06 1778.73 2081.75 1777.22 Q2083.47 1775.72 2083.47 1773.03 Q2083.47 1770.35 2081.75 1768.84 Q2080.06 1767.34 2077.05 1767.34 Q2074.02 1767.34 2072.33 1768.84 Q2070.67 1770.35 2070.67 1773.03 Z" fill="#000000" fill-rule="nonzero" fill-opacity="1" /><path clip-path="url(#clip560)" d="M2548.4 1794.89 L2556.03 1794.89 L2556.03 1768.52 L2547.72 1770.19 L2547.72 1765.93 L2555.99 1764.26 L2560.66 1764.26 L2560.66 1794.89 L2568.3 1794.89 L2568.3 1798.82 L2548.4 1798.82 L2548.4 1794.89 Z" fill="#000000" fill-rule="nonzero" fill-opacity="1" /><path clip-path="url(#clip560)" d="M2587.75 1767.34 Q2584.14 1767.34 2582.31 1770.9 Q2580.5 1774.45 2580.5 1781.58 Q2580.5 1788.68 2582.31 1792.25 Q2584.14 1795.79 2587.75 1795.79 Q2591.38 1795.79 2593.19 1792.25 Q2595.02 1788.68 2595.02 1781.58 Q2595.02 1774.45 2593.19 1770.9 Q2591.38 1767.34 2587.75 1767.34 M2587.75 1763.64 Q2593.56 1763.64 2596.61 1768.24 Q2599.69 1772.83 2599.69 1781.58 Q2599.69 1790.3 2596.61 1794.91 Q2593.56 1799.49 2587.75 1799.49 Q2581.94 1799.49 2578.86 1794.91 Q2575.8 1790.3 2575.8 1781.58 Q2575.8 1772.83 2578.86 1768.24 Q2581.94 1763.64 2587.75 1763.64 Z" fill="#000000" fill-rule="nonzero" fill-opacity="1" /><path clip-path="url(#clip560)" d="M1183.63 1835.78 L1190.06 1835.78 L1190.06 1883.3 L1183.63 1883.3 L1183.63 1835.78 Z" fill="#000000" fill-rule="nonzero" fill-opacity="1" /><path clip-path="url(#clip560)" d="M1208.39 1837.53 L1208.39 1847.65 L1220.45 1847.65 L1220.45 1852.2 L1208.39 1852.2 L1208.39 1871.56 Q1208.39 1875.92 1209.57 1877.16 Q1210.78 1878.4 1214.44 1878.4 L1220.45 1878.4 L1220.45 1883.3 L1214.44 1883.3 Q1207.66 1883.3 1205.08 1880.79 Q1202.5 1878.24 1202.5 1871.56 L1202.5 1852.2 L1198.2 1852.2 L1198.2 1847.65 L1202.5 1847.65 L1202.5 1837.53 L1208.39 1837.53 Z" fill="#000000" fill-rule="nonzero" fill-opacity="1" /><path clip-path="url(#clip560)" d="M1258.65 1864.01 L1258.65 1866.88 L1231.72 1866.88 Q1232.1 1872.92 1235.35 1876.11 Q1238.63 1879.26 1244.45 1879.26 Q1247.82 1879.26 1250.98 1878.43 Q1254.16 1877.6 1257.28 1875.95 L1257.28 1881.49 Q1254.13 1882.82 1250.82 1883.52 Q1247.51 1884.22 1244.1 1884.22 Q1235.57 1884.22 1230.57 1879.26 Q1225.61 1874.29 1225.61 1865.83 Q1225.61 1857.07 1230.32 1851.95 Q1235.06 1846.79 1243.08 1846.79 Q1250.28 1846.79 1254.44 1851.44 Q1258.65 1856.06 1258.65 1864.01 M1252.79 1862.29 Q1252.73 1857.49 1250.08 1854.62 Q1247.47 1851.76 1243.15 1851.76 Q1238.24 1851.76 1235.28 1854.53 Q1232.36 1857.3 1231.91 1862.33 L1252.79 1862.29 Z" fill="#000000" fill-rule="nonzero" fill-opacity="1" /><path clip-path="url(#clip560)" d="M1288.91 1853.13 Q1287.93 1852.55 1286.75 1852.3 Q1285.6 1852.01 1284.2 1852.01 Q1279.24 1852.01 1276.57 1855.26 Q1273.92 1858.47 1273.92 1864.52 L1273.92 1883.3 L1268.04 1883.3 L1268.04 1847.65 L1273.92 1847.65 L1273.92 1853.19 Q1275.77 1849.94 1278.73 1848.39 Q1281.69 1846.79 1285.92 1846.79 Q1286.53 1846.79 1287.26 1846.89 Q1287.99 1846.95 1288.88 1847.11 L1288.91 1853.13 Z" fill="#000000" fill-rule="nonzero" fill-opacity="1" /><path clip-path="url(#clip560)" d="M1311.26 1865.38 Q1304.16 1865.38 1301.42 1867 Q1298.69 1868.63 1298.69 1872.54 Q1298.69 1875.66 1300.72 1877.51 Q1302.79 1879.32 1306.33 1879.32 Q1311.19 1879.32 1314.12 1875.88 Q1317.08 1872.42 1317.08 1866.69 L1317.08 1865.38 L1311.26 1865.38 M1322.94 1862.96 L1322.94 1883.3 L1317.08 1883.3 L1317.08 1877.89 Q1315.08 1881.14 1312.09 1882.7 Q1309.09 1884.22 1304.77 1884.22 Q1299.29 1884.22 1296.04 1881.17 Q1292.83 1878.08 1292.83 1872.92 Q1292.83 1866.91 1296.84 1863.85 Q1300.88 1860.8 1308.87 1860.8 L1317.08 1860.8 L1317.08 1860.23 Q1317.08 1856.18 1314.41 1853.99 Q1311.77 1851.76 1306.96 1851.76 Q1303.91 1851.76 1301.01 1852.49 Q1298.11 1853.22 1295.44 1854.69 L1295.44 1849.28 Q1298.65 1848.03 1301.68 1847.43 Q1304.7 1846.79 1307.57 1846.79 Q1315.3 1846.79 1319.12 1850.8 Q1322.94 1854.81 1322.94 1862.96 Z" fill="#000000" fill-rule="nonzero" fill-opacity="1" /><path clip-path="url(#clip560)" d="M1340.8 1837.53 L1340.8 1847.65 L1352.86 1847.65 L1352.86 1852.2 L1340.8 1852.2 L1340.8 1871.56 Q1340.8 1875.92 1341.97 1877.16 Q1343.18 1878.4 1346.84 1878.4 L1352.86 1878.4 L1352.86 1883.3 L1346.84 1883.3 Q1340.06 1883.3 1337.49 1880.79 Q1334.91 1878.24 1334.91 1871.56 L1334.91 1852.2 L1330.61 1852.2 L1330.61 1847.65 L1334.91 1847.65 L1334.91 1837.53 L1340.8 1837.53 Z" fill="#000000" fill-rule="nonzero" fill-opacity="1" /><path clip-path="url(#clip560)" d="M1360.56 1847.65 L1366.42 1847.65 L1366.42 1883.3 L1360.56 1883.3 L1360.56 1847.65 M1360.56 1833.78 L1366.42 1833.78 L1366.42 1841.19 L1360.56 1841.19 L1360.56 1833.78 Z" fill="#000000" fill-rule="nonzero" fill-opacity="1" /><path clip-path="url(#clip560)" d="M1392.48 1851.76 Q1387.77 1851.76 1385.04 1855.45 Q1382.3 1859.11 1382.3 1865.51 Q1382.3 1871.91 1385.01 1875.6 Q1387.74 1879.26 1392.48 1879.26 Q1397.16 1879.26 1399.9 1875.57 Q1402.64 1871.87 1402.64 1865.51 Q1402.64 1859.17 1399.9 1855.48 Q1397.16 1851.76 1392.48 1851.76 M1392.48 1846.79 Q1400.12 1846.79 1404.48 1851.76 Q1408.84 1856.72 1408.84 1865.51 Q1408.84 1874.26 1404.48 1879.26 Q1400.12 1884.22 1392.48 1884.22 Q1384.81 1884.22 1380.45 1879.26 Q1376.13 1874.26 1376.13 1865.51 Q1376.13 1856.72 1380.45 1851.76 Q1384.81 1846.79 1392.48 1846.79 Z" fill="#000000" fill-rule="nonzero" fill-opacity="1" /><path clip-path="url(#clip560)" d="M1448.18 1861.78 L1448.18 1883.3 L1442.33 1883.3 L1442.33 1861.98 Q1442.33 1856.92 1440.36 1854.4 Q1438.38 1851.89 1434.43 1851.89 Q1429.69 1851.89 1426.96 1854.91 Q1424.22 1857.93 1424.22 1863.15 L1424.22 1883.3 L1418.33 1883.3 L1418.33 1847.65 L1424.22 1847.65 L1424.22 1853.19 Q1426.32 1849.98 1429.15 1848.39 Q1432.02 1846.79 1435.74 1846.79 Q1441.88 1846.79 1445.03 1850.61 Q1448.18 1854.4 1448.18 1861.78 Z" fill="#000000" fill-rule="nonzero" fill-opacity="1" /><path clip-path="url(#clip560)" d="M1510.22 1861.78 L1510.22 1883.3 L1504.36 1883.3 L1504.36 1861.98 Q1504.36 1856.92 1502.39 1854.4 Q1500.42 1851.89 1496.47 1851.89 Q1491.73 1851.89 1488.99 1854.91 Q1486.25 1857.93 1486.25 1863.15 L1486.25 1883.3 L1480.36 1883.3 L1480.36 1847.65 L1486.25 1847.65 L1486.25 1853.19 Q1488.35 1849.98 1491.19 1848.39 Q1494.05 1846.79 1497.77 1846.79 Q1503.92 1846.79 1507.07 1850.61 Q1510.22 1854.4 1510.22 1861.78 Z" fill="#000000" fill-rule="nonzero" fill-opacity="1" /><path clip-path="url(#clip560)" d="M1521.29 1869.23 L1521.29 1847.65 L1527.15 1847.65 L1527.15 1869.01 Q1527.15 1874.07 1529.12 1876.62 Q1531.1 1879.13 1535.04 1879.13 Q1539.79 1879.13 1542.52 1876.11 Q1545.29 1873.08 1545.29 1867.86 L1545.29 1847.65 L1551.15 1847.65 L1551.15 1883.3 L1545.29 1883.3 L1545.29 1877.83 Q1543.16 1881.07 1540.33 1882.66 Q1537.53 1884.22 1533.8 1884.22 Q1527.66 1884.22 1524.48 1880.4 Q1521.29 1876.59 1521.29 1869.23 M1536.03 1846.79 L1536.03 1846.79 Z" fill="#000000" fill-rule="nonzero" fill-opacity="1" /><path clip-path="url(#clip560)" d="M1590.97 1854.5 Q1593.16 1850.55 1596.22 1848.67 Q1599.27 1846.79 1603.41 1846.79 Q1608.98 1846.79 1612.01 1850.71 Q1615.03 1854.59 1615.03 1861.78 L1615.03 1883.3 L1609.14 1883.3 L1609.14 1861.98 Q1609.14 1856.85 1607.33 1854.37 Q1605.51 1851.89 1601.79 1851.89 Q1597.24 1851.89 1594.6 1854.91 Q1591.95 1857.93 1591.95 1863.15 L1591.95 1883.3 L1586.07 1883.3 L1586.07 1861.98 Q1586.07 1856.82 1584.25 1854.37 Q1582.44 1851.89 1578.65 1851.89 Q1574.16 1851.89 1571.52 1854.94 Q1568.88 1857.97 1568.88 1863.15 L1568.88 1883.3 L1562.99 1883.3 L1562.99 1847.65 L1568.88 1847.65 L1568.88 1853.19 Q1570.88 1849.91 1573.68 1848.35 Q1576.49 1846.79 1580.34 1846.79 Q1584.22 1846.79 1586.93 1848.77 Q1589.66 1850.74 1590.97 1854.5 Z" fill="#000000" fill-rule="nonzero" fill-opacity="1" /><path clip-path="url(#clip560)" d="M1652.3 1865.51 Q1652.3 1859.05 1649.63 1855.39 Q1646.99 1851.7 1642.34 1851.7 Q1637.69 1851.7 1635.02 1855.39 Q1632.38 1859.05 1632.38 1865.51 Q1632.38 1871.97 1635.02 1875.66 Q1637.69 1879.32 1642.34 1879.32 Q1646.99 1879.32 1649.63 1875.66 Q1652.3 1871.97 1652.3 1865.51 M1632.38 1853.06 Q1634.22 1849.88 1637.02 1848.35 Q1639.86 1846.79 1643.77 1846.79 Q1650.26 1846.79 1654.31 1851.95 Q1658.38 1857.11 1658.38 1865.51 Q1658.38 1873.91 1654.31 1879.07 Q1650.26 1884.22 1643.77 1884.22 Q1639.86 1884.22 1637.02 1882.7 Q1634.22 1881.14 1632.38 1877.95 L1632.38 1883.3 L1626.49 1883.3 L1626.49 1833.78 L1632.38 1833.78 L1632.38 1853.06 Z" fill="#000000" fill-rule="nonzero" fill-opacity="1" /><path clip-path="url(#clip560)" d="M1698.58 1864.01 L1698.58 1866.88 L1671.65 1866.88 Q1672.03 1872.92 1675.28 1876.11 Q1678.56 1879.26 1684.38 1879.26 Q1687.76 1879.26 1690.91 1878.43 Q1694.09 1877.6 1697.21 1875.95 L1697.21 1881.49 Q1694.06 1882.82 1690.75 1883.52 Q1687.44 1884.22 1684.03 1884.22 Q1675.5 1884.22 1670.51 1879.26 Q1665.54 1874.29 1665.54 1865.83 Q1665.54 1857.07 1670.25 1851.95 Q1674.99 1846.79 1683.02 1846.79 Q1690.21 1846.79 1694.38 1851.44 Q1698.58 1856.06 1698.58 1864.01 M1692.72 1862.29 Q1692.66 1857.49 1690.02 1854.62 Q1687.41 1851.76 1683.08 1851.76 Q1678.18 1851.76 1675.22 1854.53 Q1672.29 1857.3 1671.84 1862.33 L1692.72 1862.29 Z" fill="#000000" fill-rule="nonzero" fill-opacity="1" /><path clip-path="url(#clip560)" d="M1728.85 1853.13 Q1727.86 1852.55 1726.68 1852.3 Q1725.54 1852.01 1724.14 1852.01 Q1719.17 1852.01 1716.5 1855.26 Q1713.86 1858.47 1713.86 1864.52 L1713.86 1883.3 L1707.97 1883.3 L1707.97 1847.65 L1713.86 1847.65 L1713.86 1853.19 Q1715.7 1849.94 1718.66 1848.39 Q1721.62 1846.79 1725.86 1846.79 Q1726.46 1846.79 1727.19 1846.89 Q1727.93 1846.95 1728.82 1847.11 L1728.85 1853.13 Z" fill="#000000" fill-rule="nonzero" fill-opacity="1" /><polyline clip-path="url(#clip560)" style="stroke:#000000; stroke-linecap:round; stroke-linejoin:round; stroke-width:4; stroke-opacity:1; fill:none" points="271.719,1734.12 271.719,127.792 "/>
<polyline clip-path="url(#clip560)" style="stroke:#000000; stroke-linecap:round; stroke-linejoin:round; stroke-width:4; stroke-opacity:1; fill:none" points="271.719,1688.65 290.617,1688.65 "/>
<polyline clip-path="url(#clip560)" style="stroke:#000000; stroke-linecap:round; stroke-linejoin:round; stroke-width:4; stroke-opacity:1; fill:none" points="271.719,1371.31 290.617,1371.31 "/>
<polyline clip-path="url(#clip560)" style="stroke:#000000; stroke-linecap:round; stroke-linejoin:round; stroke-width:4; stroke-opacity:1; fill:none" points="271.719,1053.96 290.617,1053.96 "/>
<polyline clip-path="url(#clip560)" style="stroke:#000000; stroke-linecap:round; stroke-linejoin:round; stroke-width:4; stroke-opacity:1; fill:none" points="271.719,736.614 290.617,736.614 "/>
<polyline clip-path="url(#clip560)" style="stroke:#000000; stroke-linecap:round; stroke-linejoin:round; stroke-width:4; stroke-opacity:1; fill:none" points="271.719,419.267 290.617,419.267 "/>
<path clip-path="url(#clip560)" d="M219.455 1674.45 Q215.844 1674.45 214.015 1678.02 Q212.209 1681.56 212.209 1688.69 Q212.209 1695.8 214.015 1699.36 Q215.844 1702.9 219.455 1702.9 Q223.089 1702.9 224.894 1699.36 Q226.723 1695.8 226.723 1688.69 Q226.723 1681.56 224.894 1678.02 Q223.089 1674.45 219.455 1674.45 M219.455 1670.75 Q225.265 1670.75 228.32 1675.36 Q231.399 1679.94 231.399 1688.69 Q231.399 1697.42 228.32 1702.02 Q225.265 1706.61 219.455 1706.61 Q213.644 1706.61 210.566 1702.02 Q207.51 1697.42 207.51 1688.69 Q207.51 1679.94 210.566 1675.36 Q213.644 1670.75 219.455 1670.75 Z" fill="#000000" fill-rule="nonzero" fill-opacity="1" /><path clip-path="url(#clip560)" d="M122.997 1384.65 L139.316 1384.65 L139.316 1388.59 L117.372 1388.59 L117.372 1384.65 Q120.034 1381.9 124.617 1377.27 Q129.224 1372.62 130.404 1371.27 Q132.65 1368.75 133.529 1367.01 Q134.432 1365.25 134.432 1363.56 Q134.432 1360.81 132.488 1359.07 Q130.566 1357.34 127.464 1357.34 Q125.265 1357.34 122.812 1358.1 Q120.381 1358.87 117.603 1360.42 L117.603 1355.69 Q120.427 1354.56 122.881 1353.98 Q125.335 1353.4 127.372 1353.4 Q132.742 1353.4 135.937 1356.09 Q139.131 1358.77 139.131 1363.26 Q139.131 1365.39 138.321 1367.31 Q137.534 1369.21 135.427 1371.81 Q134.849 1372.48 131.747 1375.69 Q128.645 1378.89 122.997 1384.65 Z" fill="#000000" fill-rule="nonzero" fill-opacity="1" /><path clip-path="url(#clip560)" d="M159.131 1357.11 Q155.52 1357.11 153.691 1360.67 Q151.886 1364.21 151.886 1371.34 Q151.886 1378.45 153.691 1382.01 Q155.52 1385.56 159.131 1385.56 Q162.765 1385.56 164.571 1382.01 Q166.399 1378.45 166.399 1371.34 Q166.399 1364.21 164.571 1360.67 Q162.765 1357.11 159.131 1357.11 M159.131 1353.4 Q164.941 1353.4 167.997 1358.01 Q171.075 1362.59 171.075 1371.34 Q171.075 1380.07 167.997 1384.68 Q164.941 1389.26 159.131 1389.26 Q153.321 1389.26 150.242 1384.68 Q147.186 1380.07 147.186 1371.34 Q147.186 1362.59 150.242 1358.01 Q153.321 1353.4 159.131 1353.4 Z" fill="#000000" fill-rule="nonzero" fill-opacity="1" /><path clip-path="url(#clip560)" d="M189.293 1357.11 Q185.682 1357.11 183.853 1360.67 Q182.047 1364.21 182.047 1371.34 Q182.047 1378.45 183.853 1382.01 Q185.682 1385.56 189.293 1385.56 Q192.927 1385.56 194.733 1382.01 Q196.561 1378.45 196.561 1371.34 Q196.561 1364.21 194.733 1360.67 Q192.927 1357.11 189.293 1357.11 M189.293 1353.4 Q195.103 1353.4 198.158 1358.01 Q201.237 1362.59 201.237 1371.34 Q201.237 1380.07 198.158 1384.68 Q195.103 1389.26 189.293 1389.26 Q183.483 1389.26 180.404 1384.68 Q177.348 1380.07 177.348 1371.34 Q177.348 1362.59 180.404 1358.01 Q183.483 1353.4 189.293 1353.4 Z" fill="#000000" fill-rule="nonzero" fill-opacity="1" /><path clip-path="url(#clip560)" d="M219.455 1357.11 Q215.844 1357.11 214.015 1360.67 Q212.209 1364.21 212.209 1371.34 Q212.209 1378.45 214.015 1382.01 Q215.844 1385.56 219.455 1385.56 Q223.089 1385.56 224.894 1382.01 Q226.723 1378.45 226.723 1371.34 Q226.723 1364.21 224.894 1360.67 Q223.089 1357.11 219.455 1357.11 M219.455 1353.4 Q225.265 1353.4 228.32 1358.01 Q231.399 1362.59 231.399 1371.34 Q231.399 1380.07 228.32 1384.68 Q225.265 1389.26 219.455 1389.26 Q213.644 1389.26 210.566 1384.68 Q207.51 1380.07 207.51 1371.34 Q207.51 1362.59 210.566 1358.01 Q213.644 1353.4 219.455 1353.4 Z" fill="#000000" fill-rule="nonzero" fill-opacity="1" /><path clip-path="url(#clip560)" d="M131.816 1040.75 L120.011 1059.2 L131.816 1059.2 L131.816 1040.75 M130.589 1036.68 L136.469 1036.68 L136.469 1059.2 L141.399 1059.2 L141.399 1063.09 L136.469 1063.09 L136.469 1071.24 L131.816 1071.24 L131.816 1063.09 L116.214 1063.09 L116.214 1058.58 L130.589 1036.68 Z" fill="#000000" fill-rule="nonzero" fill-opacity="1" /><path clip-path="url(#clip560)" d="M159.131 1039.76 Q155.52 1039.76 153.691 1043.32 Q151.886 1046.87 151.886 1054 Q151.886 1061.1 153.691 1064.67 Q155.52 1068.21 159.131 1068.21 Q162.765 1068.21 164.571 1064.67 Q166.399 1061.1 166.399 1054 Q166.399 1046.87 164.571 1043.32 Q162.765 1039.76 159.131 1039.76 M159.131 1036.06 Q164.941 1036.06 167.997 1040.66 Q171.075 1045.25 171.075 1054 Q171.075 1062.72 167.997 1067.33 Q164.941 1071.91 159.131 1071.91 Q153.321 1071.91 150.242 1067.33 Q147.186 1062.72 147.186 1054 Q147.186 1045.25 150.242 1040.66 Q153.321 1036.06 159.131 1036.06 Z" fill="#000000" fill-rule="nonzero" fill-opacity="1" /><path clip-path="url(#clip560)" d="M189.293 1039.76 Q185.682 1039.76 183.853 1043.32 Q182.047 1046.87 182.047 1054 Q182.047 1061.1 183.853 1064.67 Q185.682 1068.21 189.293 1068.21 Q192.927 1068.21 194.733 1064.67 Q196.561 1061.1 196.561 1054 Q196.561 1046.87 194.733 1043.32 Q192.927 1039.76 189.293 1039.76 M189.293 1036.06 Q195.103 1036.06 198.158 1040.66 Q201.237 1045.25 201.237 1054 Q201.237 1062.72 198.158 1067.33 Q195.103 1071.91 189.293 1071.91 Q183.483 1071.91 180.404 1067.33 Q177.348 1062.72 177.348 1054 Q177.348 1045.25 180.404 1040.66 Q183.483 1036.06 189.293 1036.06 Z" fill="#000000" fill-rule="nonzero" fill-opacity="1" /><path clip-path="url(#clip560)" d="M219.455 1039.76 Q215.844 1039.76 214.015 1043.32 Q212.209 1046.87 212.209 1054 Q212.209 1061.1 214.015 1064.67 Q215.844 1068.21 219.455 1068.21 Q223.089 1068.21 224.894 1064.67 Q226.723 1061.1 226.723 1054 Q226.723 1046.87 224.894 1043.32 Q223.089 1039.76 219.455 1039.76 M219.455 1036.06 Q225.265 1036.06 228.32 1040.66 Q231.399 1045.25 231.399 1054 Q231.399 1062.72 228.32 1067.33 Q225.265 1071.91 219.455 1071.91 Q213.644 1071.91 210.566 1067.33 Q207.51 1062.72 207.51 1054 Q207.51 1045.25 210.566 1040.66 Q213.644 1036.06 219.455 1036.06 Z" fill="#000000" fill-rule="nonzero" fill-opacity="1" /><path clip-path="url(#clip560)" d="M129.548 734.75 Q126.4 734.75 124.548 736.903 Q122.719 739.056 122.719 742.806 Q122.719 746.533 124.548 748.709 Q126.4 750.861 129.548 750.861 Q132.696 750.861 134.525 748.709 Q136.376 746.533 136.376 742.806 Q136.376 739.056 134.525 736.903 Q132.696 734.75 129.548 734.75 M138.83 720.098 L138.83 724.357 Q137.071 723.524 135.265 723.084 Q133.483 722.644 131.724 722.644 Q127.094 722.644 124.64 725.769 Q122.21 728.894 121.863 735.213 Q123.228 733.199 125.288 732.135 Q127.349 731.047 129.825 731.047 Q135.034 731.047 138.043 734.218 Q141.075 737.366 141.075 742.806 Q141.075 748.13 137.927 751.348 Q134.779 754.565 129.548 754.565 Q123.552 754.565 120.381 749.982 Q117.21 745.375 117.21 736.649 Q117.21 728.454 121.099 723.593 Q124.988 718.709 131.538 718.709 Q133.298 718.709 135.08 719.056 Q136.886 719.403 138.83 720.098 Z" fill="#000000" fill-rule="nonzero" fill-opacity="1" /><path clip-path="url(#clip560)" d="M159.131 722.412 Q155.52 722.412 153.691 725.977 Q151.886 729.519 151.886 736.649 Q151.886 743.755 153.691 747.32 Q155.52 750.861 159.131 750.861 Q162.765 750.861 164.571 747.32 Q166.399 743.755 166.399 736.649 Q166.399 729.519 164.571 725.977 Q162.765 722.412 159.131 722.412 M159.131 718.709 Q164.941 718.709 167.997 723.315 Q171.075 727.899 171.075 736.649 Q171.075 745.375 167.997 749.982 Q164.941 754.565 159.131 754.565 Q153.321 754.565 150.242 749.982 Q147.186 745.375 147.186 736.649 Q147.186 727.899 150.242 723.315 Q153.321 718.709 159.131 718.709 Z" fill="#000000" fill-rule="nonzero" fill-opacity="1" /><path clip-path="url(#clip560)" d="M189.293 722.412 Q185.682 722.412 183.853 725.977 Q182.047 729.519 182.047 736.649 Q182.047 743.755 183.853 747.32 Q185.682 750.861 189.293 750.861 Q192.927 750.861 194.733 747.32 Q196.561 743.755 196.561 736.649 Q196.561 729.519 194.733 725.977 Q192.927 722.412 189.293 722.412 M189.293 718.709 Q195.103 718.709 198.158 723.315 Q201.237 727.899 201.237 736.649 Q201.237 745.375 198.158 749.982 Q195.103 754.565 189.293 754.565 Q183.483 754.565 180.404 749.982 Q177.348 745.375 177.348 736.649 Q177.348 727.899 180.404 723.315 Q183.483 718.709 189.293 718.709 Z" fill="#000000" fill-rule="nonzero" fill-opacity="1" /><path clip-path="url(#clip560)" d="M219.455 722.412 Q215.844 722.412 214.015 725.977 Q212.209 729.519 212.209 736.649 Q212.209 743.755 214.015 747.32 Q215.844 750.861 219.455 750.861 Q223.089 750.861 224.894 747.32 Q226.723 743.755 226.723 736.649 Q226.723 729.519 224.894 725.977 Q223.089 722.412 219.455 722.412 M219.455 718.709 Q225.265 718.709 228.32 723.315 Q231.399 727.899 231.399 736.649 Q231.399 745.375 228.32 749.982 Q225.265 754.565 219.455 754.565 Q213.644 754.565 210.566 749.982 Q207.51 745.375 207.51 736.649 Q207.51 727.899 210.566 723.315 Q213.644 718.709 219.455 718.709 Z" fill="#000000" fill-rule="nonzero" fill-opacity="1" /><path clip-path="url(#clip560)" d="M128.969 420.135 Q125.636 420.135 123.714 421.917 Q121.816 423.7 121.816 426.825 Q121.816 429.95 123.714 431.732 Q125.636 433.514 128.969 433.514 Q132.302 433.514 134.224 431.732 Q136.145 429.926 136.145 426.825 Q136.145 423.7 134.224 421.917 Q132.325 420.135 128.969 420.135 M124.293 418.144 Q121.284 417.403 119.594 415.343 Q117.927 413.283 117.927 410.32 Q117.927 406.177 120.867 403.769 Q123.83 401.362 128.969 401.362 Q134.131 401.362 137.071 403.769 Q140.011 406.177 140.011 410.32 Q140.011 413.283 138.321 415.343 Q136.654 417.403 133.668 418.144 Q137.048 418.931 138.923 421.223 Q140.821 423.514 140.821 426.825 Q140.821 431.848 137.742 434.533 Q134.687 437.218 128.969 437.218 Q123.251 437.218 120.173 434.533 Q117.117 431.848 117.117 426.825 Q117.117 423.514 119.015 421.223 Q120.913 418.931 124.293 418.144 M122.58 410.76 Q122.58 413.445 124.247 414.95 Q125.937 416.454 128.969 416.454 Q131.978 416.454 133.668 414.95 Q135.381 413.445 135.381 410.76 Q135.381 408.075 133.668 406.57 Q131.978 405.065 128.969 405.065 Q125.937 405.065 124.247 406.57 Q122.58 408.075 122.58 410.76 Z" fill="#000000" fill-rule="nonzero" fill-opacity="1" /><path clip-path="url(#clip560)" d="M159.131 405.065 Q155.52 405.065 153.691 408.63 Q151.886 412.172 151.886 419.301 Q151.886 426.408 153.691 429.973 Q155.52 433.514 159.131 433.514 Q162.765 433.514 164.571 429.973 Q166.399 426.408 166.399 419.301 Q166.399 412.172 164.571 408.63 Q162.765 405.065 159.131 405.065 M159.131 401.362 Q164.941 401.362 167.997 405.968 Q171.075 410.551 171.075 419.301 Q171.075 428.028 167.997 432.635 Q164.941 437.218 159.131 437.218 Q153.321 437.218 150.242 432.635 Q147.186 428.028 147.186 419.301 Q147.186 410.551 150.242 405.968 Q153.321 401.362 159.131 401.362 Z" fill="#000000" fill-rule="nonzero" fill-opacity="1" /><path clip-path="url(#clip560)" d="M189.293 405.065 Q185.682 405.065 183.853 408.63 Q182.047 412.172 182.047 419.301 Q182.047 426.408 183.853 429.973 Q185.682 433.514 189.293 433.514 Q192.927 433.514 194.733 429.973 Q196.561 426.408 196.561 419.301 Q196.561 412.172 194.733 408.63 Q192.927 405.065 189.293 405.065 M189.293 401.362 Q195.103 401.362 198.158 405.968 Q201.237 410.551 201.237 419.301 Q201.237 428.028 198.158 432.635 Q195.103 437.218 189.293 437.218 Q183.483 437.218 180.404 432.635 Q177.348 428.028 177.348 419.301 Q177.348 410.551 180.404 405.968 Q183.483 401.362 189.293 401.362 Z" fill="#000000" fill-rule="nonzero" fill-opacity="1" /><path clip-path="url(#clip560)" d="M219.455 405.065 Q215.844 405.065 214.015 408.63 Q212.209 412.172 212.209 419.301 Q212.209 426.408 214.015 429.973 Q215.844 433.514 219.455 433.514 Q223.089 433.514 224.894 429.973 Q226.723 426.408 226.723 419.301 Q226.723 412.172 224.894 408.63 Q223.089 405.065 219.455 405.065 M219.455 401.362 Q225.265 401.362 228.32 405.968 Q231.399 410.551 231.399 419.301 Q231.399 428.028 228.32 432.635 Q225.265 437.218 219.455 437.218 Q213.644 437.218 210.566 432.635 Q207.51 428.028 207.51 419.301 Q207.51 410.551 210.566 405.968 Q213.644 401.362 219.455 401.362 Z" fill="#000000" fill-rule="nonzero" fill-opacity="1" /><path clip-path="url(#clip560)" d="M20.4523 1038.15 L56.2912 1051.2 L56.2912 1025.07 L20.4523 1038.15 M61.6384 1059.92 L14.1184 1041.78 L14.1184 1034.49 L61.6384 1016.38 L61.6384 1059.92 Z" fill="#000000" fill-rule="nonzero" fill-opacity="1" /><path clip-path="url(#clip560)" d="M61.6384 997.19 L14.1184 1015.33 L14.1184 1008.62 L54.1269 993.561 L14.1184 978.475 L14.1184 971.791 L61.6384 989.901 L61.6384 997.19 Z" fill="#000000" fill-rule="nonzero" fill-opacity="1" /><path clip-path="url(#clip560)" d="M12.1769 930.318 Q19.4975 934.583 26.6589 936.652 Q33.8203 938.721 41.1727 938.721 Q48.5251 938.721 55.7502 936.652 Q62.9434 934.551 70.2321 930.318 L70.2321 935.411 Q62.7524 940.185 55.5274 942.572 Q48.3023 944.927 41.1727 944.927 Q34.0749 944.927 26.8817 942.572 Q19.6884 940.217 12.1769 935.411 L12.1769 930.318 Z" fill="#000000" fill-rule="nonzero" fill-opacity="1" /><path clip-path="url(#clip560)" d="M12.1132 900.908 L16.983 900.908 L16.983 906.51 Q16.983 909.661 18.2562 910.903 Q19.5293 912.112 22.8395 912.112 L25.9905 912.112 L25.9905 902.468 L30.542 902.468 L30.542 912.112 L61.6384 912.112 L61.6384 918 L30.542 918 L30.542 923.602 L25.9905 923.602 L25.9905 918 L23.5079 918 Q17.5559 918 14.8505 915.231 Q12.1132 912.462 12.1132 906.447 L12.1132 900.908 Z" fill="#000000" fill-rule="nonzero" fill-opacity="1" /><path clip-path="url(#clip560)" d="M15.869 891.36 L25.9905 891.36 L25.9905 879.297 L30.542 879.297 L30.542 891.36 L49.8937 891.36 Q54.2542 891.36 55.4955 890.182 Q56.7368 888.973 56.7368 885.312 L56.7368 879.297 L61.6384 879.297 L61.6384 885.312 Q61.6384 892.092 59.124 894.67 Q56.5777 897.248 49.8937 897.248 L30.542 897.248 L30.542 901.545 L25.9905 901.545 L25.9905 897.248 L15.869 897.248 L15.869 891.36 Z" fill="#000000" fill-rule="nonzero" fill-opacity="1" /><path clip-path="url(#clip560)" d="M14.1184 861.186 L14.1184 855.776 L67.6859 872.326 L67.6859 877.737 L14.1184 861.186 Z" fill="#000000" fill-rule="nonzero" fill-opacity="1" /><path clip-path="url(#clip560)" d="M27.0408 826.907 L32.579 826.907 Q31.3059 829.39 30.6693 832.063 Q30.0327 834.737 30.0327 837.601 Q30.0327 841.962 31.3695 844.158 Q32.7063 846.322 35.3799 846.322 Q37.4169 846.322 38.5946 844.763 Q39.7404 843.203 40.7908 838.493 L41.2364 836.487 Q42.5732 830.249 45.0239 827.639 Q47.4429 824.997 51.8034 824.997 Q56.7687 824.997 59.6651 828.944 Q62.5615 832.859 62.5615 839.734 Q62.5615 842.599 61.9886 845.718 Q61.4475 848.805 60.3335 852.243 L54.2861 852.243 Q55.973 848.996 56.8323 845.845 Q57.6599 842.694 57.6599 839.607 Q57.6599 835.469 56.2594 833.241 Q54.8271 831.013 52.249 831.013 Q49.8619 831.013 48.5887 832.636 Q47.3156 834.228 46.1379 839.67 L45.6605 841.707 Q44.5147 847.15 42.1594 849.569 Q39.7722 851.988 35.6345 851.988 Q30.6056 851.988 27.8684 848.423 Q25.1311 844.858 25.1311 838.302 Q25.1311 835.055 25.6085 832.191 Q26.086 829.326 27.0408 826.907 Z" fill="#000000" fill-rule="nonzero" fill-opacity="1" /><path clip-path="url(#clip560)" d="M12.1769 816.595 L12.1769 811.502 Q19.6884 806.728 26.8817 804.372 Q34.0749 801.985 41.1727 801.985 Q48.3023 801.985 55.5274 804.372 Q62.7524 806.728 70.2321 811.502 L70.2321 816.595 Q62.9434 812.361 55.7502 810.293 Q48.5251 808.192 41.1727 808.192 Q33.8203 808.192 26.6589 810.293 Q19.4975 812.361 12.1769 816.595 Z" fill="#000000" fill-rule="nonzero" fill-opacity="1" /><path clip-path="url(#clip560)" d="M750.246 14.0809 L750.246 22.0612 Q745.587 19.8332 741.455 18.7395 Q737.323 17.6457 733.475 17.6457 Q726.791 17.6457 723.145 20.2383 Q719.54 22.8309 719.54 27.611 Q719.54 31.6214 721.93 33.6873 Q724.361 35.7128 731.085 36.9686 L736.027 37.9813 Q745.182 39.7232 749.517 44.1387 Q753.892 48.5136 753.892 55.8863 Q753.892 64.6767 747.977 69.2137 Q742.104 73.7508 730.721 73.7508 Q726.427 73.7508 721.565 72.7785 Q716.745 71.8063 711.56 69.9024 L711.56 61.4765 Q716.542 64.2716 721.322 65.6895 Q726.102 67.1073 730.721 67.1073 Q737.729 67.1073 741.536 64.3527 Q745.344 61.598 745.344 56.4939 Q745.344 52.0379 742.59 49.5264 Q739.876 47.0148 733.637 45.759 L728.655 44.7868 Q719.5 42.9639 715.408 39.075 Q711.317 35.1862 711.317 28.2591 Q711.317 20.2383 716.947 15.6203 Q722.619 11.0023 732.543 11.0023 Q736.797 11.0023 741.212 11.7719 Q745.628 12.5416 750.246 14.0809 Z" fill="#000000" fill-rule="nonzero" fill-opacity="1" /><path clip-path="url(#clip560)" d="M795.332 44.2197 Q797.966 45.1109 800.437 48.0275 Q802.948 50.9442 805.46 56.0483 L813.764 72.576 L804.974 72.576 L797.236 57.061 Q794.239 50.9847 791.403 48.9997 Q788.608 47.0148 783.747 47.0148 L774.835 47.0148 L774.835 72.576 L766.652 72.576 L766.652 12.096 L785.124 12.096 Q795.494 12.096 800.599 16.4305 Q805.703 20.7649 805.703 29.5149 Q805.703 35.2267 803.029 38.994 Q800.396 42.7613 795.332 44.2197 M774.835 18.8205 L774.835 40.2903 L785.124 40.2903 Q791.038 40.2903 794.036 37.5762 Q797.074 34.8216 797.074 29.5149 Q797.074 24.2082 794.036 21.5346 Q791.038 18.8205 785.124 18.8205 L774.835 18.8205 Z" fill="#000000" fill-rule="nonzero" fill-opacity="1" /><path clip-path="url(#clip560)" d="M824.296 12.096 L836.49 12.096 L851.924 53.2532 L867.439 12.096 L879.632 12.096 L879.632 72.576 L871.651 72.576 L871.651 19.4686 L856.055 60.9499 L847.832 60.9499 L832.236 19.4686 L832.236 72.576 L824.296 72.576 L824.296 12.096 Z" fill="#000000" fill-rule="nonzero" fill-opacity="1" /><path clip-path="url(#clip560)" d="M930.43 43.6931 L930.43 65.8515 L943.555 65.8515 Q950.158 65.8515 953.318 63.1374 Q956.518 60.3828 956.518 54.752 Q956.518 49.0808 953.318 46.4072 Q950.158 43.6931 943.555 43.6931 L930.43 43.6931 M930.43 18.8205 L930.43 37.0496 L942.542 37.0496 Q948.538 37.0496 951.454 34.8216 Q954.411 32.5531 954.411 27.935 Q954.411 23.3575 951.454 21.089 Q948.538 18.8205 942.542 18.8205 L930.43 18.8205 M922.247 12.096 L943.15 12.096 Q952.508 12.096 957.571 15.9849 Q962.635 19.8737 962.635 27.0438 Q962.635 32.5936 960.042 35.8748 Q957.45 39.156 952.427 39.9662 Q958.462 41.2625 961.784 45.3944 Q965.146 49.4858 965.146 55.6432 Q965.146 63.745 959.637 68.1605 Q954.128 72.576 943.96 72.576 L922.247 72.576 L922.247 12.096 Z" fill="#000000" fill-rule="nonzero" fill-opacity="1" /><path clip-path="url(#clip560)" d="M979.162 12.096 L987.345 12.096 L987.345 65.6895 L1016.8 65.6895 L1016.8 72.576 L979.162 72.576 L979.162 12.096 Z" fill="#000000" fill-rule="nonzero" fill-opacity="1" /><path clip-path="url(#clip560)" d="M1025.38 12.096 L1033.57 12.096 L1033.57 72.576 L1025.38 72.576 L1025.38 12.096 Z" fill="#000000" fill-rule="nonzero" fill-opacity="1" /><path clip-path="url(#clip560)" d="M1086.11 14.0809 L1086.11 22.0612 Q1081.45 19.8332 1077.32 18.7395 Q1073.18 17.6457 1069.34 17.6457 Q1062.65 17.6457 1059.01 20.2383 Q1055.4 22.8309 1055.4 27.611 Q1055.4 31.6214 1057.79 33.6873 Q1060.22 35.7128 1066.95 36.9686 L1071.89 37.9813 Q1081.04 39.7232 1085.38 44.1387 Q1089.75 48.5136 1089.75 55.8863 Q1089.75 64.6767 1083.84 69.2137 Q1077.96 73.7508 1066.58 73.7508 Q1062.29 73.7508 1057.43 72.7785 Q1052.61 71.8063 1047.42 69.9024 L1047.42 61.4765 Q1052.4 64.2716 1057.18 65.6895 Q1061.96 67.1073 1066.58 67.1073 Q1073.59 67.1073 1077.4 64.3527 Q1081.2 61.598 1081.2 56.4939 Q1081.2 52.0379 1078.45 49.5264 Q1075.74 47.0148 1069.5 45.759 L1064.52 44.7868 Q1055.36 42.9639 1051.27 39.075 Q1047.18 35.1862 1047.18 28.2591 Q1047.18 20.2383 1052.81 15.6203 Q1058.48 11.0023 1068.4 11.0023 Q1072.66 11.0023 1077.07 11.7719 Q1081.49 12.5416 1086.11 14.0809 Z" fill="#000000" fill-rule="nonzero" fill-opacity="1" /><path clip-path="url(#clip560)" d="M1138.77 14.0809 L1138.77 22.0612 Q1134.11 19.8332 1129.98 18.7395 Q1125.85 17.6457 1122 17.6457 Q1115.31 17.6457 1111.67 20.2383 Q1108.06 22.8309 1108.06 27.611 Q1108.06 31.6214 1110.45 33.6873 Q1112.88 35.7128 1119.61 36.9686 L1124.55 37.9813 Q1133.7 39.7232 1138.04 44.1387 Q1142.41 48.5136 1142.41 55.8863 Q1142.41 64.6767 1136.5 69.2137 Q1130.63 73.7508 1119.24 73.7508 Q1114.95 73.7508 1110.09 72.7785 Q1105.27 71.8063 1100.08 69.9024 L1100.08 61.4765 Q1105.06 64.2716 1109.84 65.6895 Q1114.62 67.1073 1119.24 67.1073 Q1126.25 67.1073 1130.06 64.3527 Q1133.87 61.598 1133.87 56.4939 Q1133.87 52.0379 1131.11 49.5264 Q1128.4 47.0148 1122.16 45.759 L1117.18 44.7868 Q1108.02 42.9639 1103.93 39.075 Q1099.84 35.1862 1099.84 28.2591 Q1099.84 20.2383 1105.47 15.6203 Q1111.14 11.0023 1121.07 11.0023 Q1125.32 11.0023 1129.73 11.7719 Q1134.15 12.5416 1138.77 14.0809 Z" fill="#000000" fill-rule="nonzero" fill-opacity="1" /><path clip-path="url(#clip560)" d="M1151.08 46.5287 L1172.92 46.5287 L1172.92 53.1722 L1151.08 53.1722 L1151.08 46.5287 Z" fill="#000000" fill-rule="nonzero" fill-opacity="1" /><path clip-path="url(#clip560)" d="M1213.79 44.2197 Q1216.42 45.1109 1218.89 48.0275 Q1221.41 50.9442 1223.92 56.0483 L1232.22 72.576 L1223.43 72.576 L1215.69 57.061 Q1212.7 50.9847 1209.86 48.9997 Q1207.07 47.0148 1202.21 47.0148 L1193.29 47.0148 L1193.29 72.576 L1185.11 72.576 L1185.11 12.096 L1203.58 12.096 Q1213.95 12.096 1219.06 16.4305 Q1224.16 20.7649 1224.16 29.5149 Q1224.16 35.2267 1221.49 38.994 Q1218.85 42.7613 1213.79 44.2197 M1193.29 18.8205 L1193.29 40.2903 L1203.58 40.2903 Q1209.5 40.2903 1212.49 37.5762 Q1215.53 34.8216 1215.53 29.5149 Q1215.53 24.2082 1212.49 21.5346 Q1209.5 18.8205 1203.58 18.8205 L1193.29 18.8205 Z" fill="#000000" fill-rule="nonzero" fill-opacity="1" /><path clip-path="url(#clip560)" d="M1279.01 14.0809 L1279.01 22.0612 Q1274.35 19.8332 1270.22 18.7395 Q1266.09 17.6457 1262.24 17.6457 Q1255.56 17.6457 1251.91 20.2383 Q1248.3 22.8309 1248.3 27.611 Q1248.3 31.6214 1250.69 33.6873 Q1253.13 35.7128 1259.85 36.9686 L1264.79 37.9813 Q1273.95 39.7232 1278.28 44.1387 Q1282.66 48.5136 1282.66 55.8863 Q1282.66 64.6767 1276.74 69.2137 Q1270.87 73.7508 1259.49 73.7508 Q1255.19 73.7508 1250.33 72.7785 Q1245.51 71.8063 1240.32 69.9024 L1240.32 61.4765 Q1245.31 64.2716 1250.09 65.6895 Q1254.87 67.1073 1259.49 67.1073 Q1266.49 67.1073 1270.3 64.3527 Q1274.11 61.598 1274.11 56.4939 Q1274.11 52.0379 1271.35 49.5264 Q1268.64 47.0148 1262.4 45.759 L1257.42 44.7868 Q1248.26 42.9639 1244.17 39.075 Q1240.08 35.1862 1240.08 28.2591 Q1240.08 20.2383 1245.71 15.6203 Q1251.38 11.0023 1261.31 11.0023 Q1265.56 11.0023 1269.98 11.7719 Q1274.39 12.5416 1279.01 14.0809 Z" fill="#000000" fill-rule="nonzero" fill-opacity="1" /><path clip-path="url(#clip560)" d="M1346.34 17.6457 Q1337.42 17.6457 1332.16 24.2892 Q1326.93 30.9327 1326.93 42.3968 Q1326.93 53.8203 1332.16 60.4638 Q1337.42 67.1073 1346.34 67.1073 Q1355.25 67.1073 1360.43 60.4638 Q1365.66 53.8203 1365.66 42.3968 Q1365.66 30.9327 1360.43 24.2892 Q1355.25 17.6457 1346.34 17.6457 M1346.34 11.0023 Q1359.06 11.0023 1366.67 19.5497 Q1374.29 28.0566 1374.29 42.3968 Q1374.29 56.6965 1366.67 65.2439 Q1359.06 73.7508 1346.34 73.7508 Q1333.58 73.7508 1325.92 65.2439 Q1318.3 56.737 1318.3 42.3968 Q1318.3 28.0566 1325.92 19.5497 Q1333.58 11.0023 1346.34 11.0023 Z" fill="#000000" fill-rule="nonzero" fill-opacity="1" /><path clip-path="url(#clip560)" d="M1393.98 65.7705 L1393.98 89.8329 L1386.48 89.8329 L1386.48 27.2059 L1393.98 27.2059 L1393.98 34.0924 Q1396.32 30.0415 1399.89 28.0971 Q1403.49 26.1121 1408.48 26.1121 Q1416.74 26.1121 1421.89 32.6746 Q1427.07 39.2371 1427.07 49.9314 Q1427.07 60.6258 1421.89 67.1883 Q1416.74 73.7508 1408.48 73.7508 Q1403.49 73.7508 1399.89 71.8063 Q1396.32 69.8214 1393.98 65.7705 M1419.33 49.9314 Q1419.33 41.7081 1415.93 37.0496 Q1412.57 32.3505 1406.65 32.3505 Q1400.74 32.3505 1397.34 37.0496 Q1393.98 41.7081 1393.98 49.9314 Q1393.98 58.1548 1397.34 62.8538 Q1400.74 67.5124 1406.65 67.5124 Q1412.57 67.5124 1415.93 62.8538 Q1419.33 58.1548 1419.33 49.9314 Z" fill="#000000" fill-rule="nonzero" fill-opacity="1" /><path clip-path="url(#clip560)" d="M1446.8 14.324 L1446.8 27.2059 L1462.15 27.2059 L1462.15 32.9987 L1446.8 32.9987 L1446.8 57.6282 Q1446.8 63.1779 1448.3 64.7578 Q1449.84 66.3376 1454.5 66.3376 L1462.15 66.3376 L1462.15 72.576 L1454.5 72.576 Q1445.87 72.576 1442.59 69.3758 Q1439.3 66.1351 1439.3 57.6282 L1439.3 32.9987 L1433.84 32.9987 L1433.84 27.2059 L1439.3 27.2059 L1439.3 14.324 L1446.8 14.324 Z" fill="#000000" fill-rule="nonzero" fill-opacity="1" /><path clip-path="url(#clip560)" d="M1471.95 27.2059 L1479.41 27.2059 L1479.41 72.576 L1471.95 72.576 L1471.95 27.2059 M1471.95 9.54393 L1479.41 9.54393 L1479.41 18.9825 L1471.95 18.9825 L1471.95 9.54393 Z" fill="#000000" fill-rule="nonzero" fill-opacity="1" /><path clip-path="url(#clip560)" d="M1530.33 35.9153 Q1533.12 30.8922 1537.01 28.5022 Q1540.9 26.1121 1546.17 26.1121 Q1553.26 26.1121 1557.1 31.0947 Q1560.95 36.0368 1560.95 45.1919 L1560.95 72.576 L1553.46 72.576 L1553.46 45.4349 Q1553.46 38.913 1551.15 35.7533 Q1548.84 32.5936 1544.1 32.5936 Q1538.31 32.5936 1534.95 36.4419 Q1531.58 40.2903 1531.58 46.9338 L1531.58 72.576 L1524.09 72.576 L1524.09 45.4349 Q1524.09 38.8725 1521.78 35.7533 Q1519.47 32.5936 1514.65 32.5936 Q1508.94 32.5936 1505.58 36.4824 Q1502.22 40.3308 1502.22 46.9338 L1502.22 72.576 L1494.72 72.576 L1494.72 27.2059 L1502.22 27.2059 L1502.22 34.2544 Q1504.77 30.082 1508.33 28.0971 Q1511.9 26.1121 1516.8 26.1121 Q1521.74 26.1121 1525.18 28.6237 Q1528.67 31.1352 1530.33 35.9153 Z" fill="#000000" fill-rule="nonzero" fill-opacity="1" /><path clip-path="url(#clip560)" d="M1575.82 27.2059 L1583.27 27.2059 L1583.27 72.576 L1575.82 72.576 L1575.82 27.2059 M1575.82 9.54393 L1583.27 9.54393 L1583.27 18.9825 L1575.82 18.9825 L1575.82 9.54393 Z" fill="#000000" fill-rule="nonzero" fill-opacity="1" /><path clip-path="url(#clip560)" d="M1595.63 27.2059 L1631.03 27.2059 L1631.03 34.0114 L1603 66.6212 L1631.03 66.6212 L1631.03 72.576 L1594.62 72.576 L1594.62 65.7705 L1622.65 33.1607 L1595.63 33.1607 L1595.63 27.2059 Z" fill="#000000" fill-rule="nonzero" fill-opacity="1" /><path clip-path="url(#clip560)" d="M1663.04 49.7694 Q1654 49.7694 1650.52 51.8354 Q1647.04 53.9013 1647.04 58.8839 Q1647.04 62.8538 1649.63 65.2034 Q1652.26 67.5124 1656.76 67.5124 Q1662.96 67.5124 1666.68 63.1374 Q1670.45 58.7219 1670.45 51.4303 L1670.45 49.7694 L1663.04 49.7694 M1677.9 46.6907 L1677.9 72.576 L1670.45 72.576 L1670.45 65.6895 Q1667.9 69.8214 1664.09 71.8063 Q1660.28 73.7508 1654.77 73.7508 Q1647.8 73.7508 1643.67 69.8619 Q1639.58 65.9325 1639.58 59.3701 Q1639.58 51.7138 1644.69 47.825 Q1649.83 43.9361 1660 43.9361 L1670.45 43.9361 L1670.45 43.2069 Q1670.45 38.0623 1667.05 35.2672 Q1663.68 32.4315 1657.57 32.4315 Q1653.68 32.4315 1649.99 33.3632 Q1646.31 34.295 1642.9 36.1584 L1642.9 29.2718 Q1646.99 27.692 1650.84 26.9223 Q1654.69 26.1121 1658.34 26.1121 Q1668.18 26.1121 1673.04 31.2163 Q1677.9 36.3204 1677.9 46.6907 Z" fill="#000000" fill-rule="nonzero" fill-opacity="1" /><path clip-path="url(#clip560)" d="M1700.63 14.324 L1700.63 27.2059 L1715.98 27.2059 L1715.98 32.9987 L1700.63 32.9987 L1700.63 57.6282 Q1700.63 63.1779 1702.13 64.7578 Q1703.67 66.3376 1708.33 66.3376 L1715.98 66.3376 L1715.98 72.576 L1708.33 72.576 Q1699.7 72.576 1696.42 69.3758 Q1693.13 66.1351 1693.13 57.6282 L1693.13 32.9987 L1687.67 32.9987 L1687.67 27.2059 L1693.13 27.2059 L1693.13 14.324 L1700.63 14.324 Z" fill="#000000" fill-rule="nonzero" fill-opacity="1" /><path clip-path="url(#clip560)" d="M1725.78 27.2059 L1733.24 27.2059 L1733.24 72.576 L1725.78 72.576 L1725.78 27.2059 M1725.78 9.54393 L1733.24 9.54393 L1733.24 18.9825 L1725.78 18.9825 L1725.78 9.54393 Z" fill="#000000" fill-rule="nonzero" fill-opacity="1" /><path clip-path="url(#clip560)" d="M1766.42 32.4315 Q1760.42 32.4315 1756.94 37.1306 Q1753.45 41.7891 1753.45 49.9314 Q1753.45 58.0738 1756.9 62.7728 Q1760.38 67.4314 1766.42 67.4314 Q1772.37 67.4314 1775.85 62.7323 Q1779.34 58.0333 1779.34 49.9314 Q1779.34 41.8701 1775.85 37.1711 Q1772.37 32.4315 1766.42 32.4315 M1766.42 26.1121 Q1776.14 26.1121 1781.69 32.4315 Q1787.24 38.7509 1787.24 49.9314 Q1787.24 61.0714 1781.69 67.4314 Q1776.14 73.7508 1766.42 73.7508 Q1756.65 73.7508 1751.1 67.4314 Q1745.59 61.0714 1745.59 49.9314 Q1745.59 38.7509 1751.1 32.4315 Q1756.65 26.1121 1766.42 26.1121 Z" fill="#000000" fill-rule="nonzero" fill-opacity="1" /><path clip-path="url(#clip560)" d="M1837.31 45.1919 L1837.31 72.576 L1829.85 72.576 L1829.85 45.4349 Q1829.85 38.994 1827.34 35.7938 Q1824.83 32.5936 1819.81 32.5936 Q1813.77 32.5936 1810.29 36.4419 Q1806.8 40.2903 1806.8 46.9338 L1806.8 72.576 L1799.31 72.576 L1799.31 27.2059 L1806.8 27.2059 L1806.8 34.2544 Q1809.48 30.163 1813.08 28.1376 Q1816.73 26.1121 1821.47 26.1121 Q1829.29 26.1121 1833.3 30.9732 Q1837.31 35.7938 1837.31 45.1919 Z" fill="#000000" fill-rule="nonzero" fill-opacity="1" /><path clip-path="url(#clip560)" d="M1854.08 62.2867 L1862.62 62.2867 L1862.62 72.576 L1854.08 72.576 L1854.08 62.2867 M1854.08 29.6769 L1862.62 29.6769 L1862.62 39.9662 L1854.08 39.9662 L1854.08 29.6769 Z" fill="#000000" fill-rule="nonzero" fill-opacity="1" /><path clip-path="url(#clip560)" d="M1915 18.8205 L1915 65.8515 L1924.89 65.8515 Q1937.4 65.8515 1943.2 60.1802 Q1949.03 54.509 1949.03 42.2752 Q1949.03 30.1225 1943.2 24.4918 Q1937.4 18.8205 1924.89 18.8205 L1915 18.8205 M1906.82 12.096 L1923.63 12.096 Q1941.21 12.096 1949.44 19.4281 Q1957.66 26.7198 1957.66 42.2752 Q1957.66 57.9117 1949.39 65.2439 Q1941.13 72.576 1923.63 72.576 L1906.82 72.576 L1906.82 12.096 Z" fill="#000000" fill-rule="nonzero" fill-opacity="1" /><path clip-path="url(#clip560)" d="M2009.19 48.0275 L2009.19 51.6733 L1974.92 51.6733 Q1975.4 59.3701 1979.53 63.421 Q1983.71 67.4314 1991.12 67.4314 Q1995.41 67.4314 1999.42 66.3781 Q2003.47 65.3249 2007.44 63.2184 L2007.44 70.267 Q2003.43 71.9684 1999.22 72.8596 Q1995.01 73.7508 1990.67 73.7508 Q1979.82 73.7508 1973.46 67.4314 Q1967.14 61.1119 1967.14 50.3365 Q1967.14 39.1965 1973.13 32.6746 Q1979.17 26.1121 1989.38 26.1121 Q1998.53 26.1121 2003.84 32.0264 Q2009.19 37.9003 2009.19 48.0275 M2001.73 45.84 Q2001.65 39.7232 1998.29 36.0774 Q1994.97 32.4315 1989.46 32.4315 Q1983.22 32.4315 1979.45 35.9558 Q1975.73 39.4801 1975.16 45.8805 L2001.73 45.84 Z" fill="#000000" fill-rule="nonzero" fill-opacity="1" /><path clip-path="url(#clip560)" d="M2021.42 9.54393 L2028.87 9.54393 L2028.87 72.576 L2021.42 72.576 L2021.42 9.54393 Z" fill="#000000" fill-rule="nonzero" fill-opacity="1" /><path clip-path="url(#clip560)" d="M2051.84 14.324 L2051.84 27.2059 L2067.19 27.2059 L2067.19 32.9987 L2051.84 32.9987 L2051.84 57.6282 Q2051.84 63.1779 2053.34 64.7578 Q2054.88 66.3376 2059.54 66.3376 L2067.19 66.3376 L2067.19 72.576 L2059.54 72.576 Q2050.91 72.576 2047.63 69.3758 Q2044.35 66.1351 2044.35 57.6282 L2044.35 32.9987 L2038.88 32.9987 L2038.88 27.2059 L2044.35 27.2059 L2044.35 14.324 L2051.84 14.324 Z" fill="#000000" fill-rule="nonzero" fill-opacity="1" /><path clip-path="url(#clip560)" d="M2097.62 49.7694 Q2088.58 49.7694 2085.1 51.8354 Q2081.62 53.9013 2081.62 58.8839 Q2081.62 62.8538 2084.21 65.2034 Q2086.84 67.5124 2091.34 67.5124 Q2097.54 67.5124 2101.26 63.1374 Q2105.03 58.7219 2105.03 51.4303 L2105.03 49.7694 L2097.62 49.7694 M2112.48 46.6907 L2112.48 72.576 L2105.03 72.576 L2105.03 65.6895 Q2102.48 69.8214 2098.67 71.8063 Q2094.86 73.7508 2089.35 73.7508 Q2082.39 73.7508 2078.25 69.8619 Q2074.16 65.9325 2074.16 59.3701 Q2074.16 51.7138 2079.27 47.825 Q2084.41 43.9361 2094.58 43.9361 L2105.03 43.9361 L2105.03 43.2069 Q2105.03 38.0623 2101.63 35.2672 Q2098.27 32.4315 2092.15 32.4315 Q2088.26 32.4315 2084.57 33.3632 Q2080.89 34.295 2077.48 36.1584 L2077.48 29.2718 Q2081.58 27.692 2085.42 26.9223 Q2089.27 26.1121 2092.92 26.1121 Q2102.76 26.1121 2107.62 31.2163 Q2112.48 36.3204 2112.48 46.6907 Z" fill="#000000" fill-rule="nonzero" fill-opacity="1" /><path clip-path="url(#clip560)" d="M2124.07 46.5287 L2145.9 46.5287 L2145.9 53.1722 L2124.07 53.1722 L2124.07 46.5287 Z" fill="#000000" fill-rule="nonzero" fill-opacity="1" /><path clip-path="url(#clip560)" d="M2168.83 72.576 L2145.74 12.096 L2154.29 12.096 L2173.45 63.0159 L2192.65 12.096 L2201.16 12.096 L2178.11 72.576 L2168.83 72.576 Z" fill="#000000" fill-rule="nonzero" fill-opacity="1" /><polyline clip-path="url(#clip561)" style="stroke:#4682b4; stroke-linecap:round; stroke-linejoin:round; stroke-width:10; stroke-opacity:1; fill:none" points="338.767,968.492 587.094,1270.61 835.421,974.257 1083.75,173.254 1332.07,1688.65 1580.4,1361.42 1828.73,1366.04 2077.05,1355.94 2325.38,1369.12 2573.71,1480.45 "/>
<circle clip-path="url(#clip561)" cx="338.767" cy="968.492" r="21.6" fill="#4682b4" fill-rule="evenodd" fill-opacity="1" stroke="#000000" stroke-opacity="1" stroke-width="3.84"/>
<circle clip-path="url(#clip561)" cx="587.094" cy="1270.61" r="21.6" fill="#4682b4" fill-rule="evenodd" fill-opacity="1" stroke="#000000" stroke-opacity="1" stroke-width="3.84"/>
<circle clip-path="url(#clip561)" cx="835.421" cy="974.257" r="21.6" fill="#4682b4" fill-rule="evenodd" fill-opacity="1" stroke="#000000" stroke-opacity="1" stroke-width="3.84"/>
<circle clip-path="url(#clip561)" cx="1083.75" cy="173.254" r="21.6" fill="#4682b4" fill-rule="evenodd" fill-opacity="1" stroke="#000000" stroke-opacity="1" stroke-width="3.84"/>
<circle clip-path="url(#clip561)" cx="1332.07" cy="1688.65" r="21.6" fill="#4682b4" fill-rule="evenodd" fill-opacity="1" stroke="#000000" stroke-opacity="1" stroke-width="3.84"/>
<circle clip-path="url(#clip561)" cx="1580.4" cy="1361.42" r="21.6" fill="#4682b4" fill-rule="evenodd" fill-opacity="1" stroke="#000000" stroke-opacity="1" stroke-width="3.84"/>
<circle clip-path="url(#clip561)" cx="1828.73" cy="1366.04" r="21.6" fill="#4682b4" fill-rule="evenodd" fill-opacity="1" stroke="#000000" stroke-opacity="1" stroke-width="3.84"/>
<circle clip-path="url(#clip561)" cx="2077.05" cy="1355.94" r="21.6" fill="#4682b4" fill-rule="evenodd" fill-opacity="1" stroke="#000000" stroke-opacity="1" stroke-width="3.84"/>
<circle clip-path="url(#clip561)" cx="2325.38" cy="1369.12" r="21.6" fill="#4682b4" fill-rule="evenodd" fill-opacity="1" stroke="#000000" stroke-opacity="1" stroke-width="3.84"/>
<circle clip-path="url(#clip561)" cx="2573.71" cy="1480.45" r="21.6" fill="#4682b4" fill-rule="evenodd" fill-opacity="1" stroke="#000000" stroke-opacity="1" stroke-width="3.84"/>
<polyline clip-path="url(#clip561)" style="stroke:#dc143c; stroke-linecap:round; stroke-linejoin:round; stroke-width:6; stroke-opacity:1; fill:none" stroke-dasharray="24, 15" points="-2097.32,1540.63 5009.79,1540.63 "/>
<polyline clip-path="url(#clip561)" style="stroke:#228b22; stroke-linecap:round; stroke-linejoin:round; stroke-width:6; stroke-opacity:1; fill:none" stroke-dasharray="3, 6" points="-2097.32,1480.45 5009.79,1480.45 "/>
<path clip-path="url(#clip560)" d="M1919.15 1680.57 L2561.79 1680.57 L2561.79 1473.21 L1919.15 1473.21  Z" fill="#ffffff" fill-rule="evenodd" fill-opacity="1"/>
<polyline clip-path="url(#clip560)" style="stroke:#000000; stroke-linecap:round; stroke-linejoin:round; stroke-width:4; stroke-opacity:1; fill:none" points="1919.15,1680.57 2561.79,1680.57 2561.79,1473.21 1919.15,1473.21 1919.15,1680.57 "/>
<polyline clip-path="url(#clip560)" style="stroke:#4682b4; stroke-linecap:round; stroke-linejoin:round; stroke-width:10; stroke-opacity:1; fill:none" points="1945.47,1525.05 2103.4,1525.05 "/>
<circle clip-path="url(#clip560)" cx="2024.44" cy="1525.05" r="21.2677" fill="#4682b4" fill-rule="evenodd" fill-opacity="1" stroke="#000000" stroke-opacity="1" stroke-width="3.78092"/>
<path clip-path="url(#clip560)" d="M2134.4 1525.83 L2134.4 1538.49 L2141.9 1538.49 Q2145.68 1538.49 2147.48 1536.94 Q2149.31 1535.37 2149.31 1532.15 Q2149.31 1528.91 2147.48 1527.38 Q2145.68 1525.83 2141.9 1525.83 L2134.4 1525.83 M2134.4 1511.62 L2134.4 1522.03 L2141.32 1522.03 Q2144.75 1522.03 2146.42 1520.76 Q2148.11 1519.46 2148.11 1516.82 Q2148.11 1514.21 2146.42 1512.91 Q2144.75 1511.62 2141.32 1511.62 L2134.4 1511.62 M2129.73 1507.77 L2141.67 1507.77 Q2147.02 1507.77 2149.91 1510 Q2152.81 1512.22 2152.81 1516.31 Q2152.81 1519.49 2151.32 1521.36 Q2149.84 1523.24 2146.97 1523.7 Q2150.42 1524.44 2152.32 1526.8 Q2154.24 1529.14 2154.24 1532.66 Q2154.24 1537.29 2151.09 1539.81 Q2147.94 1542.33 2142.13 1542.33 L2129.73 1542.33 L2129.73 1507.77 Z" fill="#000000" fill-rule="nonzero" fill-opacity="1" /><path clip-path="url(#clip560)" d="M2162.25 1507.77 L2166.93 1507.77 L2166.93 1538.4 L2183.75 1538.4 L2183.75 1542.33 L2162.25 1542.33 L2162.25 1507.77 Z" fill="#000000" fill-rule="nonzero" fill-opacity="1" /><path clip-path="url(#clip560)" d="M2188.66 1507.77 L2193.34 1507.77 L2193.34 1542.33 L2188.66 1542.33 L2188.66 1507.77 Z" fill="#000000" fill-rule="nonzero" fill-opacity="1" /><path clip-path="url(#clip560)" d="M2223.36 1508.91 L2223.36 1513.47 Q2220.7 1512.19 2218.34 1511.57 Q2215.98 1510.94 2213.78 1510.94 Q2209.96 1510.94 2207.87 1512.43 Q2205.81 1513.91 2205.81 1516.64 Q2205.81 1518.93 2207.18 1520.11 Q2208.57 1521.27 2212.41 1521.99 L2215.24 1522.56 Q2220.47 1523.56 2222.94 1526.08 Q2225.44 1528.58 2225.44 1532.8 Q2225.44 1537.82 2222.06 1540.41 Q2218.71 1543 2212.2 1543 Q2209.75 1543 2206.97 1542.45 Q2204.22 1541.89 2201.25 1540.81 L2201.25 1535.99 Q2204.1 1537.59 2206.83 1538.4 Q2209.56 1539.21 2212.2 1539.21 Q2216.21 1539.21 2218.38 1537.63 Q2220.56 1536.06 2220.56 1533.14 Q2220.56 1530.6 2218.99 1529.16 Q2217.43 1527.73 2213.87 1527.01 L2211.02 1526.45 Q2205.79 1525.41 2203.45 1523.19 Q2201.12 1520.97 2201.12 1517.01 Q2201.12 1512.43 2204.33 1509.79 Q2207.57 1507.15 2213.24 1507.15 Q2215.68 1507.15 2218.2 1507.59 Q2220.72 1508.03 2223.36 1508.91 Z" fill="#000000" fill-rule="nonzero" fill-opacity="1" /><path clip-path="url(#clip560)" d="M2253.45 1508.91 L2253.45 1513.47 Q2250.79 1512.19 2248.43 1511.57 Q2246.07 1510.94 2243.87 1510.94 Q2240.05 1510.94 2237.97 1512.43 Q2235.91 1513.91 2235.91 1516.64 Q2235.91 1518.93 2237.27 1520.11 Q2238.66 1521.27 2242.5 1521.99 L2245.33 1522.56 Q2250.56 1523.56 2253.04 1526.08 Q2255.54 1528.58 2255.54 1532.8 Q2255.54 1537.82 2252.16 1540.41 Q2248.8 1543 2242.3 1543 Q2239.84 1543 2237.06 1542.45 Q2234.31 1541.89 2231.35 1540.81 L2231.35 1535.99 Q2234.19 1537.59 2236.93 1538.4 Q2239.66 1539.21 2242.3 1539.21 Q2246.3 1539.21 2248.48 1537.63 Q2250.65 1536.06 2250.65 1533.14 Q2250.65 1530.6 2249.08 1529.16 Q2247.53 1527.73 2243.96 1527.01 L2241.12 1526.45 Q2235.88 1525.41 2233.55 1523.19 Q2231.21 1520.97 2231.21 1517.01 Q2231.21 1512.43 2234.43 1509.79 Q2237.67 1507.15 2243.34 1507.15 Q2245.77 1507.15 2248.29 1507.59 Q2250.81 1508.03 2253.45 1508.91 Z" fill="#000000" fill-rule="nonzero" fill-opacity="1" /><path clip-path="url(#clip560)" d="M2260.49 1527.45 L2272.97 1527.45 L2272.97 1531.24 L2260.49 1531.24 L2260.49 1527.45 Z" fill="#000000" fill-rule="nonzero" fill-opacity="1" /><path clip-path="url(#clip560)" d="M2296.32 1526.13 Q2297.83 1526.64 2299.24 1528.31 Q2300.67 1529.97 2302.11 1532.89 L2306.86 1542.33 L2301.83 1542.33 L2297.41 1533.47 Q2295.7 1529.99 2294.08 1528.86 Q2292.48 1527.73 2289.7 1527.73 L2284.61 1527.73 L2284.61 1542.33 L2279.93 1542.33 L2279.93 1507.77 L2290.49 1507.77 Q2296.42 1507.77 2299.33 1510.25 Q2302.25 1512.73 2302.25 1517.73 Q2302.25 1520.99 2300.72 1523.14 Q2299.22 1525.3 2296.32 1526.13 M2284.61 1511.62 L2284.61 1523.88 L2290.49 1523.88 Q2293.87 1523.88 2295.58 1522.33 Q2297.32 1520.76 2297.32 1517.73 Q2297.32 1514.69 2295.58 1513.17 Q2293.87 1511.62 2290.49 1511.62 L2284.61 1511.62 Z" fill="#000000" fill-rule="nonzero" fill-opacity="1" /><path clip-path="url(#clip560)" d="M2333.59 1508.91 L2333.59 1513.47 Q2330.93 1512.19 2328.57 1511.57 Q2326.21 1510.94 2324.01 1510.94 Q2320.19 1510.94 2318.11 1512.43 Q2316.05 1513.91 2316.05 1516.64 Q2316.05 1518.93 2317.41 1520.11 Q2318.8 1521.27 2322.64 1521.99 L2325.47 1522.56 Q2330.7 1523.56 2333.17 1526.08 Q2335.67 1528.58 2335.67 1532.8 Q2335.67 1537.82 2332.3 1540.41 Q2328.94 1543 2322.43 1543 Q2319.98 1543 2317.2 1542.45 Q2314.45 1541.89 2311.49 1540.81 L2311.49 1535.99 Q2314.33 1537.59 2317.06 1538.4 Q2319.8 1539.21 2322.43 1539.21 Q2326.44 1539.21 2328.61 1537.63 Q2330.79 1536.06 2330.79 1533.14 Q2330.79 1530.6 2329.22 1529.16 Q2327.67 1527.73 2324.1 1527.01 L2321.25 1526.45 Q2316.02 1525.41 2313.68 1523.19 Q2311.35 1520.97 2311.35 1517.01 Q2311.35 1512.43 2314.56 1509.79 Q2317.8 1507.15 2323.48 1507.15 Q2325.91 1507.15 2328.43 1507.59 Q2330.95 1508.03 2333.59 1508.91 Z" fill="#000000" fill-rule="nonzero" fill-opacity="1" /><path clip-path="url(#clip560)" d="M2369.59 1512.38 L2360.1 1538.44 L2379.1 1538.44 L2369.59 1512.38 M2353.75 1542.33 L2366.95 1507.77 L2372.25 1507.77 L2385.42 1542.33 L2353.75 1542.33 Z" fill="#000000" fill-rule="nonzero" fill-opacity="1" /><path clip-path="url(#clip560)" d="M2399.38 1542.33 L2386.18 1507.77 L2391.07 1507.77 L2402.02 1536.87 L2412.99 1507.77 L2417.85 1507.77 L2404.68 1542.33 L2399.38 1542.33 Z" fill="#000000" fill-rule="nonzero" fill-opacity="1" /><polyline clip-path="url(#clip560)" style="stroke:#dc143c; stroke-linecap:round; stroke-linejoin:round; stroke-width:6; stroke-opacity:1; fill:none" stroke-dasharray="24, 15" points="1945.47,1576.89 2103.4,1576.89 "/>
<path clip-path="url(#clip560)" d="M2134.4 1577.67 L2134.4 1590.33 L2141.9 1590.33 Q2145.68 1590.33 2147.48 1588.78 Q2149.31 1587.21 2149.31 1583.99 Q2149.31 1580.75 2147.48 1579.22 Q2145.68 1577.67 2141.9 1577.67 L2134.4 1577.67 M2134.4 1563.46 L2134.4 1573.87 L2141.32 1573.87 Q2144.75 1573.87 2146.42 1572.6 Q2148.11 1571.3 2148.11 1568.66 Q2148.11 1566.05 2146.42 1564.75 Q2144.75 1563.46 2141.32 1563.46 L2134.4 1563.46 M2129.73 1559.61 L2141.67 1559.61 Q2147.02 1559.61 2149.91 1561.84 Q2152.81 1564.06 2152.81 1568.15 Q2152.81 1571.33 2151.32 1573.2 Q2149.84 1575.08 2146.97 1575.54 Q2150.42 1576.28 2152.32 1578.64 Q2154.24 1580.98 2154.24 1584.5 Q2154.24 1589.13 2151.09 1591.65 Q2147.94 1594.17 2142.13 1594.17 L2129.73 1594.17 L2129.73 1559.61 Z" fill="#000000" fill-rule="nonzero" fill-opacity="1" /><path clip-path="url(#clip560)" d="M2173.85 1581.14 Q2168.68 1581.14 2166.69 1582.32 Q2164.7 1583.5 2164.7 1586.35 Q2164.7 1588.62 2166.18 1589.96 Q2167.69 1591.28 2170.26 1591.28 Q2173.8 1591.28 2175.93 1588.78 Q2178.08 1586.26 2178.08 1582.09 L2178.08 1581.14 L2173.85 1581.14 M2182.34 1579.38 L2182.34 1594.17 L2178.08 1594.17 L2178.08 1590.24 Q2176.62 1592.6 2174.45 1593.73 Q2172.27 1594.84 2169.12 1594.84 Q2165.14 1594.84 2162.78 1592.62 Q2160.44 1590.38 2160.44 1586.63 Q2160.44 1582.25 2163.36 1580.03 Q2166.3 1577.81 2172.11 1577.81 L2178.08 1577.81 L2178.08 1577.39 Q2178.08 1574.45 2176.14 1572.85 Q2174.22 1571.23 2170.72 1571.23 Q2168.5 1571.23 2166.39 1571.77 Q2164.29 1572.3 2162.34 1573.36 L2162.34 1569.43 Q2164.68 1568.52 2166.88 1568.09 Q2169.08 1567.62 2171.16 1567.62 Q2176.79 1567.62 2179.56 1570.54 Q2182.34 1573.46 2182.34 1579.38 Z" fill="#000000" fill-rule="nonzero" fill-opacity="1" /><path clip-path="url(#clip560)" d="M2207.64 1569.01 L2207.64 1573.04 Q2205.84 1572.11 2203.89 1571.65 Q2201.95 1571.19 2199.87 1571.19 Q2196.69 1571.19 2195.1 1572.16 Q2193.52 1573.13 2193.52 1575.08 Q2193.52 1576.56 2194.66 1577.41 Q2195.79 1578.25 2199.22 1579.01 L2200.68 1579.33 Q2205.21 1580.31 2207.11 1582.09 Q2209.03 1583.85 2209.03 1587.02 Q2209.03 1590.63 2206.16 1592.74 Q2203.31 1594.84 2198.31 1594.84 Q2196.23 1594.84 2193.96 1594.43 Q2191.72 1594.03 2189.22 1593.22 L2189.22 1588.83 Q2191.58 1590.05 2193.87 1590.68 Q2196.16 1591.28 2198.41 1591.28 Q2201.42 1591.28 2203.04 1590.26 Q2204.66 1589.22 2204.66 1587.34 Q2204.66 1585.61 2203.48 1584.68 Q2202.32 1583.76 2198.36 1582.9 L2196.88 1582.55 Q2192.92 1581.72 2191.16 1580.01 Q2189.4 1578.27 2189.4 1575.26 Q2189.4 1571.6 2191.99 1569.61 Q2194.59 1567.62 2199.36 1567.62 Q2201.72 1567.62 2203.8 1567.97 Q2205.88 1568.32 2207.64 1569.01 Z" fill="#000000" fill-rule="nonzero" fill-opacity="1" /><path clip-path="url(#clip560)" d="M2237.99 1580.15 L2237.99 1582.23 L2218.41 1582.23 Q2218.68 1586.63 2221.05 1588.94 Q2223.43 1591.23 2227.67 1591.23 Q2230.12 1591.23 2232.41 1590.63 Q2234.73 1590.03 2236.99 1588.83 L2236.99 1592.85 Q2234.7 1593.83 2232.3 1594.33 Q2229.89 1594.84 2227.41 1594.84 Q2221.21 1594.84 2217.57 1591.23 Q2213.96 1587.62 2213.96 1581.46 Q2213.96 1575.1 2217.39 1571.37 Q2220.84 1567.62 2226.67 1567.62 Q2231.9 1567.62 2234.93 1571 Q2237.99 1574.36 2237.99 1580.15 M2233.73 1578.9 Q2233.68 1575.4 2231.76 1573.32 Q2229.87 1571.23 2226.72 1571.23 Q2223.15 1571.23 2221 1573.25 Q2218.87 1575.26 2218.55 1578.92 L2233.73 1578.9 Z" fill="#000000" fill-rule="nonzero" fill-opacity="1" /><path clip-path="url(#clip560)" d="M2244.98 1558.15 L2249.24 1558.15 L2249.24 1594.17 L2244.98 1594.17 L2244.98 1558.15 Z" fill="#000000" fill-rule="nonzero" fill-opacity="1" /><path clip-path="url(#clip560)" d="M2258.15 1568.25 L2262.41 1568.25 L2262.41 1594.17 L2258.15 1594.17 L2258.15 1568.25 M2258.15 1558.15 L2262.41 1558.15 L2262.41 1563.55 L2258.15 1563.55 L2258.15 1558.15 Z" fill="#000000" fill-rule="nonzero" fill-opacity="1" /><path clip-path="url(#clip560)" d="M2292.87 1578.52 L2292.87 1594.17 L2288.61 1594.17 L2288.61 1578.66 Q2288.61 1574.98 2287.18 1573.15 Q2285.74 1571.33 2282.87 1571.33 Q2279.43 1571.33 2277.43 1573.52 Q2275.44 1575.72 2275.44 1579.52 L2275.44 1594.17 L2271.16 1594.17 L2271.16 1568.25 L2275.44 1568.25 L2275.44 1572.27 Q2276.97 1569.94 2279.03 1568.78 Q2281.11 1567.62 2283.82 1567.62 Q2288.29 1567.62 2290.58 1570.4 Q2292.87 1573.15 2292.87 1578.52 Z" fill="#000000" fill-rule="nonzero" fill-opacity="1" /><path clip-path="url(#clip560)" d="M2323.55 1580.15 L2323.55 1582.23 L2303.96 1582.23 Q2304.24 1586.63 2306.6 1588.94 Q2308.99 1591.23 2313.22 1591.23 Q2315.67 1591.23 2317.97 1590.63 Q2320.28 1590.03 2322.55 1588.83 L2322.55 1592.85 Q2320.26 1593.83 2317.85 1594.33 Q2315.44 1594.84 2312.97 1594.84 Q2306.76 1594.84 2303.13 1591.23 Q2299.52 1587.62 2299.52 1581.46 Q2299.52 1575.1 2302.94 1571.37 Q2306.39 1567.62 2312.23 1567.62 Q2317.46 1567.62 2320.49 1571 Q2323.55 1574.36 2323.55 1580.15 M2319.29 1578.9 Q2319.24 1575.4 2317.32 1573.32 Q2315.42 1571.23 2312.27 1571.23 Q2308.71 1571.23 2306.55 1573.25 Q2304.42 1575.26 2304.1 1578.92 L2319.29 1578.9 Z" fill="#000000" fill-rule="nonzero" fill-opacity="1" /><path clip-path="url(#clip560)" d="M2331.62 1588.29 L2336.51 1588.29 L2336.51 1594.17 L2331.62 1594.17 L2331.62 1588.29 M2331.62 1569.66 L2336.51 1569.66 L2336.51 1575.54 L2331.62 1575.54 L2331.62 1569.66 Z" fill="#000000" fill-rule="nonzero" fill-opacity="1" /><path clip-path="url(#clip560)" d="M2362.32 1593.46 L2362.32 1589.2 Q2364.08 1590.03 2365.88 1590.47 Q2367.69 1590.91 2369.42 1590.91 Q2374.05 1590.91 2376.48 1587.81 Q2378.94 1584.68 2379.29 1578.34 Q2377.94 1580.33 2375.88 1581.4 Q2373.82 1582.46 2371.32 1582.46 Q2366.14 1582.46 2363.11 1579.33 Q2360.1 1576.19 2360.1 1570.75 Q2360.1 1565.42 2363.24 1562.21 Q2366.39 1558.99 2371.62 1558.99 Q2377.62 1558.99 2380.77 1563.59 Q2383.94 1568.18 2383.94 1576.93 Q2383.94 1585.1 2380.05 1589.98 Q2376.18 1594.84 2369.63 1594.84 Q2367.87 1594.84 2366.07 1594.5 Q2364.26 1594.15 2362.32 1593.46 M2371.62 1578.8 Q2374.77 1578.8 2376.6 1576.65 Q2378.45 1574.5 2378.45 1570.75 Q2378.45 1567.02 2376.6 1564.87 Q2374.77 1562.69 2371.62 1562.69 Q2368.48 1562.69 2366.62 1564.87 Q2364.79 1567.02 2364.79 1570.75 Q2364.79 1574.5 2366.62 1576.65 Q2368.48 1578.8 2371.62 1578.8 Z" fill="#000000" fill-rule="nonzero" fill-opacity="1" /><path clip-path="url(#clip560)" d="M2406.51 1575.54 Q2409.86 1576.26 2411.74 1578.52 Q2413.64 1580.79 2413.64 1584.13 Q2413.64 1589.24 2410.12 1592.04 Q2406.6 1594.84 2400.12 1594.84 Q2397.94 1594.84 2395.63 1594.4 Q2393.34 1593.99 2390.88 1593.13 L2390.88 1588.62 Q2392.83 1589.75 2395.14 1590.33 Q2397.46 1590.91 2399.98 1590.91 Q2404.38 1590.91 2406.67 1589.17 Q2408.98 1587.44 2408.98 1584.13 Q2408.98 1581.07 2406.83 1579.36 Q2404.7 1577.62 2400.88 1577.62 L2396.86 1577.62 L2396.86 1573.78 L2401.07 1573.78 Q2404.52 1573.78 2406.35 1572.41 Q2408.17 1571.02 2408.17 1568.43 Q2408.17 1565.77 2406.28 1564.36 Q2404.4 1562.92 2400.88 1562.92 Q2398.96 1562.92 2396.76 1563.34 Q2394.56 1563.76 2391.92 1564.64 L2391.92 1560.47 Q2394.59 1559.73 2396.9 1559.36 Q2399.24 1558.99 2401.3 1558.99 Q2406.62 1558.99 2409.73 1561.42 Q2412.83 1563.83 2412.83 1567.95 Q2412.83 1570.82 2411.18 1572.81 Q2409.54 1574.77 2406.51 1575.54 Z" fill="#000000" fill-rule="nonzero" fill-opacity="1" /><path clip-path="url(#clip560)" d="M2436.67 1575.54 Q2440.03 1576.26 2441.9 1578.52 Q2443.8 1580.79 2443.8 1584.13 Q2443.8 1589.24 2440.28 1592.04 Q2436.76 1594.84 2430.28 1594.84 Q2428.1 1594.84 2425.79 1594.4 Q2423.5 1593.99 2421.04 1593.13 L2421.04 1588.62 Q2422.99 1589.75 2425.3 1590.33 Q2427.62 1590.91 2430.14 1590.91 Q2434.54 1590.91 2436.83 1589.17 Q2439.15 1587.44 2439.15 1584.13 Q2439.15 1581.07 2436.99 1579.36 Q2434.86 1577.62 2431.04 1577.62 L2427.02 1577.62 L2427.02 1573.78 L2431.23 1573.78 Q2434.68 1573.78 2436.51 1572.41 Q2438.34 1571.02 2438.34 1568.43 Q2438.34 1565.77 2436.44 1564.36 Q2434.56 1562.92 2431.04 1562.92 Q2429.12 1562.92 2426.92 1563.34 Q2424.73 1563.76 2422.09 1564.64 L2422.09 1560.47 Q2424.75 1559.73 2427.06 1559.36 Q2429.4 1558.99 2431.46 1558.99 Q2436.79 1558.99 2439.89 1561.42 Q2442.99 1563.83 2442.99 1567.95 Q2442.99 1570.82 2441.35 1572.81 Q2439.7 1574.77 2436.67 1575.54 Z" fill="#000000" fill-rule="nonzero" fill-opacity="1" /><path clip-path="url(#clip560)" d="M2480.26 1558.15 L2480.26 1561.7 L2476.18 1561.7 Q2473.89 1561.7 2472.99 1562.62 Q2472.11 1563.55 2472.11 1565.96 L2472.11 1568.25 L2479.12 1568.25 L2479.12 1571.56 L2472.11 1571.56 L2472.11 1594.17 L2467.83 1594.17 L2467.83 1571.56 L2463.75 1571.56 L2463.75 1568.25 L2467.83 1568.25 L2467.83 1566.44 Q2467.83 1562.11 2469.84 1560.15 Q2471.85 1558.15 2476.23 1558.15 L2480.26 1558.15 Z" fill="#000000" fill-rule="nonzero" fill-opacity="1" /><path clip-path="url(#clip560)" d="M2487.2 1560.89 L2487.2 1568.25 L2495.97 1568.25 L2495.97 1571.56 L2487.2 1571.56 L2487.2 1585.63 Q2487.2 1588.8 2488.06 1589.71 Q2488.94 1590.61 2491.6 1590.61 L2495.97 1590.61 L2495.97 1594.17 L2491.6 1594.17 Q2486.67 1594.17 2484.79 1592.34 Q2482.92 1590.49 2482.92 1585.63 L2482.92 1571.56 L2479.79 1571.56 L2479.79 1568.25 L2482.92 1568.25 L2482.92 1560.89 L2487.2 1560.89 Z" fill="#000000" fill-rule="nonzero" fill-opacity="1" /><path clip-path="url(#clip560)" d="M2509.15 1559.61 L2513.08 1559.61 L2501.04 1598.57 L2497.11 1598.57 L2509.15 1559.61 Z" fill="#000000" fill-rule="nonzero" fill-opacity="1" /><path clip-path="url(#clip560)" d="M2534.08 1569.01 L2534.08 1573.04 Q2532.27 1572.11 2530.33 1571.65 Q2528.38 1571.19 2526.3 1571.19 Q2523.13 1571.19 2521.53 1572.16 Q2519.96 1573.13 2519.96 1575.08 Q2519.96 1576.56 2521.09 1577.41 Q2522.22 1578.25 2525.65 1579.01 L2527.11 1579.33 Q2531.65 1580.31 2533.54 1582.09 Q2535.47 1583.85 2535.47 1587.02 Q2535.47 1590.63 2532.6 1592.74 Q2529.75 1594.84 2524.75 1594.84 Q2522.66 1594.84 2520.4 1594.43 Q2518.15 1594.03 2515.65 1593.22 L2515.65 1588.83 Q2518.01 1590.05 2520.3 1590.68 Q2522.6 1591.28 2524.84 1591.28 Q2527.85 1591.28 2529.47 1590.26 Q2531.09 1589.22 2531.09 1587.34 Q2531.09 1585.61 2529.91 1584.68 Q2528.75 1583.76 2524.79 1582.9 L2523.31 1582.55 Q2519.35 1581.72 2517.6 1580.01 Q2515.84 1578.27 2515.84 1575.26 Q2515.84 1571.6 2518.43 1569.61 Q2521.02 1567.62 2525.79 1567.62 Q2528.15 1567.62 2530.23 1567.97 Q2532.32 1568.32 2534.08 1569.01 Z" fill="#000000" fill-rule="nonzero" fill-opacity="1" /><polyline clip-path="url(#clip560)" style="stroke:#228b22; stroke-linecap:round; stroke-linejoin:round; stroke-width:6; stroke-opacity:1; fill:none" stroke-dasharray="3, 6" points="1945.47,1628.73 2103.4,1628.73 "/>
<path clip-path="url(#clip560)" d="M2129.73 1611.45 L2149.59 1611.45 L2149.59 1615.39 L2134.4 1615.39 L2134.4 1625.57 L2148.11 1625.57 L2148.11 1629.51 L2134.4 1629.51 L2134.4 1646.01 L2129.73 1646.01 L2129.73 1611.45 Z" fill="#000000" fill-rule="nonzero" fill-opacity="1" /><path clip-path="url(#clip560)" d="M2153.36 1620.09 L2157.62 1620.09 L2157.62 1646.01 L2153.36 1646.01 L2153.36 1620.09 M2153.36 1609.99 L2157.62 1609.99 L2157.62 1615.39 L2153.36 1615.39 L2153.36 1609.99 Z" fill="#000000" fill-rule="nonzero" fill-opacity="1" /><path clip-path="url(#clip560)" d="M2188.08 1630.36 L2188.08 1646.01 L2183.82 1646.01 L2183.82 1630.5 Q2183.82 1626.82 2182.39 1624.99 Q2180.95 1623.17 2178.08 1623.17 Q2174.63 1623.17 2172.64 1625.36 Q2170.65 1627.56 2170.65 1631.36 L2170.65 1646.01 L2166.37 1646.01 L2166.37 1620.09 L2170.65 1620.09 L2170.65 1624.11 Q2172.18 1621.78 2174.24 1620.62 Q2176.32 1619.46 2179.03 1619.46 Q2183.5 1619.46 2185.79 1622.24 Q2188.08 1624.99 2188.08 1630.36 Z" fill="#000000" fill-rule="nonzero" fill-opacity="1" /><path clip-path="url(#clip560)" d="M2208.36 1632.98 Q2203.2 1632.98 2201.21 1634.16 Q2199.22 1635.34 2199.22 1638.19 Q2199.22 1640.46 2200.7 1641.8 Q2202.2 1643.12 2204.77 1643.12 Q2208.31 1643.12 2210.44 1640.62 Q2212.6 1638.1 2212.6 1633.93 L2212.6 1632.98 L2208.36 1632.98 M2216.86 1631.22 L2216.86 1646.01 L2212.6 1646.01 L2212.6 1642.08 Q2211.14 1644.44 2208.96 1645.57 Q2206.79 1646.68 2203.64 1646.68 Q2199.66 1646.68 2197.3 1644.46 Q2194.96 1642.22 2194.96 1638.47 Q2194.96 1634.09 2197.87 1631.87 Q2200.81 1629.65 2206.62 1629.65 L2212.6 1629.65 L2212.6 1629.23 Q2212.6 1626.29 2210.65 1624.69 Q2208.73 1623.07 2205.24 1623.07 Q2203.01 1623.07 2200.91 1623.61 Q2198.8 1624.14 2196.86 1625.2 L2196.86 1621.27 Q2199.19 1620.36 2201.39 1619.93 Q2203.59 1619.46 2205.68 1619.46 Q2211.3 1619.46 2214.08 1622.38 Q2216.86 1625.3 2216.86 1631.22 Z" fill="#000000" fill-rule="nonzero" fill-opacity="1" /><path clip-path="url(#clip560)" d="M2225.63 1609.99 L2229.89 1609.99 L2229.89 1646.01 L2225.63 1646.01 L2225.63 1609.99 Z" fill="#000000" fill-rule="nonzero" fill-opacity="1" /><path clip-path="url(#clip560)" d="M2239.89 1640.13 L2244.77 1640.13 L2244.77 1646.01 L2239.89 1646.01 L2239.89 1640.13 M2239.89 1621.5 L2244.77 1621.5 L2244.77 1627.38 L2239.89 1627.38 L2239.89 1621.5 Z" fill="#000000" fill-rule="nonzero" fill-opacity="1" /><path clip-path="url(#clip560)" d="M2271.25 1642.08 L2278.89 1642.08 L2278.89 1615.71 L2270.58 1617.38 L2270.58 1613.12 L2278.85 1611.45 L2283.52 1611.45 L2283.52 1642.08 L2291.16 1642.08 L2291.16 1646.01 L2271.25 1646.01 L2271.25 1642.08 Z" fill="#000000" fill-rule="nonzero" fill-opacity="1" /><path clip-path="url(#clip560)" d="M2314.77 1627.38 Q2318.13 1628.1 2320 1630.36 Q2321.9 1632.63 2321.9 1635.97 Q2321.9 1641.08 2318.38 1643.88 Q2314.86 1646.68 2308.38 1646.68 Q2306.21 1646.68 2303.89 1646.24 Q2301.6 1645.83 2299.15 1644.97 L2299.15 1640.46 Q2301.09 1641.59 2303.41 1642.17 Q2305.72 1642.75 2308.24 1642.75 Q2312.64 1642.75 2314.93 1641.01 Q2317.25 1639.28 2317.25 1635.97 Q2317.25 1632.91 2315.1 1631.2 Q2312.97 1629.46 2309.15 1629.46 L2305.12 1629.46 L2305.12 1625.62 L2309.33 1625.62 Q2312.78 1625.62 2314.61 1624.25 Q2316.44 1622.86 2316.44 1620.27 Q2316.44 1617.61 2314.54 1616.2 Q2312.67 1614.76 2309.15 1614.76 Q2307.23 1614.76 2305.03 1615.18 Q2302.83 1615.6 2300.19 1616.48 L2300.19 1612.31 Q2302.85 1611.57 2305.17 1611.2 Q2307.5 1610.83 2309.56 1610.83 Q2314.89 1610.83 2317.99 1613.26 Q2321.09 1615.67 2321.09 1619.79 Q2321.09 1622.66 2319.45 1624.65 Q2317.8 1626.61 2314.77 1627.38 Z" fill="#000000" fill-rule="nonzero" fill-opacity="1" /><path clip-path="url(#clip560)" d="M2331.58 1642.08 L2339.22 1642.08 L2339.22 1615.71 L2330.91 1617.38 L2330.91 1613.12 L2339.17 1611.45 L2343.85 1611.45 L2343.85 1642.08 L2351.48 1642.08 L2351.48 1646.01 L2331.58 1646.01 L2331.58 1642.08 Z" fill="#000000" fill-rule="nonzero" fill-opacity="1" /><path clip-path="url(#clip560)" d="M2364.96 1642.08 L2381.28 1642.08 L2381.28 1646.01 L2359.33 1646.01 L2359.33 1642.08 Q2361.99 1639.32 2366.58 1634.69 Q2371.18 1630.04 2372.36 1628.7 Q2374.61 1626.17 2375.49 1624.44 Q2376.39 1622.68 2376.39 1620.99 Q2376.39 1618.24 2374.45 1616.5 Q2372.53 1614.76 2369.42 1614.76 Q2367.23 1614.76 2364.77 1615.53 Q2362.34 1616.29 2359.56 1617.84 L2359.56 1613.12 Q2362.39 1611.99 2364.84 1611.41 Q2367.29 1610.83 2369.33 1610.83 Q2374.7 1610.83 2377.9 1613.51 Q2381.09 1616.2 2381.09 1620.69 Q2381.09 1622.82 2380.28 1624.74 Q2379.49 1626.64 2377.39 1629.23 Q2376.81 1629.9 2373.71 1633.12 Q2370.61 1636.31 2364.96 1642.08 Z" fill="#000000" fill-rule="nonzero" fill-opacity="1" /><path clip-path="url(#clip560)" d="M2418.68 1609.99 L2418.68 1613.54 L2414.61 1613.54 Q2412.32 1613.54 2411.42 1614.46 Q2410.54 1615.39 2410.54 1617.8 L2410.54 1620.09 L2417.55 1620.09 L2417.55 1623.4 L2410.54 1623.4 L2410.54 1646.01 L2406.25 1646.01 L2406.25 1623.4 L2402.18 1623.4 L2402.18 1620.09 L2406.25 1620.09 L2406.25 1618.28 Q2406.25 1613.95 2408.27 1611.99 Q2410.28 1609.99 2414.66 1609.99 L2418.68 1609.99 Z" fill="#000000" fill-rule="nonzero" fill-opacity="1" /><path clip-path="url(#clip560)" d="M2425.63 1612.73 L2425.63 1620.09 L2434.4 1620.09 L2434.4 1623.4 L2425.63 1623.4 L2425.63 1637.47 Q2425.63 1640.64 2426.48 1641.55 Q2427.36 1642.45 2430.03 1642.45 L2434.4 1642.45 L2434.4 1646.01 L2430.03 1646.01 Q2425.1 1646.01 2423.22 1644.18 Q2421.35 1642.33 2421.35 1637.47 L2421.35 1623.4 L2418.22 1623.4 L2418.22 1620.09 L2421.35 1620.09 L2421.35 1612.73 L2425.63 1612.73 Z" fill="#000000" fill-rule="nonzero" fill-opacity="1" /><path clip-path="url(#clip560)" d="M2447.57 1611.45 L2451.51 1611.45 L2439.47 1650.41 L2435.54 1650.41 L2447.57 1611.45 Z" fill="#000000" fill-rule="nonzero" fill-opacity="1" /><path clip-path="url(#clip560)" d="M2472.5 1620.85 L2472.5 1624.88 Q2470.7 1623.95 2468.75 1623.49 Q2466.81 1623.03 2464.73 1623.03 Q2461.55 1623.03 2459.96 1624 Q2458.38 1624.97 2458.38 1626.92 Q2458.38 1628.4 2459.52 1629.25 Q2460.65 1630.09 2464.08 1630.85 L2465.54 1631.17 Q2470.07 1632.15 2471.97 1633.93 Q2473.89 1635.69 2473.89 1638.86 Q2473.89 1642.47 2471.02 1644.58 Q2468.17 1646.68 2463.17 1646.68 Q2461.09 1646.68 2458.82 1646.27 Q2456.58 1645.87 2454.08 1645.06 L2454.08 1640.67 Q2456.44 1641.89 2458.73 1642.52 Q2461.02 1643.12 2463.27 1643.12 Q2466.28 1643.12 2467.9 1642.1 Q2469.52 1641.06 2469.52 1639.18 Q2469.52 1637.45 2468.34 1636.52 Q2467.18 1635.6 2463.22 1634.74 L2461.74 1634.39 Q2457.78 1633.56 2456.02 1631.85 Q2454.26 1630.11 2454.26 1627.1 Q2454.26 1623.44 2456.85 1621.45 Q2459.45 1619.46 2464.22 1619.46 Q2466.58 1619.46 2468.66 1619.81 Q2470.74 1620.16 2472.5 1620.85 Z" fill="#000000" fill-rule="nonzero" fill-opacity="1" /></svg>
