<?xml version="1.0" encoding="utf-8"?>
<svg xmlns="http://www.w3.org/2000/svg" xmlns:xlink="http://www.w3.org/1999/xlink" width="672" height="480" viewBox="0 0 2688 1920">
<defs>
  <clipPath id="clip440">
    <rect x="0" y="0" width="2688" height="1920"/>
  </clipPath>
</defs>
<path clip-path="url(#clip440)" d="M0 1920 L2688 1920 L2688 -4.26326e-14 L0 -4.26326e-14  Z" fill="#ffffff" fill-rule="evenodd" fill-opacity="1"/>
<defs>
  <clipPath id="clip441">
    <rect x="240" y="127" width="2401" height="1607"/>
  </clipPath>
</defs>
<path clip-path="url(#clip440)" d="M240.4 1734.12 L2640.76 1734.12 L2640.76 127.792 L240.4 127.792  Z" fill="#ffffff" fill-rule="evenodd" fill-opacity="1"/>
<polyline clip-path="url(#clip441)" style="stroke:#000000; stroke-linecap:round; stroke-linejoin:round; stroke-width:2; stroke-opacity:0.3; fill:none" points="685.749,1734.12 685.749,127.792 "/>
<polyline clip-path="url(#clip441)" style="stroke:#000000; stroke-linecap:round; stroke-linejoin:round; stroke-width:2; stroke-opacity:0.3; fill:none" points="1157.52,1734.12 1157.52,127.792 "/>
<polyline clip-path="url(#clip441)" style="stroke:#000000; stroke-linecap:round; stroke-linejoin:round; stroke-width:2; stroke-opacity:0.3; fill:none" points="1629.29,1734.12 1629.29,127.792 "/>
<polyline clip-path="url(#clip441)" style="stroke:#000000; stroke-linecap:round; stroke-linejoin:round; stroke-width:2; stroke-opacity:0.3; fill:none" points="2101.05,1734.12 2101.05,127.792 "/>
<polyline clip-path="url(#clip441)" style="stroke:#000000; stroke-linecap:round; stroke-linejoin:round; stroke-width:2; stroke-opacity:0.3; fill:none" points="2572.82,1734.12 2572.82,127.792 "/>
<polyline clip-path="url(#clip441)" style="stroke:#000000; stroke-linecap:round; stroke-linejoin:round; stroke-width:2; stroke-opacity:0.3; fill:none" points="240.4,1701.72 2640.76,1701.72 "/>
<polyline clip-path="url(#clip441)" style="stroke:#000000; stroke-linecap:round; stroke-linejoin:round; stroke-width:2; stroke-opacity:0.3; fill:none" points="240.4,1266.26 2640.76,1266.26 "/>
<polyline clip-path="url(#clip441)" style="stroke:#000000; stroke-linecap:round; stroke-linejoin:round; stroke-width:2; stroke-opacity:0.3; fill:none" points="240.4,830.799 2640.76,830.799 "/>
<polyline clip-path="url(#clip441)" style="stroke:#000000; stroke-linecap:round; stroke-linejoin:round; stroke-width:2; stroke-opacity:0.3; fill:none" points="240.4,395.339 2640.76,395.339 "/>
<polyline clip-path="url(#clip440)" style="stroke:#000000; stroke-linecap:round; stroke-linejoin:round; stroke-width:4; stroke-opacity:1; fill:none" points="240.4,1734.12 2640.76,1734.12 "/>
<polyline clip-path="url(#clip440)" style="stroke:#000000; stroke-linecap:round; stroke-linejoin:round; stroke-width:4; stroke-opacity:1; fill:none" points="685.749,1734.12 685.749,1715.22 "/>
<polyline clip-path="url(#clip440)" style="stroke:#000000; stroke-linecap:round; stroke-linejoin:round; stroke-width:4; stroke-opacity:1; fill:none" points="1157.52,1734.12 1157.52,1715.22 "/>
<polyline clip-path="url(#clip440)" style="stroke:#000000; stroke-linecap:round; stroke-linejoin:round; stroke-width:4; stroke-opacity:1; fill:none" points="1629.29,1734.12 1629.29,1715.22 "/>
<polyline clip-path="url(#clip440)" style="stroke:#000000; stroke-linecap:round; stroke-linejoin:round; stroke-width:4; stroke-opacity:1; fill:none" points="2101.05,1734.12 2101.05,1715.22 "/>
<polyline clip-path="url(#clip440)" style="stroke:#000000; stroke-linecap:round; stroke-linejoin:round; stroke-width:4; stroke-opacity:1; fill:none" points="2572.82,1734.12 2572.82,1715.22 "/>
<path clip-path="url(#clip440)" d="M676.027 1764.26 L694.383 1764.26 L694.383 1768.2 L680.309 1768.2 L680.309 1776.67 Q681.328 1776.32 682.346 1776.16 Q683.365 1775.97 684.383 1775.97 Q690.17 1775.97 693.55 1779.15 Q696.929 1782.32 696.929 1787.73 Q696.929 1793.31 693.457 1796.41 Q689.985 1799.49 683.666 1799.49 Q681.49 1799.49 679.221 1799.12 Q676.976 1798.75 674.568 1798.01 L674.568 1793.31 Q676.652 1794.45 678.874 1795 Q681.096 1795.56 683.573 1795.56 Q687.578 1795.56 689.915 1793.45 Q692.253 1791.34 692.253 1787.73 Q692.253 1784.12 689.915 1782.02 Q687.578 1779.91 683.573 1779.91 Q681.698 1779.91 679.823 1780.33 Q677.971 1780.74 676.027 1781.62 L676.027 1764.26 Z" fill="#000000" fill-rule="nonzero" fill-opacity="1" /><path clip-path="url(#clip440)" d="M1132.2 1794.89 L1139.84 1794.89 L1139.84 1768.52 L1131.53 1770.19 L1131.53 1765.93 L1139.8 1764.26 L1144.47 1764.26 L1144.47 1794.89 L1152.11 1794.89 L1152.11 1798.82 L1132.2 1798.82 L1132.2 1794.89 Z" fill="#000000" fill-rule="nonzero" fill-opacity="1" /><path clip-path="url(#clip440)" d="M1171.56 1767.34 Q1167.95 1767.34 1166.12 1770.9 Q1164.31 1774.45 1164.31 1781.58 Q1164.31 1788.68 1166.12 1792.25 Q1167.95 1795.79 1171.56 1795.79 Q1175.19 1795.79 1177 1792.25 Q1178.82 1788.68 1178.82 1781.58 Q1178.82 1774.45 1177 1770.9 Q1175.19 1767.34 1171.56 1767.34 M1171.56 1763.64 Q1177.37 1763.64 1180.42 1768.24 Q1183.5 1772.83 1183.5 1781.58 Q1183.5 1790.3 1180.42 1794.91 Q1177.37 1799.49 1171.56 1799.49 Q1165.75 1799.49 1162.67 1794.91 Q1159.61 1790.3 1159.61 1781.58 Q1159.61 1772.83 1162.67 1768.24 Q1165.75 1763.64 1171.56 1763.64 Z" fill="#000000" fill-rule="nonzero" fill-opacity="1" /><path clip-path="url(#clip440)" d="M1604.47 1794.89 L1612.11 1794.89 L1612.11 1768.52 L1603.8 1770.19 L1603.8 1765.93 L1612.06 1764.26 L1616.74 1764.26 L1616.74 1794.89 L1624.38 1794.89 L1624.38 1798.82 L1604.47 1798.82 L1604.47 1794.89 Z" fill="#000000" fill-rule="nonzero" fill-opacity="1" /><path clip-path="url(#clip440)" d="M1633.87 1764.26 L1652.22 1764.26 L1652.22 1768.2 L1638.15 1768.2 L1638.15 1776.67 Q1639.17 1776.32 1640.19 1776.16 Q1641.21 1775.97 1642.22 1775.97 Q1648.01 1775.97 1651.39 1779.15 Q1654.77 1782.32 1654.77 1787.73 Q1654.77 1793.31 1651.3 1796.41 Q1647.83 1799.49 1641.51 1799.49 Q1639.33 1799.49 1637.06 1799.12 Q1634.82 1798.75 1632.41 1798.01 L1632.41 1793.31 Q1634.49 1794.45 1636.72 1795 Q1638.94 1795.56 1641.41 1795.56 Q1645.42 1795.56 1647.76 1793.45 Q1650.1 1791.34 1650.1 1787.73 Q1650.1 1784.12 1647.76 1782.02 Q1645.42 1779.91 1641.41 1779.91 Q1639.54 1779.91 1637.66 1780.33 Q1635.81 1780.74 1633.87 1781.62 L1633.87 1764.26 Z" fill="#000000" fill-rule="nonzero" fill-opacity="1" /><path clip-path="url(#clip440)" d="M2079.83 1794.89 L2096.15 1794.89 L2096.15 1798.82 L2074.2 1798.82 L2074.2 1794.89 Q2076.86 1792.13 2081.45 1787.5 Q2086.05 1782.85 2087.23 1781.51 Q2089.48 1778.98 2090.36 1777.25 Q2091.26 1775.49 2091.26 1773.8 Q2091.26 1771.04 2089.32 1769.31 Q2087.4 1767.57 2084.29 1767.57 Q2082.09 1767.57 2079.64 1768.34 Q2077.21 1769.1 2074.43 1770.65 L2074.43 1765.93 Q2077.26 1764.79 2079.71 1764.21 Q2082.16 1763.64 2084.2 1763.64 Q2089.57 1763.64 2092.77 1766.32 Q2095.96 1769.01 2095.96 1773.5 Q2095.96 1775.63 2095.15 1777.55 Q2094.36 1779.45 2092.26 1782.04 Q2091.68 1782.71 2088.58 1785.93 Q2085.47 1789.12 2079.83 1794.89 Z" fill="#000000" fill-rule="nonzero" fill-opacity="1" /><path clip-path="url(#clip440)" d="M2115.96 1767.34 Q2112.35 1767.34 2110.52 1770.9 Q2108.72 1774.45 2108.72 1781.58 Q2108.72 1788.68 2110.52 1792.25 Q2112.35 1795.79 2115.96 1795.79 Q2119.59 1795.79 2121.4 1792.25 Q2123.23 1788.68 2123.23 1781.58 Q2123.23 1774.45 2121.4 1770.9 Q2119.59 1767.34 2115.96 1767.34 M2115.96 1763.64 Q2121.77 1763.64 2124.83 1768.24 Q2127.9 1772.83 2127.9 1781.58 Q2127.9 1790.3 2124.83 1794.91 Q2121.77 1799.49 2115.96 1799.49 Q2110.15 1799.49 2107.07 1794.91 Q2104.02 1790.3 2104.02 1781.58 Q2104.02 1772.83 2107.07 1768.24 Q2110.15 1763.64 2115.96 1763.64 Z" fill="#000000" fill-rule="nonzero" fill-opacity="1" /><path clip-path="url(#clip440)" d="M2552.09 1794.89 L2568.41 1794.89 L2568.41 1798.82 L2546.47 1798.82 L2546.47 1794.89 Q2549.13 1792.13 2553.71 1787.5 Q2558.32 1782.85 2559.5 1781.51 Q2561.74 1778.98 2562.62 1777.25 Q2563.53 1775.49 2563.53 1773.8 Q2563.53 1771.04 2561.58 1769.31 Q2559.66 1767.57 2556.56 1767.57 Q2554.36 1767.57 2551.91 1768.34 Q2549.48 1769.1 2546.7 1770.65 L2546.7 1765.93 Q2549.52 1764.79 2551.98 1764.21 Q2554.43 1763.64 2556.47 1763.64 Q2561.84 1763.64 2565.03 1766.32 Q2568.23 1769.01 2568.23 1773.5 Q2568.23 1775.63 2567.42 1777.55 Q2566.63 1779.45 2564.52 1782.04 Q2563.94 1782.71 2560.84 1785.93 Q2557.74 1789.12 2552.09 1794.89 Z" fill="#000000" fill-rule="nonzero" fill-opacity="1" /><path clip-path="url(#clip440)" d="M2578.27 1764.26 L2596.63 1764.26 L2596.63 1768.2 L2582.56 1768.2 L2582.56 1776.67 Q2583.57 1776.32 2584.59 1776.16 Q2585.61 1775.97 2586.63 1775.97 Q2592.42 1775.97 2595.8 1779.15 Q2599.18 1782.32 2599.18 1787.73 Q2599.18 1793.31 2595.7 1796.41 Q2592.23 1799.49 2585.91 1799.49 Q2583.74 1799.49 2581.47 1799.12 Q2579.22 1798.75 2576.81 1798.01 L2576.81 1793.31 Q2578.9 1794.45 2581.12 1795 Q2583.34 1795.56 2585.82 1795.56 Q2589.82 1795.56 2592.16 1793.45 Q2594.5 1791.34 2594.5 1787.73 Q2594.5 1784.12 2592.16 1782.02 Q2589.82 1779.91 2585.82 1779.91 Q2583.94 1779.91 2582.07 1780.33 Q2580.22 1780.74 2578.27 1781.62 L2578.27 1764.26 Z" fill="#000000" fill-rule="nonzero" fill-opacity="1" /><path clip-path="url(#clip440)" d="M963.823 1821.34 L972.481 1821.34 L993.551 1861.09 L993.551 1821.34 L999.789 1821.34 L999.789 1868.86 L991.132 1868.86 L970.062 1829.11 L970.062 1868.86 L963.823 1868.86 L963.823 1821.34 Z" fill="#000000" fill-rule="nonzero" fill-opacity="1" /><path clip-path="url(#clip440)" d="M1011.73 1854.79 L1011.73 1833.21 L1017.58 1833.21 L1017.58 1854.57 Q1017.58 1859.63 1019.55 1862.17 Q1021.53 1864.69 1025.48 1864.69 Q1030.22 1864.69 1032.95 1861.67 Q1035.72 1858.64 1035.72 1853.42 L1035.72 1833.21 L1041.58 1833.21 L1041.58 1868.86 L1035.72 1868.86 L1035.72 1863.38 Q1033.59 1866.63 1030.76 1868.22 Q1027.96 1869.78 1024.23 1869.78 Q1018.09 1869.78 1014.91 1865.96 Q1011.73 1862.14 1011.73 1854.79 M1026.46 1832.35 L1026.46 1832.35 Z" fill="#000000" fill-rule="nonzero" fill-opacity="1" /><path clip-path="url(#clip440)" d="M1081.4 1840.05 Q1083.59 1836.11 1086.65 1834.23 Q1089.71 1832.35 1093.84 1832.35 Q1099.41 1832.35 1102.44 1836.27 Q1105.46 1840.15 1105.46 1847.34 L1105.46 1868.86 L1099.57 1868.86 L1099.57 1847.53 Q1099.57 1842.41 1097.76 1839.93 Q1095.94 1837.44 1092.22 1837.44 Q1087.67 1837.44 1085.03 1840.47 Q1082.38 1843.49 1082.38 1848.71 L1082.38 1868.86 L1076.5 1868.86 L1076.5 1847.53 Q1076.5 1842.38 1074.68 1839.93 Q1072.87 1837.44 1069.08 1837.44 Q1064.59 1837.44 1061.95 1840.5 Q1059.31 1843.52 1059.31 1848.71 L1059.31 1868.86 L1053.42 1868.86 L1053.42 1833.21 L1059.31 1833.21 L1059.31 1838.75 Q1061.31 1835.47 1064.11 1833.91 Q1066.92 1832.35 1070.77 1832.35 Q1074.65 1832.35 1077.36 1834.33 Q1080.09 1836.3 1081.4 1840.05 Z" fill="#000000" fill-rule="nonzero" fill-opacity="1" /><path clip-path="url(#clip440)" d="M1142.73 1851.07 Q1142.73 1844.61 1140.06 1840.95 Q1137.42 1837.25 1132.77 1837.25 Q1128.12 1837.25 1125.45 1840.95 Q1122.81 1844.61 1122.81 1851.07 Q1122.81 1857.53 1125.45 1861.22 Q1128.12 1864.88 1132.77 1864.88 Q1137.42 1864.88 1140.06 1861.22 Q1142.73 1857.53 1142.73 1851.07 M1122.81 1838.62 Q1124.65 1835.44 1127.45 1833.91 Q1130.29 1832.35 1134.2 1832.35 Q1140.69 1832.35 1144.74 1837.51 Q1148.81 1842.66 1148.81 1851.07 Q1148.81 1859.47 1144.74 1864.63 Q1140.69 1869.78 1134.2 1869.78 Q1130.29 1869.78 1127.45 1868.25 Q1124.65 1866.69 1122.81 1863.51 L1122.81 1868.86 L1116.92 1868.86 L1116.92 1819.33 L1122.81 1819.33 L1122.81 1838.62 Z" fill="#000000" fill-rule="nonzero" fill-opacity="1" /><path clip-path="url(#clip440)" d="M1189.01 1849.57 L1189.01 1852.44 L1162.08 1852.44 Q1162.47 1858.48 1165.71 1861.67 Q1168.99 1864.82 1174.81 1864.82 Q1178.19 1864.82 1181.34 1863.99 Q1184.52 1863.16 1187.64 1861.51 L1187.64 1867.04 Q1184.49 1868.38 1181.18 1869.08 Q1177.87 1869.78 1174.46 1869.78 Q1165.93 1869.78 1160.94 1864.82 Q1155.97 1859.85 1155.97 1851.39 Q1155.97 1842.63 1160.68 1837.51 Q1165.43 1832.35 1173.45 1832.35 Q1180.64 1832.35 1184.81 1837 Q1189.01 1841.61 1189.01 1849.57 M1183.15 1847.85 Q1183.09 1843.05 1180.45 1840.18 Q1177.84 1837.32 1173.51 1837.32 Q1168.61 1837.32 1165.65 1840.09 Q1162.72 1842.86 1162.27 1847.88 L1183.15 1847.85 Z" fill="#000000" fill-rule="nonzero" fill-opacity="1" /><path clip-path="url(#clip440)" d="M1219.28 1838.69 Q1218.29 1838.11 1217.11 1837.86 Q1215.97 1837.57 1214.57 1837.57 Q1209.6 1837.57 1206.93 1840.82 Q1204.29 1844.03 1204.29 1850.08 L1204.29 1868.86 L1198.4 1868.86 L1198.4 1833.21 L1204.29 1833.21 L1204.29 1838.75 Q1206.13 1835.5 1209.09 1833.94 Q1212.05 1832.35 1216.29 1832.35 Q1216.89 1832.35 1217.62 1832.45 Q1218.36 1832.51 1219.25 1832.67 L1219.28 1838.69 Z" fill="#000000" fill-rule="nonzero" fill-opacity="1" /><path clip-path="url(#clip440)" d="M1259.96 1837.32 Q1255.25 1837.32 1252.51 1841.01 Q1249.77 1844.67 1249.77 1851.07 Q1249.77 1857.46 1252.48 1861.16 Q1255.21 1864.82 1259.96 1864.82 Q1264.63 1864.82 1267.37 1861.12 Q1270.11 1857.43 1270.11 1851.07 Q1270.11 1844.73 1267.37 1841.04 Q1264.63 1837.32 1259.96 1837.32 M1259.96 1832.35 Q1267.59 1832.35 1271.96 1837.32 Q1276.32 1842.28 1276.32 1851.07 Q1276.32 1859.82 1271.96 1864.82 Q1267.59 1869.78 1259.96 1869.78 Q1252.29 1869.78 1247.92 1864.82 Q1243.6 1859.82 1243.6 1851.07 Q1243.6 1842.28 1247.92 1837.32 Q1252.29 1832.35 1259.96 1832.35 Z" fill="#000000" fill-rule="nonzero" fill-opacity="1" /><path clip-path="url(#clip440)" d="M1304.07 1819.33 L1304.07 1824.2 L1298.47 1824.2 Q1295.32 1824.2 1294.08 1825.48 Q1292.87 1826.75 1292.87 1830.06 L1292.87 1833.21 L1302.51 1833.21 L1302.51 1837.76 L1292.87 1837.76 L1292.87 1868.86 L1286.98 1868.86 L1286.98 1837.76 L1281.38 1837.76 L1281.38 1833.21 L1286.98 1833.21 L1286.98 1830.73 Q1286.98 1824.78 1289.75 1822.07 Q1292.52 1819.33 1298.53 1819.33 L1304.07 1819.33 Z" fill="#000000" fill-rule="nonzero" fill-opacity="1" /><path clip-path="url(#clip440)" d="M1353.15 1838.62 L1353.15 1819.33 L1359.01 1819.33 L1359.01 1868.86 L1353.15 1868.86 L1353.15 1863.51 Q1351.3 1866.69 1348.47 1868.25 Q1345.67 1869.78 1341.72 1869.78 Q1335.26 1869.78 1331.19 1864.63 Q1327.15 1859.47 1327.15 1851.07 Q1327.15 1842.66 1331.19 1837.51 Q1335.26 1832.35 1341.72 1832.35 Q1345.67 1832.35 1348.47 1833.91 Q1351.3 1835.44 1353.15 1838.62 M1333.19 1851.07 Q1333.19 1857.53 1335.84 1861.22 Q1338.51 1864.88 1343.16 1864.88 Q1347.8 1864.88 1350.48 1861.22 Q1353.15 1857.53 1353.15 1851.07 Q1353.15 1844.61 1350.48 1840.95 Q1347.8 1837.25 1343.16 1837.25 Q1338.51 1837.25 1335.84 1840.95 Q1333.19 1844.61 1333.19 1851.07 Z" fill="#000000" fill-rule="nonzero" fill-opacity="1" /><path clip-path="url(#clip440)" d="M1401.56 1849.57 L1401.56 1852.44 L1374.63 1852.44 Q1375.02 1858.48 1378.26 1861.67 Q1381.54 1864.82 1387.37 1864.82 Q1390.74 1864.82 1393.89 1863.99 Q1397.07 1863.16 1400.19 1861.51 L1400.19 1867.04 Q1397.04 1868.38 1393.73 1869.08 Q1390.42 1869.78 1387.02 1869.78 Q1378.49 1869.78 1373.49 1864.82 Q1368.52 1859.85 1368.52 1851.39 Q1368.52 1842.63 1373.23 1837.51 Q1377.98 1832.35 1386 1832.35 Q1393.19 1832.35 1397.36 1837 Q1401.56 1841.61 1401.56 1849.57 M1395.7 1847.85 Q1395.64 1843.05 1393 1840.18 Q1390.39 1837.32 1386.06 1837.32 Q1381.16 1837.32 1378.2 1840.09 Q1375.27 1842.86 1374.83 1847.88 L1395.7 1847.85 Z" fill="#000000" fill-rule="nonzero" fill-opacity="1" /><path clip-path="url(#clip440)" d="M1433.9 1834.26 L1433.9 1839.8 Q1431.42 1838.53 1428.74 1837.89 Q1426.07 1837.25 1423.2 1837.25 Q1418.84 1837.25 1416.65 1838.59 Q1414.48 1839.93 1414.48 1842.6 Q1414.48 1844.64 1416.04 1845.82 Q1417.6 1846.96 1422.31 1848.01 L1424.32 1848.46 Q1430.56 1849.79 1433.17 1852.24 Q1435.81 1854.66 1435.81 1859.02 Q1435.81 1863.99 1431.86 1866.89 Q1427.95 1869.78 1421.07 1869.78 Q1418.21 1869.78 1415.09 1869.21 Q1412 1868.67 1408.56 1867.55 L1408.56 1861.51 Q1411.81 1863.19 1414.96 1864.05 Q1418.11 1864.88 1421.2 1864.88 Q1425.34 1864.88 1427.56 1863.48 Q1429.79 1862.05 1429.79 1859.47 Q1429.79 1857.08 1428.17 1855.81 Q1426.58 1854.54 1421.14 1853.36 L1419.1 1852.88 Q1413.66 1851.74 1411.24 1849.38 Q1408.82 1846.99 1408.82 1842.86 Q1408.82 1837.83 1412.38 1835.09 Q1415.95 1832.35 1422.5 1832.35 Q1425.75 1832.35 1428.62 1832.83 Q1431.48 1833.31 1433.9 1834.26 Z" fill="#000000" fill-rule="nonzero" fill-opacity="1" /><path clip-path="url(#clip440)" d="M1445.13 1833.21 L1450.99 1833.21 L1450.99 1868.86 L1445.13 1868.86 L1445.13 1833.21 M1445.13 1819.33 L1450.99 1819.33 L1450.99 1826.75 L1445.13 1826.75 L1445.13 1819.33 Z" fill="#000000" fill-rule="nonzero" fill-opacity="1" /><path clip-path="url(#clip440)" d="M1486.7 1850.62 Q1486.7 1844.26 1484.06 1840.75 Q1481.45 1837.25 1476.71 1837.25 Q1472 1837.25 1469.36 1840.75 Q1466.75 1844.26 1466.75 1850.62 Q1466.75 1856.96 1469.36 1860.46 Q1472 1863.96 1476.71 1863.96 Q1481.45 1863.96 1484.06 1860.46 Q1486.7 1856.96 1486.7 1850.62 M1492.56 1864.43 Q1492.56 1873.54 1488.52 1877.96 Q1484.47 1882.42 1476.14 1882.42 Q1473.05 1882.42 1470.31 1881.94 Q1467.57 1881.49 1465 1880.54 L1465 1874.84 Q1467.57 1876.24 1470.09 1876.91 Q1472.6 1877.58 1475.21 1877.58 Q1480.97 1877.58 1483.84 1874.56 Q1486.7 1871.56 1486.7 1865.49 L1486.7 1862.59 Q1484.89 1865.74 1482.06 1867.3 Q1479.22 1868.86 1475.28 1868.86 Q1468.72 1868.86 1464.71 1863.86 Q1460.7 1858.86 1460.7 1850.62 Q1460.7 1842.35 1464.71 1837.35 Q1468.72 1832.35 1475.28 1832.35 Q1479.22 1832.35 1482.06 1833.91 Q1484.89 1835.47 1486.7 1838.62 L1486.7 1833.21 L1492.56 1833.21 L1492.56 1864.43 Z" fill="#000000" fill-rule="nonzero" fill-opacity="1" /><path clip-path="url(#clip440)" d="M1534.25 1847.34 L1534.25 1868.86 L1528.4 1868.86 L1528.4 1847.53 Q1528.4 1842.47 1526.42 1839.96 Q1524.45 1837.44 1520.5 1837.44 Q1515.76 1837.44 1513.02 1840.47 Q1510.29 1843.49 1510.29 1848.71 L1510.29 1868.86 L1504.4 1868.86 L1504.4 1833.21 L1510.29 1833.21 L1510.29 1838.75 Q1512.39 1835.53 1515.22 1833.94 Q1518.09 1832.35 1521.81 1832.35 Q1527.95 1832.35 1531.1 1836.17 Q1534.25 1839.96 1534.25 1847.34 Z" fill="#000000" fill-rule="nonzero" fill-opacity="1" /><path clip-path="url(#clip440)" d="M1562.45 1833.21 L1568.66 1833.21 L1579.8 1863.13 L1590.94 1833.21 L1597.15 1833.21 L1583.78 1868.86 L1575.82 1868.86 L1562.45 1833.21 Z" fill="#000000" fill-rule="nonzero" fill-opacity="1" /><path clip-path="url(#clip440)" d="M1621.43 1850.94 Q1614.33 1850.94 1611.6 1852.56 Q1608.86 1854.19 1608.86 1858.1 Q1608.86 1861.22 1610.9 1863.07 Q1612.97 1864.88 1616.5 1864.88 Q1621.37 1864.88 1624.3 1861.44 Q1627.26 1857.97 1627.26 1852.24 L1627.26 1850.94 L1621.43 1850.94 M1633.11 1848.52 L1633.11 1868.86 L1627.26 1868.86 L1627.26 1863.45 Q1625.25 1866.69 1622.26 1868.25 Q1619.27 1869.78 1614.94 1869.78 Q1609.46 1869.78 1606.22 1866.73 Q1603 1863.64 1603 1858.48 Q1603 1852.47 1607.01 1849.41 Q1611.06 1846.36 1619.05 1846.36 L1627.26 1846.36 L1627.26 1845.78 Q1627.26 1841.74 1624.58 1839.54 Q1621.94 1837.32 1617.14 1837.32 Q1614.08 1837.32 1611.18 1838.05 Q1608.29 1838.78 1605.61 1840.25 L1605.61 1834.83 Q1608.83 1833.59 1611.85 1832.99 Q1614.88 1832.35 1617.74 1832.35 Q1625.47 1832.35 1629.29 1836.36 Q1633.11 1840.37 1633.11 1848.52 Z" fill="#000000" fill-rule="nonzero" fill-opacity="1" /><path clip-path="url(#clip440)" d="M1665.83 1838.69 Q1664.85 1838.11 1663.67 1837.86 Q1662.52 1837.57 1661.12 1837.57 Q1656.16 1837.57 1653.48 1840.82 Q1650.84 1844.03 1650.84 1850.08 L1650.84 1868.86 L1644.95 1868.86 L1644.95 1833.21 L1650.84 1833.21 L1650.84 1838.75 Q1652.69 1835.5 1655.65 1833.94 Q1658.61 1832.35 1662.84 1832.35 Q1663.45 1832.35 1664.18 1832.45 Q1664.91 1832.51 1665.8 1832.67 L1665.83 1838.69 Z" fill="#000000" fill-rule="nonzero" fill-opacity="1" /><path clip-path="url(#clip440)" d="M1671.98 1833.21 L1677.83 1833.21 L1677.83 1868.86 L1671.98 1868.86 L1671.98 1833.21 M1671.98 1819.33 L1677.83 1819.33 L1677.83 1826.75 L1671.98 1826.75 L1671.98 1819.33 Z" fill="#000000" fill-rule="nonzero" fill-opacity="1" /><path clip-path="url(#clip440)" d="M1706.29 1850.94 Q1699.19 1850.94 1696.45 1852.56 Q1693.72 1854.19 1693.72 1858.1 Q1693.72 1861.22 1695.75 1863.07 Q1697.82 1864.88 1701.35 1864.88 Q1706.22 1864.88 1709.15 1861.44 Q1712.11 1857.97 1712.11 1852.24 L1712.11 1850.94 L1706.29 1850.94 M1717.97 1848.52 L1717.97 1868.86 L1712.11 1868.86 L1712.11 1863.45 Q1710.11 1866.69 1707.11 1868.25 Q1704.12 1869.78 1699.79 1869.78 Q1694.32 1869.78 1691.07 1866.73 Q1687.86 1863.64 1687.86 1858.48 Q1687.86 1852.47 1691.87 1849.41 Q1695.91 1846.36 1703.9 1846.36 L1712.11 1846.36 L1712.11 1845.78 Q1712.11 1841.74 1709.44 1839.54 Q1706.8 1837.32 1701.99 1837.32 Q1698.93 1837.32 1696.04 1838.05 Q1693.14 1838.78 1690.47 1840.25 L1690.47 1834.83 Q1693.68 1833.59 1696.71 1832.99 Q1699.73 1832.35 1702.6 1832.35 Q1710.33 1832.35 1714.15 1836.36 Q1717.97 1840.37 1717.97 1848.52 Z" fill="#000000" fill-rule="nonzero" fill-opacity="1" /><path clip-path="url(#clip440)" d="M1755.62 1851.07 Q1755.62 1844.61 1752.95 1840.95 Q1750.31 1837.25 1745.66 1837.25 Q1741.01 1837.25 1738.34 1840.95 Q1735.7 1844.61 1735.7 1851.07 Q1735.7 1857.53 1738.34 1861.22 Q1741.01 1864.88 1745.66 1864.88 Q1750.31 1864.88 1752.95 1861.22 Q1755.62 1857.53 1755.62 1851.07 M1735.7 1838.62 Q1737.54 1835.44 1740.34 1833.91 Q1743.18 1832.35 1747.09 1832.35 Q1753.58 1832.35 1757.63 1837.51 Q1761.7 1842.66 1761.7 1851.07 Q1761.7 1859.47 1757.63 1864.63 Q1753.58 1869.78 1747.09 1869.78 Q1743.18 1869.78 1740.34 1868.25 Q1737.54 1866.69 1735.7 1863.51 L1735.7 1868.86 L1729.81 1868.86 L1729.81 1819.33 L1735.7 1819.33 L1735.7 1838.62 Z" fill="#000000" fill-rule="nonzero" fill-opacity="1" /><path clip-path="url(#clip440)" d="M1771.41 1819.33 L1777.27 1819.33 L1777.27 1868.86 L1771.41 1868.86 L1771.41 1819.33 Z" fill="#000000" fill-rule="nonzero" fill-opacity="1" /><path clip-path="url(#clip440)" d="M1820.01 1849.57 L1820.01 1852.44 L1793.08 1852.44 Q1793.47 1858.48 1796.71 1861.67 Q1799.99 1864.82 1805.82 1864.82 Q1809.19 1864.82 1812.34 1863.99 Q1815.52 1863.16 1818.64 1861.51 L1818.64 1867.04 Q1815.49 1868.38 1812.18 1869.08 Q1808.87 1869.78 1805.47 1869.78 Q1796.94 1869.78 1791.94 1864.82 Q1786.97 1859.85 1786.97 1851.39 Q1786.97 1842.63 1791.68 1837.51 Q1796.43 1832.35 1804.45 1832.35 Q1811.64 1832.35 1815.81 1837 Q1820.01 1841.61 1820.01 1849.57 M1814.15 1847.85 Q1814.09 1843.05 1811.45 1840.18 Q1808.84 1837.32 1804.51 1837.32 Q1799.61 1837.32 1796.65 1840.09 Q1793.72 1842.86 1793.27 1847.88 L1814.15 1847.85 Z" fill="#000000" fill-rule="nonzero" fill-opacity="1" /><path clip-path="url(#clip440)" d="M1852.35 1834.26 L1852.35 1839.8 Q1849.87 1838.53 1847.19 1837.89 Q1844.52 1837.25 1841.65 1837.25 Q1837.29 1837.25 1835.1 1838.59 Q1832.93 1839.93 1832.93 1842.6 Q1832.93 1844.64 1834.49 1845.82 Q1836.05 1846.96 1840.76 1848.01 L1842.77 1848.46 Q1849.01 1849.79 1851.62 1852.24 Q1854.26 1854.66 1854.26 1859.02 Q1854.26 1863.99 1850.31 1866.89 Q1846.4 1869.78 1839.52 1869.78 Q1836.66 1869.78 1833.54 1869.21 Q1830.45 1868.67 1827.01 1867.55 L1827.01 1861.51 Q1830.26 1863.19 1833.41 1864.05 Q1836.56 1864.88 1839.65 1864.88 Q1843.79 1864.88 1846.01 1863.48 Q1848.24 1862.05 1848.24 1859.47 Q1848.24 1857.08 1846.62 1855.81 Q1845.03 1854.54 1839.59 1853.36 L1837.55 1852.88 Q1832.11 1851.74 1829.69 1849.38 Q1827.27 1846.99 1827.27 1842.86 Q1827.27 1837.83 1830.83 1835.09 Q1834.4 1832.35 1840.95 1832.35 Q1844.2 1832.35 1847.06 1832.83 Q1849.93 1833.31 1852.35 1834.26 Z" fill="#000000" fill-rule="nonzero" fill-opacity="1" /><path clip-path="url(#clip440)" d="M1913.91 1859.42 Q1913.91 1859.68 1913.62 1860.68 Q1913.33 1861.68 1912.62 1863.22 Q1911.95 1864.77 1911.01 1866.19 Q1910.08 1867.57 1908.53 1868.6 Q1907.02 1869.6 1905.28 1869.6 Q1902.96 1869.6 1901.41 1868.05 Q1899.87 1866.51 1899.87 1864.19 Q1899.87 1862.9 1900.54 1861.13 Q1904.83 1849.7 1904.83 1845.77 Q1904.83 1841.16 1901.25 1841.16 Q1899.48 1841.16 1897.81 1841.84 Q1896.16 1842.48 1895.04 1843.38 Q1893.91 1844.29 1892.88 1845.54 Q1891.88 1846.77 1891.37 1847.6 Q1890.88 1848.41 1890.5 1849.21 L1889.66 1852.5 Q1889.47 1853.4 1888.53 1856.91 L1887.08 1862.87 Q1886.05 1867.31 1885.83 1867.73 Q1885.5 1868.63 1884.8 1869.12 Q1884.09 1869.6 1883.38 1869.6 Q1882.57 1869.6 1882.03 1869.12 Q1881.48 1868.63 1881.48 1867.8 Q1881.48 1867.67 1881.58 1867.18 Q1881.67 1866.7 1881.83 1866.02 Q1881.99 1865.35 1882.06 1864.96 L1885.89 1849.73 Q1886.6 1846.96 1886.76 1846.09 Q1886.95 1845.19 1886.95 1844.19 Q1886.95 1841.16 1884.89 1841.16 Q1883.22 1841.16 1882.12 1843.16 Q1881.03 1845.16 1880.09 1849.02 Q1879.8 1850.08 1879.61 1850.31 Q1879.45 1850.53 1878.97 1850.53 Q1878.16 1850.5 1878.16 1849.86 Q1878.16 1849.7 1878.42 1848.63 Q1878.68 1847.57 1879.16 1846.06 Q1879.68 1844.51 1880.16 1843.48 Q1880.58 1842.71 1880.8 1842.35 Q1881.06 1841.97 1881.67 1841.23 Q1882.32 1840.45 1883.15 1840.1 Q1884.02 1839.71 1885.09 1839.71 Q1887.47 1839.71 1889.21 1841.26 Q1890.95 1842.77 1891.17 1845.45 Q1895.46 1839.71 1901.45 1839.71 Q1904.99 1839.71 1907.02 1841.58 Q1909.05 1843.45 1909.05 1846.77 Q1909.05 1847.54 1908.89 1848.54 Q1908.76 1849.5 1908.43 1850.73 Q1908.15 1851.95 1907.89 1852.88 Q1907.63 1853.82 1907.11 1855.33 Q1906.6 1856.81 1906.37 1857.46 Q1906.15 1858.1 1905.6 1859.62 Q1905.09 1861.1 1905.02 1861.26 Q1903.83 1864.25 1903.83 1865.96 Q1903.83 1867.09 1904.18 1867.6 Q1904.57 1868.12 1905.41 1868.12 Q1907.66 1868.12 1909.34 1865.9 Q1911.04 1863.64 1912.14 1859.97 Q1912.4 1859.17 1912.53 1858.97 Q1912.69 1858.78 1913.14 1858.78 Q1913.91 1858.78 1913.91 1859.42 Z" fill="#000000" fill-rule="nonzero" fill-opacity="1" /><polyline clip-path="url(#clip440)" style="stroke:#000000; stroke-linecap:round; stroke-linejoin:round; stroke-width:4; stroke-opacity:1; fill:none" points="240.4,1734.12 240.4,127.792 "/>
<polyline clip-path="url(#clip440)" style="stroke:#000000; stroke-linecap:round; stroke-linejoin:round; stroke-width:4; stroke-opacity:1; fill:none" points="240.4,1701.72 259.297,1701.72 "/>
<polyline clip-path="url(#clip440)" style="stroke:#000000; stroke-linecap:round; stroke-linejoin:round; stroke-width:4; stroke-opacity:1; fill:none" points="240.4,1266.26 259.297,1266.26 "/>
<polyline clip-path="url(#clip440)" style="stroke:#000000; stroke-linecap:round; stroke-linejoin:round; stroke-width:4; stroke-opacity:1; fill:none" points="240.4,830.799 259.297,830.799 "/>
<polyline clip-path="url(#clip440)" style="stroke:#000000; stroke-linecap:round; stroke-linejoin:round; stroke-width:4; stroke-opacity:1; fill:none" points="240.4,395.339 259.297,395.339 "/>
<path clip-path="url(#clip440)" d="M188.135 1687.52 Q184.524 1687.52 182.696 1691.08 Q180.89 1694.62 180.89 1701.75 Q180.89 1708.86 182.696 1712.42 Q184.524 1715.97 188.135 1715.97 Q191.77 1715.97 193.575 1712.42 Q195.404 1708.86 195.404 1701.75 Q195.404 1694.62 193.575 1691.08 Q191.77 1687.52 188.135 1687.52 M188.135 1683.81 Q193.946 1683.81 197.001 1688.42 Q200.08 1693 200.08 1701.75 Q200.08 1710.48 197.001 1715.09 Q193.946 1719.67 188.135 1719.67 Q182.325 1719.67 179.247 1715.09 Q176.191 1710.48 176.191 1701.75 Q176.191 1693 179.247 1688.42 Q182.325 1683.81 188.135 1683.81 Z" fill="#000000" fill-rule="nonzero" fill-opacity="1" /><path clip-path="url(#clip440)" d="M118.622 1279.6 L126.261 1279.6 L126.261 1253.24 L117.951 1254.9 L117.951 1250.65 L126.214 1248.98 L130.89 1248.98 L130.89 1279.6 L138.529 1279.6 L138.529 1283.54 L118.622 1283.54 L118.622 1279.6 Z" fill="#000000" fill-rule="nonzero" fill-opacity="1" /><path clip-path="url(#clip440)" d="M157.973 1252.06 Q154.362 1252.06 152.534 1255.62 Q150.728 1259.16 150.728 1266.29 Q150.728 1273.4 152.534 1276.96 Q154.362 1280.51 157.973 1280.51 Q161.608 1280.51 163.413 1276.96 Q165.242 1273.4 165.242 1266.29 Q165.242 1259.16 163.413 1255.62 Q161.608 1252.06 157.973 1252.06 M157.973 1248.35 Q163.784 1248.35 166.839 1252.96 Q169.918 1257.54 169.918 1266.29 Q169.918 1275.02 166.839 1279.63 Q163.784 1284.21 157.973 1284.21 Q152.163 1284.21 149.085 1279.63 Q146.029 1275.02 146.029 1266.29 Q146.029 1257.54 149.085 1252.96 Q152.163 1248.35 157.973 1248.35 Z" fill="#000000" fill-rule="nonzero" fill-opacity="1" /><path clip-path="url(#clip440)" d="M188.135 1252.06 Q184.524 1252.06 182.696 1255.62 Q180.89 1259.16 180.89 1266.29 Q180.89 1273.4 182.696 1276.96 Q184.524 1280.51 188.135 1280.51 Q191.77 1280.51 193.575 1276.96 Q195.404 1273.4 195.404 1266.29 Q195.404 1259.16 193.575 1255.62 Q191.77 1252.06 188.135 1252.06 M188.135 1248.35 Q193.946 1248.35 197.001 1252.96 Q200.08 1257.54 200.08 1266.29 Q200.08 1275.02 197.001 1279.63 Q193.946 1284.21 188.135 1284.21 Q182.325 1284.21 179.247 1279.63 Q176.191 1275.02 176.191 1266.29 Q176.191 1257.54 179.247 1252.96 Q182.325 1248.35 188.135 1248.35 Z" fill="#000000" fill-rule="nonzero" fill-opacity="1" /><path clip-path="url(#clip440)" d="M121.839 844.144 L138.159 844.144 L138.159 848.079 L116.214 848.079 L116.214 844.144 Q118.876 841.389 123.46 836.759 Q128.066 832.107 129.247 830.764 Q131.492 828.241 132.372 826.505 Q133.275 824.746 133.275 823.056 Q133.275 820.301 131.33 818.565 Q129.409 816.829 126.307 816.829 Q124.108 816.829 121.654 817.593 Q119.224 818.357 116.446 819.908 L116.446 815.185 Q119.27 814.051 121.724 813.472 Q124.177 812.894 126.214 812.894 Q131.585 812.894 134.779 815.579 Q137.974 818.264 137.974 822.755 Q137.974 824.884 137.163 826.806 Q136.376 828.704 134.27 831.296 Q133.691 831.968 130.589 835.185 Q127.488 838.38 121.839 844.144 Z" fill="#000000" fill-rule="nonzero" fill-opacity="1" /><path clip-path="url(#clip440)" d="M157.973 816.597 Q154.362 816.597 152.534 820.162 Q150.728 823.704 150.728 830.833 Q150.728 837.94 152.534 841.505 Q154.362 845.046 157.973 845.046 Q161.608 845.046 163.413 841.505 Q165.242 837.94 165.242 830.833 Q165.242 823.704 163.413 820.162 Q161.608 816.597 157.973 816.597 M157.973 812.894 Q163.784 812.894 166.839 817.5 Q169.918 822.084 169.918 830.833 Q169.918 839.56 166.839 844.167 Q163.784 848.75 157.973 848.75 Q152.163 848.75 149.085 844.167 Q146.029 839.56 146.029 830.833 Q146.029 822.084 149.085 817.5 Q152.163 812.894 157.973 812.894 Z" fill="#000000" fill-rule="nonzero" fill-opacity="1" /><path clip-path="url(#clip440)" d="M188.135 816.597 Q184.524 816.597 182.696 820.162 Q180.89 823.704 180.89 830.833 Q180.89 837.94 182.696 841.505 Q184.524 845.046 188.135 845.046 Q191.77 845.046 193.575 841.505 Q195.404 837.94 195.404 830.833 Q195.404 823.704 193.575 820.162 Q191.77 816.597 188.135 816.597 M188.135 812.894 Q193.946 812.894 197.001 817.5 Q200.08 822.084 200.08 830.833 Q200.08 839.56 197.001 844.167 Q193.946 848.75 188.135 848.75 Q182.325 848.75 179.247 844.167 Q176.191 839.56 176.191 830.833 Q176.191 822.084 179.247 817.5 Q182.325 812.894 188.135 812.894 Z" fill="#000000" fill-rule="nonzero" fill-opacity="1" /><path clip-path="url(#clip440)" d="M131.978 393.985 Q135.335 394.702 137.21 396.971 Q139.108 399.239 139.108 402.573 Q139.108 407.688 135.589 410.489 Q132.071 413.29 125.589 413.29 Q123.413 413.29 121.099 412.85 Q118.807 412.434 116.353 411.577 L116.353 407.063 Q118.298 408.197 120.613 408.776 Q122.927 409.355 125.451 409.355 Q129.849 409.355 132.14 407.619 Q134.455 405.883 134.455 402.573 Q134.455 399.517 132.302 397.804 Q130.173 396.068 126.353 396.068 L122.326 396.068 L122.326 392.225 L126.538 392.225 Q129.988 392.225 131.816 390.86 Q133.645 389.471 133.645 386.878 Q133.645 384.216 131.747 382.804 Q129.872 381.369 126.353 381.369 Q124.432 381.369 122.233 381.786 Q120.034 382.202 117.395 383.082 L117.395 378.915 Q120.057 378.174 122.372 377.804 Q124.71 377.434 126.77 377.434 Q132.094 377.434 135.196 379.864 Q138.298 382.272 138.298 386.392 Q138.298 389.262 136.654 391.253 Q135.011 393.221 131.978 393.985 Z" fill="#000000" fill-rule="nonzero" fill-opacity="1" /><path clip-path="url(#clip440)" d="M157.973 381.137 Q154.362 381.137 152.534 384.702 Q150.728 388.244 150.728 395.373 Q150.728 402.48 152.534 406.045 Q154.362 409.586 157.973 409.586 Q161.608 409.586 163.413 406.045 Q165.242 402.48 165.242 395.373 Q165.242 388.244 163.413 384.702 Q161.608 381.137 157.973 381.137 M157.973 377.434 Q163.784 377.434 166.839 382.04 Q169.918 386.624 169.918 395.373 Q169.918 404.1 166.839 408.707 Q163.784 413.29 157.973 413.29 Q152.163 413.29 149.085 408.707 Q146.029 404.1 146.029 395.373 Q146.029 386.624 149.085 382.04 Q152.163 377.434 157.973 377.434 Z" fill="#000000" fill-rule="nonzero" fill-opacity="1" /><path clip-path="url(#clip440)" d="M188.135 381.137 Q184.524 381.137 182.696 384.702 Q180.89 388.244 180.89 395.373 Q180.89 402.48 182.696 406.045 Q184.524 409.586 188.135 409.586 Q191.77 409.586 193.575 406.045 Q195.404 402.48 195.404 395.373 Q195.404 388.244 193.575 384.702 Q191.77 381.137 188.135 381.137 M188.135 377.434 Q193.946 377.434 197.001 382.04 Q200.08 386.624 200.08 395.373 Q200.08 404.1 197.001 408.707 Q193.946 413.29 188.135 413.29 Q182.325 413.29 179.247 408.707 Q176.191 404.1 176.191 395.373 Q176.191 386.624 179.247 382.04 Q182.325 377.434 188.135 377.434 Z" fill="#000000" fill-rule="nonzero" fill-opacity="1" /><path clip-path="url(#clip440)" d="M12.0001 1376.57 L12.0001 1366.99 L44.3379 1354.86 L12.0001 1342.67 L12.0001 1333.09 L59.5201 1333.09 L59.5201 1339.36 L17.7929 1339.36 L50.3853 1351.62 L50.3853 1358.08 L17.7929 1370.33 L59.5201 1370.33 L59.5201 1376.57 L12.0001 1376.57 Z" fill="#000000" fill-rule="nonzero" fill-opacity="1" /><path clip-path="url(#clip440)" d="M23.8721 1320.58 L23.8721 1314.73 L59.5201 1314.73 L59.5201 1320.58 L23.8721 1320.58 M9.9949 1320.58 L9.9949 1314.73 L17.4109 1314.73 L17.4109 1320.58 L9.9949 1320.58 Z" fill="#000000" fill-rule="nonzero" fill-opacity="1" /><path clip-path="url(#clip440)" d="M38.004 1272.84 L59.5201 1272.84 L59.5201 1278.7 L38.195 1278.7 Q33.1342 1278.7 30.6198 1280.67 Q28.1053 1282.64 28.1053 1286.59 Q28.1053 1291.33 31.129 1294.07 Q34.1528 1296.81 39.3726 1296.81 L59.5201 1296.81 L59.5201 1302.7 L23.8721 1302.7 L23.8721 1296.81 L29.4103 1296.81 Q26.1956 1294.71 24.6042 1291.87 Q23.0128 1289.01 23.0128 1285.29 Q23.0128 1279.14 26.8322 1275.99 Q30.6198 1272.84 38.004 1272.84 Z" fill="#000000" fill-rule="nonzero" fill-opacity="1" /><path clip-path="url(#clip440)" d="M23.8721 1261.16 L23.8721 1255.3 L59.5201 1255.3 L59.5201 1261.16 L23.8721 1261.16 M9.9949 1261.16 L9.9949 1255.3 L17.4109 1255.3 L17.4109 1261.16 L9.9949 1261.16 Z" fill="#000000" fill-rule="nonzero" fill-opacity="1" /><path clip-path="url(#clip440)" d="M30.7153 1215.3 Q26.7685 1213.1 24.8906 1210.04 Q23.0128 1206.99 23.0128 1202.85 Q23.0128 1197.28 26.9277 1194.26 Q30.8108 1191.23 38.004 1191.23 L59.5201 1191.23 L59.5201 1197.12 L38.195 1197.12 Q33.0706 1197.12 30.588 1198.94 Q28.1053 1200.75 28.1053 1204.47 Q28.1053 1209.02 31.129 1211.67 Q34.1528 1214.31 39.3726 1214.31 L59.5201 1214.31 L59.5201 1220.2 L38.195 1220.2 Q33.0388 1220.2 30.588 1222.01 Q28.1053 1223.83 28.1053 1227.61 Q28.1053 1232.1 31.1609 1234.74 Q34.1846 1237.38 39.3726 1237.38 L59.5201 1237.38 L59.5201 1243.27 L23.8721 1243.27 L23.8721 1237.38 L29.4103 1237.38 Q26.132 1235.38 24.5724 1232.58 Q23.0128 1229.78 23.0128 1225.93 Q23.0128 1222.04 24.9861 1219.34 Q26.9595 1216.6 30.7153 1215.3 Z" fill="#000000" fill-rule="nonzero" fill-opacity="1" /><path clip-path="url(#clip440)" d="M45.4519 1180.16 L23.8721 1180.16 L23.8721 1174.3 L45.2291 1174.3 Q50.2898 1174.3 52.8361 1172.33 Q55.3506 1170.35 55.3506 1166.41 Q55.3506 1161.66 52.3268 1158.93 Q49.3031 1156.16 44.0833 1156.16 L23.8721 1156.16 L23.8721 1150.3 L59.5201 1150.3 L59.5201 1156.16 L54.0456 1156.16 Q57.2921 1158.29 58.8835 1161.12 Q60.4431 1163.92 60.4431 1167.65 Q60.4431 1173.79 56.6237 1176.97 Q52.8043 1180.16 45.4519 1180.16 M23.0128 1165.42 L23.0128 1165.42 Z" fill="#000000" fill-rule="nonzero" fill-opacity="1" /><path clip-path="url(#clip440)" d="M30.7153 1110.48 Q26.7685 1108.29 24.8906 1105.23 Q23.0128 1102.18 23.0128 1098.04 Q23.0128 1092.47 26.9277 1089.45 Q30.8108 1086.42 38.004 1086.42 L59.5201 1086.42 L59.5201 1092.31 L38.195 1092.31 Q33.0706 1092.31 30.588 1094.12 Q28.1053 1095.94 28.1053 1099.66 Q28.1053 1104.21 31.129 1106.86 Q34.1528 1109.5 39.3726 1109.5 L59.5201 1109.5 L59.5201 1115.39 L38.195 1115.39 Q33.0388 1115.39 30.588 1117.2 Q28.1053 1119.01 28.1053 1122.8 Q28.1053 1127.29 31.1609 1129.93 Q34.1846 1132.57 39.3726 1132.57 L59.5201 1132.57 L59.5201 1138.46 L23.8721 1138.46 L23.8721 1132.57 L29.4103 1132.57 Q26.132 1130.57 24.5724 1127.77 Q23.0128 1124.97 23.0128 1121.11 Q23.0128 1117.23 24.9861 1114.53 Q26.9595 1111.79 30.7153 1110.48 Z" fill="#000000" fill-rule="nonzero" fill-opacity="1" /><path clip-path="url(#clip440)" d="M24.9225 1031.29 L30.4606 1031.29 Q29.1875 1033.78 28.5509 1036.45 Q27.9144 1039.12 27.9144 1041.99 Q27.9144 1046.35 29.2512 1048.55 Q30.588 1050.71 33.2616 1050.71 Q35.2986 1050.71 36.4762 1049.15 Q37.6221 1047.59 38.6724 1042.88 L39.118 1040.87 Q40.4548 1034.64 42.9056 1032.03 Q45.3246 1029.38 49.6851 1029.38 Q54.6503 1029.38 57.5467 1033.33 Q60.4431 1037.25 60.4431 1044.12 Q60.4431 1046.99 59.8702 1050.11 Q59.3291 1053.19 58.2151 1056.63 L52.1677 1056.63 Q53.8546 1053.38 54.714 1050.23 Q55.5415 1047.08 55.5415 1043.99 Q55.5415 1039.86 54.1411 1037.63 Q52.7088 1035.4 50.1307 1035.4 Q47.7435 1035.4 46.4704 1037.02 Q45.1973 1038.61 44.0196 1044.06 L43.5422 1046.09 Q42.3963 1051.54 40.041 1053.96 Q37.6539 1056.38 33.5162 1056.38 Q28.4873 1056.38 25.75 1052.81 Q23.0128 1049.25 23.0128 1042.69 Q23.0128 1039.44 23.4902 1036.58 Q23.9676 1033.71 24.9225 1031.29 Z" fill="#000000" fill-rule="nonzero" fill-opacity="1" /><path clip-path="url(#clip440)" d="M41.6006 1003.86 Q41.6006 1010.96 43.2239 1013.69 Q44.8471 1016.43 48.762 1016.43 Q51.8812 1016.43 53.7273 1014.39 Q55.5415 1012.32 55.5415 1008.79 Q55.5415 1003.92 52.104 1000.99 Q48.6347 998.034 42.9056 998.034 L41.6006 998.034 L41.6006 1003.86 M39.1817 992.177 L59.5201 992.177 L59.5201 998.034 L54.1092 998.034 Q57.3558 1000.04 58.9154 1003.03 Q60.4431 1006.02 60.4431 1010.35 Q60.4431 1015.83 57.3876 1019.07 Q54.3002 1022.29 49.144 1022.29 Q43.1284 1022.29 40.0729 1018.28 Q37.0173 1014.23 37.0173 1006.25 L37.0173 998.034 L36.4444 998.034 Q32.4022 998.034 30.206 1000.71 Q27.978 1003.35 27.978 1008.15 Q27.978 1011.21 28.7101 1014.11 Q29.4421 1017 30.9062 1019.68 L25.4954 1019.68 Q24.2541 1016.46 23.6493 1013.44 Q23.0128 1010.41 23.0128 1007.55 Q23.0128 999.816 27.0232 995.996 Q31.0336 992.177 39.1817 992.177 Z" fill="#000000" fill-rule="nonzero" fill-opacity="1" /><path clip-path="url(#clip440)" d="M30.7153 952.36 Q26.7685 950.163 24.8906 947.108 Q23.0128 944.052 23.0128 939.915 Q23.0128 934.345 26.9277 931.321 Q30.8108 928.297 38.004 928.297 L59.5201 928.297 L59.5201 934.185 L38.195 934.185 Q33.0706 934.185 30.588 936 Q28.1053 937.814 28.1053 941.538 Q28.1053 946.089 31.129 948.731 Q34.1528 951.373 39.3726 951.373 L59.5201 951.373 L59.5201 957.261 L38.195 957.261 Q33.0388 957.261 30.588 959.075 Q28.1053 960.89 28.1053 964.677 Q28.1053 969.165 31.1609 971.807 Q34.1846 974.449 39.3726 974.449 L59.5201 974.449 L59.5201 980.337 L23.8721 980.337 L23.8721 974.449 L29.4103 974.449 Q26.132 972.443 24.5724 969.642 Q23.0128 966.842 23.0128 962.99 Q23.0128 959.107 24.9861 956.402 Q26.9595 953.665 30.7153 952.36 Z" fill="#000000" fill-rule="nonzero" fill-opacity="1" /><path clip-path="url(#clip440)" d="M54.1729 910.951 L73.079 910.951 L73.079 916.839 L23.8721 916.839 L23.8721 910.951 L29.283 910.951 Q26.1001 909.105 24.5724 906.304 Q23.0128 903.471 23.0128 899.556 Q23.0128 893.063 28.169 889.021 Q33.3252 884.947 41.7279 884.947 Q50.1307 884.947 55.2869 889.021 Q60.4431 893.063 60.4431 899.556 Q60.4431 903.471 58.9154 906.304 Q57.3558 909.105 54.1729 910.951 M41.7279 891.026 Q35.2668 891.026 31.6065 893.7 Q27.9144 896.341 27.9144 900.988 Q27.9144 905.635 31.6065 908.309 Q35.2668 910.951 41.7279 910.951 Q48.1891 910.951 51.8812 908.309 Q55.5415 905.635 55.5415 900.988 Q55.5415 896.341 51.8812 893.7 Q48.1891 891.026 41.7279 891.026 Z" fill="#000000" fill-rule="nonzero" fill-opacity="1" /><path clip-path="url(#clip440)" d="M9.9949 875.239 L9.9949 869.383 L59.5201 869.383 L59.5201 875.239 L9.9949 875.239 Z" fill="#000000" fill-rule="nonzero" fill-opacity="1" /><path clip-path="url(#clip440)" d="M40.232 826.637 L43.0966 826.637 L43.0966 853.564 Q49.144 853.182 52.3268 849.935 Q55.4779 846.657 55.4779 840.832 Q55.4779 837.459 54.6503 834.308 Q53.8228 831.125 52.1677 828.006 L57.7059 828.006 Q59.0427 831.157 59.7429 834.467 Q60.4431 837.777 60.4431 841.183 Q60.4431 849.713 55.4779 854.71 Q50.5126 859.675 42.0462 859.675 Q33.2934 859.675 28.169 854.964 Q23.0128 850.222 23.0128 842.201 Q23.0128 835.008 27.6597 830.838 Q32.2749 826.637 40.232 826.637 M38.5133 832.493 Q33.7072 832.557 30.8426 835.199 Q27.978 837.809 27.978 842.137 Q27.978 847.039 30.7471 849.999 Q33.5162 852.927 38.5451 853.373 L38.5133 832.493 Z" fill="#000000" fill-rule="nonzero" fill-opacity="1" /><path clip-path="url(#clip440)" d="M54.1729 790.639 L73.079 790.639 L73.079 796.527 L23.8721 796.527 L23.8721 790.639 L29.283 790.639 Q26.1001 788.793 24.5724 785.992 Q23.0128 783.159 23.0128 779.244 Q23.0128 772.751 28.169 768.709 Q33.3252 764.635 41.7279 764.635 Q50.1307 764.635 55.2869 768.709 Q60.4431 772.751 60.4431 779.244 Q60.4431 783.159 58.9154 785.992 Q57.3558 788.793 54.1729 790.639 M41.7279 770.714 Q35.2668 770.714 31.6065 773.388 Q27.9144 776.03 27.9144 780.676 Q27.9144 785.323 31.6065 787.997 Q35.2668 790.639 41.7279 790.639 Q48.1891 790.639 51.8812 787.997 Q55.5415 785.323 55.5415 780.676 Q55.5415 776.03 51.8812 773.388 Q48.1891 770.714 41.7279 770.714 Z" fill="#000000" fill-rule="nonzero" fill-opacity="1" /><path clip-path="url(#clip440)" d="M27.978 741.114 Q27.978 745.824 31.6701 748.561 Q35.3304 751.299 41.7279 751.299 Q48.1255 751.299 51.8176 748.593 Q55.4779 745.856 55.4779 741.114 Q55.4779 736.435 51.7858 733.698 Q48.0936 730.96 41.7279 730.96 Q35.3941 730.96 31.702 733.698 Q27.978 736.435 27.978 741.114 M23.0128 741.114 Q23.0128 733.475 27.978 729.114 Q32.9433 724.754 41.7279 724.754 Q50.4808 724.754 55.4779 729.114 Q60.4431 733.475 60.4431 741.114 Q60.4431 748.784 55.4779 753.145 Q50.4808 757.473 41.7279 757.473 Q32.9433 757.473 27.978 753.145 Q23.0128 748.784 23.0128 741.114 Z" fill="#000000" fill-rule="nonzero" fill-opacity="1" /><path clip-path="url(#clip440)" d="M23.8721 715.046 L23.8721 709.19 L59.5201 709.19 L59.5201 715.046 L23.8721 715.046 M9.9949 715.046 L9.9949 709.19 L17.4109 709.19 L17.4109 715.046 L9.9949 715.046 Z" fill="#000000" fill-rule="nonzero" fill-opacity="1" /><path clip-path="url(#clip440)" d="M38.004 667.303 L59.5201 667.303 L59.5201 673.16 L38.195 673.16 Q33.1342 673.16 30.6198 675.133 Q28.1053 677.106 28.1053 681.053 Q28.1053 685.796 31.129 688.533 Q34.1528 691.27 39.3726 691.27 L59.5201 691.27 L59.5201 697.158 L23.8721 697.158 L23.8721 691.27 L29.4103 691.27 Q26.1956 689.169 24.6042 686.337 Q23.0128 683.472 23.0128 679.748 Q23.0128 673.605 26.8322 670.454 Q30.6198 667.303 38.004 667.303 Z" fill="#000000" fill-rule="nonzero" fill-opacity="1" /><path clip-path="url(#clip440)" d="M13.7507 649.829 L23.8721 649.829 L23.8721 637.766 L28.4236 637.766 L28.4236 649.829 L47.7754 649.829 Q52.1359 649.829 53.3772 648.652 Q54.6185 647.442 54.6185 643.782 L54.6185 637.766 L59.5201 637.766 L59.5201 643.782 Q59.5201 650.561 57.0056 653.14 Q54.4594 655.718 47.7754 655.718 L28.4236 655.718 L28.4236 660.015 L23.8721 660.015 L23.8721 655.718 L13.7507 655.718 L13.7507 649.829 Z" fill="#000000" fill-rule="nonzero" fill-opacity="1" /><path clip-path="url(#clip440)" d="M24.9225 607.338 L30.4606 607.338 Q29.1875 609.821 28.5509 612.495 Q27.9144 615.168 27.9144 618.033 Q27.9144 622.393 29.2512 624.589 Q30.588 626.754 33.2616 626.754 Q35.2986 626.754 36.4762 625.194 Q37.6221 623.634 38.6724 618.924 L39.118 616.919 Q40.4548 610.68 42.9056 608.07 Q45.3246 605.429 49.6851 605.429 Q54.6503 605.429 57.5467 609.375 Q60.4431 613.29 60.4431 620.165 Q60.4431 623.03 59.8702 626.149 Q59.3291 629.236 58.2151 632.674 L52.1677 632.674 Q53.8546 629.427 54.714 626.276 Q55.5415 623.125 55.5415 620.038 Q55.5415 615.9 54.1411 613.672 Q52.7088 611.444 50.1307 611.444 Q47.7435 611.444 46.4704 613.067 Q45.1973 614.659 44.0196 620.102 L43.5422 622.139 Q42.3963 627.581 40.041 630 Q37.6539 632.419 33.5162 632.419 Q28.4873 632.419 25.75 628.854 Q23.0128 625.29 23.0128 618.733 Q23.0128 615.486 23.4902 612.622 Q23.9676 609.757 24.9225 607.338 Z" fill="#000000" fill-rule="nonzero" fill-opacity="1" /><path clip-path="url(#clip440)" d="M15.2048 526.002 Q16.5253 526.002 16.5253 527.13 Q16.6541 530.769 17.8779 532.25 Q19.0695 533.7 21.3884 534.247 L58.1352 543.458 Q59.2947 543.78 59.4235 543.973 Q59.5201 544.167 59.5201 544.521 Q59.5201 544.972 59.2947 545.229 Q59.0692 545.455 58.2641 545.777 L19.4238 562.202 Q19.1661 562.331 18.8119 562.492 Q18.4576 562.653 18.2322 562.782 L53.0467 571.509 Q54.0451 571.767 54.5604 571.767 Q55.8164 571.767 56.6216 570.897 Q57.3945 569.996 57.4911 567.419 Q57.4911 566.099 58.1997 566.099 Q59.5201 566.099 59.5201 567.29 Q59.5201 568.385 59.4235 570.672 Q59.3269 572.959 59.3269 574.086 Q59.3269 575.181 59.4235 577.403 Q59.5201 579.625 59.5201 580.688 Q59.5201 581.525 58.7794 581.525 Q58.1997 581.525 57.9098 581.3 Q57.5877 581.074 57.5555 580.881 Q57.4911 580.688 57.4911 580.398 Q57.4267 578.466 57.0402 577.145 Q56.6538 575.825 55.913 575.084 Q55.1723 574.311 54.4316 573.957 Q53.6586 573.57 52.5314 573.281 L17.105 564.456 Q16.5253 564.456 16.5253 568.933 Q16.5253 569.706 16.4931 570.028 Q16.4609 570.318 16.2998 570.543 Q16.1388 570.769 15.7845 570.769 Q14.8828 570.769 14.6895 570.382 Q14.4641 569.996 14.4641 568.868 L14.4641 560.012 Q14.4641 558.885 14.6573 558.595 Q14.8184 558.305 15.7201 557.918 L50.1482 543.329 L20.8086 535.954 Q20.2289 535.761 19.4238 535.761 Q18.1356 535.761 17.3626 536.727 Q16.5575 537.661 16.5253 540.237 Q16.5253 541.429 15.7845 541.429 Q15.1726 541.429 14.8828 541.204 Q14.5607 540.946 14.5285 540.753 Q14.4641 540.527 14.4641 540.237 Q14.4641 539.142 14.5607 536.888 Q14.6573 534.634 14.6573 533.506 Q14.6573 532.411 14.5607 530.189 Q14.4641 527.935 14.4641 526.84 Q14.4641 526.453 14.6573 526.26 Q14.8184 526.035 15.0116 526.002 L15.2048 526.002 Z" fill="#000000" fill-rule="nonzero" fill-opacity="1" /><path clip-path="url(#clip440)" d="M46.785 492.109 L56.8848 494.612 Q57.4935 494.747 57.6513 494.86 Q57.8091 494.972 57.8091 495.288 Q57.8091 495.536 57.6964 495.694 Q57.5837 495.829 57.4709 495.829 L57.3582 495.852 Q57.2906 495.852 56.9524 495.806 Q56.5917 495.761 56.0056 495.716 Q55.4194 495.671 54.7656 495.671 Q51.0684 495.671 49.3551 497.475 Q47.6192 499.256 47.6192 502.322 Q47.6192 504.441 48.7464 506.335 Q49.8736 508.228 51.6546 509.31 Q53.413 510.393 55.2616 510.393 Q56.9524 510.393 58.0345 509.536 Q59.1167 508.679 59.4774 507.575 L60.3115 504.486 Q61.1456 501.24 61.5063 500.315 Q61.8445 499.391 62.611 498.625 Q64.7301 496.348 68.0216 496.348 Q70.8621 496.348 73.6125 497.948 Q76.3404 499.549 78.1213 502.299 Q79.8798 505.05 79.8798 508.093 Q79.8798 513.436 76.5658 515.893 L79.1809 518.148 Q79.6769 518.576 79.7671 518.711 Q79.8798 518.824 79.8798 518.982 Q79.8798 519.185 79.7445 519.343 Q79.6318 519.5 79.4289 519.5 Q79.2711 519.5 73.9732 518.17 Q68.6754 516.84 68.5626 516.727 Q68.3823 516.547 68.3823 516.254 Q68.3823 515.713 68.9008 515.713 Q69.0361 515.758 69.2164 515.803 Q70.8396 516.074 71.7188 516.074 Q73.3645 516.074 74.627 515.51 Q75.8669 514.946 76.5883 514.112 Q77.2872 513.256 77.7381 512.106 Q78.1664 510.956 78.3242 509.987 Q78.4595 509.017 78.4595 508.003 Q78.4595 505.816 77.197 503.877 Q75.9346 501.916 73.9732 500.811 Q72.0119 499.684 69.9604 499.684 Q68.8783 499.684 68.0441 499.977 Q67.1874 500.27 66.714 500.676 Q66.2406 501.059 65.8799 501.713 Q65.5192 502.367 65.3839 502.818 Q65.2261 503.246 65.0683 503.922 L63.7607 508.86 Q63.1746 510.843 61.4838 512.264 Q59.793 513.661 57.2004 513.661 Q54.4726 513.661 51.9476 512.061 Q49.4002 510.438 47.8672 507.8 Q46.3116 505.14 46.3116 502.277 Q46.3116 500.022 47.1908 498.286 Q48.0475 496.55 49.6481 495.671 L47.0105 493.439 Q46.492 492.988 46.4018 492.898 Q46.3116 492.786 46.3116 492.628 Q46.3116 492.357 46.4694 492.245 Q46.6272 492.109 46.785 492.109 Z" fill="#000000" fill-rule="nonzero" fill-opacity="1" /><path clip-path="url(#clip440)" d="M638.722 44.2197 Q641.355 45.1109 643.826 48.0275 Q646.337 50.9442 648.849 56.0483 L657.153 72.576 L648.363 72.576 L640.626 57.061 Q637.628 50.9847 634.792 48.9997 Q631.997 47.0148 627.136 47.0148 L618.224 47.0148 L618.224 72.576 L610.041 72.576 L610.041 12.096 L628.513 12.096 Q638.884 12.096 643.988 16.4305 Q649.092 20.7649 649.092 29.5149 Q649.092 35.2267 646.418 38.994 Q643.785 42.7613 638.722 44.2197 M618.224 18.8205 L618.224 40.2903 L628.513 40.2903 Q634.428 40.2903 637.425 37.5762 Q640.463 34.8216 640.463 29.5149 Q640.463 24.2082 637.425 21.5346 Q634.428 18.8205 628.513 18.8205 L618.224 18.8205 Z" fill="#000000" fill-rule="nonzero" fill-opacity="1" /><path clip-path="url(#clip440)" d="M703.941 14.0809 L703.941 22.0612 Q699.283 19.8332 695.151 18.7395 Q691.019 17.6457 687.17 17.6457 Q680.486 17.6457 676.841 20.2383 Q673.235 22.8309 673.235 27.611 Q673.235 31.6214 675.625 33.6873 Q678.056 35.7128 684.78 36.9686 L689.722 37.9813 Q698.878 39.7232 703.212 44.1387 Q707.587 48.5136 707.587 55.8863 Q707.587 64.6767 701.673 69.2137 Q695.799 73.7508 684.416 73.7508 Q680.122 73.7508 675.261 72.7785 Q670.44 71.8063 665.255 69.9024 L665.255 61.4765 Q670.238 64.2716 675.018 65.6895 Q679.798 67.1073 684.416 67.1073 Q691.424 67.1073 695.232 64.3527 Q699.04 61.598 699.04 56.4939 Q699.04 52.0379 696.285 49.5264 Q693.571 47.0148 687.332 45.759 L682.35 44.7868 Q673.195 42.9639 669.103 39.075 Q665.012 35.1862 665.012 28.2591 Q665.012 20.2383 670.643 15.6203 Q676.314 11.0023 686.239 11.0023 Q690.492 11.0023 694.908 11.7719 Q699.323 12.5416 703.941 14.0809 Z" fill="#000000" fill-rule="nonzero" fill-opacity="1" /><path clip-path="url(#clip440)" d="M746.719 12.096 L758.912 12.096 L774.346 53.2532 L789.861 12.096 L802.054 12.096 L802.054 72.576 L794.074 72.576 L794.074 19.4686 L778.478 60.9499 L770.254 60.9499 L754.658 19.4686 L754.658 72.576 L746.719 72.576 L746.719 12.096 Z" fill="#000000" fill-rule="nonzero" fill-opacity="1" /><path clip-path="url(#clip440)" d="M835.555 32.4315 Q829.56 32.4315 826.076 37.1306 Q822.592 41.7891 822.592 49.9314 Q822.592 58.0738 826.035 62.7728 Q829.519 67.4314 835.555 67.4314 Q841.51 67.4314 844.994 62.7323 Q848.477 58.0333 848.477 49.9314 Q848.477 41.8701 844.994 37.1711 Q841.51 32.4315 835.555 32.4315 M835.555 26.1121 Q845.277 26.1121 850.827 32.4315 Q856.377 38.7509 856.377 49.9314 Q856.377 61.0714 850.827 67.4314 Q845.277 73.7508 835.555 73.7508 Q825.792 73.7508 820.243 67.4314 Q814.733 61.0714 814.733 49.9314 Q814.733 38.7509 820.243 32.4315 Q825.792 26.1121 835.555 26.1121 Z" fill="#000000" fill-rule="nonzero" fill-opacity="1" /><path clip-path="url(#clip440)" d="M898.587 34.0924 L898.587 9.54393 L906.041 9.54393 L906.041 72.576 L898.587 72.576 L898.587 65.7705 Q896.238 69.8214 892.632 71.8063 Q889.067 73.7508 884.044 73.7508 Q875.821 73.7508 870.636 67.1883 Q865.491 60.6258 865.491 49.9314 Q865.491 39.2371 870.636 32.6746 Q875.821 26.1121 884.044 26.1121 Q889.067 26.1121 892.632 28.0971 Q896.238 30.0415 898.587 34.0924 M873.188 49.9314 Q873.188 58.1548 876.55 62.8538 Q879.953 67.5124 885.867 67.5124 Q891.782 67.5124 895.184 62.8538 Q898.587 58.1548 898.587 49.9314 Q898.587 41.7081 895.184 37.0496 Q891.782 32.3505 885.867 32.3505 Q879.953 32.3505 876.55 37.0496 Q873.188 41.7081 873.188 49.9314 Z" fill="#000000" fill-rule="nonzero" fill-opacity="1" /><path clip-path="url(#clip440)" d="M960.201 48.0275 L960.201 51.6733 L925.931 51.6733 Q926.417 59.3701 930.549 63.421 Q934.721 67.4314 942.134 67.4314 Q946.428 67.4314 950.439 66.3781 Q954.49 65.3249 958.459 63.2184 L958.459 70.267 Q954.449 71.9684 950.236 72.8596 Q946.023 73.7508 941.689 73.7508 Q930.832 73.7508 924.472 67.4314 Q918.153 61.1119 918.153 50.3365 Q918.153 39.1965 924.148 32.6746 Q930.184 26.1121 940.392 26.1121 Q949.547 26.1121 954.854 32.0264 Q960.201 37.9003 960.201 48.0275 M952.748 45.84 Q952.667 39.7232 949.304 36.0774 Q945.983 32.4315 940.473 32.4315 Q934.235 32.4315 930.468 35.9558 Q926.741 39.4801 926.174 45.8805 L952.748 45.84 Z" fill="#000000" fill-rule="nonzero" fill-opacity="1" /><path clip-path="url(#clip440)" d="M972.435 9.54393 L979.889 9.54393 L979.889 72.576 L972.435 72.576 L972.435 9.54393 Z" fill="#000000" fill-rule="nonzero" fill-opacity="1" /><path clip-path="url(#clip440)" d="M1067.47 16.7545 L1067.47 25.383 Q1063.34 21.5346 1058.64 19.6307 Q1053.98 17.7268 1048.71 17.7268 Q1038.34 17.7268 1032.83 24.0867 Q1027.32 30.4061 1027.32 42.3968 Q1027.32 54.3469 1032.83 60.7069 Q1038.34 67.0263 1048.71 67.0263 Q1053.98 67.0263 1058.64 65.1223 Q1063.34 63.2184 1067.47 59.3701 L1067.47 67.9175 Q1063.18 70.8341 1058.35 72.2924 Q1053.57 73.7508 1048.23 73.7508 Q1034.49 73.7508 1026.6 65.3654 Q1018.7 56.9395 1018.7 42.3968 Q1018.7 27.8135 1026.6 19.4281 Q1034.49 11.0023 1048.23 11.0023 Q1053.66 11.0023 1058.44 12.4606 Q1063.26 13.8784 1067.47 16.7545 Z" fill="#000000" fill-rule="nonzero" fill-opacity="1" /><path clip-path="url(#clip440)" d="M1097.36 32.4315 Q1091.37 32.4315 1087.89 37.1306 Q1084.4 41.7891 1084.4 49.9314 Q1084.4 58.0738 1087.85 62.7728 Q1091.33 67.4314 1097.36 67.4314 Q1103.32 67.4314 1106.8 62.7323 Q1110.29 58.0333 1110.29 49.9314 Q1110.29 41.8701 1106.8 37.1711 Q1103.32 32.4315 1097.36 32.4315 M1097.36 26.1121 Q1107.09 26.1121 1112.64 32.4315 Q1118.19 38.7509 1118.19 49.9314 Q1118.19 61.0714 1112.64 67.4314 Q1107.09 73.7508 1097.36 73.7508 Q1087.6 73.7508 1082.05 67.4314 Q1076.54 61.0714 1076.54 49.9314 Q1076.54 38.7509 1082.05 32.4315 Q1087.6 26.1121 1097.36 26.1121 Z" fill="#000000" fill-rule="nonzero" fill-opacity="1" /><path clip-path="url(#clip440)" d="M1165.87 35.9153 Q1168.66 30.8922 1172.55 28.5022 Q1176.44 26.1121 1181.7 26.1121 Q1188.79 26.1121 1192.64 31.0947 Q1196.49 36.0368 1196.49 45.1919 L1196.49 72.576 L1189 72.576 L1189 45.4349 Q1189 38.913 1186.69 35.7533 Q1184.38 32.5936 1179.64 32.5936 Q1173.85 32.5936 1170.48 36.4419 Q1167.12 40.2903 1167.12 46.9338 L1167.12 72.576 L1159.63 72.576 L1159.63 45.4349 Q1159.63 38.8725 1157.32 35.7533 Q1155.01 32.5936 1150.19 32.5936 Q1144.48 32.5936 1141.11 36.4824 Q1137.75 40.3308 1137.75 46.9338 L1137.75 72.576 L1130.26 72.576 L1130.26 27.2059 L1137.75 27.2059 L1137.75 34.2544 Q1140.3 30.082 1143.87 28.0971 Q1147.43 26.1121 1152.34 26.1121 Q1157.28 26.1121 1160.72 28.6237 Q1164.2 31.1352 1165.87 35.9153 Z" fill="#000000" fill-rule="nonzero" fill-opacity="1" /><path clip-path="url(#clip440)" d="M1218.57 65.7705 L1218.57 89.8329 L1211.07 89.8329 L1211.07 27.2059 L1218.57 27.2059 L1218.57 34.0924 Q1220.92 30.0415 1224.48 28.0971 Q1228.09 26.1121 1233.07 26.1121 Q1241.33 26.1121 1246.48 32.6746 Q1251.66 39.2371 1251.66 49.9314 Q1251.66 60.6258 1246.48 67.1883 Q1241.33 73.7508 1233.07 73.7508 Q1228.09 73.7508 1224.48 71.8063 Q1220.92 69.8214 1218.57 65.7705 M1243.93 49.9314 Q1243.93 41.7081 1240.52 37.0496 Q1237.16 32.3505 1231.25 32.3505 Q1225.33 32.3505 1221.93 37.0496 Q1218.57 41.7081 1218.57 49.9314 Q1218.57 58.1548 1221.93 62.8538 Q1225.33 67.5124 1231.25 67.5124 Q1237.16 67.5124 1240.52 62.8538 Q1243.93 58.1548 1243.93 49.9314 Z" fill="#000000" fill-rule="nonzero" fill-opacity="1" /><path clip-path="url(#clip440)" d="M1264.02 9.54393 L1271.47 9.54393 L1271.47 72.576 L1264.02 72.576 L1264.02 9.54393 Z" fill="#000000" fill-rule="nonzero" fill-opacity="1" /><path clip-path="url(#clip440)" d="M1325.88 48.0275 L1325.88 51.6733 L1291.61 51.6733 Q1292.09 59.3701 1296.22 63.421 Q1300.4 67.4314 1307.81 67.4314 Q1312.1 67.4314 1316.11 66.3781 Q1320.16 65.3249 1324.13 63.2184 L1324.13 70.267 Q1320.12 71.9684 1315.91 72.8596 Q1311.7 73.7508 1307.36 73.7508 Q1296.51 73.7508 1290.15 67.4314 Q1283.83 61.1119 1283.83 50.3365 Q1283.83 39.1965 1289.82 32.6746 Q1295.86 26.1121 1306.07 26.1121 Q1315.22 26.1121 1320.53 32.0264 Q1325.88 37.9003 1325.88 48.0275 M1318.42 45.84 Q1318.34 39.7232 1314.98 36.0774 Q1311.66 32.4315 1306.15 32.4315 Q1299.91 32.4315 1296.14 35.9558 Q1292.42 39.4801 1291.85 45.8805 L1318.42 45.84 Z" fill="#000000" fill-rule="nonzero" fill-opacity="1" /><path clip-path="url(#clip440)" d="M1374.37 27.2059 L1357.96 49.2833 L1375.22 72.576 L1366.43 72.576 L1353.22 54.752 L1340.01 72.576 L1331.22 72.576 L1348.85 48.8377 L1332.72 27.2059 L1341.51 27.2059 L1353.54 43.369 L1365.58 27.2059 L1374.37 27.2059 Z" fill="#000000" fill-rule="nonzero" fill-opacity="1" /><path clip-path="url(#clip440)" d="M1385.75 27.2059 L1393.2 27.2059 L1393.2 72.576 L1385.75 72.576 L1385.75 27.2059 M1385.75 9.54393 L1393.2 9.54393 L1393.2 18.9825 L1385.75 18.9825 L1385.75 9.54393 Z" fill="#000000" fill-rule="nonzero" fill-opacity="1" /><path clip-path="url(#clip440)" d="M1416.17 14.324 L1416.17 27.2059 L1431.52 27.2059 L1431.52 32.9987 L1416.17 32.9987 L1416.17 57.6282 Q1416.17 63.1779 1417.67 64.7578 Q1419.21 66.3376 1423.87 66.3376 L1431.52 66.3376 L1431.52 72.576 L1423.87 72.576 Q1415.24 72.576 1411.96 69.3758 Q1408.68 66.1351 1408.68 57.6282 L1408.68 32.9987 L1403.21 32.9987 L1403.21 27.2059 L1408.68 27.2059 L1408.68 14.324 L1416.17 14.324 Z" fill="#000000" fill-rule="nonzero" fill-opacity="1" /><path clip-path="url(#clip440)" d="M1460.2 76.7889 Q1457.04 84.8907 1454.05 87.3618 Q1451.05 89.8329 1446.03 89.8329 L1440.07 89.8329 L1440.07 83.5945 L1444.45 83.5945 Q1447.53 83.5945 1449.23 82.1361 Q1450.93 80.6778 1452.99 75.2496 L1454.33 71.8468 L1435.98 27.2059 L1443.88 27.2059 L1458.06 62.6918 L1472.24 27.2059 L1480.13 27.2059 L1460.2 76.7889 Z" fill="#000000" fill-rule="nonzero" fill-opacity="1" /><path clip-path="url(#clip440)" d="M1511.45 27.2059 L1519.35 27.2059 L1533.53 65.2844 L1547.7 27.2059 L1555.6 27.2059 L1538.59 72.576 L1528.46 72.576 L1511.45 27.2059 Z" fill="#000000" fill-rule="nonzero" fill-opacity="1" /><path clip-path="url(#clip440)" d="M1594.82 28.5427 L1594.82 35.5912 Q1591.66 33.9709 1588.25 33.1607 Q1584.85 32.3505 1581.2 32.3505 Q1575.66 32.3505 1572.86 34.0519 Q1570.11 35.7533 1570.11 39.156 Q1570.11 41.7486 1572.09 43.2475 Q1574.08 44.7058 1580.07 46.0426 L1582.62 46.6097 Q1590.56 48.3111 1593.88 51.4303 Q1597.25 54.509 1597.25 60.0587 Q1597.25 66.3781 1592.22 70.0644 Q1587.24 73.7508 1578.49 73.7508 Q1574.85 73.7508 1570.88 73.0216 Q1566.95 72.3329 1562.57 70.9151 L1562.57 63.2184 Q1566.7 65.3654 1570.71 66.4591 Q1574.72 67.5124 1578.65 67.5124 Q1583.92 67.5124 1586.75 65.73 Q1589.59 63.9071 1589.59 60.6258 Q1589.59 57.5877 1587.52 55.9673 Q1585.5 54.3469 1578.57 52.8481 L1575.98 52.2405 Q1569.05 50.7821 1565.97 47.7845 Q1562.89 44.7463 1562.89 39.4801 Q1562.89 33.0797 1567.43 29.5959 Q1571.97 26.1121 1580.31 26.1121 Q1584.45 26.1121 1588.09 26.7198 Q1591.74 27.3274 1594.82 28.5427 Z" fill="#000000" fill-rule="nonzero" fill-opacity="1" /><path clip-path="url(#clip440)" d="M1610.17 62.2867 L1618.72 62.2867 L1618.72 72.576 L1610.17 72.576 L1610.17 62.2867 Z" fill="#000000" fill-rule="nonzero" fill-opacity="1" /><path clip-path="url(#clip440)" d="M1670.37 18.8205 L1670.37 65.8515 L1680.25 65.8515 Q1692.77 65.8515 1698.56 60.1802 Q1704.39 54.509 1704.39 42.2752 Q1704.39 30.1225 1698.56 24.4918 Q1692.77 18.8205 1680.25 18.8205 L1670.37 18.8205 M1662.18 12.096 L1678.99 12.096 Q1696.57 12.096 1704.8 19.4281 Q1713.02 26.7198 1713.02 42.2752 Q1713.02 57.9117 1704.76 65.2439 Q1696.49 72.576 1678.99 72.576 L1662.18 72.576 L1662.18 12.096 Z" fill="#000000" fill-rule="nonzero" fill-opacity="1" /><path clip-path="url(#clip440)" d="M1725.74 27.2059 L1733.19 27.2059 L1733.19 72.576 L1725.74 72.576 L1725.74 27.2059 M1725.74 9.54393 L1733.19 9.54393 L1733.19 18.9825 L1725.74 18.9825 L1725.74 9.54393 Z" fill="#000000" fill-rule="nonzero" fill-opacity="1" /><path clip-path="url(#clip440)" d="M1784.11 35.9153 Q1786.91 30.8922 1790.8 28.5022 Q1794.69 26.1121 1799.95 26.1121 Q1807.04 26.1121 1810.89 31.0947 Q1814.74 36.0368 1814.74 45.1919 L1814.74 72.576 L1807.25 72.576 L1807.25 45.4349 Q1807.25 38.913 1804.94 35.7533 Q1802.63 32.5936 1797.89 32.5936 Q1792.1 32.5936 1788.73 36.4419 Q1785.37 40.2903 1785.37 46.9338 L1785.37 72.576 L1777.88 72.576 L1777.88 45.4349 Q1777.88 38.8725 1775.57 35.7533 Q1773.26 32.5936 1768.44 32.5936 Q1762.73 32.5936 1759.36 36.4824 Q1756 40.3308 1756 46.9338 L1756 72.576 L1748.51 72.576 L1748.51 27.2059 L1756 27.2059 L1756 34.2544 Q1758.55 30.082 1762.12 28.0971 Q1765.68 26.1121 1770.58 26.1121 Q1775.53 26.1121 1778.97 28.6237 Q1782.45 31.1352 1784.11 35.9153 Z" fill="#000000" fill-rule="nonzero" fill-opacity="1" /><path clip-path="url(#clip440)" d="M1868.41 48.0275 L1868.41 51.6733 L1834.14 51.6733 Q1834.63 59.3701 1838.76 63.421 Q1842.93 67.4314 1850.35 67.4314 Q1854.64 67.4314 1858.65 66.3781 Q1862.7 65.3249 1866.67 63.2184 L1866.67 70.267 Q1862.66 71.9684 1858.45 72.8596 Q1854.24 73.7508 1849.9 73.7508 Q1839.05 73.7508 1832.69 67.4314 Q1826.37 61.1119 1826.37 50.3365 Q1826.37 39.1965 1832.36 32.6746 Q1838.4 26.1121 1848.61 26.1121 Q1857.76 26.1121 1863.07 32.0264 Q1868.41 37.9003 1868.41 48.0275 M1860.96 45.84 Q1860.88 39.7232 1857.52 36.0774 Q1854.2 32.4315 1848.69 32.4315 Q1842.45 32.4315 1838.68 35.9558 Q1834.95 39.4801 1834.39 45.8805 L1860.96 45.84 Z" fill="#000000" fill-rule="nonzero" fill-opacity="1" /><path clip-path="url(#clip440)" d="M1918.36 45.1919 L1918.36 72.576 L1910.91 72.576 L1910.91 45.4349 Q1910.91 38.994 1908.4 35.7938 Q1905.88 32.5936 1900.86 32.5936 Q1894.83 32.5936 1891.34 36.4419 Q1887.86 40.2903 1887.86 46.9338 L1887.86 72.576 L1880.36 72.576 L1880.36 27.2059 L1887.86 27.2059 L1887.86 34.2544 Q1890.53 30.163 1894.14 28.1376 Q1897.78 26.1121 1902.52 26.1121 Q1910.34 26.1121 1914.35 30.9732 Q1918.36 35.7938 1918.36 45.1919 Z" fill="#000000" fill-rule="nonzero" fill-opacity="1" /><path clip-path="url(#clip440)" d="M1962.15 28.5427 L1962.15 35.5912 Q1958.99 33.9709 1955.59 33.1607 Q1952.19 32.3505 1948.54 32.3505 Q1942.99 32.3505 1940.2 34.0519 Q1937.44 35.7533 1937.44 39.156 Q1937.44 41.7486 1939.43 43.2475 Q1941.41 44.7058 1947.41 46.0426 L1949.96 46.6097 Q1957.9 48.3111 1961.22 51.4303 Q1964.58 54.509 1964.58 60.0587 Q1964.58 66.3781 1959.56 70.0644 Q1954.58 73.7508 1945.83 73.7508 Q1942.18 73.7508 1938.21 73.0216 Q1934.28 72.3329 1929.91 70.9151 L1929.91 63.2184 Q1934.04 65.3654 1938.05 66.4591 Q1942.06 67.5124 1945.99 67.5124 Q1951.26 67.5124 1954.09 65.73 Q1956.93 63.9071 1956.93 60.6258 Q1956.93 57.5877 1954.86 55.9673 Q1952.83 54.3469 1945.91 52.8481 L1943.32 52.2405 Q1936.39 50.7821 1933.31 47.7845 Q1930.23 44.7463 1930.23 39.4801 Q1930.23 33.0797 1934.77 29.5959 Q1939.3 26.1121 1947.65 26.1121 Q1951.78 26.1121 1955.43 26.7198 Q1959.07 27.3274 1962.15 28.5427 Z" fill="#000000" fill-rule="nonzero" fill-opacity="1" /><path clip-path="url(#clip440)" d="M1976.45 27.2059 L1983.91 27.2059 L1983.91 72.576 L1976.45 72.576 L1976.45 27.2059 M1976.45 9.54393 L1983.91 9.54393 L1983.91 18.9825 L1976.45 18.9825 L1976.45 9.54393 Z" fill="#000000" fill-rule="nonzero" fill-opacity="1" /><path clip-path="url(#clip440)" d="M2017.08 32.4315 Q2011.09 32.4315 2007.6 37.1306 Q2004.12 41.7891 2004.12 49.9314 Q2004.12 58.0738 2007.56 62.7728 Q2011.05 67.4314 2017.08 67.4314 Q2023.04 67.4314 2026.52 62.7323 Q2030 58.0333 2030 49.9314 Q2030 41.8701 2026.52 37.1711 Q2023.04 32.4315 2017.08 32.4315 M2017.08 26.1121 Q2026.8 26.1121 2032.35 32.4315 Q2037.9 38.7509 2037.9 49.9314 Q2037.9 61.0714 2032.35 67.4314 Q2026.8 73.7508 2017.08 73.7508 Q2007.32 73.7508 2001.77 67.4314 Q1996.26 61.0714 1996.26 49.9314 Q1996.26 38.7509 2001.77 32.4315 Q2007.32 26.1121 2017.08 26.1121 Z" fill="#000000" fill-rule="nonzero" fill-opacity="1" /><path clip-path="url(#clip440)" d="M2087.97 45.1919 L2087.97 72.576 L2080.52 72.576 L2080.52 45.4349 Q2080.52 38.994 2078.01 35.7938 Q2075.5 32.5936 2070.47 32.5936 Q2064.44 32.5936 2060.95 36.4419 Q2057.47 40.2903 2057.47 46.9338 L2057.47 72.576 L2049.98 72.576 L2049.98 27.2059 L2057.47 27.2059 L2057.47 34.2544 Q2060.14 30.163 2063.75 28.1376 Q2067.39 26.1121 2072.13 26.1121 Q2079.95 26.1121 2083.96 30.9732 Q2087.97 35.7938 2087.97 45.1919 Z" fill="#000000" fill-rule="nonzero" fill-opacity="1" /><path clip-path="url(#clip440)" d="M2123.46 49.7694 Q2114.43 49.7694 2110.94 51.8354 Q2107.46 53.9013 2107.46 58.8839 Q2107.46 62.8538 2110.05 65.2034 Q2112.68 67.5124 2117.18 67.5124 Q2123.38 67.5124 2127.1 63.1374 Q2130.87 58.7219 2130.87 51.4303 L2130.87 49.7694 L2123.46 49.7694 M2138.33 46.6907 L2138.33 72.576 L2130.87 72.576 L2130.87 65.6895 Q2128.32 69.8214 2124.51 71.8063 Q2120.7 73.7508 2115.2 73.7508 Q2108.23 73.7508 2104.1 69.8619 Q2100 65.9325 2100 59.3701 Q2100 51.7138 2105.11 47.825 Q2110.25 43.9361 2120.42 43.9361 L2130.87 43.9361 L2130.87 43.2069 Q2130.87 38.0623 2127.47 35.2672 Q2124.11 32.4315 2117.99 32.4315 Q2114.1 32.4315 2110.42 33.3632 Q2106.73 34.295 2103.33 36.1584 L2103.33 29.2718 Q2107.42 27.692 2111.27 26.9223 Q2115.11 26.1121 2118.76 26.1121 Q2128.6 26.1121 2133.46 31.2163 Q2138.33 36.3204 2138.33 46.6907 Z" fill="#000000" fill-rule="nonzero" fill-opacity="1" /><path clip-path="url(#clip440)" d="M2153.68 9.54393 L2161.13 9.54393 L2161.13 72.576 L2153.68 72.576 L2153.68 9.54393 Z" fill="#000000" fill-rule="nonzero" fill-opacity="1" /><path clip-path="url(#clip440)" d="M2176.73 27.2059 L2184.18 27.2059 L2184.18 72.576 L2176.73 72.576 L2176.73 27.2059 M2176.73 9.54393 L2184.18 9.54393 L2184.18 18.9825 L2176.73 18.9825 L2176.73 9.54393 Z" fill="#000000" fill-rule="nonzero" fill-opacity="1" /><path clip-path="url(#clip440)" d="M2207.15 14.324 L2207.15 27.2059 L2222.5 27.2059 L2222.5 32.9987 L2207.15 32.9987 L2207.15 57.6282 Q2207.15 63.1779 2208.65 64.7578 Q2210.19 66.3376 2214.85 66.3376 L2222.5 66.3376 L2222.5 72.576 L2214.85 72.576 Q2206.22 72.576 2202.94 69.3758 Q2199.66 66.1351 2199.66 57.6282 L2199.66 32.9987 L2194.19 32.9987 L2194.19 27.2059 L2199.66 27.2059 L2199.66 14.324 L2207.15 14.324 Z" fill="#000000" fill-rule="nonzero" fill-opacity="1" /><path clip-path="url(#clip440)" d="M2251.18 76.7889 Q2248.02 84.8907 2245.03 87.3618 Q2242.03 89.8329 2237.01 89.8329 L2231.05 89.8329 L2231.05 83.5945 L2235.43 83.5945 Q2238.5 83.5945 2240.21 82.1361 Q2241.91 80.6778 2243.97 75.2496 L2245.31 71.8468 L2226.96 27.2059 L2234.86 27.2059 L2249.04 62.6918 L2263.22 27.2059 L2271.11 27.2059 L2251.18 76.7889 Z" fill="#000000" fill-rule="nonzero" fill-opacity="1" /><polyline clip-path="url(#clip441)" style="stroke:#4682b4; stroke-linecap:round; stroke-linejoin:round; stroke-width:8; stroke-opacity:1; fill:none" points="308.334,1688.65 402.688,1675.59 497.042,1658.17 591.395,1636.4 685.749,1610.27 780.102,1579.79 874.456,1544.95 968.81,1505.76 1063.16,1462.22 1157.52,1414.32 1251.87,1362.06 1346.22,1305.45 1440.58,1244.49 1534.93,1179.17 1629.29,1109.49 1723.64,1035.46 1817.99,957.082 1912.35,874.345 2006.7,787.253 2101.05,695.806 2195.41,600.005 2289.76,499.849 2384.11,395.339 2478.47,286.474 2572.82,173.254 "/>
<circle clip-path="url(#clip441)" cx="308.334" cy="1688.65" r="14.4" fill="#4682b4" fill-rule="evenodd" fill-opacity="1" stroke="#000000" stroke-opacity="1" stroke-width="3.84"/>
<circle clip-path="url(#clip441)" cx="402.688" cy="1675.59" r="14.4" fill="#4682b4" fill-rule="evenodd" fill-opacity="1" stroke="#000000" stroke-opacity="1" stroke-width="3.84"/>
<circle clip-path="url(#clip441)" cx="497.042" cy="1658.17" r="14.4" fill="#4682b4" fill-rule="evenodd" fill-opacity="1" stroke="#000000" stroke-opacity="1" stroke-width="3.84"/>
<circle clip-path="url(#clip441)" cx="591.395" cy="1636.4" r="14.4" fill="#4682b4" fill-rule="evenodd" fill-opacity="1" stroke="#000000" stroke-opacity="1" stroke-width="3.84"/>
<circle clip-path="url(#clip441)" cx="685.749" cy="1610.27" r="14.4" fill="#4682b4" fill-rule="evenodd" fill-opacity="1" stroke="#000000" stroke-opacity="1" stroke-width="3.84"/>
<circle clip-path="url(#clip441)" cx="780.102" cy="1579.79" r="14.4" fill="#4682b4" fill-rule="evenodd" fill-opacity="1" stroke="#000000" stroke-opacity="1" stroke-width="3.84"/>
<circle clip-path="url(#clip441)" cx="874.456" cy="1544.95" r="14.4" fill="#4682b4" fill-rule="evenodd" fill-opacity="1" stroke="#000000" stroke-opacity="1" stroke-width="3.84"/>
<circle clip-path="url(#clip441)" cx="968.81" cy="1505.76" r="14.4" fill="#4682b4" fill-rule="evenodd" fill-opacity="1" stroke="#000000" stroke-opacity="1" stroke-width="3.84"/>
<circle clip-path="url(#clip441)" cx="1063.16" cy="1462.22" r="14.4" fill="#4682b4" fill-rule="evenodd" fill-opacity="1" stroke="#000000" stroke-opacity="1" stroke-width="3.84"/>
<circle clip-path="url(#clip441)" cx="1157.52" cy="1414.32" r="14.4" fill="#4682b4" fill-rule="evenodd" fill-opacity="1" stroke="#000000" stroke-opacity="1" stroke-width="3.84"/>
<circle clip-path="url(#clip441)" cx="1251.87" cy="1362.06" r="14.4" fill="#4682b4" fill-rule="evenodd" fill-opacity="1" stroke="#000000" stroke-opacity="1" stroke-width="3.84"/>
<circle clip-path="url(#clip441)" cx="1346.22" cy="1305.45" r="14.4" fill="#4682b4" fill-rule="evenodd" fill-opacity="1" stroke="#000000" stroke-opacity="1" stroke-width="3.84"/>
<circle clip-path="url(#clip441)" cx="1440.58" cy="1244.49" r="14.4" fill="#4682b4" fill-rule="evenodd" fill-opacity="1" stroke="#000000" stroke-opacity="1" stroke-width="3.84"/>
<circle clip-path="url(#clip441)" cx="1534.93" cy="1179.17" r="14.4" fill="#4682b4" fill-rule="evenodd" fill-opacity="1" stroke="#000000" stroke-opacity="1" stroke-width="3.84"/>
<circle clip-path="url(#clip441)" cx="1629.29" cy="1109.49" r="14.4" fill="#4682b4" fill-rule="evenodd" fill-opacity="1" stroke="#000000" stroke-opacity="1" stroke-width="3.84"/>
<circle clip-path="url(#clip441)" cx="1723.64" cy="1035.46" r="14.4" fill="#4682b4" fill-rule="evenodd" fill-opacity="1" stroke="#000000" stroke-opacity="1" stroke-width="3.84"/>
<circle clip-path="url(#clip441)" cx="1817.99" cy="957.082" r="14.4" fill="#4682b4" fill-rule="evenodd" fill-opacity="1" stroke="#000000" stroke-opacity="1" stroke-width="3.84"/>
<circle clip-path="url(#clip441)" cx="1912.35" cy="874.345" r="14.4" fill="#4682b4" fill-rule="evenodd" fill-opacity="1" stroke="#000000" stroke-opacity="1" stroke-width="3.84"/>
<circle clip-path="url(#clip441)" cx="2006.7" cy="787.253" r="14.4" fill="#4682b4" fill-rule="evenodd" fill-opacity="1" stroke="#000000" stroke-opacity="1" stroke-width="3.84"/>
<circle clip-path="url(#clip441)" cx="2101.05" cy="695.806" r="14.4" fill="#4682b4" fill-rule="evenodd" fill-opacity="1" stroke="#000000" stroke-opacity="1" stroke-width="3.84"/>
<circle clip-path="url(#clip441)" cx="2195.41" cy="600.005" r="14.4" fill="#4682b4" fill-rule="evenodd" fill-opacity="1" stroke="#000000" stroke-opacity="1" stroke-width="3.84"/>
<circle clip-path="url(#clip441)" cx="2289.76" cy="499.849" r="14.4" fill="#4682b4" fill-rule="evenodd" fill-opacity="1" stroke="#000000" stroke-opacity="1" stroke-width="3.84"/>
<circle clip-path="url(#clip441)" cx="2384.11" cy="395.339" r="14.4" fill="#4682b4" fill-rule="evenodd" fill-opacity="1" stroke="#000000" stroke-opacity="1" stroke-width="3.84"/>
<circle clip-path="url(#clip441)" cx="2478.47" cy="286.474" r="14.4" fill="#4682b4" fill-rule="evenodd" fill-opacity="1" stroke="#000000" stroke-opacity="1" stroke-width="3.84"/>
<circle clip-path="url(#clip441)" cx="2572.82" cy="173.254" r="14.4" fill="#4682b4" fill-rule="evenodd" fill-opacity="1" stroke="#000000" stroke-opacity="1" stroke-width="3.84"/>
<circle clip-path="url(#clip441)" cx="1251.87" cy="1362.06" r="28.8" fill="#ff8c00" fill-rule="evenodd" fill-opacity="1" stroke="#000000" stroke-opacity="1" stroke-width="3.84"/>
<circle clip-path="url(#clip441)" cx="1534.93" cy="1179.17" r="28.8" fill="#dc143c" fill-rule="evenodd" fill-opacity="1" stroke="#000000" stroke-opacity="1" stroke-width="3.84"/>
<circle clip-path="url(#clip441)" cx="685.749" cy="1610.27" r="28.8" fill="#228b22" fill-rule="evenodd" fill-opacity="1" stroke="#000000" stroke-opacity="1" stroke-width="3.84"/>
<path clip-path="url(#clip440)" d="M1114.68 1293.66 L1114.68 1298.22 Q1112.02 1296.95 1109.66 1296.32 Q1107.3 1295.7 1105.1 1295.7 Q1101.28 1295.7 1099.2 1297.18 Q1097.14 1298.66 1097.14 1301.39 Q1097.14 1303.68 1098.5 1304.86 Q1099.89 1306.02 1103.73 1306.74 L1106.56 1307.32 Q1111.79 1308.31 1114.27 1310.83 Q1116.77 1313.33 1116.77 1317.55 Q1116.77 1322.57 1113.39 1325.16 Q1110.03 1327.76 1103.53 1327.76 Q1101.07 1327.76 1098.3 1327.2 Q1095.54 1326.64 1092.58 1325.56 L1092.58 1320.74 Q1095.42 1322.34 1098.16 1323.15 Q1100.89 1323.96 1103.53 1323.96 Q1107.53 1323.96 1109.71 1322.39 Q1111.88 1320.81 1111.88 1317.89 Q1111.88 1315.35 1110.31 1313.91 Q1108.76 1312.48 1105.19 1311.76 L1102.35 1311.21 Q1097.11 1310.16 1094.78 1307.94 Q1092.44 1305.72 1092.44 1301.76 Q1092.44 1297.18 1095.66 1294.54 Q1098.9 1291.9 1104.57 1291.9 Q1107 1291.9 1109.52 1292.34 Q1112.04 1292.78 1114.68 1293.66 Z" fill="#ff8c00" fill-rule="nonzero" fill-opacity="1" /><path clip-path="url(#clip440)" d="M1128.09 1293.8 L1128.09 1301.16 L1136.86 1301.16 L1136.86 1304.47 L1128.09 1304.47 L1128.09 1318.54 Q1128.09 1321.71 1128.94 1322.62 Q1129.82 1323.52 1132.48 1323.52 L1136.86 1323.52 L1136.86 1327.08 L1132.48 1327.08 Q1127.55 1327.08 1125.68 1325.26 Q1123.8 1323.4 1123.8 1318.54 L1123.8 1304.47 L1120.68 1304.47 L1120.68 1301.16 L1123.8 1301.16 L1123.8 1293.8 L1128.09 1293.8 Z" fill="#ff8c00" fill-rule="nonzero" fill-opacity="1" /><path clip-path="url(#clip440)" d="M1157.48 1305.14 Q1156.77 1304.72 1155.91 1304.54 Q1155.08 1304.33 1154.06 1304.33 Q1150.45 1304.33 1148.5 1306.69 Q1146.58 1309.03 1146.58 1313.43 L1146.58 1327.08 L1142.3 1327.08 L1142.3 1301.16 L1146.58 1301.16 L1146.58 1305.19 Q1147.92 1302.83 1150.08 1301.69 Q1152.23 1300.53 1155.31 1300.53 Q1155.75 1300.53 1156.28 1300.6 Q1156.81 1300.65 1157.46 1300.77 L1157.48 1305.14 Z" fill="#ff8c00" fill-rule="nonzero" fill-opacity="1" /><path clip-path="url(#clip440)" d="M1161.51 1316.85 L1161.51 1301.16 L1165.77 1301.16 L1165.77 1316.69 Q1165.77 1320.37 1167.21 1322.22 Q1168.64 1324.05 1171.51 1324.05 Q1174.96 1324.05 1176.95 1321.85 Q1178.97 1319.65 1178.97 1315.86 L1178.97 1301.16 L1183.23 1301.16 L1183.23 1327.08 L1178.97 1327.08 L1178.97 1323.1 Q1177.41 1325.46 1175.35 1326.62 Q1173.32 1327.76 1170.61 1327.76 Q1166.14 1327.76 1163.83 1324.98 Q1161.51 1322.2 1161.51 1316.85 M1172.23 1300.53 L1172.23 1300.53 Z" fill="#ff8c00" fill-rule="nonzero" fill-opacity="1" /><path clip-path="url(#clip440)" d="M1210.66 1302.15 L1210.66 1306.14 Q1208.85 1305.14 1207.02 1304.65 Q1205.22 1304.15 1203.36 1304.15 Q1199.22 1304.15 1196.93 1306.78 Q1194.64 1309.4 1194.64 1314.15 Q1194.64 1318.89 1196.93 1321.53 Q1199.22 1324.14 1203.36 1324.14 Q1205.22 1324.14 1207.02 1323.66 Q1208.85 1323.15 1210.66 1322.15 L1210.66 1326.09 Q1208.87 1326.92 1206.95 1327.34 Q1205.05 1327.76 1202.9 1327.76 Q1197.04 1327.76 1193.6 1324.08 Q1190.15 1320.39 1190.15 1314.15 Q1190.15 1307.8 1193.62 1304.17 Q1197.11 1300.53 1203.18 1300.53 Q1205.15 1300.53 1207.02 1300.95 Q1208.9 1301.34 1210.66 1302.15 Z" fill="#ff8c00" fill-rule="nonzero" fill-opacity="1" /><path clip-path="url(#clip440)" d="M1222.28 1293.8 L1222.28 1301.16 L1231.05 1301.16 L1231.05 1304.47 L1222.28 1304.47 L1222.28 1318.54 Q1222.28 1321.71 1223.13 1322.62 Q1224.01 1323.52 1226.67 1323.52 L1231.05 1323.52 L1231.05 1327.08 L1226.67 1327.08 Q1221.74 1327.08 1219.87 1325.26 Q1217.99 1323.4 1217.99 1318.54 L1217.99 1304.47 L1214.87 1304.47 L1214.87 1301.16 L1217.99 1301.16 L1217.99 1293.8 L1222.28 1293.8 Z" fill="#ff8c00" fill-rule="nonzero" fill-opacity="1" /><path clip-path="url(#clip440)" d="M1236.21 1316.85 L1236.21 1301.16 L1240.47 1301.16 L1240.47 1316.69 Q1240.47 1320.37 1241.91 1322.22 Q1243.34 1324.05 1246.21 1324.05 Q1249.66 1324.05 1251.65 1321.85 Q1253.66 1319.65 1253.66 1315.86 L1253.66 1301.16 L1257.92 1301.16 L1257.92 1327.08 L1253.66 1327.08 L1253.66 1323.1 Q1252.11 1325.46 1250.05 1326.62 Q1248.02 1327.76 1245.31 1327.76 Q1240.84 1327.76 1238.53 1324.98 Q1236.21 1322.2 1236.21 1316.85 M1246.93 1300.53 L1246.93 1300.53 Z" fill="#ff8c00" fill-rule="nonzero" fill-opacity="1" /><path clip-path="url(#clip440)" d="M1281.72 1305.14 Q1281 1304.72 1280.15 1304.54 Q1279.31 1304.33 1278.29 1304.33 Q1274.68 1304.33 1272.74 1306.69 Q1270.82 1309.03 1270.82 1313.43 L1270.82 1327.08 L1266.53 1327.08 L1266.53 1301.16 L1270.82 1301.16 L1270.82 1305.19 Q1272.16 1302.83 1274.31 1301.69 Q1276.47 1300.53 1279.54 1300.53 Q1279.98 1300.53 1280.52 1300.6 Q1281.05 1300.65 1281.7 1300.77 L1281.72 1305.14 Z" fill="#ff8c00" fill-rule="nonzero" fill-opacity="1" /><path clip-path="url(#clip440)" d="M1307.32 1313.06 L1307.32 1315.14 L1287.74 1315.14 Q1288.02 1319.54 1290.38 1321.85 Q1292.76 1324.14 1297 1324.14 Q1299.45 1324.14 1301.74 1323.54 Q1304.06 1322.94 1306.33 1321.74 L1306.33 1325.77 Q1304.03 1326.74 1301.63 1327.25 Q1299.22 1327.76 1296.74 1327.76 Q1290.54 1327.76 1286.91 1324.14 Q1283.29 1320.53 1283.29 1314.38 Q1283.29 1308.01 1286.72 1304.28 Q1290.17 1300.53 1296 1300.53 Q1301.23 1300.53 1304.27 1303.91 Q1307.32 1307.27 1307.32 1313.06 M1303.06 1311.81 Q1303.02 1308.31 1301.09 1306.23 Q1299.2 1304.15 1296.05 1304.15 Q1292.48 1304.15 1290.33 1306.16 Q1288.2 1308.17 1287.88 1311.83 L1303.06 1311.81 Z" fill="#ff8c00" fill-rule="nonzero" fill-opacity="1" /><path clip-path="url(#clip440)" d="M1330.84 1301.92 L1330.84 1305.95 Q1329.03 1305.02 1327.09 1304.56 Q1325.15 1304.1 1323.06 1304.1 Q1319.89 1304.1 1318.29 1305.07 Q1316.72 1306.04 1316.72 1307.99 Q1316.72 1309.47 1317.85 1310.33 Q1318.99 1311.16 1322.41 1311.92 L1323.87 1312.25 Q1328.41 1313.22 1330.31 1315 Q1332.23 1316.76 1332.23 1319.93 Q1332.23 1323.54 1329.36 1325.65 Q1326.51 1327.76 1321.51 1327.76 Q1319.43 1327.76 1317.16 1327.34 Q1314.91 1326.95 1312.41 1326.14 L1312.41 1321.74 Q1314.78 1322.96 1317.07 1323.59 Q1319.36 1324.19 1321.6 1324.19 Q1324.61 1324.19 1326.23 1323.17 Q1327.85 1322.13 1327.85 1320.26 Q1327.85 1318.52 1326.67 1317.59 Q1325.52 1316.67 1321.56 1315.81 L1320.08 1315.46 Q1316.12 1314.63 1314.36 1312.92 Q1312.6 1311.18 1312.6 1308.17 Q1312.6 1304.52 1315.19 1302.52 Q1317.78 1300.53 1322.55 1300.53 Q1324.91 1300.53 1327 1300.88 Q1329.08 1301.23 1330.84 1301.92 Z" fill="#ff8c00" fill-rule="nonzero" fill-opacity="1" /><path clip-path="url(#clip440)" d="M1358.94 1310.58 L1358.94 1323.24 L1366.44 1323.24 Q1370.21 1323.24 1372.02 1321.69 Q1373.85 1320.12 1373.85 1316.9 Q1373.85 1313.66 1372.02 1312.13 Q1370.21 1310.58 1366.44 1310.58 L1358.94 1310.58 M1358.94 1296.37 L1358.94 1306.78 L1365.86 1306.78 Q1369.29 1306.78 1370.96 1305.51 Q1372.65 1304.21 1372.65 1301.58 Q1372.65 1298.96 1370.96 1297.66 Q1369.29 1296.37 1365.86 1296.37 L1358.94 1296.37 M1354.27 1292.52 L1366.21 1292.52 Q1371.56 1292.52 1374.45 1294.75 Q1377.34 1296.97 1377.34 1301.07 Q1377.34 1304.24 1375.86 1306.11 Q1374.38 1307.99 1371.51 1308.45 Q1374.96 1309.19 1376.86 1311.55 Q1378.78 1313.89 1378.78 1317.41 Q1378.78 1322.04 1375.63 1324.56 Q1372.48 1327.08 1366.67 1327.08 L1354.27 1327.08 L1354.27 1292.52 Z" fill="#ff8c00" fill-rule="nonzero" fill-opacity="1" /><path clip-path="url(#clip440)" d="M1391.46 1310.58 L1391.46 1323.24 L1398.96 1323.24 Q1402.74 1323.24 1404.54 1321.69 Q1406.37 1320.12 1406.37 1316.9 Q1406.37 1313.66 1404.54 1312.13 Q1402.74 1310.58 1398.96 1310.58 L1391.46 1310.58 M1391.46 1296.37 L1391.46 1306.78 L1398.39 1306.78 Q1401.81 1306.78 1403.48 1305.51 Q1405.17 1304.21 1405.17 1301.58 Q1405.17 1298.96 1403.48 1297.66 Q1401.81 1296.37 1398.39 1296.37 L1391.46 1296.37 M1386.79 1292.52 L1398.73 1292.52 Q1404.08 1292.52 1406.97 1294.75 Q1409.87 1296.97 1409.87 1301.07 Q1409.87 1304.24 1408.39 1306.11 Q1406.9 1307.99 1404.03 1308.45 Q1407.48 1309.19 1409.38 1311.55 Q1411.3 1313.89 1411.3 1317.41 Q1411.3 1322.04 1408.15 1324.56 Q1405.01 1327.08 1399.2 1327.08 L1386.79 1327.08 L1386.79 1292.52 Z" fill="#ff8c00" fill-rule="nonzero" fill-opacity="1" /><path clip-path="url(#clip440)" d="M1458.46 1114.24 L1452.12 1131.44 L1464.83 1131.44 L1458.46 1114.24 M1455.82 1109.63 L1461.12 1109.63 L1474.3 1144.19 L1469.43 1144.19 L1466.29 1135.33 L1450.71 1135.33 L1447.56 1144.19 L1442.63 1144.19 L1455.82 1109.63 Z" fill="#dc143c" fill-rule="nonzero" fill-opacity="1" /><path clip-path="url(#clip440)" d="M1500.5 1130.16 L1500.5 1132.25 L1480.92 1132.25 Q1481.19 1136.65 1483.55 1138.96 Q1485.94 1141.25 1490.17 1141.25 Q1492.63 1141.25 1494.92 1140.65 Q1497.23 1140.05 1499.5 1138.84 L1499.5 1142.87 Q1497.21 1143.84 1494.8 1144.35 Q1492.4 1144.86 1489.92 1144.86 Q1483.72 1144.86 1480.08 1141.25 Q1476.47 1137.64 1476.47 1131.48 Q1476.47 1125.12 1479.9 1121.39 Q1483.35 1117.64 1489.18 1117.64 Q1494.41 1117.64 1497.44 1121.02 Q1500.5 1124.38 1500.5 1130.16 M1496.24 1128.91 Q1496.19 1125.42 1494.27 1123.34 Q1492.37 1121.25 1489.23 1121.25 Q1485.66 1121.25 1483.51 1123.27 Q1481.38 1125.28 1481.05 1128.94 L1496.24 1128.91 Z" fill="#dc143c" fill-rule="nonzero" fill-opacity="1" /><path clip-path="url(#clip440)" d="M1522.51 1122.25 Q1521.79 1121.83 1520.94 1121.65 Q1520.11 1121.44 1519.09 1121.44 Q1515.48 1121.44 1513.53 1123.8 Q1511.61 1126.14 1511.61 1130.53 L1511.61 1144.19 L1507.33 1144.19 L1507.33 1118.27 L1511.61 1118.27 L1511.61 1122.29 Q1512.95 1119.93 1515.11 1118.8 Q1517.26 1117.64 1520.34 1117.64 Q1520.78 1117.64 1521.31 1117.71 Q1521.84 1117.76 1522.49 1117.87 L1522.51 1122.25 Z" fill="#dc143c" fill-rule="nonzero" fill-opacity="1" /><path clip-path="url(#clip440)" d="M1535.98 1121.25 Q1532.56 1121.25 1530.57 1123.94 Q1528.58 1126.6 1528.58 1131.25 Q1528.58 1135.9 1530.54 1138.59 Q1532.54 1141.25 1535.98 1141.25 Q1539.39 1141.25 1541.38 1138.57 Q1543.37 1135.88 1543.37 1131.25 Q1543.37 1126.65 1541.38 1123.96 Q1539.39 1121.25 1535.98 1121.25 M1535.98 1117.64 Q1541.54 1117.64 1544.71 1121.25 Q1547.88 1124.86 1547.88 1131.25 Q1547.88 1137.62 1544.71 1141.25 Q1541.54 1144.86 1535.98 1144.86 Q1530.41 1144.86 1527.23 1141.25 Q1524.09 1137.62 1524.09 1131.25 Q1524.09 1124.86 1527.23 1121.25 Q1530.41 1117.64 1535.98 1117.64 Z" fill="#dc143c" fill-rule="nonzero" fill-opacity="1" /><path clip-path="url(#clip440)" d="M1574.87 1127.69 L1574.87 1140.35 L1582.37 1140.35 Q1586.15 1140.35 1587.95 1138.8 Q1589.78 1137.22 1589.78 1134.01 Q1589.78 1130.77 1587.95 1129.24 Q1586.15 1127.69 1582.37 1127.69 L1574.87 1127.69 M1574.87 1113.47 L1574.87 1123.89 L1581.79 1123.89 Q1585.22 1123.89 1586.89 1122.62 Q1588.58 1121.32 1588.58 1118.68 Q1588.58 1116.07 1586.89 1114.77 Q1585.22 1113.47 1581.79 1113.47 L1574.87 1113.47 M1570.2 1109.63 L1582.14 1109.63 Q1587.49 1109.63 1590.38 1111.85 Q1593.28 1114.08 1593.28 1118.17 Q1593.28 1121.34 1591.79 1123.22 Q1590.31 1125.09 1587.44 1125.56 Q1590.89 1126.3 1592.79 1128.66 Q1594.71 1131 1594.71 1134.52 Q1594.71 1139.15 1591.56 1141.67 Q1588.41 1144.19 1582.6 1144.19 L1570.2 1144.19 L1570.2 1109.63 Z" fill="#dc143c" fill-rule="nonzero" fill-opacity="1" /><path clip-path="url(#clip440)" d="M1607.4 1127.69 L1607.4 1140.35 L1614.9 1140.35 Q1618.67 1140.35 1620.47 1138.8 Q1622.3 1137.22 1622.3 1134.01 Q1622.3 1130.77 1620.47 1129.24 Q1618.67 1127.69 1614.9 1127.69 L1607.4 1127.69 M1607.4 1113.47 L1607.4 1123.89 L1614.32 1123.89 Q1617.74 1123.89 1619.41 1122.62 Q1621.1 1121.32 1621.1 1118.68 Q1621.1 1116.07 1619.41 1114.77 Q1617.74 1113.47 1614.32 1113.47 L1607.4 1113.47 M1602.72 1109.63 L1614.66 1109.63 Q1620.01 1109.63 1622.91 1111.85 Q1625.8 1114.08 1625.8 1118.17 Q1625.8 1121.34 1624.32 1123.22 Q1622.84 1125.09 1619.97 1125.56 Q1623.41 1126.3 1625.31 1128.66 Q1627.23 1131 1627.23 1134.52 Q1627.23 1139.15 1624.09 1141.67 Q1620.94 1144.19 1615.13 1144.19 L1602.72 1144.19 L1602.72 1109.63 Z" fill="#dc143c" fill-rule="nonzero" fill-opacity="1" /><path clip-path="url(#clip440)" d="M582.705 1544.58 L582.705 1557.57 L588.585 1557.57 Q591.849 1557.57 593.631 1555.88 Q595.414 1554.19 595.414 1551.06 Q595.414 1547.96 593.631 1546.27 Q591.849 1544.58 588.585 1544.58 L582.705 1544.58 M578.03 1540.74 L588.585 1540.74 Q594.395 1540.74 597.358 1543.38 Q600.344 1545.99 600.344 1551.06 Q600.344 1556.18 597.358 1558.79 Q594.395 1561.41 588.585 1561.41 L582.705 1561.41 L582.705 1575.3 L578.03 1575.3 L578.03 1540.74 Z" fill="#228b22" fill-rule="nonzero" fill-opacity="1" /><path clip-path="url(#clip440)" d="M614.789 1552.36 Q611.363 1552.36 609.372 1555.04 Q607.381 1557.7 607.381 1562.36 Q607.381 1567.01 609.349 1569.7 Q611.34 1572.36 614.789 1572.36 Q618.191 1572.36 620.182 1569.67 Q622.173 1566.99 622.173 1562.36 Q622.173 1557.75 620.182 1555.07 Q618.191 1552.36 614.789 1552.36 M614.789 1548.75 Q620.344 1548.75 623.515 1552.36 Q626.687 1555.97 626.687 1562.36 Q626.687 1568.72 623.515 1572.36 Q620.344 1575.97 614.789 1575.97 Q609.21 1575.97 606.039 1572.36 Q602.89 1568.72 602.89 1562.36 Q602.89 1555.97 606.039 1552.36 Q609.21 1548.75 614.789 1548.75 Z" fill="#228b22" fill-rule="nonzero" fill-opacity="1" /><path clip-path="url(#clip440)" d="M631.27 1549.37 L635.529 1549.37 L640.853 1569.6 L646.154 1549.37 L651.177 1549.37 L656.501 1569.6 L661.802 1549.37 L666.061 1549.37 L659.279 1575.3 L654.256 1575.3 L648.677 1554.05 L643.075 1575.3 L638.052 1575.3 L631.27 1549.37 Z" fill="#228b22" fill-rule="nonzero" fill-opacity="1" /><path clip-path="url(#clip440)" d="M694.696 1561.27 L694.696 1563.35 L675.112 1563.35 Q675.39 1567.75 677.751 1570.07 Q680.135 1572.36 684.372 1572.36 Q686.825 1572.36 689.117 1571.76 Q691.432 1571.15 693.7 1569.95 L693.7 1573.98 Q691.409 1574.95 689.001 1575.46 Q686.594 1575.97 684.117 1575.97 Q677.913 1575.97 674.279 1572.36 Q670.668 1568.75 670.668 1562.59 Q670.668 1556.22 674.094 1552.5 Q677.543 1548.75 683.376 1548.75 Q688.608 1548.75 691.64 1552.13 Q694.696 1555.48 694.696 1561.27 M690.436 1560.02 Q690.39 1556.52 688.469 1554.44 Q686.571 1552.36 683.422 1552.36 Q679.858 1552.36 677.705 1554.37 Q675.575 1556.39 675.251 1560.04 L690.436 1560.02 Z" fill="#228b22" fill-rule="nonzero" fill-opacity="1" /><path clip-path="url(#clip440)" d="M716.709 1553.35 Q715.992 1552.94 715.135 1552.75 Q714.302 1552.54 713.283 1552.54 Q709.672 1552.54 707.728 1554.9 Q705.807 1557.24 705.807 1561.64 L705.807 1575.3 L701.524 1575.3 L701.524 1549.37 L705.807 1549.37 L705.807 1553.4 Q707.149 1551.04 709.302 1549.9 Q711.455 1548.75 714.533 1548.75 Q714.973 1548.75 715.506 1548.82 Q716.038 1548.86 716.686 1548.98 L716.709 1553.35 Z" fill="#228b22" fill-rule="nonzero" fill-opacity="1" /><path clip-path="url(#clip440)" d="M741.107 1558.79 L741.107 1571.45 L748.607 1571.45 Q752.38 1571.45 754.186 1569.9 Q756.015 1568.33 756.015 1565.11 Q756.015 1561.87 754.186 1560.34 Q752.38 1558.79 748.607 1558.79 L741.107 1558.79 M741.107 1544.58 L741.107 1555 L748.029 1555 Q751.455 1555 753.121 1553.72 Q754.811 1552.43 754.811 1549.79 Q754.811 1547.17 753.121 1545.88 Q751.455 1544.58 748.029 1544.58 L741.107 1544.58 M736.431 1540.74 L748.376 1540.74 Q753.723 1540.74 756.617 1542.96 Q759.51 1545.18 759.51 1549.28 Q759.51 1552.45 758.029 1554.32 Q756.547 1556.2 753.677 1556.66 Q757.126 1557.4 759.024 1559.76 Q760.945 1562.1 760.945 1565.62 Q760.945 1570.25 757.797 1572.77 Q754.649 1575.3 748.839 1575.3 L736.431 1575.3 L736.431 1540.74 Z" fill="#228b22" fill-rule="nonzero" fill-opacity="1" /><path clip-path="url(#clip440)" d="M773.63 1558.79 L773.63 1571.45 L781.13 1571.45 Q784.903 1571.45 786.709 1569.9 Q788.538 1568.33 788.538 1565.11 Q788.538 1561.87 786.709 1560.34 Q784.903 1558.79 781.13 1558.79 L773.63 1558.79 M773.63 1544.58 L773.63 1555 L780.552 1555 Q783.977 1555 785.644 1553.72 Q787.334 1552.43 787.334 1549.79 Q787.334 1547.17 785.644 1545.88 Q783.977 1544.58 780.552 1544.58 L773.63 1544.58 M768.954 1540.74 L780.899 1540.74 Q786.246 1540.74 789.139 1542.96 Q792.033 1545.18 792.033 1549.28 Q792.033 1552.45 790.552 1554.32 Q789.07 1556.2 786.2 1556.66 Q789.649 1557.4 791.547 1559.76 Q793.468 1562.1 793.468 1565.62 Q793.468 1570.25 790.32 1572.77 Q787.172 1575.3 781.362 1575.3 L768.954 1575.3 L768.954 1540.74 Z" fill="#228b22" fill-rule="nonzero" fill-opacity="1" /></svg>
